<?xml version="1.0" encoding="UTF-8"?>
<svg width="1102px" height="1600px" viewBox="0 0 1102 1600" version="1.1" xmlns="http://www.w3.org/2000/svg" xmlns:xlink="http://www.w3.org/1999/xlink">
    <title>Tokyo</title>
    <g id="Page-1" stroke="none" stroke-width="1" fill="none" fill-rule="evenodd">
        <g id="Tokyo" transform="translate(1, 0)">
            <polygon id="Background" fill="#FCFCFC" fill-rule="nonzero" points="0 7.07058966e-14 0 1600 1100 1600 1100 0"></polygon>
            <g id="Borders">
                <g id="Map" fill="#EEEEEE" fill-rule="nonzero" stroke="#999999" stroke-width="0.5">
                    <polygon id="Shizuoka" points="63.8101093 1049.30293 63.9004344 1049.30471 70.00498 1049.30471 88.3129905 1061.38219 87.9495232 1086.15738 87.9495232 1096.40487 89.9832758 1103.6791 93.3736647 1113.95817 98.7425626 1131.93896 101.93848 1142.69874 101.93848 1162.62631 98.7425626 1171.84683 94.2540949 1181.4999 79.0653276 1199.77195 73.0078494 1213.98587 71.3818535 1237.12718 76.615403 1266.73547 87.1261858 1292.59188 105.724109 1322.12947 115.400092 1334.90966 122.918585 1340.77301 131.500391 1347.93904 136.890133 1349.76284 136.810001 1350 134.451075 1350 2.94183224e-15 1350 2.94183224e-15 1061.38219 1.98309753 1061.0646"></polygon>
                    <polygon id="Saitama" points="0.309217606 450 0.309217606 519.571879 8.96705141 510.914045 23.8090522 515.861379 28.7563858 513.387712 39.8878864 508.440378 38.651053 502.256211 41.1247198 493.598377 62.1508876 479.99321 73.2823882 473.809043 79.4665552 478.756377 94.308556 475.045876 102.96639 460.203876 110.38739 457.730209 151.202892 487.41421 161.09756 489.887877 170.992227 486.177377 188.307894 494.835211 232.833897 499.782544 243.965397 507.203545 247.675898 514.624545 248.912731 514.624545 271.175732 524.519212 284.7809 525.756046 288.4914 519.571879 293.438733 519.571879 311.991234 530.703379 319.412235 525.756046 321.885902 530.703379 339.201569 531.940213 354.04357 528.229713 358.990904 526.992879 362.701404 531.940213 367.648737 529.466546 371.359238 533.177046 378.780238 533.177046 381.253905 548.019047 391.148572 544.308547 391.148572 551.729547 391.148572 556.676881 398.569572 577.703049 404.753739 581.413549 420.832574 577.703049 424.543074 581.413549 443.095575 583.887216 440.621908 590.071383 445.569242 597.492383 443.095575 598.729216 449.279742 597.492383 452.990242 603.67655 451.753409 607.38705 450.516575 608.623884 451.753409 611.09755 456.700742 614.808051 462.884909 612.334384 462.884909 616.044884 475.253243 609.860717 490.095244 613.571217 507.410912 608.623884 509.884578 612.334384 540.805413 602.439717 549.463247 596.25555 555.647414 597.492383 561.831581 595.018716 563.068415 598.729216 579.147249 587.597716 586.568249 586.360882 605.12075 565.334715 610.068084 570.282048 601.41025 583.887216 607.594417 587.597716 606.357584 597.492383 586.568249 606.150217 581.620916 613.571217 610.068084 603.67655 607.594417 625.939551 618.725918 622.229051 624.910085 618.518551 632.331085 616.044884 632.331085 613.571217 643.462586 607.38705 649.646753 598.729216 654.594086 598.729216 657.067753 598.729216 657.067753 599.96605 664.488753 603.67655 658.304586 609.860717 674.383421 607.38705 676.857087 612.334384 681.804421 611.09755 683.041254 597.492383 683.041254 596.25555 695.409588 583.887216 699.120089 576.466215 704.067422 576.466215 715.198923 572.755715 751.067091 575.229382 752.303925 575.229382 760.961759 582.650382 774.566926 583.887216 778.277426 587.597716 790.64576 587.597716 790.64576 596.25555 799.303594 588.834549 806.724594 588.834549 811.671928 580.176715 801.777261 562.861048 806.724594 557.913714 819.092928 552.966381 831.461262 565.334715 847.540097 566.571548 863.618931 562.861048 868.566264 559.150548 868.566264 555.440047 872.276765 559.150548 868.566264 571.518882 873.513598 580.176715 884.645099 571.518882 893.302932 576.466215 901.960766 583.887216 904.434433 578.939882 919.276434 576.466215 921.750101 580.176715 916.802767 587.597716 921.750101 595.018716 937.828935 592.545049 932.881601 578.939882 935.355268 551.729547 932.881601 538.12438 942.776268 494.835211 934.118435 465.151209 924.030512 450 922.986934 250 0.309217606 250"></polygon>
                    <polygon id="Yamanashi" points="39.8742441 508.448752 28.7427435 513.396085 23.7954099 515.869752 8.95340913 510.922418 0.295575334 519.580252 0.295575334 932.682608 0 1061.72524 7.65733145 1036.11846 33.1729702 992.683181 44.8215777 982.960322 61.4373792 969.082186 74.827529 962.176361 88.3129905 958.984583 124.635983 932.682608 132.636749 924.024774 135.110416 911.65644 153.662917 911.65644 163.557584 910.419607 172.215418 909.182773 187.057419 894.340772 199.425753 878.261938 198.188919 864.656771 214.267754 848.577937 214.267754 842.39377 213.03092 828.788602 206.846753 821.367602 214.267754 812.709768 216.74142 802.815101 217.978254 796.630934 213.03092 791.6836 219.215087 787.9731 209.32042 778.078433 213.03092 758.289098 203.136253 744.683931 204.373086 740.973431 210.557253 731.078764 216.74142 722.42093 193.241586 701.394762 179.636418 701.394762 170.978585 696.447428 159.847084 693.973762 117.794748 668.00026 105.426414 646.974092 104.189581 644.500426 102.952748 642.026759 98.0054139 630.895258 85.6370799 624.711091 76.9792461 608.632257 79.4529129 593.790256 69.5582457 582.658756 64.6109121 564.106255 64.6109121 536.89592 57.1899117 538.132753 48.5320779 530.711753 43.5847443 522.053919 44.8215777 514.632919"></polygon>
                    <path d="M216.74142,722.42093 L210.557253,731.078764 L204.373086,740.973431 L203.136253,744.683931 L213.03092,758.289098 L209.32042,778.078433 L219.215087,787.9731 L213.03092,791.6836 L217.978254,796.630934 L216.74142,802.815101 L214.267754,812.709768 L206.846753,821.367602 L213.03092,828.788602 L214.267754,842.39377 L214.267754,848.577937 L198.188919,864.656771 L199.425753,878.261938 L187.057419,894.340772 L172.215418,909.182773 L163.557584,910.419607 L153.662917,911.65644 L135.110416,911.65644 L132.636749,924.024774 L124.635983,932.682608 L88.3129905,958.950056 C80.1594621,960.461459 73.9566701,962.268386 69.7046144,964.370835 C65.4525587,966.473283 59.2025221,970.823717 50.9545046,977.422135 L33.1729702,992.683181 L7.65733145,1036.11846 L0.295575334,1061.38219 L69.7046144,1049.00566 L88.3129905,1061.38219 L88.3129905,1096.64473 L101.93848,1142.69874 L101.93848,1162.62631 L95.9497536,1178.68148 L79.1142313,1197.80958 L73.3626907,1214.14097 L69.7046144,1242.34226 L79.1142313,1275.25421 L101.93848,1323.28705 L132.024491,1348.3484 L136.81,1350 L199.425753,1350 L227.285683,1350 L257.600104,1344.68851 L241.406823,1288.58172 L261.267414,1242.34226 L294.661925,1197.80958 L353,1162.62631 L413.397931,1142.69874 L505.333132,1136.04033 L551.923272,1137.13554 L572.94944,1142.69874 L585.317774,1152.35422 L598.807318,1159.07156 L619.001588,1154.90583 L630.492385,1154.90583 L645.312327,1162.62631 L652.764495,1178.68148 L704.417263,1257.71436 L704.417263,1269.55721 L710.079732,1276.84246 L708.318842,1293.31196 L701.580113,1317.3084 L706.178153,1338.50813 L735.560843,1342.62654 L748.404981,1335.47493 L758.47445,1333.06476 L766.738951,1327.97273 L763.631499,1317.3084 L753.527116,1304.95769 L748.404981,1296.55752 L756.346249,1275.25421 L775.508873,1257.71436 L814.131953,1233.84393 L810.421452,1229.31595 L808.689562,1221.56433 L805.305891,1216.97221 L823.639861,1197.80958 L804.235546,1187.27877 L772.079617,1175.83671 L758.47445,1154.90583 L749.61513,1159.07156 L745.02131,1162.62631 L735.560843,1149.05568 L729.760265,1127.68473 L728.68992,1108.28042 L735.97517,1074.54729 L718.435327,1041.78093 L721.680888,1023.96487 L735.560843,1016.95584 L749.61513,1019.64896 L762.423045,1019.64896 L766.738951,1003.45568 L762.423045,990.784182 L749.61513,980.642975 L729.760265,964.370835 L726.411122,944.793883 L777,932.682608 L791.250535,932.682608 L789.395285,930.208941 L791.868951,932.682608 L811.658286,932.682608 L811.658286,928.972108 L814.131953,932.682608 L826.500287,925.261607 L830.210787,924.024774 L830.210787,917.840607 L819.079286,915.36694 L816.605619,909.182773 L825.263453,904.23544 L827.73712,911.65644 L831.44762,907.94594 L841.342287,914.130107 L848.763288,896.814439 L810.421452,872.077771 L793.105785,870.840938 L786.921618,875.788271 L780.737451,872.077771 L772.079617,878.261938 L758.47445,880.735605 L753.527116,872.077771 L758.47445,862.183104 L737.448282,851.051603 L723.843114,821.367602 L712.711614,817.657102 L701.580113,808.999268 L678.080279,790.446767 L657.054111,785.499433 L650.869944,785.499433 L634.79111,779.315266 L624.896442,769.420599 L611.291275,764.473265 L590.265107,757.052265 L585.317774,763.236432 L587.79144,769.420599 L581.607273,771.894266 L579.133607,778.078433 L576.65994,779.315266 L560.581106,786.736267 L565.528439,800.341434 L555.633772,801.578267 L543.265438,791.6836 L542.028605,784.2626 L535.844438,783.025766 L532.133937,778.078433 L521.002437,785.499433 L517.291937,792.920434 L522.23927,801.578267 L533.370771,795.3941 L538.318104,805.288768 L550.686438,813.946601 L560.581106,820.130768 L560.581106,827.551769 L572.94944,834.972769 L571.712606,839.920103 L556.870605,852.288437 L549.449605,839.920103 L555.633772,826.314935 L551.923272,825.078102 L543.265438,827.551769 L537.081271,842.39377 L535.844438,849.81477 L546.975938,854.762104 L546.975938,873.314605 L553.160105,881.972438 L551.923272,885.682939 L553.160105,900.524939 L544.502271,910.419607 L546.975938,915.36694 L551.923272,919.07744 L534.607604,920.314274 L530.897104,902.998606 L523.476104,900.524939 L524.712937,893.103939 L521.002437,885.682939 L513.581436,874.551438 L502.449936,869.604104 L491.318435,853.52527 L486.371102,851.051603 L480.186935,834.972769 L474.002768,834.972769 L470.292267,825.078102 L462.871267,823.841269 L434.424099,807.762434 L413.397931,800.341434 L404.740097,804.051934 L398.55593,801.578267 L380.003429,801.578267 L367.635095,792.920434 L360.214095,791.6836 L346.608927,795.3941 L342.898427,804.051934 L335.477427,801.578267 L330.530093,805.288768 L319.398593,799.104601 L309.503925,790.446767 L308.267092,783.025766 L299.609258,775.604766 L302.082925,771.894266 L295.898758,763.236432 L294.661925,750.868098 L279.819924,744.683931 L266.214756,754.578598 L251.372756,747.157598 L250.135922,734.789264 L245.188589,727.368263 L237.767588,729.84193 L216.74142,722.42093 Z" id="Kanagawa"></path>
                    <polygon id="Chiba" points="1099.74933 903.412996 1091.63756 909.459287 1062.64424 949.816717 1053.45999 959.139075 1053.34865 959.204547 1040.30261 962.815147 997.980969 982.745859 984.711332 992.679996 978.002332 1010.479 989.434058 1041.67395 989.447712 1041.7883 986.754586 1065.40494 986.710985 1065.52 974.453811 1083.02532 974.349459 1083.11086 958.238129 1090.17153 939.663895 1093.51141 920.967557 1099.83984 892.99558 1117.26153 876.778742 1123.73356 855.797332 1126.671 855.929332 1134.393 905.085693 1152.30318 921.61005 1167.22111 951.683286 1225.60669 951.70962 1225.74773 950.742857 1234.79387 950.711757 1234.8906 942.045455 1250.16415 932.725659 1260.17142 908.210553 1278.75076 899.828332 1287.95 910.548023 1311.46462 914.732329 1329.43781 914.993332 1349.749 1099.74933 1349.75"></polygon>
                    <polygon id="Chiba" points="924.030512 450 934.118435 465.151209 942.776268 494.835211 932.881601 538.12438 935.355268 551.729547 932.881601 578.939882 937.828935 592.545049 937.828935 597.492383 926.697434 604.913383 924.223767 609.860717 934.118435 629.650051 935.355268 630.886885 945.249935 640.781552 941.539435 656.860386 945.249935 664.281387 960.091936 680.360221 962.565603 691.491721 951.434102 707.570556 931.644768 713.754723 930.407934 721.175723 931.644768 722.412556 932.881601 740.965057 929.171101 753.333391 919.276434 759.517558 922.986934 760.754392 918.0396 766.938559 919.276434 776.833226 934.118435 780.543726 937.828935 775.596393 942.776268 786.727893 982.354937 758.280725 961.328769 740.965057 962.565603 740.965057 973.697103 728.596723 989.775938 724.886223 987.302271 721.175723 972.46027 724.886223 976.17077 717.465223 978.644437 719.93889 988.539104 711.281056 1005.21697 702.499996 1025.08592 703.999996 1050.8783 707.570556 1082.81277 719.93889 1088.74266 719.93889 1096.75042 713.357718 1100 717.465223 1100 250 922.986934 250"></polygon>
                </g>
                <g id="Text" fill="#000000" font-family="Helvetica" font-size="12" font-weight="normal" opacity="0.25">
                    <text id="Saitama">
                        <tspan x="512.989258" y="480.999996">Saitama</tspan>
                    </text>
                    <text id="Yamanashi">
                        <tspan x="20.9824219" y="751.749996">Yamanashi</tspan>
                    </text>
                    <text id="Kanagawa">
                        <tspan x="326.643555" y="910.999996">Kanagawa</tspan>
                    </text>
                    <text id="Chiba">
                        <tspan x="950.323242" y="620.999996">Chiba</tspan>
                    </text>
                </g>
            </g>
            <g id="Municipalities">
                <g id="Map" fill-rule="nonzero">
                    <g id="Village">
                        <polygon id="Hinohara" stroke="#646464" stroke-width="0.5" fill="#B6F2DC" points="255.083247 702.631591 255.083247 687.789591 248.89908 682.842261 247.662246 645.737261 234.057079 627.184761 225.399245 624.711091 225.399245 621.000591 231.583412 617.290091 221.688745 608.632261 216.741411 613.579591 192.004743 597.500751 184.583743 601.211261 182.110076 606.158591 163.557575 606.158591 143.768241 619.763761 132.63674 622.237421 130.163073 638.316261 119.031573 637.079421 104.18957 644.500421 105.42641 646.974091 117.794739 668.000261 159.847075 693.973761 170.978576 696.447431 179.636409 701.394761 193.241577 701.394761 216.741411 722.420931 237.767579 729.841931 245.18858 727.368261"></polygon>
                    </g>
                    <g id="Town">
                        <polygon id="Mizuho" stroke="#646464" stroke-width="0.5" fill="#ECE3B4" points="417.10842 632.132091 415.87159 637.079421 419.58209 635.842591 425.76626 642.026761 423.29259 634.605761 428.23992 637.079421 440.60826 603.684921 445.55559 609.869091 451.73976 607.395421 452.97659 603.684921 449.26609 597.500751 443.08192 598.737591 445.55559 597.500751 440.60826 590.079751 443.08192 583.895591 424.52942 581.421921 420.81892 577.711421 404.74009 581.421921 401.02959 588.842921 393.60859 586.369251 399.79275 596.263921 396.08225 599.974421 405.97692 606.158591"></polygon>
                        <polygon id="Hinode" stroke="#646464" stroke-width="0.5" fill="#ECE3B4" points="335.47742 619.763761 328.05642 612.342761 311.97758 609.869091 302.082916 603.684921 292.188249 604.921761 274.872581 586.369251 260.03058 590.079751 246.425413 598.737591 262.504247 608.632261 263.741081 617.290091 274.872581 618.526921 293.425082 629.658421 295.898749 638.316261 307.03025 643.263591 323.10908 644.500421 341.66158 651.921421 360.21409 653.158261 361.45092 643.263591 356.50359 640.789921 355.26675 629.658421 340.42475 625.947921"></polygon>
                        <polygon id="Okutama" stroke="#646464" stroke-width="0.5" fill="#ECE3B4" points="221.688745 608.632261 222.925578 604.921761 222.925578 598.737591 232.820246 593.790251 231.583412 582.658751 258.793747 565.343091 261.267414 535.659081 250.135913 523.290752 247.662246 514.632918 243.951746 507.211918 232.820246 499.790917 188.294243 494.843584 170.978576 486.18575 163.557575 487.422583 159.847075 489.89625 151.189241 487.422583 110.373739 457.738582 102.95274 460.212248 94.2949 475.054249 79.4529 478.764749 73.26874 473.817416 62.13724 480.001583 41.11107 493.60675 38.6374 502.264584 39.87424 508.448751 44.82157 514.632918 43.58474 522.053919 48.53207 530.711752 57.1899 538.132751 64.6109 536.895921 64.6109 564.106251 69.55824 582.658751 79.4529 593.790251 76.97924 608.632261 85.63707 624.711091 98.0054 630.895261 102.95274 642.026761 104.18957 644.500421 119.031573 637.079421 130.163073 638.316261 132.63674 622.237421 143.768241 619.763761 163.557575 606.158591 182.110076 606.158591 184.583743 601.211261 192.004743 597.500751 216.741411 613.579591"></polygon>
                    </g>
                    <g id="City">
                        <polygon id="Musashino" stroke="#646464" stroke-width="0.5" fill="#F6BAD3" points="623.6596 687.789591 633.55427 692.736931 638.5016 689.026431 647.15943 697.684261 655.81727 684.079091 647.15943 676.658091 627.3701 665.526591 617.47543 665.526591 601.3966 676.658091 593.9756 675.421261 593.9756 670.473931 590.2651 670.473931 589.02826 675.421261 596.44927 679.131761 597.6861 691.500091 600.15977 695.210591 613.76493 696.447431 612.5281 682.842261"></polygon>
                        <polygon id="Tachikawa" stroke="#646464" stroke-width="0.5" fill="#F6BAD3" points="456.68709 700.157931 487.60793 710.052591 491.31843 703.868431 495.02893 706.342091 499.97626 701.394761 501.21309 693.973761 495.02893 687.789591 499.97626 686.552761 506.16043 681.605431 498.73943 672.947591 501.21309 671.710761 497.50259 670.473931 502.44993 668.000261 512.34459 676.658091 514.81826 664.289761 513.58143 663.052931 492.55526 655.631921 496.26576 655.631921 485.13426 651.921421 466.58176 650.684591 455.45026 638.316261 456.68709 643.263591 462.87126 651.921421 455.45026 649.447761 455.45026 651.921421 433.18726 644.500421 427.00309 648.210921 428.23992 660.579261 451.73976 660.579261 451.73976 665.526591 469.05542 676.658091"></polygon>
                        <polygon id="Hachioji" stroke="#646464" stroke-width="0.5" fill="#F6BAD3" points="309.503916 790.446771 319.39858 799.104601 330.53008 805.288771 335.47742 801.578271 342.89842 804.051931 346.60892 795.394101 355.26675 784.262601 363.92459 780.552101 370.10875 783.025761 370.10875 789.209931 383.71392 787.973101 391.13492 791.683601 404.74009 787.973101 412.16109 790.446771 412.16109 779.315261 417.10842 795.394101 423.29259 797.867771 431.95042 801.578271 438.13459 796.630931 457.92392 808.999271 459.16076 801.578271 465.34492 797.867771 475.23959 783.025761 485.13426 776.841601 499.97626 769.420601 485.13426 752.104931 469.05542 760.762761 449.26609 759.525931 450.50292 755.815431 440.60826 754.578601 430.71359 742.210261 430.71359 737.262931 444.31876 729.841931 448.02926 706.342091 451.73976 705.105261 448.02926 700.157931 414.63476 697.684261 410.92426 695.210591 405.97692 679.131761 407.21376 675.421261 404.74009 676.658091 394.84542 668.000261 391.13492 674.184431 384.95075 671.710761 381.24025 676.658091 380.00342 674.184431 372.58242 676.658091 351.55625 672.947591 346.60892 679.131761 334.24058 675.421261 328.05642 677.894931 298.372416 668.000261 287.240915 677.894931 281.056748 703.868431 255.083247 702.631591 245.18858 727.368261 250.135913 734.789261 251.372747 747.157601 266.214747 754.578601 279.819915 744.683931 294.661916 750.868101 295.898749 763.236431 302.082916 771.894261 299.609249 775.604761 308.267083 783.025761"></polygon>
                        <polygon id="Mitaka" stroke="#646464" stroke-width="0.5" fill="#F6BAD3" points="652.10677 711.289431 654.58043 711.289431 650.86993 705.105261 654.58043 702.631591 647.15943 697.684261 638.5016 689.026431 633.55427 692.736931 623.6596 687.789591 612.5281 682.842261 613.76493 696.447431 600.15977 695.210591 597.6861 691.500091 596.44927 703.868431 589.02826 701.394761 591.50193 708.815761 592.73877 712.526261 589.02826 713.763091 595.21243 727.368261 598.92293 726.131431 605.1071 732.315601 607.58077 728.605101 605.1071 724.894601 606.34393 712.526261 621.18593 710.052591 623.6596 712.526261 627.3701 731.078761 634.7911 732.315601 637.26477 737.262931 643.44893 731.078761 637.26477 721.184091 649.6331 726.131431 643.44893 721.184091 648.39627 719.947261 645.9226 711.289431"></polygon>
                        <polygon id="Ome" stroke="#646464" stroke-width="0.5" fill="#F6BAD3" points="246.425413 598.737591 260.03058 590.079751 274.872581 586.369251 292.188249 604.921761 302.082916 603.684921 311.97758 609.869091 328.05642 612.342761 335.47742 619.763761 365.16142 619.763761 372.58242 627.184761 368.87192 602.448091 375.05609 595.027091 380.00342 598.737591 387.42442 602.448091 396.08225 599.974421 399.79275 596.263921 393.60859 586.369251 401.02959 588.842921 404.74009 581.421921 398.55592 577.711421 391.13492 556.685251 391.13492 551.737921 391.13492 544.316921 381.24025 548.027421 378.76659 533.185419 371.34559 533.185419 367.63509 529.474919 362.68775 531.948586 358.97725 527.001252 354.02992 528.238086 339.18792 531.948586 321.87225 530.711752 319.39858 525.764419 311.97758 530.711752 293.425082 519.580252 288.477749 519.580252 284.767248 525.764419 271.162081 524.527585 248.89908 514.632918 247.662246 514.632918 250.135913 523.290752 261.267414 535.659081 258.793747 565.343091 231.583412 582.658751 232.820246 593.790251 222.925578 598.737591 222.925578 604.921761 229.109745 599.974421 232.820246 602.448091 232.820246 597.500751 239.004413 604.921761 242.714913 604.921761 242.714913 598.737591"></polygon>
                        <polygon id="Akishima" stroke="#646464" stroke-width="0.5" fill="#F6BAD3" points="448.02926 700.157931 456.68709 700.157931 469.05542 676.658091 451.73976 665.526591 451.73976 660.579261 428.23992 660.579261 425.76626 664.289761 414.63476 666.763431 413.39792 670.473931 407.21376 675.421261 405.97692 679.131761 410.92426 695.210591 414.63476 697.684261"></polygon>
                        <polygon id="Fuchu" stroke="#646464" stroke-width="0.5" fill="#F6BAD3" points="511.10776 739.736601 540.79176 749.631261 551.92326 745.920761 568.0021 749.631261 576.65993 747.157601 585.31776 753.341761 585.31776 744.683931 581.60726 742.210261 586.5546 732.315601 590.2651 722.420931 585.31776 711.289431 586.5546 705.105261 582.8441 700.157931 579.1336 703.868431 579.1336 706.342091 571.7126 705.105261 565.52843 708.815761 568.0021 705.105261 563.05476 707.578931 556.8706 701.394761 555.63376 695.210591 544.50226 702.631591 533.37076 703.868431 533.37076 700.157931 530.8971 690.263261 527.18659 698.921091 522.23926 703.868431 518.52876 721.184091 521.00243 723.657761 514.81826 721.184091 498.73943 724.894601"></polygon>
                        <polygon id="Chofu" stroke="#646464" stroke-width="0.5" fill="#F6BAD3" points="590.2651 757.052261 611.29127 764.473261 624.89643 769.420601 627.3701 752.104931 636.02793 747.157601 648.39627 753.341761 653.3436 753.341761 653.3436 747.157601 647.15943 732.315601 649.6331 729.841931 649.6331 726.131431 637.26477 721.184091 643.44893 731.078761 637.26477 737.262931 634.7911 732.315601 627.3701 731.078761 623.6596 712.526261 621.18593 710.052591 606.34393 712.526261 605.1071 724.894601 607.58077 728.605101 605.1071 732.315601 598.92293 726.131431 595.21243 727.368261 589.02826 713.763091 592.73877 712.526261 591.50193 708.815761 586.5546 705.105261 585.31776 711.289431 590.2651 722.420931 586.5546 732.315601 581.60726 742.210261 585.31776 744.683931 585.31776 753.341761"></polygon>
                        <polygon id="Machida" stroke="#646464" stroke-width="0.5" fill="#F6BAD3" points="560.5811 820.130771 550.68643 813.946601 538.3181 805.288771 533.37076 795.394101 522.23926 801.578271 517.29193 792.920431 514.81826 796.630931 508.63409 795.394101 503.68676 801.578271 497.50259 797.867771 492.55526 799.104601 486.37109 792.920431 465.34492 797.867771 459.16076 801.578271 457.92392 808.999271 438.13459 796.630931 431.95042 801.578271 423.29259 797.867771 417.10842 795.394101 412.16109 779.315261 412.16109 790.446771 404.74009 787.973101 391.13492 791.683601 383.71392 787.973101 370.10875 789.209931 370.10875 783.025761 363.92459 780.552101 355.26675 784.262601 346.60892 795.394101 360.21409 791.683601 367.63509 792.920431 380.00342 801.578271 398.55592 801.578271 404.74009 804.051931 413.39792 800.341431 434.42409 807.762431 462.87126 823.841271 470.29226 825.078101 474.00276 834.972771 480.18693 834.972771 486.37109 851.051601 491.31843 853.525271 502.44993 869.604101 513.58143 874.551441 521.00243 885.682941 524.71293 893.103941 523.47609 900.524941 530.8971 902.998601 534.6076 920.314271 551.92326 919.077441 546.97593 915.366941 544.50226 910.419611 553.1601 900.524941 551.92326 885.682941 553.1601 881.972441 546.97593 873.314601 546.97593 854.762101 535.84443 849.814771 537.08126 842.393771 543.26543 827.551771 551.92326 825.078101 555.63376 826.314931 549.4496 839.920101 556.8706 852.288441 571.7126 839.920101 572.94943 834.972771 560.5811 827.551771"></polygon>
                        <polygon id="Koganei" stroke="#646464" stroke-width="0.5" fill="#F6BAD3" points="586.5546 705.105261 591.50193 708.815761 589.02826 701.394761 596.44927 703.868431 597.6861 691.500091 596.44927 679.131761 589.02826 675.421261 590.2651 670.473931 587.79143 668.000261 574.18626 671.710761 572.94943 676.658091 561.81793 675.421261 561.81793 679.131761 551.92326 680.368591 550.68643 687.789591 558.10743 690.263261 555.63376 695.210591 556.8706 701.394761 563.05476 707.578931 568.0021 705.105261 565.52843 708.815761 571.7126 705.105261 579.1336 706.342091 579.1336 703.868431 582.8441 700.157931"></polygon>
                        <polygon id="Koidara" stroke="#646464" stroke-width="0.5" fill="#F6BAD3" points="514.81826 664.289761 539.55493 672.947591 539.55493 677.894931 543.26543 680.368591 546.97593 674.184431 551.92326 680.368591 561.81793 679.131761 561.81793 675.421261 572.94943 676.658091 574.18626 671.710761 587.79143 668.000261 581.60726 654.395091 584.08093 651.921421 585.31776 644.500421 582.8441 644.500421 579.1336 642.026761 577.89676 645.737261 577.89676 642.026761 577.89676 645.737261 572.94943 645.737261 571.7126 640.789921 569.23893 653.158261 569.23893 640.789921 564.2916 637.079421 556.8706 642.026761 555.63376 638.316261 551.92326 639.553091 553.1601 650.684591 545.7391 649.447761 544.50226 643.263591 533.37076 639.553091 519.76559 646.974091 509.87093 648.210921 496.26576 655.631921 492.55526 655.631921 513.58143 663.052931"></polygon>
                        <polygon id="Hino" stroke="#646464" stroke-width="0.5" fill="#F6BAD3" points="507.39726 748.394431 511.10776 739.736601 498.73943 724.894601 487.60793 710.052591 456.68709 700.157931 448.02926 700.157931 451.73976 705.105261 448.02926 706.342091 444.31876 729.841931 430.71359 737.262931 430.71359 742.210261 440.60826 754.578601 450.50292 755.815431 449.26609 759.525931 469.05542 760.762761 485.13426 752.104931 486.37109 749.631261 496.26576 755.815431 503.68676 747.157601"></polygon>
                        <polygon id="Higashimurayama" stroke="#646464" stroke-width="0.5" fill="#F6BAD3" points="570.47576 618.526921 563.05476 617.290091 566.76526 613.579591 563.05476 603.684921 561.81793 601.211261 563.05476 598.737591 561.81793 595.027091 555.63376 597.500751 549.4496 596.263921 540.79176 602.448091 509.87093 612.342761 508.63409 616.053261 514.81826 627.184761 519.76559 646.974091 533.37076 639.553091 544.50226 643.263591 545.7391 649.447761 553.1601 650.684591 551.92326 639.553091 560.5811 622.237421"></polygon>
                        <polygon id="Kokubunji" stroke="#646464" stroke-width="0.5" fill="#F6BAD3" points="527.18659 698.921091 530.8971 690.263261 533.37076 700.157931 533.37076 703.868431 544.50226 702.631591 555.63376 695.210591 558.10743 690.263261 550.68643 687.789591 551.92326 680.368591 546.97593 674.184431 543.26543 680.368591 539.55493 677.894931 539.55493 672.947591 514.81826 664.289761 512.34459 676.658091 502.44993 668.000261 497.50259 670.473931 501.21309 671.710761 498.73943 672.947591 506.16043 681.605431 499.97626 686.552761 517.29193 689.026431"></polygon>
                        <polygon id="Kunitachi" stroke="#646464" stroke-width="0.5" fill="#F6BAD3" points="527.18659 698.921091 517.29193 689.026431 499.97626 686.552761 495.02893 687.789591 501.21309 693.973761 499.97626 701.394761 495.02893 706.342091 491.31843 703.868431 487.60793 710.052591 498.73943 724.894601 514.81826 721.184091 521.00243 723.657761 518.52876 721.184091 522.23926 703.868431"></polygon>
                        <polygon id="Fussa" stroke="#646464" stroke-width="0.5" fill="#F6BAD3" points="413.39792 670.473931 414.63476 666.763431 425.76626 664.289761 428.23992 660.579261 427.00309 648.210921 433.18726 644.500421 428.23992 637.079421 423.29259 634.605761 425.76626 642.026761 419.58209 635.842591 415.87159 637.079421 417.10842 632.132091 399.79275 625.947921 389.89809 635.842591 394.84542 651.921421 403.50325 658.105591 404.74009 676.658091 407.21376 675.421261"></polygon>
                        <polygon id="Komae" stroke="#646464" stroke-width="0.5" fill="#F6BAD3" points="650.86993 785.499431 650.86993 780.552101 654.58043 775.604761 645.9226 759.525931 648.39627 753.341761 636.02793 747.157601 627.3701 752.104931 624.89643 769.420601 634.7911 779.315261"></polygon>
                        <polygon id="Higashiyamato" stroke="#646464" stroke-width="0.5" fill="#F6BAD3" points="466.58176 617.290091 478.95009 621.000591 477.71326 633.368921 481.42376 634.605761 485.13426 651.921421 496.26576 655.631921 509.87093 648.210921 519.76559 646.974091 514.81826 627.184761 508.63409 616.053261 509.87093 612.342761 507.39726 608.632261 490.08159 613.579591 475.23959 609.869091 462.87126 616.053261"></polygon>
                        <polygon id="Kiyose" stroke="#646464" stroke-width="0.5" fill="#F6BAD3" points="581.60726 613.579591 586.5546 606.158591 606.34393 597.500751 607.58077 587.606091 601.3966 583.895591 610.05443 570.290421 605.1071 565.343091 586.5546 586.369251 579.1336 587.606091 563.05476 598.737591 561.81793 601.211261 563.05476 603.684921 566.76526 613.579591 563.05476 617.290091 570.47576 618.526921"></polygon>
                        <polygon id="Higashikurume" stroke="#646464" stroke-width="0.5" fill="#F6BAD3" points="607.58077 625.947921 610.05443 603.684921 581.60726 613.579591 570.47576 618.526921 560.5811 622.237421 551.92326 639.553091 555.63376 638.316261 556.8706 642.026761 564.2916 637.079421 569.23893 640.789921 569.23893 653.158261 571.7126 640.789921 572.94943 645.737261 577.89676 645.737261 577.89676 642.026761 577.89676 645.737261 579.1336 642.026761 582.8441 644.500421 585.31776 644.500421 584.08093 651.921421 595.21243 643.263591 591.50193 639.553091 596.44927 638.316261"></polygon>
                        <polygon id="Musashimurayama" stroke="#646464" stroke-width="0.5" fill="#F6BAD3" points="456.68709 643.263591 455.45026 638.316261 466.58176 650.684591 485.13426 651.921421 481.42376 634.605761 477.71326 633.368921 478.95009 621.000591 466.58176 617.290091 462.87126 616.053261 462.87126 612.342761 456.68709 614.816421 451.73976 611.105921 450.50292 608.632261 451.73976 607.395421 445.55559 609.869091 440.60826 603.684921 428.23992 637.079421 433.18726 644.500421 455.45026 651.921421 455.45026 649.447761 462.87126 651.921421"></polygon>
                        <polygon id="Tama" stroke="#646464" stroke-width="0.5" fill="#F6BAD3" points="517.29193 792.920431 521.00243 785.499431 532.13393 778.078431 532.13393 771.894261 538.3181 768.183761 535.84443 754.578601 540.79176 749.631261 511.10776 739.736601 507.39726 748.394431 503.68676 747.157601 496.26576 755.815431 486.37109 749.631261 485.13426 752.104931 499.97626 769.420601 485.13426 776.841601 475.23959 783.025761 465.34492 797.867771 486.37109 792.920431 492.55526 799.104601 497.50259 797.867771 503.68676 801.578271 508.63409 795.394101 514.81826 796.630931"></polygon>
                        <polygon id="Inagi" stroke="#646464" stroke-width="0.5" fill="#F6BAD3" points="590.2651 757.052261 585.31776 753.341761 576.65993 747.157601 568.0021 749.631261 551.92326 745.920761 540.79176 749.631261 535.84443 754.578601 538.3181 768.183761 532.13393 771.894261 532.13393 778.078431 535.84443 783.025761 542.0286 784.262601 543.26543 791.683601 555.63376 801.578271 565.52843 800.341431 560.5811 786.736271 576.65993 779.315261 579.1336 778.078431 581.60726 771.894261 587.79143 769.420601 585.31776 763.236431"></polygon>
                        <polygon id="Hamura" stroke="#646464" stroke-width="0.5" fill="#F6BAD3" points="417.10842 632.132091 405.97692 606.158591 396.08225 599.974421 387.42442 602.448091 380.00342 598.737591 375.05609 595.027091 368.87192 602.448091 372.58242 627.184761 386.18759 630.895261 389.89809 635.842591 399.79275 625.947921"></polygon>
                        <polygon id="Akiruno" stroke="#646464" stroke-width="0.5" fill="#F6BAD3" points="389.899345 635.84184 386.188845 630.89451 372.583675 627.18401 365.162675 619.76301 335.478675 619.76301 340.426005 625.94717 355.268005 629.65767 356.504845 640.78917 361.452175 643.26284 360.215345 653.15751 341.662835 651.92067 323.110335 644.49967 307.031505 643.26284 295.900004 638.31551 293.426337 629.65767 274.873836 618.52617 263.742336 617.28934 262.505502 608.63151 246.426668 598.73684 242.716168 598.73684 242.716168 604.92101 239.005668 604.92101 232.821501 597.5 232.821501 602.44734 229.111 599.97367 222.926833 604.92101 221.69 608.63151 231.584667 617.28934 225.4005 620.99984 225.4005 624.71034 234.058334 627.18401 247.663501 645.73651 248.900335 682.84151 255.084502 687.78884 255.084502 702.63084 281.058003 703.86768 287.24217 677.89418 298.373671 667.99951 328.057675 677.89418 334.241835 675.42051 346.610175 679.13101 351.557505 672.94684 372.583675 676.65734 380.004675 674.18368 381.241505 676.65734 384.952005 671.71001 391.136175 674.18368 394.846675 667.99951 404.741345 676.65734 403.504505 658.10484 394.846675 651.92067"></polygon>
                        <polygon id="Nishitokyo" stroke="#646464" stroke-width="0.5" fill="#F6BAD3" points="587.79143 668.000261 590.2651 670.473931 593.9756 670.473931 593.9756 675.421261 601.3966 676.658091 617.47543 665.526591 627.3701 665.526591 631.0806 632.132091 624.89643 618.526921 618.71227 622.237421 607.58077 625.947921 596.44927 638.316261 591.50193 639.553091 595.21243 643.263591 584.08093 651.921421 581.60726 654.395091"></polygon>
                    </g>
                    <g id="Special-Ward">
                        <path d="M883.394614,686.552761 L894.526115,695.210594 L893.289281,739.736597 L898.236615,739.736597 L896.999781,757.052264 L906.894449,760.762765 L919.262783,759.525931 L929.15745,753.341764 L932.86795,740.97343 L931.631117,722.420929 L930.394283,721.184096 L931.631117,713.763095 L951.420451,707.578928 L962.551952,691.500094 L960.078285,680.368594 L945.236284,664.289759 L941.525784,656.868759 L945.236284,640.789925 L935.341617,630.895258 L934.104783,629.658424 L925.44695,630.895258 L930.394283,635.842591 L921.736449,645.737258 L918.025949,645.737258 L913.078616,675.42126 L905.657615,672.947593 L898.236615,676.658093 L889.578781,666.763426 L880.920947,671.71076 L887.105114,677.894927 L883.394614,686.552761 Z M896.999781,764.473265 L896.999781,760.762765 L904.420782,761.999598 L904.420782,765.710098 L905.657615,763.236431 L898.236615,759.525931 L896.999781,764.473265 Z M905.657615,765.710098 L908.131282,763.236431 L914.315449,765.710098 L913.078616,768.183765 L914.315449,765.710098 L909.368115,763.236431 L905.657615,765.710098 Z" id="Edogawa" stroke="#646464" stroke-width="0.49473336" fill="#DCB6F2"></path>
                        <polygon id="Adachi" stroke="#646464" stroke-width="0.49473336" fill="#DCB6F2" points="863.60528 619.763757 868.552613 619.763757 871.02628 624.711091 872.263113 617.29009 877.210447 622.237424 879.684114 614.816423 884.631447 616.053257 892.052448 608.632256 904.420782 612.342757 892.052448 587.606089 893.289281 576.474588 884.631447 571.527254 873.499947 580.185088 868.552613 571.527254 872.263113 559.15892 868.552613 555.44842 868.552613 559.15892 863.60528 562.869421 847.526445 566.579921 831.447611 565.343087 819.079277 552.974753 806.710943 557.922087 801.76361 562.869421 811.658277 580.185088 806.710943 588.842922 799.289943 588.842922 790.632109 596.263922 788.158442 606.15859 798.053109 612.342757 810.421443 608.632256 810.421443 613.57959 800.526776 621.00059 809.18461 625.947924 835.158111 627.184757 841.342278 630.895258 838.868612 635.842591 842.579112 642.026758 863.60528 644.500425 868.552613 639.553091 862.368446 625.947924"></polygon>
                        <polygon id="Nerima" stroke="#646464" stroke-width="0.49473336" fill="#DCB6F2" points="627.3701 665.526593 647.159435 676.658093 648.396268 666.763426 654.580435 669.237093 664.475102 659.342426 683.027603 655.631926 685.50127 649.447759 690.448604 649.447759 701.580104 660.579259 716.422105 660.579259 727.553606 650.684592 733.737773 654.395092 734.974606 651.921425 736.211439 644.500425 736.211439 639.553091 728.790439 638.316258 730.027272 622.237424 725.079939 611.105923 700.343271 607.395423 692.92227 609.86909 683.027603 597.500756 681.79077 611.105923 676.843436 612.342757 674.369769 607.395423 658.290935 609.86909 664.475102 603.684923 657.054102 599.974423 657.054102 598.737589 654.580435 598.737589 649.633101 598.737589 643.448934 607.395423 632.317434 613.57959 632.317434 616.053257 624.896433 618.526924 631.0806 632.132091"></polygon>
                        <polygon id="Itabashi" stroke="#646464" stroke-width="0.49473336" fill="#DCB6F2" points="775.790108 630.895258 769.605941 619.763757 760.948107 612.342757 757.237607 592.553422 751.05344 593.790256 744.869273 588.842922 751.05344 575.237755 715.185272 572.764088 704.053771 576.474588 699.106437 576.474588 695.395937 583.895588 683.027603 596.263922 683.027603 597.500756 692.92227 609.86909 700.343271 607.395423 725.079939 611.105923 730.027272 622.237424 728.790439 638.316258 736.211439 639.553091 736.211439 644.500425 747.34294 639.553091 753.527107 640.789925 758.474441 648.210925 764.658608 637.079425 773.316441 637.079425"></polygon>
                        <polygon id="Katsushika" stroke="#646464" stroke-width="0.49473336" fill="#DCB6F2" points="889.578781 666.763426 898.236615 676.658093 905.657615 672.947593 913.078616 675.42126 918.025949 645.737258 921.736449 645.737258 930.394283 635.842591 925.44695 630.895258 934.104783 629.658424 924.210116 609.86909 926.683783 604.921756 937.815284 597.500756 937.815284 592.553422 921.736449 595.027089 916.789116 587.606089 921.736449 580.185088 919.262783 576.474588 904.420782 578.948255 901.947115 583.895588 893.289281 576.474588 892.052448 587.606089 904.420782 612.342757 892.052448 608.632256 884.631447 616.053257 879.684114 614.816423 877.210447 622.237424 872.263113 617.29009 871.02628 624.711091 868.552613 619.763757 863.60528 619.763757 862.368446 625.947924 868.552613 639.553091"></polygon>
                        <polygon id="Arakawa" stroke="#646464" stroke-width="0.49473336" fill="#DCB6F2" points="814.131944 654.395092 830.210778 660.579259 841.342278 653.158259 858.657946 656.868759 863.60528 644.500425 842.579112 642.026758 838.868612 635.842591 841.342278 630.895258 835.158111 627.184757 809.18461 625.947924 803.000443 627.184757 801.76361 630.895258 819.079277 642.026758 821.552944 645.737258 816.60561 648.210925 812.89511 651.921425"></polygon>
                        <polygon id="Kita" stroke="#646464" stroke-width="0.49473336" fill="#DCB6F2" points="804.237276 649.447759 812.89511 651.921425 816.60561 648.210925 821.552944 645.737258 819.079277 642.026758 801.76361 630.895258 803.000443 627.184757 809.18461 625.947924 800.526776 621.00059 810.421443 613.57959 810.421443 608.632256 798.053109 612.342757 788.158442 606.15859 790.632109 596.263922 790.632109 587.606089 778.263775 587.606089 774.553275 583.895588 760.948107 582.658755 752.290274 575.237755 751.05344 575.237755 744.869273 588.842922 751.05344 593.790256 757.237607 592.553422 760.948107 612.342757 769.605941 619.763757 775.790108 630.895258 773.316441 637.079425 778.263775 643.263592 780.737442 638.316258 785.684775 637.079425 786.921609 642.026758 794.342609 640.789925"></polygon>
                        <polygon id="Toshima" stroke="#646464" stroke-width="0.49473336" fill="#DCB6F2" points="804.237276 649.447759 794.342609 640.789925 786.921609 642.026758 785.684775 637.079425 780.737442 638.316258 778.263775 643.263592 773.316441 637.079425 764.658608 637.079425 758.474441 648.210925 753.527107 640.789925 747.34294 639.553091 736.211439 644.500425 734.974606 651.921425 733.737773 654.395092 733.737773 655.631926 739.92194 664.289759 759.711274 663.052926 760.948107 674.184427 775.790108 675.42126 773.316441 674.184427 772.079608 669.237093 778.263775 666.763426 778.263775 659.342426 789.395276 660.579259 789.395276 655.631926 796.816276 648.210925 801.76361 651.921425"></polygon>
                        <polygon id="Suginami" stroke="#646464" stroke-width="0.49473336" fill="#DCB6F2" points="721.369439 717.473596 716.422105 705.105262 723.843105 700.157928 723.843105 696.447428 717.658938 695.210594 715.185272 679.13176 709.001105 679.13176 690.448604 670.473927 683.027603 655.631926 664.475102 659.342426 654.580435 669.237093 648.396268 666.763426 647.159435 676.658094 655.817268 684.079094 647.159435 697.684261 654.580435 702.631595 650.869935 705.105262 654.580435 711.289429 665.711936 714.999929 668.185602 724.894596 675.606603 724.894596 670.659269 717.473596 683.027603 723.657763 696.632771 729.84193 718.895772 722.420929"></polygon>
                        <polygon id="Nakano" stroke="#646464" stroke-width="0.49473336" fill="#DCB6F2" points="723.843105 700.157928 716.422105 705.105262 721.369439 717.473596 739.92194 698.921095 743.63244 681.605427 749.816607 676.658094 738.685106 677.894927 737.448273 675.42126 734.974606 669.237093 730.027272 668.00026 733.737773 655.631926 733.737773 654.395092 727.553606 650.684592 716.422105 660.579259 701.580104 660.579259 690.448604 649.447759 685.50127 649.447759 683.027603 655.631926 690.448604 670.473927 709.001105 679.13176 715.185272 679.13176 717.658938 695.210594 723.843105 696.447428"></polygon>
                        <polygon id="Shibuya" stroke="#646464" stroke-width="0.49473336" fill="#DCB6F2" points="731.264106 732.315596 742.395606 734.789263 763.421774 757.052264 772.079608 758.289098 773.316441 758.289098 777.026942 752.104931 777.026942 740.97343 767.132274 738.499763 764.658608 729.84193 770.842775 721.184096 767.132274 719.947262 769.605941 712.526262 760.948107 703.868428 754.76394 702.631595 743.63244 711.289429 741.158773 707.578928 739.92194 698.921095 721.369439 717.473596 718.895772 722.420929 726.316772 722.420929"></polygon>
                        <polygon id="Setagaya" stroke="#646464" stroke-width="0.49473336" fill="#DCB6F2" points="650.869935 780.552099 650.869935 785.499433 657.054102 785.499433 678.08027 790.446766 701.580104 808.999267 712.711605 817.657101 715.185272 813.946601 710.237938 811.472934 717.658938 806.5256 726.316772 807.762434 733.737773 815.183434 736.211439 805.288767 733.737773 796.630933 720.132605 796.630933 723.843105 785.499433 718.895772 769.420598 736.211439 776.841599 742.395606 760.762765 739.92194 745.920764 731.264106 732.315596 726.316772 722.420929 718.895772 722.420929 696.632771 729.84193 683.027603 723.657763 670.659269 717.473596 675.606603 724.894596 668.185602 724.894596 665.711936 714.999929 654.580435 711.289429 652.106768 711.289429 645.922601 711.289429 648.396268 719.947262 643.448934 721.184096 649.633101 726.131429 649.633101 729.84193 647.159435 732.315596 653.343602 747.157597 653.343602 753.341764 648.396268 753.341764 645.922601 759.525931 654.580435 775.604765"></polygon>
                        <path d="M825.263444,811.472934 L819.079277,815.183434 L814.131944,812.709767 L814.131944,823.841268 L807.947777,823.841268 L807.947777,818.893934 L800.526776,817.657101 L784.447942,821.367601 L781.974275,812.709767 L773.316441,816.420268 L769.605941,806.5256 L758.474441,805.288767 L751.05344,797.867767 L741.158773,791.6836 L741.158773,800.341433 L736.211439,801.578267 L736.211439,805.288767 L733.737773,815.183434 L726.316772,807.762434 L717.658938,806.5256 L710.237938,811.472934 L715.185272,813.946601 L712.711605,817.657101 L723.843105,821.367601 L737.448273,851.051603 L758.474441,862.183103 L753.527107,872.077771 L758.474441,880.735604 L772.079608,878.261938 L780.737442,872.077771 L786.921609,875.788271 L793.105776,870.840937 L810.421443,872.077771 L848.763279,896.814439 L858.657946,877.025104 L836.394945,841.156936 L822.789777,842.393769 L815.368777,852.288436 L810.421443,847.341103 L805.47411,849.814769 L795.579443,841.156936 L795.579443,836.209602 L775.790108,836.209602 L814.131944,832.499102 L819.079277,827.551768 L819.079277,832.499102 L833.921278,832.499102 L837.631778,830.025435 L832.684445,822.604435 L820.316111,826.314935 L827.737111,817.657101 L825.263444,811.472934 Z M798.053109,839.920102 L803.000443,844.867436 L809.18461,842.393769 L805.47411,834.972769 L798.053109,839.920102 Z M809.18461,839.920102 L817.842444,847.341103 L825.263444,836.209602 L810.421443,836.209602 L809.18461,839.920102 Z" id="Ota" stroke="#646464" stroke-width="0.49473336" fill="#DCB6F2"></path>
                        <polygon id="Meguro" stroke="#646464" stroke-width="0.49473336" fill="#DCB6F2" points="751.05344 797.867767 751.05344 790.446766 758.474441 780.552099 751.05344 778.078432 769.605941 773.131099 767.132274 763.236432 772.079608 758.289098 763.421774 757.052265 742.395606 734.789263 731.264106 732.315597 739.92194 745.920764 742.395606 760.762765 736.211439 776.841599 718.895772 769.420599 723.843105 785.499433 720.132605 796.630933 733.737773 796.630933 736.211439 805.288767 736.211439 801.578267 741.158773 800.341434 741.158773 791.6836"></polygon>
                        <path d="M758.474441,805.288767 L769.605941,806.5256 L773.316441,816.420268 L781.974275,812.709767 L784.447942,821.367601 L800.526776,817.657101 L807.947777,818.893934 L807.947777,823.841268 L814.131944,823.841268 L814.131944,812.709767 L819.079277,815.183434 L825.263444,811.472934 L811.658277,787.973099 L811.658277,774.367932 L809.18461,778.078432 L788.158442,779.315266 L783.211109,769.420598 L779.500608,765.710098 L772.079608,765.710098 L773.316441,758.289098 L772.079608,758.289098 L767.132274,763.236431 L769.605941,773.131099 L751.05344,778.078432 L758.474441,780.552099 L751.05344,790.446766 L751.05344,797.867767 L758.474441,805.288767 Z M825.263444,783.025766 L822.789777,779.315266 L820.316111,775.604765 L819.079277,775.604765 L821.552944,784.262599 L825.263444,783.025766 Z" id="Shinagawa" stroke="#646464" stroke-width="0.49473336" fill="#DCB6F2"></path>
                        <path d="M825.263444,754.578598 L837.631778,774.367932 L842.579112,771.894265 L848.763279,780.552099 L852.473779,775.604765 L850.000112,764.473265 L856.184279,763.236431 L856.184279,759.525931 L882.157781,754.578598 L882.157781,765.710098 L869.789447,769.420598 L888.341948,766.946932 L889.578781,743.447097 L893.289281,739.736597 L894.526115,695.210594 L883.394614,686.552761 L867.31578,680.368594 L868.552613,697.684261 L861.131613,698.921095 L858.657946,705.105262 L840.105445,702.631595 L842.579112,707.578928 L837.631778,719.947262 L840.105445,742.210264 L825.263444,754.578598 Z M869.789447,760.762765 L869.789447,766.946932 L873.499947,765.710098 L873.499947,761.999598 L880.920947,759.525931 L873.499947,759.525931 L874.73678,757.052264 L869.789447,760.762765 Z M874.73678,770.657432 L875.973614,783.025766 L879.684114,781.788932 L883.394614,791.6836 L888.341948,769.420598 L874.73678,770.657432 Z M832.684445,771.894265 L822.789777,779.315266 L825.263444,783.025766 L837.631778,804.051934 L842.579112,795.3941 L831.447611,778.078432 L835.158111,775.604765 L832.684445,771.894265 Z M836.394945,776.841599 L845.052779,790.446766 L847.526445,785.499433 L840.105445,774.367932 L836.394945,776.841599 Z" id="Koto" stroke="#646464" stroke-width="0.49473336" fill="#DCB6F2"></path>
                        <polygon id="Sumida" stroke="#646464" stroke-width="0.49473336" fill="#DCB6F2" points="838.868612 697.684261 840.105445 702.631595 858.657946 705.105262 861.131613 698.921095 868.552613 697.684261 867.31578 680.368594 883.394614 686.552761 887.105114 677.894927 880.920947 671.71076 889.578781 666.763426 868.552613 639.553091 863.60528 644.500425 858.657946 656.868759 856.184279 668.00026 838.868612 696.447428"></polygon>
                        <polygon id="Chiyoda" stroke="#646464" stroke-width="0.49473336" fill="#DCB6F2" points="791.868942 718.710429 800.526776 724.894596 810.421443 726.131429 821.552944 711.289429 819.079277 703.868428 832.684445 693.973761 821.552944 684.079094 819.079277 690.263261 798.053109 686.552761 784.447942 702.631595 784.447942 711.289429"></polygon>
                        <polygon id="Taito" stroke="#646464" stroke-width="0.49473336" fill="#DCB6F2" points="832.684445 693.973761 838.868612 696.447428 856.184279 668.00026 858.657946 656.868759 841.342278 653.158259 830.210778 660.579259 814.131944 654.395092 814.131944 664.289759 819.079277 670.473926 815.368777 669.237093 817.842444 679.13176 822.789777 680.368594 821.552944 684.079094"></polygon>
                        <polygon id="Chuo" stroke="#646464" stroke-width="0.49473336" fill="#DCB6F2" points="816.60561 745.920764 825.263444 754.578598 840.105445 742.210264 837.631778 719.947262 842.579112 707.578928 840.105445 702.631595 838.868612 697.684261 838.868612 696.447428 832.684445 693.973761 819.079277 703.868428 821.552944 711.289429 810.421443 726.131429 814.131944 729.84193 811.658277 737.26293 817.842444 742.210264"></polygon>
                        <path d="M764.658608,729.84193 L767.132274,738.499763 L777.026942,740.97343 L777.026942,752.104931 L773.316441,758.289098 L772.079608,765.710098 L779.500608,765.710098 L783.211109,769.420598 L788.158442,779.315266 L809.18461,778.078432 L811.658277,774.367932 L811.658277,766.946932 L805.47411,765.710098 L806.710943,760.762765 L812.89511,763.236431 L811.658277,753.341764 L812.89511,745.920764 L816.60561,745.920764 L817.842444,742.210264 L811.658277,737.26293 L814.131944,729.84193 L810.421443,726.131429 L800.526776,724.894596 L791.868942,718.710429 L784.447942,711.289429 L774.553275,713.763095 L770.842775,721.184096 L764.658608,729.84193 Z M822.789777,779.315266 L832.684445,771.894265 L827.737111,764.473265 L822.789777,768.183765 L826.500278,765.710098 L828.973944,769.420598 L820.316111,775.604765 L822.789777,779.315266 Z" id="Minato" stroke="#646464" stroke-width="0.49473336" fill="#DCB6F2"></path>
                        <polygon id="Shinjuku" stroke="#646464" stroke-width="0.49473336" fill="#DCB6F2" points="798.053109 686.552761 795.579443 680.368594 785.684775 681.605427 775.790108 675.42126 760.948107 674.184427 759.711274 663.052926 739.92194 664.28976 733.737773 655.631926 730.027272 668.00026 734.974606 669.237093 737.448273 675.42126 738.685106 677.894927 749.816607 676.658094 743.63244 681.605427 739.92194 698.921095 741.158773 707.578929 743.63244 711.289429 754.76394 702.631595 760.948107 703.868428 769.605941 712.526262 767.132274 719.947262 770.842775 721.184096 774.553275 713.763095 784.447942 711.289429 784.447942 702.631595"></polygon>
                        <polygon id="Bunkyo" stroke="#646464" stroke-width="0.49473336" fill="#DCB6F2" points="819.079277 670.473926 814.131944 664.289759 814.131944 654.395092 812.89511 651.921425 804.237276 649.447759 801.76361 651.921425 796.816276 648.210925 789.395276 655.631926 789.395276 660.579259 778.263775 659.342426 778.263775 666.763426 772.079608 669.237093 773.316441 674.184427 775.790108 675.42126 785.684775 681.605427 795.579443 680.368594 798.053109 686.552761 819.079277 690.263261 821.552944 684.079094 822.789777 680.368594 817.842444 679.13176 815.368777 669.237093"></polygon>
                    </g>
                </g>
                <g id="Text" fill="#000000" font-family="Helvetica" font-size="6" font-weight="normal">
                    <g id="Village">
                        <text id="Hinohara">
                            <tspan x="172.325684" y="661">Hinohara</tspan>
                        </text>
                    </g>
                    <g id="Town">
                        <text id="Okutama">
                            <tspan x="138.328613" y="554">Okutama</tspan>
                        </text>
                        <text id="Hinode">
                            <tspan x="297.493164" y="624">Hinode</tspan>
                        </text>
                        <text id="Mizuho">
                            <tspan x="412.329102" y="601">Mizuho</tspan>
                        </text>
                    </g>
                    <g id="City">
                        <text id="Nishitokyo">
                            <tspan x="596.163574" y="651">Nishi-Tokyo</tspan>
                        </text>
                        <text id="Akiruno">
                            <tspan x="301.328125" y="659">Akiruno</tspan>
                        </text>
                        <text id="Hamura">
                            <tspan x="378.330078" y="617">Hamura</tspan>
                        </text>
                        <text id="Inagi">
                            <tspan x="550.494629" y="769">Inagi</tspan>
                        </text>
                        <text id="Tama">
                            <tspan x="506.331543" y="770">Tama</tspan>
                        </text>
                        <text id="Musashimurayama">
                            <tspan x="441.830078" y="625">Musashi-</tspan>
                            <tspan x="439.829102" y="632">Murayama</tspan>
                        </text>
                        <text id="Higashikurume">
                            <tspan x="571.996094" y="626">Higashi-</tspan>
                            <tspan x="572.495605" y="633">Kurume</tspan>
                        </text>
                        <text id="Kiyose">
                            <tspan x="575.495605" y="599">Kiyose</tspan>
                        </text>
                        <text id="Higashiyamato">
                            <tspan x="484.996094" y="629">Higashi-</tspan>
                            <tspan x="485.661133" y="636">Yamato</tspan>
                        </text>
                        <text id="Komae">
                            <tspan x="628.494629" y="768">Komae</tspan>
                        </text>
                        <text id="Fussa">
                            <tspan x="401.830566" y="649">Fussa</tspan>
                        </text>
                        <text id="Kunitachi">
                            <tspan x="493.658691" y="714">Kunitachi</tspan>
                        </text>
                        <text id="Kokubunji">
                            <tspan x="512.82373" y="685">Kokubunji</tspan>
                        </text>
                        <text id="Higashimurayama">
                            <tspan x="524.996094" y="620">Higashi-</tspan>
                            <tspan x="521.829102" y="627">Murayama</tspan>
                        </text>
                        <text id="Hino">
                            <tspan x="462.830078" y="730">Hino</tspan>
                        </text>
                        <text id="Kodaira">
                            <tspan x="535.659668" y="659">Kodaira</tspan>
                        </text>
                        <text id="Koganei">
                            <tspan x="562.990234" y="690">Koganei</tspan>
                        </text>
                        <text id="Machida">
                            <tspan x="507.160645" y="859">Machida</tspan>
                        </text>
                        <text id="Chofu">
                            <tspan x="604.994629" y="741">Chofu</tspan>
                        </text>
                        <text id="Akishima">
                            <tspan x="422.830078" y="682">Akishima</tspan>
                        </text>
                        <text id="Fuchu">
                            <tspan x="539.662109" y="725">Fuchu</tspan>
                        </text>
                        <text id="Ome">
                            <tspan x="315.499023" y="568">Ome</tspan>
                        </text>
                        <text id="Mitaka">
                            <tspan x="615.164062" y="703">Mitaka</tspan>
                        </text>
                        <text id="Musashino">
                            <tspan x="606.492187" y="680">Musashino</tspan>
                        </text>
                        <text id="Tachikawa">
                            <tspan x="470.660645" y="682">Tachikawa</tspan>
                        </text>
                        <text id="Hachioji">
                            <tspan x="353.328613" y="736">Hachioji</tspan>
                        </text>
                    </g>
                    <g id="Special-Ward">
                        <text id="Edogawa">
                            <tspan x="908.490234" y="699">Edogawa</tspan>
                        </text>
                        <text id="Katsushika">
                            <tspan x="888.325195" y="631">Katsushika</tspan>
                        </text>
                        <text id="Adachi">
                            <tspan x="835.827148" y="600">Adachi</tspan>
                        </text>
                        <text id="Nerima">
                            <tspan x="659.332031" y="636">Nerima</tspan>
                        </text>
                        <text id="Itabashi">
                            <tspan x="717.492676" y="601">Itabashi</tspan>
                        </text>
                        <text id="Arakawa">
                            <tspan x="823.328125" y="649">Arakawa</tspan>
                        </text>
                        <text id="Kita">
                            <tspan x="774.830566" y="616">Kita</tspan>
                        </text>
                        <text id="Toshima">
                            <tspan x="753.496582" y="656">Toshima</tspan>
                        </text>
                        <text id="Suginami">
                            <tspan x="668.493164" y="694">Suginami</tspan>
                        </text>
                        <text id="Nakano">
                            <tspan x="704.659668" y="672">Nakano</tspan>
                        </text>
                        <text id="Shibuya">
                            <tspan x="739.158691" y="726">Shibuya</tspan>
                        </text>
                        <text id="Setagaya">
                            <tspan x="681.323242" y="765">Setagaya</tspan>
                        </text>
                        <text id="Ota">
                            <tspan x="777.164551" y="854">Ota</tspan>
                        </text>
                        <text id="Meguro">
                            <tspan x="743.828125" y="769">Meguro</tspan>
                        </text>
                        <text id="Shinagawa">
                            <tspan x="770.655273" y="796">Shinagawa</tspan>
                        </text>
                        <text id="Koto">
                            <tspan x="861.828613" y="734">Koto</tspan>
                        </text>
                        <text id="Sumida">
                            <tspan x="858.328125" y="674">Sumida</tspan>
                        </text>
                        <text id="Taito">
                            <tspan x="826.330566" y="673">Taito</tspan>
                        </text>
                        <text id="Bunkyo">
                            <tspan x="786.993652" y="671">Bunkyo</tspan>
                        </text>
                        <text id="Shinjuku">
                            <tspan x="755.492187" y="693">Shinjuku</tspan>
                        </text>
                        <text id="Minato">
                            <tspan x="785.495605" y="749">Minato</tspan>
                        </text>
                        <text id="Chuo">
                            <tspan x="818.828125" y="723">Chuo</tspan>
                        </text>
                        <text id="Chiyoda">
                            <tspan x="793.993164" y="705">Chiyoda</tspan>
                        </text>
                    </g>
                </g>
            </g>
            <g id="Info" transform="translate(20, 840)" fill="#000000">
                <g id="Scale" transform="translate(586.9761, 36)">
                    <rect id="rect5934" fill-rule="nonzero" x="0" y="15" width="105.130839" height="3"></rect>
                    <text id="10-km" font-family="Helvetica" font-size="12" font-weight="normal">
                        <tspan x="36" y="11">10 km</tspan>
                    </text>
                </g>
            </g>
        </g>
    </g>
</svg>
