<?xml version="1.0" encoding="UTF-8"?>
<svg width="1102px" height="902px" viewBox="0 0 1102 902" version="1.1" xmlns="http://www.w3.org/2000/svg" xmlns:xlink="http://www.w3.org/1999/xlink">
    <title>Tokyo</title>
    <g id="Page-1" stroke="none" stroke-width="1" fill="none" fill-rule="evenodd">
        <g id="Tokyo" transform="translate(1, 1)">
            <polygon id="Background" fill="#FCFCFC" fill-rule="nonzero" points="0 3.97720669e-14 0 900 1100 900 1100 0"></polygon>
            <g id="Borders" transform="translate(0, 0)">
                <g id="Map" fill="#EEEEEE" fill-rule="nonzero" stroke="#999999" stroke-width="0.5">
                    <polygon id="Shizuoka" points="63.8101093 599.302927 63.9004344 599.304706 70.00498 599.304706 88.3129905 611.38219 87.9495232 636.157378 87.9495232 646.404866 89.9832758 653.679101 93.3736647 663.958165 98.7425626 681.938965 101.93848 692.698744 101.93848 712.626311 98.7425626 721.846826 94.2540949 731.499898 79.0653276 749.771951 73.0078494 763.985867 71.3818535 787.127177 76.615403 816.735469 87.1261858 842.591875 105.724109 872.129468 115.400092 884.909657 122.918585 890.773006 131.500391 897.939041 136.890133 899.762845 136.810001 899.999996 134.451075 899.999996 2.94183224e-15 899.999996 2.94183224e-15 611.38219 1.98309753 611.064598"></polygon>
                    <polygon id="Saitama" points="0.309217606 0 0.309217606 69.5718787 8.96705141 60.9140449 23.8090522 65.8613785 28.7563858 63.3877118 39.8878864 58.4403782 38.651053 52.2562112 41.1247198 43.5983773 62.1508876 29.9932099 73.2823882 23.8090429 79.4665552 28.7563765 94.308556 25.0458764 102.96639 10.2038755 110.38739 7.73020875 151.202892 37.4142103 161.09756 39.8878772 170.992227 36.1773769 188.307894 44.8352108 232.833897 49.7825444 243.965397 57.2035447 247.675898 64.6245452 248.912731 64.6245452 271.175732 74.5192124 284.7809 75.7560457 288.4914 69.5718787 293.438733 69.5718787 311.991234 80.7033794 319.412235 75.7560457 321.885902 80.7033794 339.201569 81.9402128 354.04357 78.2297126 358.990904 76.9928792 362.701404 81.9402128 367.648737 79.4665459 371.359238 83.1770461 378.780238 83.1770461 381.253905 98.0190469 391.148572 94.3085468 391.148572 101.729547 391.148572 106.676881 398.569572 127.703049 404.753739 131.413549 420.832574 127.703049 424.543074 131.413549 443.095575 133.887216 440.621908 140.071383 445.569242 147.492383 443.095575 148.729216 449.279742 147.492383 452.990242 153.67655 451.753409 157.38705 450.516575 158.623884 451.753409 161.09755 456.700742 164.808051 462.884909 162.334384 462.884909 166.044884 475.253243 159.860717 490.095244 163.571217 507.410912 158.623884 509.884578 162.334384 540.805413 152.439717 549.463247 146.25555 555.647414 147.492383 561.831581 145.018716 563.068415 148.729216 579.147249 137.597716 586.568249 136.360882 605.12075 115.334715 610.068084 120.282048 601.41025 133.887216 607.594417 137.597716 606.357584 147.492383 586.568249 156.150217 581.620916 163.571217 610.068084 153.67655 607.594417 175.939551 618.725918 172.229051 624.910085 168.518551 632.331085 166.044884 632.331085 163.571217 643.462586 157.38705 649.646753 148.729216 654.594086 148.729216 657.067753 148.729216 657.067753 149.96605 664.488753 153.67655 658.304586 159.860717 674.383421 157.38705 676.857087 162.334384 681.804421 161.09755 683.041254 147.492383 683.041254 146.25555 695.409588 133.887216 699.120089 126.466215 704.067422 126.466215 715.198923 122.755715 751.067091 125.229382 752.303925 125.229382 760.961759 132.650382 774.566926 133.887216 778.277426 137.597716 790.64576 137.597716 790.64576 146.25555 799.303594 138.834549 806.724594 138.834549 811.671928 130.176715 801.777261 112.861048 806.724594 107.913714 819.092928 102.966381 831.461262 115.334715 847.540097 116.571548 863.618931 112.861048 868.566264 109.150548 868.566264 105.440047 872.276765 109.150548 868.566264 121.518882 873.513598 130.176715 884.645099 121.518882 893.302932 126.466215 901.960766 133.887216 904.434433 128.939882 919.276434 126.466215 921.750101 130.176715 916.802767 137.597716 921.750101 145.018716 937.828935 142.545049 932.881601 128.939882 935.355268 101.729547 932.881601 88.1243798 942.776268 44.8352108 934.118435 15.1512091 924.030512 0"></polygon>
                    <polygon id="Yamanashi" points="39.8742441 58.4487515 28.7427435 63.3960851 23.7954099 65.8697519 8.95340913 60.9224183 0.295575334 69.5802521 0.295575334 482.682608 0 611.725235 7.65733145 586.118463 33.1729702 542.683181 44.8215777 532.960322 61.4373792 519.082186 74.827529 512.176361 88.3129905 508.984583 124.635983 482.682608 132.636749 474.024774 135.110416 461.65644 153.662917 461.65644 163.557584 460.419607 172.215418 459.182773 187.057419 444.340772 199.425753 428.261938 198.188919 414.656771 214.267754 398.577937 214.267754 392.39377 213.03092 378.788602 206.846753 371.367602 214.267754 362.709768 216.74142 352.815101 217.978254 346.630934 213.03092 341.6836 219.215087 337.9731 209.32042 328.078433 213.03092 308.289098 203.136253 294.683931 204.373086 290.973431 210.557253 281.078764 216.74142 272.42093 193.241586 251.394762 179.636418 251.394762 170.978585 246.447428 159.847084 243.973762 117.794748 218.00026 105.426414 196.974092 104.189581 194.500426 102.952748 192.026759 98.0054139 180.895258 85.6370799 174.711091 76.9792461 158.632257 79.4529129 143.790256 69.5582457 132.658756 64.6109121 114.106255 64.6109121 86.8959197 57.1899117 88.1327531 48.5320779 80.7117527 43.5847443 72.0539189 44.8215777 64.6329185"></polygon>
                    <path d="M216.74142,272.42093 L210.557253,281.078764 L204.373086,290.973431 L203.136253,294.683931 L213.03092,308.289098 L209.32042,328.078433 L219.215087,337.9731 L213.03092,341.6836 L217.978254,346.630934 L216.74142,352.815101 L214.267754,362.709768 L206.846753,371.367602 L213.03092,378.788602 L214.267754,392.39377 L214.267754,398.577937 L198.188919,414.656771 L199.425753,428.261938 L187.057419,444.340772 L172.215418,459.182773 L163.557584,460.419607 L153.662917,461.65644 L135.110416,461.65644 L132.636749,474.024774 L124.635983,482.682608 L88.3129905,508.950056 C80.1594621,510.461459 73.9566701,512.268386 69.7046144,514.370835 C65.4525587,516.473283 59.2025221,520.823717 50.9545046,527.422135 L33.1729702,542.683181 L7.65733145,586.118463 L0.295575334,611.38219 L69.7046144,599.005664 L88.3129905,611.38219 L88.3129905,646.644734 L101.93848,692.698744 L101.93848,712.626311 L95.9497536,728.681483 L79.1142313,747.809581 L73.3626907,764.14097 L69.7046144,792.342262 L79.1142313,825.254205 L101.93848,873.287049 L132.024491,898.348396 L136.81,899.999996 L199.425753,899.999996 L227.285683,899.999996 L257.600104,894.688508 L241.406823,838.581724 L261.267414,792.342262 L294.661925,747.809581 L353,712.626311 L413.397931,692.698744 L505.333132,686.040328 L551.923272,687.135543 L572.94944,692.698744 L585.317774,702.354219 L598.807318,709.071561 L619.001588,704.905826 L630.492385,704.905826 L645.312327,712.626311 L652.764495,728.681483 L704.417263,807.714362 L704.417263,819.557209 L710.079732,826.842459 L708.318842,843.311958 L701.580113,867.308397 L706.178153,888.50813 L735.560843,892.626544 L748.404981,885.474933 L758.47445,883.064758 L766.738951,877.972728 L763.631499,867.308397 L753.527116,854.957687 L748.404981,846.557519 L756.346249,825.254205 L775.508873,807.714362 L814.131953,783.843925 L810.421452,779.315952 L808.689562,771.564329 L805.305891,766.972205 L823.639861,747.809581 L804.235546,737.278769 L772.079617,725.836706 L758.47445,704.905826 L749.61513,709.071561 L745.02131,712.626311 L735.560843,699.055684 L729.760265,677.684733 L728.68992,658.280418 L735.97517,624.547293 L718.435327,591.780932 L721.680888,573.96487 L735.560843,566.955838 L749.61513,569.648964 L762.423045,569.648964 L766.738951,553.455683 L762.423045,540.784182 L749.61513,530.642975 L729.760265,514.370835 L726.411122,494.793883 L777,482.682608 L791.250535,482.682608 L789.395285,480.208941 L791.868951,482.682608 L811.658286,482.682608 L811.658286,478.972108 L814.131953,482.682608 L826.500287,475.261607 L830.210787,474.024774 L830.210787,467.840607 L819.079286,465.36694 L816.605619,459.182773 L825.263453,454.23544 L827.73712,461.65644 L831.44762,457.94594 L841.342287,464.130107 L848.763288,446.814439 L810.421452,422.077771 L793.105785,420.840938 L786.921618,425.788271 L780.737451,422.077771 L772.079617,428.261938 L758.47445,430.735605 L753.527116,422.077771 L758.47445,412.183104 L737.448282,401.051603 L723.843114,371.367602 L712.711614,367.657102 L701.580113,358.999268 L678.080279,340.446767 L657.054111,335.499433 L650.869944,335.499433 L634.79111,329.315266 L624.896442,319.420599 L611.291275,314.473265 L590.265107,307.052265 L585.317774,313.236432 L587.79144,319.420599 L581.607273,321.894266 L579.133607,328.078433 L576.65994,329.315266 L560.581106,336.736267 L565.528439,350.341434 L555.633772,351.578267 L543.265438,341.6836 L542.028605,334.2626 L535.844438,333.025766 L532.133937,328.078433 L521.002437,335.499433 L517.291937,342.920434 L522.23927,351.578267 L533.370771,345.3941 L538.318104,355.288768 L550.686438,363.946601 L560.581106,370.130768 L560.581106,377.551769 L572.94944,384.972769 L571.712606,389.920103 L556.870605,402.288437 L549.449605,389.920103 L555.633772,376.314935 L551.923272,375.078102 L543.265438,377.551769 L537.081271,392.39377 L535.844438,399.81477 L546.975938,404.762104 L546.975938,423.314605 L553.160105,431.972438 L551.923272,435.682939 L553.160105,450.524939 L544.502271,460.419607 L546.975938,465.36694 L551.923272,469.07744 L534.607604,470.314274 L530.897104,452.998606 L523.476104,450.524939 L524.712937,443.103939 L521.002437,435.682939 L513.581436,424.551438 L502.449936,419.604104 L491.318435,403.52527 L486.371102,401.051603 L480.186935,384.972769 L474.002768,384.972769 L470.292267,375.078102 L462.871267,373.841269 L434.424099,357.762434 L413.397931,350.341434 L404.740097,354.051934 L398.55593,351.578267 L380.003429,351.578267 L367.635095,342.920434 L360.214095,341.6836 L346.608927,345.3941 L342.898427,354.051934 L335.477427,351.578267 L330.530093,355.288768 L319.398593,349.104601 L309.503925,340.446767 L308.267092,333.025766 L299.609258,325.604766 L302.082925,321.894266 L295.898758,313.236432 L294.661925,300.868098 L279.819924,294.683931 L266.214756,304.578598 L251.372756,297.157598 L250.135922,284.789264 L245.188589,277.368263 L237.767588,279.84193 L216.74142,272.42093 Z" id="Kanagawa"></path>
                    <polygon id="Chiba" points="1099.74933 453.412996 1091.63756 459.459287 1062.64424 499.816717 1053.45999 509.139075 1053.34865 509.204547 1040.30261 512.815147 997.980969 532.745859 984.711332 542.679996 978.002332 560.478996 989.434058 591.673953 989.447712 591.788296 986.754586 615.404936 986.710985 615.520004 974.453811 633.02532 974.349459 633.110865 958.238129 640.171534 939.663895 643.511405 920.967557 649.839835 892.99558 667.261532 876.778742 673.733558 855.797332 676.670996 855.929332 684.392996 905.085693 702.303178 921.61005 717.221107 951.683286 775.606689 951.70962 775.747732 950.742857 784.793872 950.711757 784.890596 942.045455 800.164155 932.725659 810.171423 908.210553 828.75076 899.828332 837.949996 910.548023 861.464622 914.732329 879.437807 914.993332 899.748996 1099.74933 899.749996"></polygon>
                    <polygon id="Chiba" points="924.030512 0 934.118435 15.1512091 942.776268 44.8352107 932.881601 88.1243797 935.355268 101.729547 932.881601 128.939882 937.828935 142.545049 937.828935 147.492383 926.697434 154.913383 924.223767 159.860717 934.118435 179.650051 935.355268 180.886885 945.249935 190.781552 941.539435 206.860386 945.249935 214.281387 960.091936 230.360221 962.565603 241.491721 951.434102 257.570556 931.644768 263.754723 930.407934 271.175723 931.644768 272.412556 932.881601 290.965057 929.171101 303.333391 919.276434 309.517558 922.986934 310.754392 918.0396 316.938559 919.276434 326.833226 934.118435 330.543726 937.828935 325.596393 942.776268 336.727893 982.354937 308.280725 961.328769 290.965057 962.565603 290.965057 973.697103 278.596723 989.775938 274.886223 987.302271 271.175723 972.46027 274.886223 976.17077 267.465223 978.644437 269.93889 988.539104 261.281056 1005.21697 252.499996 1025.08592 253.999996 1050.8783 257.570556 1082.81277 269.93889 1088.74266 269.93889 1096.75042 263.357718 1100 267.465223 1100 1.45874344e-22"></polygon>
                </g>
                <g id="Text" transform="translate(20, 20)" fill="#000000" font-family="Helvetica" font-size="12" font-weight="normal" opacity="0.25">
                    <text id="Saitama">
                        <tspan x="492.989258" y="11">Saitama</tspan>
                    </text>
                    <text id="Yamanashi">
                        <tspan x="0.982421875" y="281.75">Yamanashi</tspan>
                    </text>
                    <text id="Kanagawa">
                        <tspan x="306.643555" y="441">Kanagawa</tspan>
                    </text>
                    <text id="Chiba">
                        <tspan x="930.323242" y="151">Chiba</tspan>
                    </text>
                </g>
            </g>
            <g id="Municipalities" transform="translate(38.6374, 7.7386)">
                <g id="Map" fill-rule="nonzero" stroke="#646464">
                    <g id="Villages" transform="translate(65.5522, 139.7622)" fill="#B6F2DC" stroke-width="0.5">
                        <polygon id="Hinohara" points="150.893677 105.13084 150.893677 90.28884 144.70951 85.34151 143.472676 48.23651 129.867509 29.68401 121.209675 27.21034 121.209675 23.49984 127.393842 19.78934 117.499175 11.13151 112.551841 16.07884 87.815173 0 80.394173 3.71051 77.920506 8.65784 59.368005 8.65784 39.578671 22.26301 28.44717 24.73667 25.973503 40.81551 14.842003 39.57867 0 46.99967 1.23684 49.47334 13.605169 70.49951 55.657505 96.47301 66.789006 98.94668 75.446839 103.89401 89.052007 103.89401 112.551841 124.92018 133.578009 132.34118 140.99901 129.86751"></polygon>
                    </g>
                    <g id="Towns" transform="translate(-0, 0)" fill="#ECE3B4" stroke-width="0.5">
                        <polygon id="Mizuho" points="378.47102 174.393509 377.23419 179.340839 380.94469 178.104009 387.12886 184.288179 384.65519 176.867179 389.60252 179.340839 401.97086 145.946339 406.91819 152.130509 413.10236 149.656839 414.33919 145.946339 410.62869 139.762169 404.44452 140.999009 406.91819 139.762169 401.97086 132.341169 404.44452 126.157009 385.89202 123.683339 382.18152 119.972839 366.10269 123.683339 362.39219 131.104339 354.97119 128.630669 361.15535 138.525339 357.44485 142.235839 367.33952 148.420009"></polygon>
                        <polygon id="Hinode" points="296.84002 162.025179 289.41902 154.604179 273.34018 152.130509 263.445516 145.946339 253.550849 147.183179 236.235181 128.630669 221.39318 132.341169 207.788013 140.999009 223.866847 150.893679 225.103681 159.551509 236.235181 160.788339 254.787682 171.919839 257.261349 180.577679 268.39285 185.525009 284.47168 186.761839 303.02418 194.182839 321.57669 195.419679 322.81352 185.525009 317.86619 183.051339 316.62935 171.919839 301.78735 168.209339"></polygon>
                        <polygon id="Okutama" points="183.051345 150.893679 184.288178 147.183179 184.288178 140.999009 194.182846 136.051669 192.946012 124.920169 220.156347 107.604509 222.630014 77.920499 211.498513 65.55217 209.024846 56.894336 205.314346 49.473336 194.182846 42.052335 149.656843 37.105002 132.341176 28.447168 124.920175 29.684001 121.209675 32.157668 112.551841 29.684001 71.736339 0 64.31534 2.473666 55.6575 17.315667 40.8155 21.026167 34.63134 16.078834 23.49984 22.263001 2.47367 35.868168 1.42108547e-14 44.526002 1.23684 50.710169 6.18417 56.894336 4.94734 64.315337 9.89467 72.97317 18.5525 80.394169 25.9735 79.157339 25.9735 106.367669 30.92084 124.920169 40.8155 136.051669 38.34184 150.893679 46.99967 166.972509 59.368 173.156679 64.31534 184.288179 65.55217 186.761839 80.394173 179.340839 91.525673 180.577679 93.99934 164.498839 105.130841 162.025179 124.920175 148.420009 143.472676 148.420009 145.946343 143.472679 153.367343 139.762169 178.104011 155.841009"></polygon>
                    </g>
                    <g id="Cities" transform="translate(183.0526, 56.8943)" fill="#F6BAD3" stroke-width="0.5">
                        <polygon id="Musashino" points="401.9696 173.156673 411.86427 178.104013 416.8116 174.393513 425.46943 183.051343 434.12727 169.446173 425.46943 162.025173 405.6801 150.893673 395.78543 150.893673 379.7066 162.025173 372.2856 160.788343 372.2856 155.841013 368.5751 155.841013 367.33826 160.788343 374.75927 164.498843 375.9961 176.867173 378.46977 180.577673 392.07493 181.814513 390.8381 168.209343"></polygon>
                        <polygon id="Tachikawa" points="234.99709 185.525013 265.91793 195.419673 269.62843 189.235513 273.33893 191.709173 278.28626 186.761843 279.52309 179.340843 273.33893 173.156673 278.28626 171.919843 284.47043 166.972513 277.04943 158.314673 279.52309 157.077843 275.81259 155.841013 280.75993 153.367343 290.65459 162.025173 293.12826 149.656843 291.89143 148.420013 270.86526 140.999003 274.57576 140.999003 263.44426 137.288503 244.89176 136.051673 233.76026 123.683343 234.99709 128.630673 241.18126 137.288503 233.76026 134.814843 233.76026 137.288503 211.49726 129.867503 205.31309 133.578003 206.54992 145.946343 230.04976 145.946343 230.04976 150.893673 247.36542 162.025173"></polygon>
                        <polygon id="Hachioji" points="87.813916 275.813853 97.70858 284.471683 108.84008 290.655853 113.78742 286.945353 121.20842 289.419013 124.91892 280.761183 133.57675 269.629683 142.23459 265.919183 148.41875 268.392843 148.41875 274.577013 162.02392 273.340183 169.44492 277.050683 183.05009 273.340183 190.47109 275.813853 190.47109 264.682343 195.41842 280.761183 201.60259 283.234853 210.26042 286.945353 216.44459 281.998013 236.23392 294.366353 237.47076 286.945353 243.65492 283.234853 253.54959 268.392843 263.44426 262.208683 278.28626 254.787683 263.44426 237.472013 247.36542 246.129843 227.57609 244.893013 228.81292 241.182513 218.91826 239.945683 209.02359 227.577343 209.02359 222.630013 222.62876 215.209013 226.33926 191.709173 230.04976 190.472343 226.33926 185.525013 192.94476 183.051343 189.23426 180.577673 184.28692 164.498843 185.52376 160.788343 183.05009 162.025173 173.15542 153.367343 169.44492 159.551513 163.26075 157.077843 159.55025 162.025173 158.31342 159.551513 150.89242 162.025173 129.86625 158.314673 124.91892 164.498843 112.55058 160.788343 106.36642 163.262013 76.682416 153.367343 65.550915 163.262013 59.366748 189.235513 33.393247 187.998673 23.49858 212.735343 28.445913 220.156343 29.682747 232.524683 44.524747 239.945683 58.129915 230.051013 72.971916 236.235183 74.208749 248.603513 80.392916 257.261343 77.919249 260.971843 86.577083 268.392843"></polygon>
                        <polygon id="Mitaka" points="430.41677 196.656513 432.89043 196.656513 429.17993 190.472343 432.89043 187.998673 425.46943 183.051343 416.8116 174.393513 411.86427 178.104013 401.9696 173.156673 390.8381 168.209343 392.07493 181.814513 378.46977 180.577673 375.9961 176.867173 374.75927 189.235513 367.33826 186.761843 369.81193 194.182843 371.04877 197.893343 367.33826 199.130173 373.52243 212.735343 377.23293 211.498513 383.4171 217.682683 385.89077 213.972183 383.4171 210.261683 384.65393 197.893343 399.49593 195.419673 401.9696 197.893343 405.6801 216.445843 413.1011 217.682683 415.57477 222.630013 421.75893 216.445843 415.57477 206.551173 427.9431 211.498513 421.75893 206.551173 426.70627 205.314343 424.2326 196.656513"></polygon>
                        <polygon id="Ome" points="24.735413 84.104673 38.34058 75.446833 53.182581 71.736333 70.498249 90.288843 80.392916 89.052003 90.28758 95.236173 106.36642 97.709843 113.78742 105.130843 143.47142 105.130843 150.89242 112.551843 147.18192 87.815173 153.36609 80.394173 158.31342 84.104673 165.73442 87.815173 174.39225 85.341503 178.10275 81.631003 171.91859 71.736333 179.33959 74.210003 183.05009 66.789003 176.86592 63.078503 169.44492 42.052333 169.44492 37.105003 169.44492 29.684003 159.55025 33.394503 157.07659 18.552501 149.65559 18.552501 145.94509 14.842001 140.99775 17.315668 137.28725 12.368334 132.33992 13.605168 117.49792 17.315668 100.18225 16.078834 97.70858 11.131501 90.28758 16.078834 71.735082 4.947334 66.787749 4.947334 63.077248 11.131501 49.472081 9.894667 27.20908 0 25.972246 0 28.445913 8.657834 39.577414 21.026163 37.103747 50.710173 9.893412 68.025833 11.130246 79.157333 1.235578 84.104673 1.235578 90.288843 7.419745 85.341503 11.130246 87.815173 11.130246 82.867833 17.314413 90.288843 21.024913 90.288843 21.024913 84.104673"></polygon>
                        <polygon id="Akishima" points="226.33926 185.525013 234.99709 185.525013 247.36542 162.025173 230.04976 150.893673 230.04976 145.946343 206.54992 145.946343 204.07626 149.656843 192.94476 152.130513 191.70792 155.841013 185.52376 160.788343 184.28692 164.498843 189.23426 180.577673 192.94476 183.051343"></polygon>
                        <polygon id="Fuchu" points="289.41776 225.103683 319.10176 234.998343 330.23326 231.287843 346.3121 234.998343 354.96993 232.524683 363.62776 238.708843 363.62776 230.051013 359.91726 227.577343 364.8646 217.682683 368.5751 207.788013 363.62776 196.656513 364.8646 190.472343 361.1541 185.525013 357.4436 189.235513 357.4436 191.709173 350.0226 190.472343 343.83843 194.182843 346.3121 190.472343 341.36476 192.946013 335.1806 186.761843 333.94376 180.577673 322.81226 187.998673 311.68076 189.235513 311.68076 185.525013 309.2071 175.630343 305.49659 184.288173 300.54926 189.235513 296.83876 206.551173 299.31243 209.024843 293.12826 206.551173 277.04943 210.261683"></polygon>
                        <polygon id="Chofu" points="368.5751 242.419343 389.60127 249.840343 403.20643 254.787683 405.6801 237.472013 414.33793 232.524683 426.70627 238.708843 431.6536 238.708843 431.6536 232.524683 425.46943 217.682683 427.9431 215.209013 427.9431 211.498513 415.57477 206.551173 421.75893 216.445843 415.57477 222.630013 413.1011 217.682683 405.6801 216.445843 401.9696 197.893343 399.49593 195.419673 384.65393 197.893343 383.4171 210.261683 385.89077 213.972183 383.4171 217.682683 377.23293 211.498513 373.52243 212.735343 367.33826 199.130173 371.04877 197.893343 369.81193 194.182843 364.8646 190.472343 363.62776 196.656513 368.5751 207.788013 364.8646 217.682683 359.91726 227.577343 363.62776 230.051013 363.62776 238.708843"></polygon>
                        <polygon id="Machida" points="338.8911 305.497853 328.99643 299.313683 316.6281 290.655853 311.68076 280.761183 300.54926 286.945353 295.60193 278.287513 293.12826 281.998013 286.94409 280.761183 281.99676 286.945353 275.81259 283.234853 270.86526 284.471683 264.68109 278.287513 243.65492 283.234853 237.47076 286.945353 236.23392 294.366353 216.44459 281.998013 210.26042 286.945353 201.60259 283.234853 195.41842 280.761183 190.47109 264.682343 190.47109 275.813853 183.05009 273.340183 169.44492 277.050683 162.02392 273.340183 148.41875 274.577013 148.41875 268.392843 142.23459 265.919183 133.57675 269.629683 124.91892 280.761183 138.52409 277.050683 145.94509 278.287513 158.31342 286.945353 176.86592 286.945353 183.05009 289.419013 191.70792 285.708513 212.73409 293.129513 241.18126 309.208353 248.60226 310.445183 252.31276 320.339853 258.49693 320.339853 264.68109 336.418683 269.62843 338.892353 280.75993 354.971183 291.89143 359.918523 299.31243 371.050023 303.02293 378.471023 301.78609 385.892023 309.2071 388.365683 312.9176 405.681353 330.23326 404.444523 325.28593 400.734023 322.81226 395.786693 331.4701 385.892023 330.23326 371.050023 331.4701 367.339523 325.28593 358.681683 325.28593 340.129183 314.15443 335.181853 315.39126 327.760853 321.57543 312.918853 330.23326 310.445183 333.94376 311.682013 327.7596 325.287183 335.1806 337.655523 350.0226 325.287183 351.25943 320.339853 338.8911 312.918853"></polygon>
                        <polygon id="Koganei" points="364.8646 190.472343 369.81193 194.182843 367.33826 186.761843 374.75927 189.235513 375.9961 176.867173 374.75927 164.498843 367.33826 160.788343 368.5751 155.841013 366.10143 153.367343 352.49626 157.077843 351.25943 162.025173 340.12793 160.788343 340.12793 164.498843 330.23326 165.735673 328.99643 173.156673 336.41743 175.630343 333.94376 180.577673 335.1806 186.761843 341.36476 192.946013 346.3121 190.472343 343.83843 194.182843 350.0226 190.472343 357.4436 191.709173 357.4436 189.235513 361.1541 185.525013"></polygon>
                        <polygon id="Koidara" points="293.12826 149.656843 317.86493 158.314673 317.86493 163.262013 321.57543 165.735673 325.28593 159.551513 330.23326 165.735673 340.12793 164.498843 340.12793 160.788343 351.25943 162.025173 352.49626 157.077843 366.10143 153.367343 359.91726 139.762173 362.39093 137.288503 363.62776 129.867503 361.1541 129.867503 357.4436 127.393843 356.20676 131.104343 356.20676 127.393843 356.20676 131.104343 351.25943 131.104343 350.0226 126.157003 347.54893 138.525343 347.54893 126.157003 342.6016 122.446503 335.1806 127.393843 333.94376 123.683343 330.23326 124.920173 331.4701 136.051673 324.0491 134.814843 322.81226 128.630673 311.68076 124.920173 298.07559 132.341173 288.18093 133.578003 274.57576 140.999003 270.86526 140.999003 291.89143 148.420013"></polygon>
                        <polygon id="Hino" points="285.70726 233.761513 289.41776 225.103683 277.04943 210.261683 265.91793 195.419673 234.99709 185.525013 226.33926 185.525013 230.04976 190.472343 226.33926 191.709173 222.62876 215.209013 209.02359 222.630013 209.02359 227.577343 218.91826 239.945683 228.81292 241.182513 227.57609 244.893013 247.36542 246.129843 263.44426 237.472013 264.68109 234.998343 274.57576 241.182513 281.99676 232.524683"></polygon>
                        <polygon id="Higashimurayama" points="348.78576 103.894003 341.36476 102.657173 345.07526 98.946673 341.36476 89.052003 340.12793 86.578343 341.36476 84.104673 340.12793 80.394173 333.94376 82.867833 327.7596 81.631003 319.10176 87.815173 288.18093 97.709843 286.94409 101.420343 293.12826 112.551843 298.07559 132.341173 311.68076 124.920173 322.81226 128.630673 324.0491 134.814843 331.4701 136.051673 330.23326 124.920173 338.8911 107.604503"></polygon>
                        <polygon id="Kokubunji" points="305.49659 184.288173 309.2071 175.630343 311.68076 185.525013 311.68076 189.235513 322.81226 187.998673 333.94376 180.577673 336.41743 175.630343 328.99643 173.156673 330.23326 165.735673 325.28593 159.551513 321.57543 165.735673 317.86493 163.262013 317.86493 158.314673 293.12826 149.656843 290.65459 162.025173 280.75993 153.367343 275.81259 155.841013 279.52309 157.077843 277.04943 158.314673 284.47043 166.972513 278.28626 171.919843 295.60193 174.393513"></polygon>
                        <polygon id="Kunitachi" points="305.49659 184.288173 295.60193 174.393513 278.28626 171.919843 273.33893 173.156673 279.52309 179.340843 278.28626 186.761843 273.33893 191.709173 269.62843 189.235513 265.91793 195.419673 277.04943 210.261683 293.12826 206.551173 299.31243 209.024843 296.83876 206.551173 300.54926 189.235513"></polygon>
                        <polygon id="Fussa" points="191.70792 155.841013 192.94476 152.130513 204.07626 149.656843 206.54992 145.946343 205.31309 133.578003 211.49726 129.867503 206.54992 122.446503 201.60259 119.972843 204.07626 127.393843 197.89209 121.209673 194.18159 122.446503 195.41842 117.499173 178.10275 111.315003 168.20809 121.209673 173.15542 137.288503 181.81325 143.472673 183.05009 162.025173 185.52376 160.788343"></polygon>
                        <polygon id="Komae" points="429.17993 270.866513 429.17993 265.919183 432.89043 260.971843 424.2326 244.893013 426.70627 238.708843 414.33793 232.524683 405.6801 237.472013 403.20643 254.787683 413.1011 264.682343"></polygon>
                        <polygon id="Higashiyamato" points="244.89176 102.657173 257.26009 106.367673 256.02326 118.736003 259.73376 119.972843 263.44426 137.288503 274.57576 140.999003 288.18093 133.578003 298.07559 132.341173 293.12826 112.551843 286.94409 101.420343 288.18093 97.709843 285.70726 93.999343 268.39159 98.946673 253.54959 95.236173 241.18126 101.420343"></polygon>
                        <polygon id="Kiyose" points="359.91726 98.946673 364.8646 91.525673 384.65393 82.867833 385.89077 72.973173 379.7066 69.262673 388.36443 55.657503 383.4171 50.710173 364.8646 71.736333 357.4436 72.973173 341.36476 84.104673 340.12793 86.578343 341.36476 89.052003 345.07526 98.946673 341.36476 102.657173 348.78576 103.894003"></polygon>
                        <polygon id="Higashikurume" points="385.89077 111.315003 388.36443 89.052003 359.91726 98.946673 348.78576 103.894003 338.8911 107.604503 330.23326 124.920173 333.94376 123.683343 335.1806 127.393843 342.6016 122.446503 347.54893 126.157003 347.54893 138.525343 350.0226 126.157003 351.25943 131.104343 356.20676 131.104343 356.20676 127.393843 356.20676 131.104343 357.4436 127.393843 361.1541 129.867503 363.62776 129.867503 362.39093 137.288503 373.52243 128.630673 369.81193 124.920173 374.75927 123.683343"></polygon>
                        <polygon id="Musashimurayama" points="234.99709 128.630673 233.76026 123.683343 244.89176 136.051673 263.44426 137.288503 259.73376 119.972843 256.02326 118.736003 257.26009 106.367673 244.89176 102.657173 241.18126 101.420343 241.18126 97.709843 234.99709 100.183503 230.04976 96.473003 228.81292 93.999343 230.04976 92.762503 223.86559 95.236173 218.91826 89.052003 206.54992 122.446503 211.49726 129.867503 233.76026 137.288503 233.76026 134.814843 241.18126 137.288503"></polygon>
                        <polygon id="Tama" points="295.60193 278.287513 299.31243 270.866513 310.44393 263.445513 310.44393 257.261343 316.6281 253.550843 314.15443 239.945683 319.10176 234.998343 289.41776 225.103683 285.70726 233.761513 281.99676 232.524683 274.57576 241.182513 264.68109 234.998343 263.44426 237.472013 278.28626 254.787683 263.44426 262.208683 253.54959 268.392843 243.65492 283.234853 264.68109 278.287513 270.86526 284.471683 275.81259 283.234853 281.99676 286.945353 286.94409 280.761183 293.12826 281.998013"></polygon>
                        <polygon id="Inagi" points="368.5751 242.419343 363.62776 238.708843 354.96993 232.524683 346.3121 234.998343 330.23326 231.287843 319.10176 234.998343 314.15443 239.945683 316.6281 253.550843 310.44393 257.261343 310.44393 263.445513 314.15443 268.392843 320.3386 269.629683 321.57543 277.050683 333.94376 286.945353 343.83843 285.708513 338.8911 272.103353 354.96993 264.682343 357.4436 263.445513 359.91726 257.261343 366.10143 254.787683 363.62776 248.603513"></polygon>
                        <polygon id="Hamura" points="195.41842 117.499173 184.28692 91.525673 174.39225 85.341503 165.73442 87.815173 158.31342 84.104673 153.36609 80.394173 147.18192 87.815173 150.89242 112.551843 164.49759 116.262343 168.20809 121.209673 178.10275 111.315003"></polygon>
                        <polygon id="Akiruno" points="168.209345 121.208922 164.498845 116.261592 150.893675 112.551092 143.472675 105.130092 113.788675 105.130092 118.736005 111.314252 133.578005 115.024752 134.814845 126.156252 139.762175 128.629922 138.525345 138.524592 119.972835 137.287752 101.420335 129.866752 85.341505 128.629922 74.210004 123.682592 71.736337 115.024752 53.183836 103.893252 42.052336 102.656422 40.815502 93.998592 24.736668 84.103922 21.026168 84.103922 21.026168 90.288092 17.315668 90.288092 11.131501 82.867082 11.131501 87.814422 7.421 85.340752 1.236833 90.288092 2.84217094e-14 93.998592 9.894667 102.656422 3.7105 106.366922 3.7105 110.077422 12.368334 112.551092 25.973501 131.103592 27.210335 168.208592 33.394502 173.155922 33.394502 187.997922 59.368003 189.234762 65.55217 163.261262 76.683671 153.366592 106.367675 163.261262 112.551835 160.787592 124.920175 164.498092 129.867505 158.313922 150.893675 162.024422 158.314675 159.550762 159.551505 162.024422 163.262005 157.077092 169.446175 159.550762 173.156675 153.366592 183.051345 162.024422 181.814505 143.471922 173.156675 137.287752"></polygon>
                        <polygon id="Nishitokyo" points="366.10143 153.367343 368.5751 155.841013 372.2856 155.841013 372.2856 160.788343 379.7066 162.025173 395.78543 150.893673 405.6801 150.893673 409.3906 117.499173 403.20643 103.894003 397.02227 107.604503 385.89077 111.315003 374.75927 123.683343 369.81193 124.920173 373.52243 128.630673 362.39093 137.288503 359.91726 139.762173"></polygon>
                    </g>
                    <g id="Special-Wards" transform="translate(586.259, 95.2362)" fill="#DCB6F2" stroke-width="0.49473336">
                        <path d="M258.498181,133.578007 L269.629681,142.235841 L268.392848,186.761843 L273.340181,186.761843 L272.103348,204.077511 L281.998015,207.788011 L294.366349,206.551178 L304.261016,200.367011 L307.971517,187.998677 L306.734683,169.446176 L305.49785,168.209342 L306.734683,160.788342 L326.524018,154.604175 L337.655518,138.525341 L335.181851,127.39384 L320.339851,111.315006 L316.62935,103.894006 L320.339851,87.8151714 L310.445183,77.9205042 L309.20835,76.6836708 L300.550516,77.9205042 L305.49785,82.8678378 L296.840016,92.762505 L293.129516,92.762505 L288.182182,122.446507 L280.761182,119.97284 L273.340181,123.68334 L264.682348,113.788673 L256.024514,118.736006 L262.208681,124.920173 L258.498181,133.578007 Z M272.103348,211.498511 L272.103348,207.788011 L279.524348,209.024845 L279.524348,212.735345 L280.761182,210.261678 L273.340181,206.551178 L272.103348,211.498511 Z M280.761182,212.735345 L283.234849,210.261678 L289.419016,212.735345 L288.182182,215.209012 L289.419016,212.735345 L284.471682,210.261678 L280.761182,212.735345 Z" id="Edogawa"></path>
                        <polygon id="Adachi" points="238.708846 66.7890036 243.65618 66.7890036 246.129847 71.7363372 247.36668 64.3153368 252.314014 69.2626704 254.78768 61.84167 259.735014 63.0785034 267.156014 55.657503 279.524348 59.3680032 267.156014 34.6313352 268.392848 23.4998346 259.735014 18.552501 248.603513 27.2103348 243.65618 18.552501 247.36668 6.184167 243.65618 2.4736668 243.65618 6.184167 238.708846 9.8946672 222.630012 13.6051674 206.551178 12.368334 194.182844 0 181.81451 4.9473336 176.867176 9.8946672 186.761843 27.2103348 181.81451 35.8681686 174.393509 35.8681686 165.735676 43.289169 163.262009 53.1838362 173.156676 59.3680032 185.52501 55.657503 185.52501 60.6048366 175.630343 68.025837 184.288177 72.9731706 210.261678 74.210004 216.445845 77.9205042 213.972178 82.8678378 217.682678 89.0520048 238.708846 91.5256716 243.65618 86.578338 237.472013 72.9731706"></polygon>
                        <polygon id="Nerima" points="2.4736668 112.551839 22.2630012 123.68334 23.4998346 113.788673 29.6840016 116.26234 39.5786688 106.367672 58.1311698 102.657172 60.6048366 96.4730052 65.5521702 96.4730052 76.6836708 107.604506 91.5256716 107.604506 102.657172 97.7098386 108.841339 101.420339 110.078173 98.946672 111.315006 91.5256716 111.315006 86.578338 103.894006 85.3415046 105.130839 69.2626704 100.183505 58.1311698 75.4468374 54.4206696 68.025837 56.8943364 58.1311698 44.5260024 56.8943364 58.1311698 51.9470028 59.3680032 49.473336 54.4206696 33.3945018 56.8943364 39.5786688 50.7101694 32.1576684 46.9996692 32.1576684 45.7628358 29.6840016 45.7628358 24.736668 45.7628358 18.552501 54.4206696 7.4210004 60.6048366 7.4210004 63.0785034 0 65.5521702 6.184167 79.1573376"></polygon>
                        <polygon id="Itabashi" points="150.893675 77.9205042 144.709508 66.7890036 136.051674 59.3680032 132.341174 39.5786688 126.157007 40.8155022 119.97284 35.8681686 126.157007 22.2630012 90.2888382 19.7893344 79.1573376 23.4998346 74.210004 23.4998346 70.4995038 30.920835 58.1311698 43.289169 58.1311698 44.5260024 68.025837 56.8943364 75.4468374 54.4206696 100.183505 58.1311698 105.130839 69.2626704 103.894006 85.3415046 111.315006 86.578338 111.315006 91.5256716 122.446507 86.578338 128.630674 87.8151714 133.578007 95.2361718 139.762174 84.1046712 148.420008 84.1046712"></polygon>
                        <polygon id="Katsushika" points="264.682348 113.788673 273.340181 123.68334 280.761182 119.97284 288.182182 122.446507 293.129516 92.762505 296.840016 92.762505 305.49785 82.8678378 300.550516 77.9205042 309.20835 76.6836708 299.313683 56.8943364 301.78735 51.9470028 312.91885 44.5260024 312.91885 39.5786688 296.840016 42.0523356 291.892682 34.6313352 296.840016 27.2103348 294.366349 23.4998346 279.524348 25.9735014 277.050682 30.920835 268.392848 23.4998346 267.156014 34.6313352 279.524348 59.3680032 267.156014 55.657503 259.735014 63.0785034 254.78768 61.84167 252.314014 69.2626704 247.36668 64.3153368 246.129847 71.7363372 243.65618 66.7890036 238.708846 66.7890036 237.472013 72.9731706 243.65618 86.578338"></polygon>
                        <polygon id="Arakawa" points="189.23551 101.420339 205.314344 107.604506 216.445845 100.183505 233.761513 103.894006 238.708846 91.5256716 217.682678 89.0520048 213.972178 82.8678378 216.445845 77.9205042 210.261678 74.210004 184.288177 72.9731706 178.10401 74.210004 176.867176 77.9205042 194.182844 89.0520048 196.656511 92.762505 191.709177 95.2361718 187.998677 98.946672"></polygon>
                        <polygon id="Kita" points="179.340843 96.4730052 187.998677 98.946672 191.709177 95.2361718 196.656511 92.762505 194.182844 89.0520048 176.867176 77.9205042 178.10401 74.210004 184.288177 72.9731706 175.630343 68.025837 185.52501 60.6048366 185.52501 55.657503 173.156676 59.3680032 163.262009 53.1838362 165.735676 43.289169 165.735676 34.6313352 153.367342 34.6313352 149.656841 30.920835 136.051674 29.6840016 127.39384 22.2630012 126.157007 22.2630012 119.97284 35.8681686 126.157007 40.8155022 132.341174 39.5786688 136.051674 59.3680032 144.709508 66.7890036 150.893675 77.9205042 148.420008 84.1046712 153.367342 90.2888382 155.841008 85.3415046 160.788342 84.1046712 162.025175 89.0520048 169.446176 87.8151714"></polygon>
                        <polygon id="Toshima" points="179.340843 96.4730052 169.446176 87.8151714 162.025175 89.0520048 160.788342 84.1046712 155.841008 85.3415046 153.367342 90.2888382 148.420008 84.1046712 139.762174 84.1046712 133.578007 95.2361718 128.630674 87.8151714 122.446507 86.578338 111.315006 91.5256716 110.078173 98.946672 108.841339 101.420339 108.841339 102.657172 115.025506 111.315006 134.814841 110.078173 136.051674 121.209673 150.893675 122.446507 148.420008 121.209673 147.183175 116.26234 153.367342 113.788673 153.367342 106.367672 164.498842 107.604506 164.498842 102.657172 171.919843 95.2361718 176.867176 98.946672"></polygon>
                        <polygon id="Suginami" points="96.4730052 164.498842 91.5256716 152.130508 98.946672 147.183175 98.946672 143.472674 92.762505 142.235841 90.2888382 126.157007 84.1046712 126.157007 65.5521702 117.499173 58.1311698 102.657172 39.5786688 106.367672 29.6840016 116.26234 23.4998346 113.788673 22.2630012 123.68334 30.920835 131.10434 22.2630012 144.709508 29.6840016 149.656841 25.9735014 152.130508 29.6840016 158.314675 40.8155022 162.025175 43.289169 171.919843 50.7101694 171.919843 45.7628358 164.498842 58.1311698 170.683009 71.7363372 176.867176 93.9993384 169.446176"></polygon>
                        <polygon id="Nakano" points="98.946672 147.183175 91.5256716 152.130508 96.4730052 164.498842 115.025506 145.946341 118.736006 128.630674 124.920173 123.68334 113.788673 124.920173 112.551839 122.446507 110.078173 116.26234 105.130839 115.025506 108.841339 102.657172 108.841339 101.420339 102.657172 97.7098386 91.5256716 107.604506 76.6836708 107.604506 65.5521702 96.4730052 60.6048366 96.4730052 58.1311698 102.657172 65.5521702 117.499173 84.1046712 126.157007 90.2888382 126.157007 92.762505 142.235841 98.946672 143.472674"></polygon>
                        <polygon id="Shibuya" points="106.367672 179.340843 117.499173 181.81451 138.525341 204.077511 147.183175 205.314344 148.420008 205.314344 152.130508 199.130177 152.130508 187.998677 142.235841 185.52501 139.762174 176.867176 145.946341 168.209342 142.235841 166.972509 144.709508 159.551509 136.051674 150.893675 129.867507 149.656841 118.736006 158.314675 116.26234 154.604175 115.025506 145.946341 96.4730052 164.498842 93.9993384 169.446176 101.420339 169.446176"></polygon>
                        <polygon id="Setagaya" points="25.9735014 227.577346 25.9735014 232.524679 32.1576684 232.524679 53.1838362 237.472013 76.6836708 256.024514 87.8151714 264.682348 90.2888382 260.971847 85.3415046 258.498181 92.762505 253.550847 101.420339 254.78768 108.841339 262.208681 111.315006 252.314014 108.841339 243.65618 95.2361718 243.65618 98.946672 232.524679 93.9993384 216.445845 111.315006 223.866845 117.499173 207.788011 115.025506 192.94601 106.367672 179.340843 101.420339 169.446176 93.9993384 169.446176 71.7363372 176.867176 58.1311698 170.683009 45.7628358 164.498842 50.7101694 171.919843 43.289169 171.919843 40.8155022 162.025175 29.6840016 158.314675 27.2103348 158.314675 21.0261678 158.314675 23.4998346 166.972509 18.552501 168.209342 24.736668 173.156676 24.736668 176.867176 22.2630012 179.340843 28.4471682 194.182844 28.4471682 200.367011 23.4998346 200.367011 21.0261678 206.551178 29.6840016 222.630012"></polygon>
                        <path d="M200.367011,258.498181 L194.182844,262.208681 L189.23551,259.735014 L189.23551,270.866515 L183.051343,270.866515 L183.051343,265.919181 L175.630343,264.682348 L159.551509,268.392848 L157.077842,259.735014 L148.420008,263.445514 L144.709508,253.550847 L133.578007,252.314014 L126.157007,244.893013 L116.26234,238.708846 L116.26234,247.36668 L111.315006,248.603513 L111.315006,252.314014 L108.841339,262.208681 L101.420339,254.78768 L92.762505,253.550847 L85.3415046,258.498181 L90.2888382,260.971847 L87.8151714,264.682348 L98.946672,268.392848 L112.551839,298.076849 L133.578007,309.20835 L128.630674,319.103017 L133.578007,327.760851 L147.183175,325.287184 L155.841008,319.103017 L162.025175,322.813517 L168.209342,317.866184 L185.52501,319.103017 L223.866845,343.839685 L233.761513,324.050351 L211.498511,288.182182 L197.893344,289.419016 L190.472344,299.313683 L185.52501,294.366349 L180.577676,296.840016 L170.683009,288.182182 L170.683009,283.234849 L150.893675,283.234849 L189.23551,279.524348 L194.182844,274.577015 L194.182844,279.524348 L209.024845,279.524348 L212.735345,277.050682 L207.788011,269.629681 L195.419677,273.340181 L202.840678,264.682348 L200.367011,258.498181 Z M173.156676,286.945349 L178.10401,291.892682 L184.288177,289.419016 L180.577676,281.998015 L173.156676,286.945349 Z M184.288177,286.945349 L192.94601,294.366349 L200.367011,283.234849 L185.52501,283.234849 L184.288177,286.945349 Z" id="Ota"></path>
                        <polygon id="Meguro" points="126.157007 244.893013 126.157007 237.472013 133.578007 227.577346 126.157007 225.103679 144.709508 220.156345 142.235841 210.261678 147.183175 205.314344 138.525341 204.077511 117.499173 181.81451 106.367672 179.340843 115.025506 192.94601 117.499173 207.788011 111.315006 223.866845 93.9993384 216.445845 98.946672 232.524679 95.2361718 243.65618 108.841339 243.65618 111.315006 252.314014 111.315006 248.603513 116.26234 247.36668 116.26234 238.708846"></polygon>
                        <path d="M133.578007,252.314014 L144.709508,253.550847 L148.420008,263.445514 L157.077842,259.735014 L159.551509,268.392848 L175.630343,264.682348 L183.051343,265.919181 L183.051343,270.866515 L189.23551,270.866515 L189.23551,259.735014 L194.182844,262.208681 L200.367011,258.498181 L186.761843,234.998346 L186.761843,221.393179 L184.288177,225.103679 L163.262009,226.340512 L158.314675,216.445845 L154.604175,212.735345 L147.183175,212.735345 L148.420008,205.314344 L147.183175,205.314344 L142.235841,210.261678 L144.709508,220.156345 L126.157007,225.103679 L133.578007,227.577346 L126.157007,237.472013 L126.157007,244.893013 L133.578007,252.314014 Z M200.367011,230.051012 L197.893344,226.340512 L195.419677,222.630012 L194.182844,222.630012 L196.656511,231.287846 L200.367011,230.051012 Z" id="Shinagawa"></path>
                        <path d="M200.367011,201.603844 L212.735345,221.393179 L217.682678,218.919512 L223.866845,227.577346 L227.577346,222.630012 L225.103679,211.498511 L231.287846,210.261678 L231.287846,206.551178 L257.261347,201.603844 L257.261347,212.735345 L244.893013,216.445845 L263.445514,213.972178 L264.682348,190.472344 L268.392848,186.761843 L269.629681,142.235841 L258.498181,133.578007 L242.419346,127.39384 L243.65618,144.709508 L236.235179,145.946341 L233.761513,152.130508 L215.209012,149.656841 L217.682678,154.604175 L212.735345,166.972509 L215.209012,189.23551 L200.367011,201.603844 Z M244.893013,207.788011 L244.893013,213.972178 L248.603513,212.735345 L248.603513,209.024845 L256.024514,206.551178 L248.603513,206.551178 L249.840347,204.077511 L244.893013,207.788011 Z M249.840347,217.682678 L251.07718,230.051012 L254.78768,228.814179 L258.498181,238.708846 L263.445514,216.445845 L249.840347,217.682678 Z M207.788011,218.919512 L197.893344,226.340512 L200.367011,230.051012 L212.735345,251.07718 L217.682678,242.419346 L206.551178,225.103679 L210.261678,222.630012 L207.788011,218.919512 Z M211.498511,223.866845 L220.156345,237.472013 L222.630012,232.524679 L215.209012,221.393179 L211.498511,223.866845 Z" id="Koto"></path>
                        <polygon id="Sumida" points="213.972178 144.709508 215.209012 149.656841 233.761513 152.130508 236.235179 145.946341 243.65618 144.709508 242.419346 127.39384 258.498181 133.578007 262.208681 124.920173 256.024514 118.736006 264.682348 113.788673 243.65618 86.578338 238.708846 91.5256716 233.761513 103.894006 231.287846 115.025506 213.972178 143.472674"></polygon>
                        <polygon id="Chiyoda" points="166.972509 165.735676 175.630343 171.919843 185.52501 173.156676 196.656511 158.314675 194.182844 150.893675 207.788011 140.999008 196.656511 131.10434 194.182844 137.288507 173.156676 133.578007 159.551509 149.656841 159.551509 158.314675"></polygon>
                        <polygon id="Taito" points="207.788011 140.999008 213.972178 143.472674 231.287846 115.025506 233.761513 103.894006 216.445845 100.183505 205.314344 107.604506 189.23551 101.420339 189.23551 111.315006 194.182844 117.499173 190.472344 116.26234 192.94601 126.157007 197.893344 127.39384 196.656511 131.10434"></polygon>
                        <polygon id="Chuo" points="191.709177 192.94601 200.367011 201.603844 215.209012 189.23551 212.735345 166.972509 217.682678 154.604175 215.209012 149.656841 213.972178 144.709508 213.972178 143.472674 207.788011 140.999008 194.182844 150.893675 196.656511 158.314675 185.52501 173.156676 189.23551 176.867176 186.761843 184.288177 192.94601 189.23551"></polygon>
                        <path d="M139.762174,176.867176 L142.235841,185.52501 L152.130508,187.998677 L152.130508,199.130177 L148.420008,205.314344 L147.183175,212.735345 L154.604175,212.735345 L158.314675,216.445845 L163.262009,226.340512 L184.288177,225.103679 L186.761843,221.393179 L186.761843,213.972178 L180.577676,212.735345 L181.81451,207.788011 L187.998677,210.261678 L186.761843,200.367011 L187.998677,192.94601 L191.709177,192.94601 L192.94601,189.23551 L186.761843,184.288177 L189.23551,176.867176 L185.52501,173.156676 L175.630343,171.919843 L166.972509,165.735676 L159.551509,158.314675 L149.656841,160.788342 L145.946341,168.209342 L139.762174,176.867176 Z M197.893344,226.340512 L207.788011,218.919512 L202.840678,211.498511 L197.893344,215.209012 L201.603844,212.735345 L204.077511,216.445845 L195.419677,222.630012 L197.893344,226.340512 Z" id="Minato"></path>
                        <polygon id="Shinjuku" points="173.156676 133.578007 170.683009 127.39384 160.788342 128.630674 150.893675 122.446507 136.051674 121.209673 134.814841 110.078173 115.025506 111.315006 108.841339 102.657172 105.130839 115.025506 110.078173 116.26234 112.551839 122.446507 113.788673 124.920173 124.920173 123.68334 118.736006 128.630674 115.025506 145.946341 116.26234 154.604175 118.736006 158.314675 129.867507 149.656841 136.051674 150.893675 144.709508 159.551509 142.235841 166.972509 145.946341 168.209342 149.656841 160.788342 159.551509 158.314675 159.551509 149.656841"></polygon>
                        <polygon id="Bunkyo" points="194.182844 117.499173 189.23551 111.315006 189.23551 101.420339 187.998677 98.946672 179.340843 96.4730052 176.867176 98.946672 171.919843 95.2361718 164.498842 102.657172 164.498842 107.604506 153.367342 106.367672 153.367342 113.788673 147.183175 116.26234 148.420008 121.209673 150.893675 122.446507 160.788342 128.630674 170.683009 127.39384 173.156676 133.578007 194.182844 137.288507 196.656511 131.10434 197.893344 127.39384 192.94601 126.157007 190.472344 116.26234"></polygon>
                    </g>
                </g>
                <g id="Text" transform="translate(99.3626, 90.2614)" fill="#000000" font-family="Helvetica" font-size="6" font-weight="normal">
                    <g id="Villages" transform="translate(34, 107)">
                        <text id="Hinohara">
                            <tspan x="0.325683594" y="6">Hinohara</tspan>
                        </text>
                    </g>
                    <g id="Towns">
                        <text id="Okutama">
                            <tspan x="0.328613281" y="6">Okutama</tspan>
                        </text>
                        <text id="Hinode">
                            <tspan x="159.493164" y="76">Hinode</tspan>
                        </text>
                        <text id="Mizuho">
                            <tspan x="274.329102" y="53">Mizuho</tspan>
                        </text>
                    </g>
                    <g id="Cities" transform="translate(163, 14)">
                        <text id="Nishitokyo">
                            <tspan x="295.163574" y="89">Nishi-Tokyo</tspan>
                        </text>
                        <text id="Akiruno">
                            <tspan x="0.328125" y="97">Akiruno</tspan>
                        </text>
                        <text id="Hamura">
                            <tspan x="77.3300781" y="55">Hamura</tspan>
                        </text>
                        <text id="Inagi">
                            <tspan x="249.494629" y="207">Inagi</tspan>
                        </text>
                        <text id="Tama">
                            <tspan x="205.331543" y="208">Tama</tspan>
                        </text>
                        <text id="Musashimurayama">
                            <tspan x="140.830078" y="63">Musashi-</tspan>
                            <tspan x="138.829102" y="70">Murayama</tspan>
                        </text>
                        <text id="Higashikurume">
                            <tspan x="270.996094" y="64">Higashi-</tspan>
                            <tspan x="271.495605" y="71">Kurume</tspan>
                        </text>
                        <text id="Kiyose">
                            <tspan x="274.495605" y="37">Kiyose</tspan>
                        </text>
                        <text id="Higashiyamato">
                            <tspan x="183.996094" y="67">Higashi-</tspan>
                            <tspan x="184.661133" y="74">Yamato</tspan>
                        </text>
                        <text id="Komae">
                            <tspan x="327.494629" y="206">Komae</tspan>
                        </text>
                        <text id="Fussa">
                            <tspan x="100.830566" y="87">Fussa</tspan>
                        </text>
                        <text id="Kunitachi">
                            <tspan x="192.658691" y="152">Kunitachi</tspan>
                        </text>
                        <text id="Kokubunji">
                            <tspan x="211.82373" y="123">Kokubunji</tspan>
                        </text>
                        <text id="Higashimurayama">
                            <tspan x="223.996094" y="58">Higashi-</tspan>
                            <tspan x="220.829102" y="65">Murayama</tspan>
                        </text>
                        <text id="Hino">
                            <tspan x="161.830078" y="168">Hino</tspan>
                        </text>
                        <text id="Kodaira">
                            <tspan x="234.659668" y="97">Kodaira</tspan>
                        </text>
                        <text id="Koganei">
                            <tspan x="261.990234" y="128">Koganei</tspan>
                        </text>
                        <text id="Machida">
                            <tspan x="206.160645" y="297">Machida</tspan>
                        </text>
                        <text id="Chofu">
                            <tspan x="303.994629" y="179">Chofu</tspan>
                        </text>
                        <text id="Akishima">
                            <tspan x="121.830078" y="120">Akishima</tspan>
                        </text>
                        <text id="Fuchu">
                            <tspan x="238.662109" y="163">Fuchu</tspan>
                        </text>
                        <text id="Ome">
                            <tspan x="14.4990234" y="6">Ome</tspan>
                        </text>
                        <text id="Mitaka">
                            <tspan x="314.164062" y="141">Mitaka</tspan>
                        </text>
                        <text id="Musashino">
                            <tspan x="305.492187" y="118">Musashino</tspan>
                        </text>
                        <text id="Tachikawa">
                            <tspan x="169.660645" y="120">Tachikawa</tspan>
                        </text>
                        <text id="Hachioji">
                            <tspan x="52.3286133" y="174">Hachioji</tspan>
                        </text>
                    </g>
                    <g id="Special-Wards" transform="translate(521, 46)">
                        <text id="Edogawa">
                            <tspan x="249.490234" y="105">Edogawa</tspan>
                        </text>
                        <text id="Katsushika">
                            <tspan x="229.325195" y="37">Katsushika</tspan>
                        </text>
                        <text id="Adachi">
                            <tspan x="176.827148" y="6">Adachi</tspan>
                        </text>
                        <text id="Nerima">
                            <tspan x="0.33203125" y="42">Nerima</tspan>
                        </text>
                        <text id="Itabashi">
                            <tspan x="58.4926758" y="7">Itabashi</tspan>
                        </text>
                        <text id="Arakawa">
                            <tspan x="164.328125" y="55">Arakawa</tspan>
                        </text>
                        <text id="Kita">
                            <tspan x="115.830566" y="22">Kita</tspan>
                        </text>
                        <text id="Toshima">
                            <tspan x="94.496582" y="62">Toshima</tspan>
                        </text>
                        <text id="Suginami">
                            <tspan x="9.49316406" y="100">Suginami</tspan>
                        </text>
                        <text id="Nakano">
                            <tspan x="45.659668" y="78">Nakano</tspan>
                        </text>
                        <text id="Shibuya">
                            <tspan x="80.1586914" y="132">Shibuya</tspan>
                        </text>
                        <text id="Setagaya">
                            <tspan x="22.3232422" y="171">Setagaya</tspan>
                        </text>
                        <text id="Ota">
                            <tspan x="118.164551" y="260">Ota</tspan>
                        </text>
                        <text id="Meguro">
                            <tspan x="84.828125" y="175">Meguro</tspan>
                        </text>
                        <text id="Shinagawa">
                            <tspan x="111.655273" y="202">Shinagawa</tspan>
                        </text>
                        <text id="Koto">
                            <tspan x="202.828613" y="140">Koto</tspan>
                        </text>
                        <text id="Sumida">
                            <tspan x="199.328125" y="80">Sumida</tspan>
                        </text>
                        <text id="Taito">
                            <tspan x="167.330566" y="79">Taito</tspan>
                        </text>
                        <text id="Bunkyo">
                            <tspan x="127.993652" y="77">Bunkyo</tspan>
                        </text>
                        <text id="Shinjuku">
                            <tspan x="96.4921875" y="99">Shinjuku</tspan>
                        </text>
                        <text id="Minato">
                            <tspan x="126.495605" y="155">Minato</tspan>
                        </text>
                        <text id="Chuo">
                            <tspan x="159.828125" y="129">Chuo</tspan>
                        </text>
                        <text id="Chiyoda">
                            <tspan x="134.993164" y="111">Chiyoda</tspan>
                        </text>
                    </g>
                </g>
            </g>
            <g id="Info" transform="translate(20, 390)" fill="#000000">
                <g id="Scale" transform="translate(866.9761, 66)">
                    <rect id="rect5934" fill-rule="nonzero" x="0" y="15" width="105.130839" height="3"></rect>
                    <text id="10-km" font-family="Helvetica" font-size="12" font-weight="normal">
                        <tspan x="36" y="11">10 km</tspan>
                    </text>
                </g>
            </g>
        </g>
    </g>
</svg>