<?xml version="1.0" encoding="UTF-8"?>
<svg width="1102px" height="902px" viewBox="0 0 1102 902" version="1.1" xmlns="http://www.w3.org/2000/svg" xmlns:xlink="http://www.w3.org/1999/xlink">
    <title>Tokyo</title>
    <g id="Page-1" stroke="none" stroke-width="1" fill="none" fill-rule="evenodd">
        <g id="Tokyo" transform="translate(1, 1)">
            <polygon id="Background" fill="#FCFCFC" fill-rule="nonzero" points="0 3.97720669e-14 0 900 1100 900 1100 0"></polygon>
            <g id="Borders" transform="translate(0, 0)">
                <g id="Map" fill="#EEEEEE" fill-rule="nonzero" stroke="#999999" stroke-width="0.5">
                    <polygon id="Shizuoka" points="63.8101093 599.302927 63.9004344 599.304706 70.00498 599.304706 88.3129905 611.38219 87.9495232 636.157378 87.9495232 646.404866 89.9832758 653.679101 93.3736647 663.958165 98.7425626 681.938965 101.93848 692.698744 101.93848 712.626311 98.7425626 721.846826 94.2540949 731.499898 79.0653276 749.771951 73.0078494 763.985867 71.3818535 787.127177 76.615403 816.735469 87.1261858 842.591875 105.724109 872.129468 115.400092 884.909657 122.918585 890.773006 131.500391 897.939041 136.890133 899.762845 136.810001 899.999996 134.451075 899.999996 2.94183224e-15 899.999996 2.94183224e-15 611.38219 1.98309753 611.064598"></polygon>
                    <polygon id="Saitama" points="0.309217606 0 0.309217606 69.5718787 8.96705141 60.9140449 23.8090522 65.8613785 28.7563858 63.3877118 39.8878864 58.4403782 38.651053 52.2562112 41.1247198 43.5983773 62.1508876 29.9932099 73.2823882 23.8090429 79.4665552 28.7563765 94.308556 25.0458764 102.96639 10.2038755 110.38739 7.73020875 151.202892 37.4142103 161.09756 39.8878772 170.992227 36.1773769 188.307894 44.8352108 232.833897 49.7825444 243.965397 57.2035447 247.675898 64.6245452 248.912731 64.6245452 271.175732 74.5192124 284.7809 75.7560457 288.4914 69.5718787 293.438733 69.5718787 311.991234 80.7033794 319.412235 75.7560457 321.885902 80.7033794 339.201569 81.9402128 354.04357 78.2297126 358.990904 76.9928792 362.701404 81.9402128 367.648737 79.4665459 371.359238 83.1770461 378.780238 83.1770461 381.253905 98.0190469 391.148572 94.3085468 391.148572 101.729547 391.148572 106.676881 398.569572 127.703049 404.753739 131.413549 420.832574 127.703049 424.543074 131.413549 443.095575 133.887216 440.621908 140.071383 445.569242 147.492383 443.095575 148.729216 449.279742 147.492383 452.990242 153.67655 451.753409 157.38705 450.516575 158.623884 451.753409 161.09755 456.700742 164.808051 462.884909 162.334384 462.884909 166.044884 475.253243 159.860717 490.095244 163.571217 507.410912 158.623884 509.884578 162.334384 540.805413 152.439717 549.463247 146.25555 555.647414 147.492383 561.831581 145.018716 563.068415 148.729216 579.147249 137.597716 586.568249 136.360882 605.12075 115.334715 610.068084 120.282048 601.41025 133.887216 607.594417 137.597716 606.357584 147.492383 586.568249 156.150217 581.620916 163.571217 610.068084 153.67655 607.594417 175.939551 618.725918 172.229051 624.910085 168.518551 632.331085 166.044884 632.331085 163.571217 643.462586 157.38705 649.646753 148.729216 654.594086 148.729216 657.067753 148.729216 657.067753 149.96605 664.488753 153.67655 658.304586 159.860717 674.383421 157.38705 676.857087 162.334384 681.804421 161.09755 683.041254 147.492383 683.041254 146.25555 695.409588 133.887216 699.120089 126.466215 704.067422 126.466215 715.198923 122.755715 751.067091 125.229382 752.303925 125.229382 760.961759 132.650382 774.566926 133.887216 778.277426 137.597716 790.64576 137.597716 790.64576 146.25555 799.303594 138.834549 806.724594 138.834549 811.671928 130.176715 801.777261 112.861048 806.724594 107.913714 819.092928 102.966381 831.461262 115.334715 847.540097 116.571548 863.618931 112.861048 868.566264 109.150548 868.566264 105.440047 872.276765 109.150548 868.566264 121.518882 873.513598 130.176715 884.645099 121.518882 893.302932 126.466215 901.960766 133.887216 904.434433 128.939882 919.276434 126.466215 921.750101 130.176715 916.802767 137.597716 921.750101 145.018716 937.828935 142.545049 932.881601 128.939882 935.355268 101.729547 932.881601 88.1243798 942.776268 44.8352108 934.118435 15.1512091 924.030512 0"></polygon>
                    <polygon id="Yamanashi" points="39.8742441 58.4487515 28.7427435 63.3960851 23.7954099 65.8697519 8.95340913 60.9224183 0.295575334 69.5802521 0.295575334 482.682608 0 611.725235 7.65733145 586.118463 33.1729702 542.683181 44.8215777 532.960322 61.4373792 519.082186 74.827529 512.176361 88.3129905 508.984583 124.635983 482.682608 132.636749 474.024774 135.110416 461.65644 153.662917 461.65644 163.557584 460.419607 172.215418 459.182773 187.057419 444.340772 199.425753 428.261938 198.188919 414.656771 214.267754 398.577937 214.267754 392.39377 213.03092 378.788602 206.846753 371.367602 214.267754 362.709768 216.74142 352.815101 217.978254 346.630934 213.03092 341.6836 219.215087 337.9731 209.32042 328.078433 213.03092 308.289098 203.136253 294.683931 204.373086 290.973431 210.557253 281.078764 216.74142 272.42093 193.241586 251.394762 179.636418 251.394762 170.978585 246.447428 159.847084 243.973762 117.794748 218.00026 105.426414 196.974092 104.189581 194.500426 102.952748 192.026759 98.0054139 180.895258 85.6370799 174.711091 76.9792461 158.632257 79.4529129 143.790256 69.5582457 132.658756 64.6109121 114.106255 64.6109121 86.8959197 57.1899117 88.1327531 48.5320779 80.7117527 43.5847443 72.0539189 44.8215777 64.6329185"></polygon>
                    <path d="M216.74142,272.42093 L210.557253,281.078764 L204.373086,290.973431 L203.136253,294.683931 L213.03092,308.289098 L209.32042,328.078433 L219.215087,337.9731 L213.03092,341.6836 L217.978254,346.630934 L216.74142,352.815101 L214.267754,362.709768 L206.846753,371.367602 L213.03092,378.788602 L214.267754,392.39377 L214.267754,398.577937 L198.188919,414.656771 L199.425753,428.261938 L187.057419,444.340772 L172.215418,459.182773 L163.557584,460.419607 L153.662917,461.65644 L135.110416,461.65644 L132.636749,474.024774 L124.635983,482.682608 L88.3129905,508.950056 C80.1594621,510.461459 73.9566701,512.268386 69.7046144,514.370835 C65.4525587,516.473283 59.2025221,520.823717 50.9545046,527.422135 L33.1729702,542.683181 L7.65733145,586.118463 L0.295575334,611.38219 L69.7046144,599.005664 L88.3129905,611.38219 L88.3129905,646.644734 L101.93848,692.698744 L101.93848,712.626311 L95.9497536,728.681483 L79.1142313,747.809581 L73.3626907,764.14097 L69.7046144,792.342262 L79.1142313,825.254205 L101.93848,873.287049 L132.024491,898.348396 L136.81,899.999996 L199.425753,899.999996 L227.285683,899.999996 L257.600104,894.688508 L241.406823,838.581724 L261.267414,792.342262 L294.661925,747.809581 L353,712.626311 L413.397931,692.698744 L505.333132,686.040328 L551.923272,687.135543 L572.94944,692.698744 L585.317774,702.354219 L598.807318,709.071561 L619.001588,704.905826 L630.492385,704.905826 L645.312327,712.626311 L652.764495,728.681483 L704.417263,807.714362 L704.417263,819.557209 L710.079732,826.842459 L708.318842,843.311958 L701.580113,867.308397 L706.178153,888.50813 L735.560843,892.626544 L748.404981,885.474933 L758.47445,883.064758 L766.738951,877.972728 L763.631499,867.308397 L753.527116,854.957687 L748.404981,846.557519 L756.346249,825.254205 L775.508873,807.714362 L814.131953,783.843925 L810.421452,779.315952 L808.689562,771.564329 L805.305891,766.972205 L823.639861,747.809581 L804.235546,737.278769 L772.079617,725.836706 L758.47445,704.905826 L749.61513,709.071561 L745.02131,712.626311 L735.560843,699.055684 L729.760265,677.684733 L728.68992,658.280418 L735.97517,624.547293 L718.435327,591.780932 L721.680888,573.96487 L735.560843,566.955838 L749.61513,569.648964 L762.423045,569.648964 L766.738951,553.455683 L762.423045,540.784182 L749.61513,530.642975 L729.760265,514.370835 L726.411122,494.793883 L777,482.682608 L791.250535,482.682608 L789.395285,480.208941 L791.868951,482.682608 L811.658286,482.682608 L811.658286,478.972108 L814.131953,482.682608 L826.500287,475.261607 L830.210787,474.024774 L830.210787,467.840607 L819.079286,465.36694 L816.605619,459.182773 L825.263453,454.23544 L827.73712,461.65644 L831.44762,457.94594 L841.342287,464.130107 L848.763288,446.814439 L810.421452,422.077771 L793.105785,420.840938 L786.921618,425.788271 L780.737451,422.077771 L772.079617,428.261938 L758.47445,430.735605 L753.527116,422.077771 L758.47445,412.183104 L737.448282,401.051603 L723.843114,371.367602 L712.711614,367.657102 L701.580113,358.999268 L678.080279,340.446767 L657.054111,335.499433 L650.869944,335.499433 L634.79111,329.315266 L624.896442,319.420599 L611.291275,314.473265 L590.265107,307.052265 L585.317774,313.236432 L587.79144,319.420599 L581.607273,321.894266 L579.133607,328.078433 L576.65994,329.315266 L560.581106,336.736267 L565.528439,350.341434 L555.633772,351.578267 L543.265438,341.6836 L542.028605,334.2626 L535.844438,333.025766 L532.133937,328.078433 L521.002437,335.499433 L517.291937,342.920434 L522.23927,351.578267 L533.370771,345.3941 L538.318104,355.288768 L550.686438,363.946601 L560.581106,370.130768 L560.581106,377.551769 L572.94944,384.972769 L571.712606,389.920103 L556.870605,402.288437 L549.449605,389.920103 L555.633772,376.314935 L551.923272,375.078102 L543.265438,377.551769 L537.081271,392.39377 L535.844438,399.81477 L546.975938,404.762104 L546.975938,423.314605 L553.160105,431.972438 L551.923272,435.682939 L553.160105,450.524939 L544.502271,460.419607 L546.975938,465.36694 L551.923272,469.07744 L534.607604,470.314274 L530.897104,452.998606 L523.476104,450.524939 L524.712937,443.103939 L521.002437,435.682939 L513.581436,424.551438 L502.449936,419.604104 L491.318435,403.52527 L486.371102,401.051603 L480.186935,384.972769 L474.002768,384.972769 L470.292267,375.078102 L462.871267,373.841269 L434.424099,357.762434 L413.397931,350.341434 L404.740097,354.051934 L398.55593,351.578267 L380.003429,351.578267 L367.635095,342.920434 L360.214095,341.6836 L346.608927,345.3941 L342.898427,354.051934 L335.477427,351.578267 L330.530093,355.288768 L319.398593,349.104601 L309.503925,340.446767 L308.267092,333.025766 L299.609258,325.604766 L302.082925,321.894266 L295.898758,313.236432 L294.661925,300.868098 L279.819924,294.683931 L266.214756,304.578598 L251.372756,297.157598 L250.135922,284.789264 L245.188589,277.368263 L237.767588,279.84193 L216.74142,272.42093 Z" id="Kanagawa"></path>
                    <polygon id="Chiba" points="1099.74933 453.412996 1091.63756 459.459287 1062.64424 499.816717 1053.45999 509.139075 1053.34865 509.204547 1040.30261 512.815147 997.980969 532.745859 984.711332 542.679996 978.002332 560.478996 989.434058 591.673953 989.447712 591.788296 986.754586 615.404936 986.710985 615.520004 974.453811 633.02532 974.349459 633.110865 958.238129 640.171534 939.663895 643.511405 920.967557 649.839835 892.99558 667.261532 876.778742 673.733558 855.797332 676.670996 855.929332 684.392996 905.085693 702.303178 921.61005 717.221107 951.683286 775.606689 951.70962 775.747732 950.742857 784.793872 950.711757 784.890596 942.045455 800.164155 932.725659 810.171423 908.210553 828.75076 899.828332 837.949996 910.548023 861.464622 914.732329 879.437807 914.993332 899.748996 1099.74933 899.749996"></polygon>
                    <polygon id="Chiba" points="924.030512 0 934.118435 15.1512091 942.776268 44.8352107 932.881601 88.1243797 935.355268 101.729547 932.881601 128.939882 937.828935 142.545049 937.828935 147.492383 926.697434 154.913383 924.223767 159.860717 934.118435 179.650051 935.355268 180.886885 945.249935 190.781552 941.539435 206.860386 945.249935 214.281387 960.091936 230.360221 962.565603 241.491721 951.434102 257.570556 931.644768 263.754723 930.407934 271.175723 931.644768 272.412556 932.881601 290.965057 929.171101 303.333391 919.276434 309.517558 922.986934 310.754392 918.0396 316.938559 919.276434 326.833226 934.118435 330.543726 937.828935 325.596393 942.776268 336.727893 982.354937 308.280725 961.328769 290.965057 962.565603 290.965057 973.697103 278.596723 989.775938 274.886223 987.302271 271.175723 972.46027 274.886223 976.17077 267.465223 978.644437 269.93889 988.539104 261.281056 1005.21697 252.499996 1025.08592 253.999996 1050.8783 257.570556 1082.81277 269.93889 1088.74266 269.93889 1096.75042 263.357718 1100 267.465223 1100 1.45874344e-22"></polygon>
                </g>
                <g id="Text" transform="translate(20, 20)" fill="#000000" font-family="Helvetica" font-size="12" font-weight="normal" opacity="0.25">
                    <text id="Saitama">
                        <tspan x="492.989258" y="11">Saitama</tspan>
                    </text>
                    <text id="Yamanashi">
                        <tspan x="0.982421875" y="281.75">Yamanashi</tspan>
                    </text>
                    <text id="Kanagawa">
                        <tspan x="306.643555" y="441">Kanagawa</tspan>
                    </text>
                    <text id="Chiba">
                        <tspan x="930.323242" y="151">Chiba</tspan>
                    </text>
                </g>
            </g>
            <g id="Municipalities">
                <g id="Map" fill-rule="nonzero">
                    <g id="Village">
                        <polygon id="Hinohara" stroke="#646464" stroke-width="0.5" fill="#B6F2DC" points="255.083247 252.631591 255.083247 237.789591 248.89908 232.842261 247.662246 195.737261 234.057079 177.184761 225.399245 174.711091 225.399245 171.000591 231.583412 167.290091 221.688745 158.632261 216.741411 163.579591 192.004743 147.500751 184.583743 151.211261 182.110076 156.158591 163.557575 156.158591 143.768241 169.763761 132.63674 172.237421 130.163073 188.316261 119.031573 187.079421 104.18957 194.500421 105.42641 196.974091 117.794739 218.000261 159.847075 243.973761 170.978576 246.447431 179.636409 251.394761 193.241577 251.394761 216.741411 272.420931 237.767579 279.841931 245.18858 277.368261"></polygon>
                    </g>
                    <g id="Town">
                        <polygon id="Mizuho" stroke="#646464" stroke-width="0.5" fill="#ECE3B4" points="417.10842 182.132091 415.87159 187.079421 419.58209 185.842591 425.76626 192.026761 423.29259 184.605761 428.23992 187.079421 440.60826 153.684921 445.55559 159.869091 451.73976 157.395421 452.97659 153.684921 449.26609 147.500751 443.08192 148.737591 445.55559 147.500751 440.60826 140.079751 443.08192 133.895591 424.52942 131.421921 420.81892 127.711421 404.74009 131.421921 401.02959 138.842921 393.60859 136.369251 399.79275 146.263921 396.08225 149.974421 405.97692 156.158591"></polygon>
                        <polygon id="Hinode" stroke="#646464" stroke-width="0.5" fill="#ECE3B4" points="335.47742 169.763761 328.05642 162.342761 311.97758 159.869091 302.082916 153.684921 292.188249 154.921761 274.872581 136.369251 260.03058 140.079751 246.425413 148.737591 262.504247 158.632261 263.741081 167.290091 274.872581 168.526921 293.425082 179.658421 295.898749 188.316261 307.03025 193.263591 323.10908 194.500421 341.66158 201.921421 360.21409 203.158261 361.45092 193.263591 356.50359 190.789921 355.26675 179.658421 340.42475 175.947921"></polygon>
                        <polygon id="Okutama" stroke="#646464" stroke-width="0.5" fill="#ECE3B4" points="221.688745 158.632261 222.925578 154.921761 222.925578 148.737591 232.820246 143.790251 231.583412 132.658751 258.793747 115.343091 261.267414 85.659081 250.135913 73.290752 247.662246 64.632918 243.951746 57.211918 232.820246 49.790917 188.294243 44.843584 170.978576 36.18575 163.557575 37.422583 159.847075 39.89625 151.189241 37.422583 110.373739 7.738582 102.95274 10.212248 94.2949 25.054249 79.4529 28.764749 73.26874 23.817416 62.13724 30.001583 41.11107 43.60675 38.6374 52.264584 39.87424 58.448751 44.82157 64.632918 43.58474 72.053919 48.53207 80.711752 57.1899 88.132751 64.6109 86.895921 64.6109 114.106251 69.55824 132.658751 79.4529 143.790251 76.97924 158.632261 85.63707 174.711091 98.0054 180.895261 102.95274 192.026761 104.18957 194.500421 119.031573 187.079421 130.163073 188.316261 132.63674 172.237421 143.768241 169.763761 163.557575 156.158591 182.110076 156.158591 184.583743 151.211261 192.004743 147.500751 216.741411 163.579591"></polygon>
                    </g>
                    <g id="City">
                        <polygon id="Musashino" stroke="#646464" stroke-width="0.5" fill="#F6BAD3" points="623.6596 237.789591 633.55427 242.736931 638.5016 239.026431 647.15943 247.684261 655.81727 234.079091 647.15943 226.658091 627.3701 215.526591 617.47543 215.526591 601.3966 226.658091 593.9756 225.421261 593.9756 220.473931 590.2651 220.473931 589.02826 225.421261 596.44927 229.131761 597.6861 241.500091 600.15977 245.210591 613.76493 246.447431 612.5281 232.842261"></polygon>
                        <polygon id="Tachikawa" stroke="#646464" stroke-width="0.5" fill="#F6BAD3" points="456.68709 250.157931 487.60793 260.052591 491.31843 253.868431 495.02893 256.342091 499.97626 251.394761 501.21309 243.973761 495.02893 237.789591 499.97626 236.552761 506.16043 231.605431 498.73943 222.947591 501.21309 221.710761 497.50259 220.473931 502.44993 218.000261 512.34459 226.658091 514.81826 214.289761 513.58143 213.052931 492.55526 205.631921 496.26576 205.631921 485.13426 201.921421 466.58176 200.684591 455.45026 188.316261 456.68709 193.263591 462.87126 201.921421 455.45026 199.447761 455.45026 201.921421 433.18726 194.500421 427.00309 198.210921 428.23992 210.579261 451.73976 210.579261 451.73976 215.526591 469.05542 226.658091"></polygon>
                        <polygon id="Hachioji" stroke="#646464" stroke-width="0.5" fill="#F6BAD3" points="309.503916 340.446771 319.39858 349.104601 330.53008 355.288771 335.47742 351.578271 342.89842 354.051931 346.60892 345.394101 355.26675 334.262601 363.92459 330.552101 370.10875 333.025761 370.10875 339.209931 383.71392 337.973101 391.13492 341.683601 404.74009 337.973101 412.16109 340.446771 412.16109 329.315261 417.10842 345.394101 423.29259 347.867771 431.95042 351.578271 438.13459 346.630931 457.92392 358.999271 459.16076 351.578271 465.34492 347.867771 475.23959 333.025761 485.13426 326.841601 499.97626 319.420601 485.13426 302.104931 469.05542 310.762761 449.26609 309.525931 450.50292 305.815431 440.60826 304.578601 430.71359 292.210261 430.71359 287.262931 444.31876 279.841931 448.02926 256.342091 451.73976 255.105261 448.02926 250.157931 414.63476 247.684261 410.92426 245.210591 405.97692 229.131761 407.21376 225.421261 404.74009 226.658091 394.84542 218.000261 391.13492 224.184431 384.95075 221.710761 381.24025 226.658091 380.00342 224.184431 372.58242 226.658091 351.55625 222.947591 346.60892 229.131761 334.24058 225.421261 328.05642 227.894931 298.372416 218.000261 287.240915 227.894931 281.056748 253.868431 255.083247 252.631591 245.18858 277.368261 250.135913 284.789261 251.372747 297.157601 266.214747 304.578601 279.819915 294.683931 294.661916 300.868101 295.898749 313.236431 302.082916 321.894261 299.609249 325.604761 308.267083 333.025761"></polygon>
                        <polygon id="Mitaka" stroke="#646464" stroke-width="0.5" fill="#F6BAD3" points="652.10677 261.289431 654.58043 261.289431 650.86993 255.105261 654.58043 252.631591 647.15943 247.684261 638.5016 239.026431 633.55427 242.736931 623.6596 237.789591 612.5281 232.842261 613.76493 246.447431 600.15977 245.210591 597.6861 241.500091 596.44927 253.868431 589.02826 251.394761 591.50193 258.815761 592.73877 262.526261 589.02826 263.763091 595.21243 277.368261 598.92293 276.131431 605.1071 282.315601 607.58077 278.605101 605.1071 274.894601 606.34393 262.526261 621.18593 260.052591 623.6596 262.526261 627.3701 281.078761 634.7911 282.315601 637.26477 287.262931 643.44893 281.078761 637.26477 271.184091 649.6331 276.131431 643.44893 271.184091 648.39627 269.947261 645.9226 261.289431"></polygon>
                        <polygon id="Ome" stroke="#646464" stroke-width="0.5" fill="#F6BAD3" points="246.425413 148.737591 260.03058 140.079751 274.872581 136.369251 292.188249 154.921761 302.082916 153.684921 311.97758 159.869091 328.05642 162.342761 335.47742 169.763761 365.16142 169.763761 372.58242 177.184761 368.87192 152.448091 375.05609 145.027091 380.00342 148.737591 387.42442 152.448091 396.08225 149.974421 399.79275 146.263921 393.60859 136.369251 401.02959 138.842921 404.74009 131.421921 398.55592 127.711421 391.13492 106.685251 391.13492 101.737921 391.13492 94.316921 381.24025 98.027421 378.76659 83.185419 371.34559 83.185419 367.63509 79.474919 362.68775 81.948586 358.97725 77.001252 354.02992 78.238086 339.18792 81.948586 321.87225 80.711752 319.39858 75.764419 311.97758 80.711752 293.425082 69.580252 288.477749 69.580252 284.767248 75.764419 271.162081 74.527585 248.89908 64.632918 247.662246 64.632918 250.135913 73.290752 261.267414 85.659081 258.793747 115.343091 231.583412 132.658751 232.820246 143.790251 222.925578 148.737591 222.925578 154.921761 229.109745 149.974421 232.820246 152.448091 232.820246 147.500751 239.004413 154.921761 242.714913 154.921761 242.714913 148.737591"></polygon>
                        <polygon id="Akishima" stroke="#646464" stroke-width="0.5" fill="#F6BAD3" points="448.02926 250.157931 456.68709 250.157931 469.05542 226.658091 451.73976 215.526591 451.73976 210.579261 428.23992 210.579261 425.76626 214.289761 414.63476 216.763431 413.39792 220.473931 407.21376 225.421261 405.97692 229.131761 410.92426 245.210591 414.63476 247.684261"></polygon>
                        <polygon id="Fuchu" stroke="#646464" stroke-width="0.5" fill="#F6BAD3" points="511.10776 289.736601 540.79176 299.631261 551.92326 295.920761 568.0021 299.631261 576.65993 297.157601 585.31776 303.341761 585.31776 294.683931 581.60726 292.210261 586.5546 282.315601 590.2651 272.420931 585.31776 261.289431 586.5546 255.105261 582.8441 250.157931 579.1336 253.868431 579.1336 256.342091 571.7126 255.105261 565.52843 258.815761 568.0021 255.105261 563.05476 257.578931 556.8706 251.394761 555.63376 245.210591 544.50226 252.631591 533.37076 253.868431 533.37076 250.157931 530.8971 240.263261 527.18659 248.921091 522.23926 253.868431 518.52876 271.184091 521.00243 273.657761 514.81826 271.184091 498.73943 274.894601"></polygon>
                        <polygon id="Chofu" stroke="#646464" stroke-width="0.5" fill="#F6BAD3" points="590.2651 307.052261 611.29127 314.473261 624.89643 319.420601 627.3701 302.104931 636.02793 297.157601 648.39627 303.341761 653.3436 303.341761 653.3436 297.157601 647.15943 282.315601 649.6331 279.841931 649.6331 276.131431 637.26477 271.184091 643.44893 281.078761 637.26477 287.262931 634.7911 282.315601 627.3701 281.078761 623.6596 262.526261 621.18593 260.052591 606.34393 262.526261 605.1071 274.894601 607.58077 278.605101 605.1071 282.315601 598.92293 276.131431 595.21243 277.368261 589.02826 263.763091 592.73877 262.526261 591.50193 258.815761 586.5546 255.105261 585.31776 261.289431 590.2651 272.420931 586.5546 282.315601 581.60726 292.210261 585.31776 294.683931 585.31776 303.341761"></polygon>
                        <polygon id="Machida" stroke="#646464" stroke-width="0.5" fill="#F6BAD3" points="560.5811 370.130771 550.68643 363.946601 538.3181 355.288771 533.37076 345.394101 522.23926 351.578271 517.29193 342.920431 514.81826 346.630931 508.63409 345.394101 503.68676 351.578271 497.50259 347.867771 492.55526 349.104601 486.37109 342.920431 465.34492 347.867771 459.16076 351.578271 457.92392 358.999271 438.13459 346.630931 431.95042 351.578271 423.29259 347.867771 417.10842 345.394101 412.16109 329.315261 412.16109 340.446771 404.74009 337.973101 391.13492 341.683601 383.71392 337.973101 370.10875 339.209931 370.10875 333.025761 363.92459 330.552101 355.26675 334.262601 346.60892 345.394101 360.21409 341.683601 367.63509 342.920431 380.00342 351.578271 398.55592 351.578271 404.74009 354.051931 413.39792 350.341431 434.42409 357.762431 462.87126 373.841271 470.29226 375.078101 474.00276 384.972771 480.18693 384.972771 486.37109 401.051601 491.31843 403.525271 502.44993 419.604101 513.58143 424.551441 521.00243 435.682941 524.71293 443.103941 523.47609 450.524941 530.8971 452.998601 534.6076 470.314271 551.92326 469.077441 546.97593 465.366941 544.50226 460.419611 553.1601 450.524941 551.92326 435.682941 553.1601 431.972441 546.97593 423.314601 546.97593 404.762101 535.84443 399.814771 537.08126 392.393771 543.26543 377.551771 551.92326 375.078101 555.63376 376.314931 549.4496 389.920101 556.8706 402.288441 571.7126 389.920101 572.94943 384.972771 560.5811 377.551771"></polygon>
                        <polygon id="Koganei" stroke="#646464" stroke-width="0.5" fill="#F6BAD3" points="586.5546 255.105261 591.50193 258.815761 589.02826 251.394761 596.44927 253.868431 597.6861 241.500091 596.44927 229.131761 589.02826 225.421261 590.2651 220.473931 587.79143 218.000261 574.18626 221.710761 572.94943 226.658091 561.81793 225.421261 561.81793 229.131761 551.92326 230.368591 550.68643 237.789591 558.10743 240.263261 555.63376 245.210591 556.8706 251.394761 563.05476 257.578931 568.0021 255.105261 565.52843 258.815761 571.7126 255.105261 579.1336 256.342091 579.1336 253.868431 582.8441 250.157931"></polygon>
                        <polygon id="Koidara" stroke="#646464" stroke-width="0.5" fill="#F6BAD3" points="514.81826 214.289761 539.55493 222.947591 539.55493 227.894931 543.26543 230.368591 546.97593 224.184431 551.92326 230.368591 561.81793 229.131761 561.81793 225.421261 572.94943 226.658091 574.18626 221.710761 587.79143 218.000261 581.60726 204.395091 584.08093 201.921421 585.31776 194.500421 582.8441 194.500421 579.1336 192.026761 577.89676 195.737261 577.89676 192.026761 577.89676 195.737261 572.94943 195.737261 571.7126 190.789921 569.23893 203.158261 569.23893 190.789921 564.2916 187.079421 556.8706 192.026761 555.63376 188.316261 551.92326 189.553091 553.1601 200.684591 545.7391 199.447761 544.50226 193.263591 533.37076 189.553091 519.76559 196.974091 509.87093 198.210921 496.26576 205.631921 492.55526 205.631921 513.58143 213.052931"></polygon>
                        <polygon id="Hino" stroke="#646464" stroke-width="0.5" fill="#F6BAD3" points="507.39726 298.394431 511.10776 289.736601 498.73943 274.894601 487.60793 260.052591 456.68709 250.157931 448.02926 250.157931 451.73976 255.105261 448.02926 256.342091 444.31876 279.841931 430.71359 287.262931 430.71359 292.210261 440.60826 304.578601 450.50292 305.815431 449.26609 309.525931 469.05542 310.762761 485.13426 302.104931 486.37109 299.631261 496.26576 305.815431 503.68676 297.157601"></polygon>
                        <polygon id="Higashimurayama" stroke="#646464" stroke-width="0.5" fill="#F6BAD3" points="570.47576 168.526921 563.05476 167.290091 566.76526 163.579591 563.05476 153.684921 561.81793 151.211261 563.05476 148.737591 561.81793 145.027091 555.63376 147.500751 549.4496 146.263921 540.79176 152.448091 509.87093 162.342761 508.63409 166.053261 514.81826 177.184761 519.76559 196.974091 533.37076 189.553091 544.50226 193.263591 545.7391 199.447761 553.1601 200.684591 551.92326 189.553091 560.5811 172.237421"></polygon>
                        <polygon id="Kokubunji" stroke="#646464" stroke-width="0.5" fill="#F6BAD3" points="527.18659 248.921091 530.8971 240.263261 533.37076 250.157931 533.37076 253.868431 544.50226 252.631591 555.63376 245.210591 558.10743 240.263261 550.68643 237.789591 551.92326 230.368591 546.97593 224.184431 543.26543 230.368591 539.55493 227.894931 539.55493 222.947591 514.81826 214.289761 512.34459 226.658091 502.44993 218.000261 497.50259 220.473931 501.21309 221.710761 498.73943 222.947591 506.16043 231.605431 499.97626 236.552761 517.29193 239.026431"></polygon>
                        <polygon id="Kunitachi" stroke="#646464" stroke-width="0.5" fill="#F6BAD3" points="527.18659 248.921091 517.29193 239.026431 499.97626 236.552761 495.02893 237.789591 501.21309 243.973761 499.97626 251.394761 495.02893 256.342091 491.31843 253.868431 487.60793 260.052591 498.73943 274.894601 514.81826 271.184091 521.00243 273.657761 518.52876 271.184091 522.23926 253.868431"></polygon>
                        <polygon id="Fussa" stroke="#646464" stroke-width="0.5" fill="#F6BAD3" points="413.39792 220.473931 414.63476 216.763431 425.76626 214.289761 428.23992 210.579261 427.00309 198.210921 433.18726 194.500421 428.23992 187.079421 423.29259 184.605761 425.76626 192.026761 419.58209 185.842591 415.87159 187.079421 417.10842 182.132091 399.79275 175.947921 389.89809 185.842591 394.84542 201.921421 403.50325 208.105591 404.74009 226.658091 407.21376 225.421261"></polygon>
                        <polygon id="Komae" stroke="#646464" stroke-width="0.5" fill="#F6BAD3" points="650.86993 335.499431 650.86993 330.552101 654.58043 325.604761 645.9226 309.525931 648.39627 303.341761 636.02793 297.157601 627.3701 302.104931 624.89643 319.420601 634.7911 329.315261"></polygon>
                        <polygon id="Higashiyamato" stroke="#646464" stroke-width="0.5" fill="#F6BAD3" points="466.58176 167.290091 478.95009 171.000591 477.71326 183.368921 481.42376 184.605761 485.13426 201.921421 496.26576 205.631921 509.87093 198.210921 519.76559 196.974091 514.81826 177.184761 508.63409 166.053261 509.87093 162.342761 507.39726 158.632261 490.08159 163.579591 475.23959 159.869091 462.87126 166.053261"></polygon>
                        <polygon id="Kiyose" stroke="#646464" stroke-width="0.5" fill="#F6BAD3" points="581.60726 163.579591 586.5546 156.158591 606.34393 147.500751 607.58077 137.606091 601.3966 133.895591 610.05443 120.290421 605.1071 115.343091 586.5546 136.369251 579.1336 137.606091 563.05476 148.737591 561.81793 151.211261 563.05476 153.684921 566.76526 163.579591 563.05476 167.290091 570.47576 168.526921"></polygon>
                        <polygon id="Higashikurume" stroke="#646464" stroke-width="0.5" fill="#F6BAD3" points="607.58077 175.947921 610.05443 153.684921 581.60726 163.579591 570.47576 168.526921 560.5811 172.237421 551.92326 189.553091 555.63376 188.316261 556.8706 192.026761 564.2916 187.079421 569.23893 190.789921 569.23893 203.158261 571.7126 190.789921 572.94943 195.737261 577.89676 195.737261 577.89676 192.026761 577.89676 195.737261 579.1336 192.026761 582.8441 194.500421 585.31776 194.500421 584.08093 201.921421 595.21243 193.263591 591.50193 189.553091 596.44927 188.316261"></polygon>
                        <polygon id="Musashimurayama" stroke="#646464" stroke-width="0.5" fill="#F6BAD3" points="456.68709 193.263591 455.45026 188.316261 466.58176 200.684591 485.13426 201.921421 481.42376 184.605761 477.71326 183.368921 478.95009 171.000591 466.58176 167.290091 462.87126 166.053261 462.87126 162.342761 456.68709 164.816421 451.73976 161.105921 450.50292 158.632261 451.73976 157.395421 445.55559 159.869091 440.60826 153.684921 428.23992 187.079421 433.18726 194.500421 455.45026 201.921421 455.45026 199.447761 462.87126 201.921421"></polygon>
                        <polygon id="Tama" stroke="#646464" stroke-width="0.5" fill="#F6BAD3" points="517.29193 342.920431 521.00243 335.499431 532.13393 328.078431 532.13393 321.894261 538.3181 318.183761 535.84443 304.578601 540.79176 299.631261 511.10776 289.736601 507.39726 298.394431 503.68676 297.157601 496.26576 305.815431 486.37109 299.631261 485.13426 302.104931 499.97626 319.420601 485.13426 326.841601 475.23959 333.025761 465.34492 347.867771 486.37109 342.920431 492.55526 349.104601 497.50259 347.867771 503.68676 351.578271 508.63409 345.394101 514.81826 346.630931"></polygon>
                        <polygon id="Inagi" stroke="#646464" stroke-width="0.5" fill="#F6BAD3" points="590.2651 307.052261 585.31776 303.341761 576.65993 297.157601 568.0021 299.631261 551.92326 295.920761 540.79176 299.631261 535.84443 304.578601 538.3181 318.183761 532.13393 321.894261 532.13393 328.078431 535.84443 333.025761 542.0286 334.262601 543.26543 341.683601 555.63376 351.578271 565.52843 350.341431 560.5811 336.736271 576.65993 329.315261 579.1336 328.078431 581.60726 321.894261 587.79143 319.420601 585.31776 313.236431"></polygon>
                        <polygon id="Hamura" stroke="#646464" stroke-width="0.5" fill="#F6BAD3" points="417.10842 182.132091 405.97692 156.158591 396.08225 149.974421 387.42442 152.448091 380.00342 148.737591 375.05609 145.027091 368.87192 152.448091 372.58242 177.184761 386.18759 180.895261 389.89809 185.842591 399.79275 175.947921"></polygon>
                        <polygon id="Akiruno" stroke="#646464" stroke-width="0.5" fill="#F6BAD3" points="389.899345 185.84184 386.188845 180.89451 372.583675 177.18401 365.162675 169.76301 335.478675 169.76301 340.426005 175.94717 355.268005 179.65767 356.504845 190.78917 361.452175 193.26284 360.215345 203.15751 341.662835 201.92067 323.110335 194.49967 307.031505 193.26284 295.900004 188.31551 293.426337 179.65767 274.873836 168.52617 263.742336 167.28934 262.505502 158.63151 246.426668 148.73684 242.716168 148.73684 242.716168 154.92101 239.005668 154.92101 232.821501 147.5 232.821501 152.44734 229.111 149.97367 222.926833 154.92101 221.69 158.63151 231.584667 167.28934 225.4005 170.99984 225.4005 174.71034 234.058334 177.18401 247.663501 195.73651 248.900335 232.84151 255.084502 237.78884 255.084502 252.63084 281.058003 253.86768 287.24217 227.89418 298.373671 217.99951 328.057675 227.89418 334.241835 225.42051 346.610175 229.13101 351.557505 222.94684 372.583675 226.65734 380.004675 224.18368 381.241505 226.65734 384.952005 221.71001 391.136175 224.18368 394.846675 217.99951 404.741345 226.65734 403.504505 208.10484 394.846675 201.92067"></polygon>
                        <polygon id="Nishitokyo" stroke="#646464" stroke-width="0.5" fill="#F6BAD3" points="587.79143 218.000261 590.2651 220.473931 593.9756 220.473931 593.9756 225.421261 601.3966 226.658091 617.47543 215.526591 627.3701 215.526591 631.0806 182.132091 624.89643 168.526921 618.71227 172.237421 607.58077 175.947921 596.44927 188.316261 591.50193 189.553091 595.21243 193.263591 584.08093 201.921421 581.60726 204.395091"></polygon>
                    </g>
                    <g id="Special-Ward">
                        <path d="M883.394614,236.552761 L894.526115,245.210594 L893.289281,289.736597 L898.236615,289.736597 L896.999781,307.052264 L906.894449,310.762765 L919.262783,309.525931 L929.15745,303.341764 L932.86795,290.97343 L931.631117,272.420929 L930.394283,271.184096 L931.631117,263.763095 L951.420451,257.578928 L962.551952,241.500094 L960.078285,230.368594 L945.236284,214.289759 L941.525784,206.868759 L945.236284,190.789925 L935.341617,180.895258 L934.104783,179.658424 L925.44695,180.895258 L930.394283,185.842591 L921.736449,195.737258 L918.025949,195.737258 L913.078616,225.42126 L905.657615,222.947593 L898.236615,226.658093 L889.578781,216.763426 L880.920947,221.71076 L887.105114,227.894927 L883.394614,236.552761 Z M896.999781,314.473265 L896.999781,310.762765 L904.420782,311.999598 L904.420782,315.710098 L905.657615,313.236431 L898.236615,309.525931 L896.999781,314.473265 Z M905.657615,315.710098 L908.131282,313.236431 L914.315449,315.710098 L913.078616,318.183765 L914.315449,315.710098 L909.368115,313.236431 L905.657615,315.710098 Z" id="Edogawa" stroke="#646464" stroke-width="0.49473336" fill="#DCB6F2"></path>
                        <polygon id="Adachi" stroke="#646464" stroke-width="0.49473336" fill="#DCB6F2" points="863.60528 169.763757 868.552613 169.763757 871.02628 174.711091 872.263113 167.29009 877.210447 172.237424 879.684114 164.816423 884.631447 166.053257 892.052448 158.632256 904.420782 162.342757 892.052448 137.606089 893.289281 126.474588 884.631447 121.527254 873.499947 130.185088 868.552613 121.527254 872.263113 109.15892 868.552613 105.44842 868.552613 109.15892 863.60528 112.869421 847.526445 116.579921 831.447611 115.343087 819.079277 102.974753 806.710943 107.922087 801.76361 112.869421 811.658277 130.185088 806.710943 138.842922 799.289943 138.842922 790.632109 146.263922 788.158442 156.15859 798.053109 162.342757 810.421443 158.632256 810.421443 163.57959 800.526776 171.00059 809.18461 175.947924 835.158111 177.184757 841.342278 180.895258 838.868612 185.842591 842.579112 192.026758 863.60528 194.500425 868.552613 189.553091 862.368446 175.947924"></polygon>
                        <polygon id="Nerima" stroke="#646464" stroke-width="0.49473336" fill="#DCB6F2" points="627.3701 215.526593 647.159435 226.658093 648.396268 216.763426 654.580435 219.237093 664.475102 209.342426 683.027603 205.631926 685.50127 199.447759 690.448604 199.447759 701.580104 210.579259 716.422105 210.579259 727.553606 200.684592 733.737773 204.395092 734.974606 201.921425 736.211439 194.500425 736.211439 189.553091 728.790439 188.316258 730.027272 172.237424 725.079939 161.105923 700.343271 157.395423 692.92227 159.86909 683.027603 147.500756 681.79077 161.105923 676.843436 162.342757 674.369769 157.395423 658.290935 159.86909 664.475102 153.684923 657.054102 149.974423 657.054102 148.737589 654.580435 148.737589 649.633101 148.737589 643.448934 157.395423 632.317434 163.57959 632.317434 166.053257 624.896433 168.526924 631.0806 182.132091"></polygon>
                        <polygon id="Itabashi" stroke="#646464" stroke-width="0.49473336" fill="#DCB6F2" points="775.790108 180.895258 769.605941 169.763757 760.948107 162.342757 757.237607 142.553422 751.05344 143.790256 744.869273 138.842922 751.05344 125.237755 715.185272 122.764088 704.053771 126.474588 699.106437 126.474588 695.395937 133.895588 683.027603 146.263922 683.027603 147.500756 692.92227 159.86909 700.343271 157.395423 725.079939 161.105923 730.027272 172.237424 728.790439 188.316258 736.211439 189.553091 736.211439 194.500425 747.34294 189.553091 753.527107 190.789925 758.474441 198.210925 764.658608 187.079425 773.316441 187.079425"></polygon>
                        <polygon id="Katsushika" stroke="#646464" stroke-width="0.49473336" fill="#DCB6F2" points="889.578781 216.763426 898.236615 226.658093 905.657615 222.947593 913.078616 225.42126 918.025949 195.737258 921.736449 195.737258 930.394283 185.842591 925.44695 180.895258 934.104783 179.658424 924.210116 159.86909 926.683783 154.921756 937.815284 147.500756 937.815284 142.553422 921.736449 145.027089 916.789116 137.606089 921.736449 130.185088 919.262783 126.474588 904.420782 128.948255 901.947115 133.895588 893.289281 126.474588 892.052448 137.606089 904.420782 162.342757 892.052448 158.632256 884.631447 166.053257 879.684114 164.816423 877.210447 172.237424 872.263113 167.29009 871.02628 174.711091 868.552613 169.763757 863.60528 169.763757 862.368446 175.947924 868.552613 189.553091"></polygon>
                        <polygon id="Arakawa" stroke="#646464" stroke-width="0.49473336" fill="#DCB6F2" points="814.131944 204.395092 830.210778 210.579259 841.342278 203.158259 858.657946 206.868759 863.60528 194.500425 842.579112 192.026758 838.868612 185.842591 841.342278 180.895258 835.158111 177.184757 809.18461 175.947924 803.000443 177.184757 801.76361 180.895258 819.079277 192.026758 821.552944 195.737258 816.60561 198.210925 812.89511 201.921425"></polygon>
                        <polygon id="Kita" stroke="#646464" stroke-width="0.49473336" fill="#DCB6F2" points="804.237276 199.447759 812.89511 201.921425 816.60561 198.210925 821.552944 195.737258 819.079277 192.026758 801.76361 180.895258 803.000443 177.184757 809.18461 175.947924 800.526776 171.00059 810.421443 163.57959 810.421443 158.632256 798.053109 162.342757 788.158442 156.15859 790.632109 146.263922 790.632109 137.606089 778.263775 137.606089 774.553275 133.895588 760.948107 132.658755 752.290274 125.237755 751.05344 125.237755 744.869273 138.842922 751.05344 143.790256 757.237607 142.553422 760.948107 162.342757 769.605941 169.763757 775.790108 180.895258 773.316441 187.079425 778.263775 193.263592 780.737442 188.316258 785.684775 187.079425 786.921609 192.026758 794.342609 190.789925"></polygon>
                        <polygon id="Toshima" stroke="#646464" stroke-width="0.49473336" fill="#DCB6F2" points="804.237276 199.447759 794.342609 190.789925 786.921609 192.026758 785.684775 187.079425 780.737442 188.316258 778.263775 193.263592 773.316441 187.079425 764.658608 187.079425 758.474441 198.210925 753.527107 190.789925 747.34294 189.553091 736.211439 194.500425 734.974606 201.921425 733.737773 204.395092 733.737773 205.631926 739.92194 214.289759 759.711274 213.052926 760.948107 224.184427 775.790108 225.42126 773.316441 224.184427 772.079608 219.237093 778.263775 216.763426 778.263775 209.342426 789.395276 210.579259 789.395276 205.631926 796.816276 198.210925 801.76361 201.921425"></polygon>
                        <polygon id="Suginami" stroke="#646464" stroke-width="0.49473336" fill="#DCB6F2" points="721.369439 267.473596 716.422105 255.105262 723.843105 250.157928 723.843105 246.447428 717.658938 245.210595 715.185272 229.13176 709.001105 229.13176 690.448604 220.473927 683.027603 205.631926 664.475102 209.342426 654.580435 219.237093 648.396268 216.763426 647.159435 226.658094 655.817268 234.079094 647.159435 247.684261 654.580435 252.631595 650.869935 255.105262 654.580435 261.289429 665.711936 264.999929 668.185602 274.894596 675.606603 274.894596 670.659269 267.473596 683.027603 273.657763 696.632771 279.84193 718.895772 272.420929"></polygon>
                        <polygon id="Nakano" stroke="#646464" stroke-width="0.49473336" fill="#DCB6F2" points="723.843105 250.157928 716.422105 255.105262 721.369439 267.473596 739.92194 248.921095 743.63244 231.605427 749.816607 226.658094 738.685106 227.894927 737.448273 225.42126 734.974606 219.237093 730.027272 218.00026 733.737773 205.631926 733.737773 204.395092 727.553606 200.684592 716.422105 210.579259 701.580104 210.579259 690.448604 199.447759 685.50127 199.447759 683.027603 205.631926 690.448604 220.473927 709.001105 229.13176 715.185272 229.13176 717.658938 245.210595 723.843105 246.447428"></polygon>
                        <polygon id="Shibuya" stroke="#646464" stroke-width="0.49473336" fill="#DCB6F2" points="731.264106 282.315596 742.395606 284.789263 763.421774 307.052264 772.079608 308.289098 773.316441 308.289098 777.026942 302.104931 777.026942 290.97343 767.132274 288.499763 764.658608 279.84193 770.842775 271.184096 767.132274 269.947262 769.605941 262.526262 760.948107 253.868428 754.76394 252.631595 743.63244 261.289429 741.158773 257.578928 739.92194 248.921095 721.369439 267.473596 718.895772 272.420929 726.316772 272.420929"></polygon>
                        <polygon id="Setagaya" stroke="#646464" stroke-width="0.49473336" fill="#DCB6F2" points="650.869935 330.552099 650.869935 335.499433 657.054102 335.499433 678.08027 340.446766 701.580104 358.999267 712.711605 367.657101 715.185272 363.946601 710.237938 361.472934 717.658938 356.5256 726.316772 357.762434 733.737773 365.183434 736.211439 355.288767 733.737773 346.630933 720.132605 346.630933 723.843105 335.499433 718.895772 319.420598 736.211439 326.841599 742.395606 310.762765 739.92194 295.920764 731.264106 282.315596 726.316772 272.420929 718.895772 272.420929 696.632771 279.84193 683.027603 273.657763 670.659269 267.473596 675.606603 274.894596 668.185602 274.894596 665.711936 264.999929 654.580435 261.289429 652.106768 261.289429 645.922601 261.289429 648.396268 269.947262 643.448934 271.184096 649.633101 276.131429 649.633101 279.84193 647.159435 282.315596 653.343602 297.157597 653.343602 303.341764 648.396268 303.341764 645.922601 309.525931 654.580435 325.604765"></polygon>
                        <path d="M825.263444,361.472934 L819.079277,365.183434 L814.131944,362.709767 L814.131944,373.841268 L807.947777,373.841268 L807.947777,368.893934 L800.526776,367.657101 L784.447942,371.367601 L781.974275,362.709767 L773.316441,366.420268 L769.605941,356.5256 L758.474441,355.288767 L751.05344,347.867767 L741.158773,341.6836 L741.158773,350.341433 L736.211439,351.578267 L736.211439,355.288767 L733.737773,365.183434 L726.316772,357.762434 L717.658938,356.5256 L710.237938,361.472934 L715.185272,363.946601 L712.711605,367.657101 L723.843105,371.367601 L737.448273,401.051603 L758.474441,412.183103 L753.527107,422.077771 L758.474441,430.735604 L772.079608,428.261938 L780.737442,422.077771 L786.921609,425.788271 L793.105776,420.840937 L810.421443,422.077771 L848.763279,446.814439 L858.657946,427.025104 L836.394945,391.156936 L822.789777,392.393769 L815.368777,402.288436 L810.421443,397.341103 L805.47411,399.814769 L795.579443,391.156936 L795.579443,386.209602 L775.790108,386.209602 L814.131944,382.499102 L819.079277,377.551768 L819.079277,382.499102 L833.921278,382.499102 L837.631778,380.025435 L832.684445,372.604435 L820.316111,376.314935 L827.737111,367.657101 L825.263444,361.472934 Z M798.053109,389.920102 L803.000443,394.867436 L809.18461,392.393769 L805.47411,384.972769 L798.053109,389.920102 Z M809.18461,389.920102 L817.842444,397.341103 L825.263444,386.209602 L810.421443,386.209602 L809.18461,389.920102 Z" id="Ota" stroke="#646464" stroke-width="0.49473336" fill="#DCB6F2"></path>
                        <polygon id="Meguro" stroke="#646464" stroke-width="0.49473336" fill="#DCB6F2" points="751.05344 347.867767 751.05344 340.446766 758.474441 330.552099 751.05344 328.078432 769.605941 323.131099 767.132274 313.236432 772.079608 308.289098 763.421774 307.052265 742.395606 284.789263 731.264106 282.315597 739.92194 295.920764 742.395606 310.762765 736.211439 326.841599 718.895772 319.420599 723.843105 335.499433 720.132605 346.630933 733.737773 346.630933 736.211439 355.288767 736.211439 351.578267 741.158773 350.341434 741.158773 341.6836"></polygon>
                        <path d="M758.474441,355.288767 L769.605941,356.5256 L773.316441,366.420268 L781.974275,362.709767 L784.447942,371.367601 L800.526776,367.657101 L807.947777,368.893934 L807.947777,373.841268 L814.131944,373.841268 L814.131944,362.709767 L819.079277,365.183434 L825.263444,361.472934 L811.658277,337.973099 L811.658277,324.367932 L809.18461,328.078432 L788.158442,329.315266 L783.211109,319.420598 L779.500608,315.710098 L772.079608,315.710098 L773.316441,308.289098 L772.079608,308.289098 L767.132274,313.236431 L769.605941,323.131099 L751.05344,328.078432 L758.474441,330.552099 L751.05344,340.446766 L751.05344,347.867767 L758.474441,355.288767 Z M825.263444,333.025766 L822.789777,329.315266 L820.316111,325.604765 L819.079277,325.604765 L821.552944,334.262599 L825.263444,333.025766 Z" id="Shinagawa" stroke="#646464" stroke-width="0.49473336" fill="#DCB6F2"></path>
                        <path d="M825.263444,304.578598 L837.631778,324.367932 L842.579112,321.894265 L848.763279,330.552099 L852.473779,325.604765 L850.000112,314.473265 L856.184279,313.236431 L856.184279,309.525931 L882.157781,304.578598 L882.157781,315.710098 L869.789447,319.420598 L888.341948,316.946932 L889.578781,293.447097 L893.289281,289.736597 L894.526115,245.210594 L883.394614,236.552761 L867.31578,230.368594 L868.552613,247.684261 L861.131613,248.921095 L858.657946,255.105262 L840.105445,252.631595 L842.579112,257.578928 L837.631778,269.947262 L840.105445,292.210264 L825.263444,304.578598 Z M869.789447,310.762765 L869.789447,316.946932 L873.499947,315.710098 L873.499947,311.999598 L880.920947,309.525931 L873.499947,309.525931 L874.73678,307.052264 L869.789447,310.762765 Z M874.73678,320.657432 L875.973614,333.025766 L879.684114,331.788932 L883.394614,341.6836 L888.341948,319.420598 L874.73678,320.657432 Z M832.684445,321.894265 L822.789777,329.315266 L825.263444,333.025766 L837.631778,354.051934 L842.579112,345.3941 L831.447611,328.078432 L835.158111,325.604765 L832.684445,321.894265 Z M836.394945,326.841599 L845.052779,340.446766 L847.526445,335.499433 L840.105445,324.367932 L836.394945,326.841599 Z" id="Koto" stroke="#646464" stroke-width="0.49473336" fill="#DCB6F2"></path>
                        <polygon id="Sumida" stroke="#646464" stroke-width="0.49473336" fill="#DCB6F2" points="838.868612 247.684261 840.105445 252.631595 858.657946 255.105262 861.131613 248.921095 868.552613 247.684261 867.31578 230.368594 883.394614 236.552761 887.105114 227.894927 880.920947 221.71076 889.578781 216.763426 868.552613 189.553091 863.60528 194.500425 858.657946 206.868759 856.184279 218.00026 838.868612 246.447428"></polygon>
                        <polygon id="Chiyoda" stroke="#646464" stroke-width="0.49473336" fill="#DCB6F2" points="791.868942 268.710429 800.526776 274.894596 810.421443 276.131429 821.552944 261.289429 819.079277 253.868428 832.684445 243.973761 821.552944 234.079094 819.079277 240.263261 798.053109 236.552761 784.447942 252.631595 784.447942 261.289429"></polygon>
                        <polygon id="Taito" stroke="#646464" stroke-width="0.49473336" fill="#DCB6F2" points="832.684445 243.973761 838.868612 246.447428 856.184279 218.00026 858.657946 206.868759 841.342278 203.158259 830.210778 210.579259 814.131944 204.395092 814.131944 214.289759 819.079277 220.473926 815.368777 219.237093 817.842444 229.13176 822.789777 230.368594 821.552944 234.079094"></polygon>
                        <polygon id="Chuo" stroke="#646464" stroke-width="0.49473336" fill="#DCB6F2" points="816.60561 295.920764 825.263444 304.578598 840.105445 292.210264 837.631778 269.947262 842.579112 257.578928 840.105445 252.631595 838.868612 247.684261 838.868612 246.447428 832.684445 243.973761 819.079277 253.868428 821.552944 261.289429 810.421443 276.131429 814.131944 279.84193 811.658277 287.26293 817.842444 292.210264"></polygon>
                        <path d="M764.658608,279.84193 L767.132274,288.499763 L777.026942,290.97343 L777.026942,302.104931 L773.316441,308.289098 L772.079608,315.710098 L779.500608,315.710098 L783.211109,319.420598 L788.158442,329.315266 L809.18461,328.078432 L811.658277,324.367932 L811.658277,316.946932 L805.47411,315.710098 L806.710943,310.762765 L812.89511,313.236431 L811.658277,303.341764 L812.89511,295.920764 L816.60561,295.920764 L817.842444,292.210264 L811.658277,287.26293 L814.131944,279.84193 L810.421443,276.131429 L800.526776,274.894596 L791.868942,268.710429 L784.447942,261.289429 L774.553275,263.763095 L770.842775,271.184096 L764.658608,279.84193 Z M822.789777,329.315266 L832.684445,321.894265 L827.737111,314.473265 L822.789777,318.183765 L826.500278,315.710098 L828.973944,319.420598 L820.316111,325.604765 L822.789777,329.315266 Z" id="Minato" stroke="#646464" stroke-width="0.49473336" fill="#DCB6F2"></path>
                        <polygon id="Shinjuku" stroke="#646464" stroke-width="0.49473336" fill="#DCB6F2" points="798.053109 236.552761 795.579443 230.368594 785.684775 231.605427 775.790108 225.42126 760.948107 224.184427 759.711274 213.052926 739.92194 214.28976 733.737773 205.631926 730.027272 218.00026 734.974606 219.237093 737.448273 225.42126 738.685106 227.894927 749.816607 226.658094 743.63244 231.605427 739.92194 248.921095 741.158773 257.578929 743.63244 261.289429 754.76394 252.631595 760.948107 253.868428 769.605941 262.526262 767.132274 269.947263 770.842775 271.184096 774.553275 263.763096 784.447942 261.289429 784.447942 252.631595"></polygon>
                        <polygon id="Bunkyo" stroke="#646464" stroke-width="0.49473336" fill="#DCB6F2" points="819.079277 220.473926 814.131944 214.289759 814.131944 204.395092 812.89511 201.921425 804.237276 199.447759 801.76361 201.921425 796.816276 198.210925 789.395276 205.631926 789.395276 210.579259 778.263775 209.342426 778.263775 216.763426 772.079608 219.237093 773.316441 224.184427 775.790108 225.42126 785.684775 231.605427 795.579443 230.368594 798.053109 236.552761 819.079277 240.263261 821.552944 234.079094 822.789777 230.368594 817.842444 229.13176 815.368777 219.237093"></polygon>
                    </g>
                </g>
                <g id="Text" fill="#000000" font-family="Helvetica" font-size="6" font-weight="normal">
                    <g id="Village">
                            <text id="Hinohara">
                            <tspan x="172.325684" y="211">Hinohara</tspan>
                        </text>
                    </g>
                    <g id="Town">
                        <text id="Okutama">
                            <tspan x="138.328613" y="104">Okutama</tspan>
                        </text>
                        <text id="Hinode">
                            <tspan x="297.493164" y="174">Hinode</tspan>
                        </text>
                        <text id="Mizuho">
                            <tspan x="412.329102" y="151">Mizuho</tspan>
                        </text>
                    </g>
                    <g id="City">
                        <text id="Nishitokyo">
                            <tspan x="596.163574" y="201">Nishi-Tokyo</tspan>
                        </text>
                        <text id="Akiruno">
                            <tspan x="301.328125" y="209">Akiruno</tspan>
                        </text>
                        <text id="Hamura">
                            <tspan x="378.330078" y="167">Hamura</tspan>
                        </text>
                        <text id="Inagi">
                            <tspan x="550.494629" y="319">Inagi</tspan>
                        </text>
                        <text id="Tama">
                            <tspan x="506.331543" y="320">Tama</tspan>
                        </text>
                        <text id="Musashimurayama">
                            <tspan x="441.830078" y="175">Musashi-</tspan>
                            <tspan x="439.829102" y="182">Murayama</tspan>
                        </text>
                        <text id="Higashikurume">
                            <tspan x="571.996094" y="176">Higashi-</tspan>
                            <tspan x="572.495605" y="183">Kurume</tspan>
                        </text>
                        <text id="Kiyose">
                            <tspan x="575.495605" y="149">Kiyose</tspan>
                        </text>
                        <text id="Higashiyamato">
                            <tspan x="484.996094" y="179">Higashi-</tspan>
                            <tspan x="485.661133" y="186">Yamato</tspan>
                        </text>
                        <text id="Komae">
                            <tspan x="628.494629" y="318">Komae</tspan>
                        </text>
                        <text id="Fussa">
                            <tspan x="401.830566" y="199">Fussa</tspan>
                        </text>
                        <text id="Kunitachi">
                            <tspan x="493.658691" y="264">Kunitachi</tspan>
                        </text>
                        <text id="Kokubunji">
                            <tspan x="512.82373" y="235">Kokubunji</tspan>
                        </text>
                        <text id="Higashimurayama">
                            <tspan x="524.996094" y="170">Higashi-</tspan>
                            <tspan x="521.829102" y="177">Murayama</tspan>
                        </text>
                        <text id="Hino">
                            <tspan x="462.830078" y="280">Hino</tspan>
                        </text>
                        <text id="Kodaira">
                            <tspan x="535.659668" y="209">Kodaira</tspan>
                        </text>
                        <text id="Koganei">
                            <tspan x="562.990234" y="240">Koganei</tspan>
                        </text>
                        <text id="Machida">
                            <tspan x="507.160645" y="409">Machida</tspan>
                        </text>
                        <text id="Chofu">
                            <tspan x="604.994629" y="291">Chofu</tspan>
                        </text>
                        <text id="Akishima">
                            <tspan x="422.830078" y="232">Akishima</tspan>
                        </text>
                        <text id="Fuchu">
                            <tspan x="539.662109" y="275">Fuchu</tspan>
                        </text>
                        <text id="Ome">
                            <tspan x="315.499023" y="118">Ome</tspan>
                        </text>
                        <text id="Mitaka">
                            <tspan x="615.164062" y="253">Mitaka</tspan>
                        </text>
                        <text id="Musashino">
                            <tspan x="606.492187" y="230">Musashino</tspan>
                        </text>
                        <text id="Tachikawa">
                            <tspan x="470.660645" y="232">Tachikawa</tspan>
                        </text>
                        <text id="Hachioji">
                            <tspan x="353.328613" y="286">Hachioji</tspan>
                        </text>
                    </g>
                    <g id="Special-Ward">
                        <text id="Edogawa">
                            <tspan x="908.490234" y="249">Edogawa</tspan>
                        </text>
                        <text id="Katsushika">
                            <tspan x="888.325195" y="181">Katsushika</tspan>
                        </text>
                        <text id="Adachi">
                            <tspan x="835.827148" y="150">Adachi</tspan>
                        </text>
                        <text id="Nerima">
                            <tspan x="659.332031" y="186">Nerima</tspan>
                        </text>
                        <text id="Itabashi">
                            <tspan x="717.492676" y="151">Itabashi</tspan>
                        </text>
                        <text id="Arakawa">
                            <tspan x="823.328125" y="199">Arakawa</tspan>
                        </text>
                        <text id="Kita">
                            <tspan x="774.830566" y="166">Kita</tspan>
                        </text>
                        <text id="Toshima">
                            <tspan x="753.496582" y="206">Toshima</tspan>
                        </text>
                        <text id="Suginami">
                            <tspan x="668.493164" y="244">Suginami</tspan>
                        </text>
                        <text id="Nakano">
                            <tspan x="704.659668" y="222">Nakano</tspan>
                        </text>
                        <text id="Shibuya">
                            <tspan x="739.158691" y="276">Shibuya</tspan>
                        </text>
                        <text id="Setagaya">
                            <tspan x="681.323242" y="315">Setagaya</tspan>
                        </text>
                        <text id="Ota">
                            <tspan x="777.164551" y="404">Ota</tspan>
                        </text>
                        <text id="Meguro">
                            <tspan x="743.828125" y="319">Meguro</tspan>
                        </text>
                        <text id="Shinagawa">
                            <tspan x="770.655273" y="346">Shinagawa</tspan>
                        </text>
                        <text id="Koto">
                            <tspan x="861.828613" y="284">Koto</tspan>
                        </text>
                        <text id="Sumida">
                            <tspan x="858.328125" y="224">Sumida</tspan>
                        </text>
                        <text id="Taito">
                            <tspan x="826.330566" y="223">Taito</tspan>
                        </text>
                        <text id="Bunkyo">
                            <tspan x="786.993652" y="221">Bunkyo</tspan>
                        </text>
                        <text id="Shinjuku">
                            <tspan x="755.492187" y="243">Shinjuku</tspan>
                        </text>
                        <text id="Minato">
                            <tspan x="785.495605" y="299">Minato</tspan>
                        </text>
                        <text id="Chuo">
                            <tspan x="818.828125" y="273">Chuo</tspan>
                        </text>
                        <text id="Chiyoda">
                            <tspan x="793.993164" y="255">Chiyoda</tspan>
                        </text>
                    </g>
                </g>
            </g>
            <g id="Info" transform="translate(20, 390)" fill="#000000">
                <g id="Scale" transform="translate(866.9761, 66)">
                    <rect id="rect5934" fill-rule="nonzero" x="0" y="15" width="105.130839" height="3"></rect>
                    <text id="10-km" font-family="Helvetica" font-size="12" font-weight="normal">
                        <tspan x="36" y="11">10 km</tspan>
                    </text>
                </g>
            </g>
        </g>
    </g>
</svg>
