<?xml version="1.0" encoding="UTF-8"?>
<svg width="1200px" height="2400px" viewBox="0 0 1200 2400" version="1.1" xmlns="http://www.w3.org/2000/svg" xmlns:xlink="http://www.w3.org/1999/xlink">
    <title>Tokyo</title>
    <defs>
        <polygon id="path-1" points="-5.04870979e-29 0 1200 0 1200 2400 -5.04870979e-29 2400"></polygon>
    </defs>
    <g id="Page-1" stroke="none" stroke-width="1" fill="none" fill-rule="evenodd">
        <g id="Tokyo" transform="translate(-0, -0)">
            <polygon id="Background" fill="#FFFFFF" fill-rule="nonzero" points="2.27373675e-13 9.80200598e-13 2.27373675e-13 2400 1100 2400 1100 9.09494702e-13"></polygon>
            <g id="Borders">
                <g id="Map" transform="translate(0, 0)">
                    <mask id="mask-2" fill="white">
                        <use xlink:href="#path-1"></use>
                    </mask>
                    <use id="Mask" fill="#FFFFFF" fill-rule="nonzero" xlink:href="#path-1"></use>
                    <g id="Prefectures" mask="url(#mask-2)" fill-rule="nonzero">
                        <g transform="translate(-1272.3401, -1037.3011)">
                            <polygon id="Shizuoka-(JP-22)" stroke="#999999" stroke-width="0.5" fill="#EEEEEE" points="1565.66148 2689.68872 1513.61868 2789.39689 1453.79377 2839.00778 1430.44747 2900.29183 1444.55253 2937.25681 1422.66537 2945.52529 1399.31907 2933.36576 1379.37743 2942.607 1369.64981 2967.89883 1308.36576 3003.89105 1289.88327 2997.08171 1237.35409 2947.47082 1248.54086 2933.36576 1241.73152 2915.36965 1206.22568 2899.31907 1206.71206 2859.92218 1242.70428 2824.41634 1219.35798 2771.88716 1232.49027 2762.15953 1222.76265 2675.09728 1255.35019 2645.42802 1229.0856 2571.01167 1252.91829 2511.18677 1352.62646 2518.96887 1365.75875 2484.4358 1279.18288 2407.10117 1166.34241 2382.29572 1033.07393 2422.17899 989.299611 2498.54086 1008.75486 2522.85992 998.054475 2552.0428 848.735409 2632.7821 809.824903 2697.9572 818.579767 2746.59533 785.019455 2806.42023 711.089494 2862.35409 684.824903 2928.98833 685.311284 2964.00778 721.789883 2998.54086 717.412451 3009.24125 500 2932.393 399.805447 2928.98833 310.311284 2950.87549 180.933852 2921.20623 7.78210117 2917.80156 7.78210117 2917.80156 0 2804.96109 20.9143969 2745.13619 154.669261 2670.23346 216.92607 2576.84825 218.385214 2525.29183 289.396887 2428.01556 312.256809 2416.34241 308.365759 2393.48249 336.089494 2365.27237 311.284047 2340.95331 326.361868 2293.28794 326.361868 2293.28794 378.404669 2287.93774 400.77821 2242.70428 425.583658 2242.2179 435.797665 2221.3035 498.054475 2190.1751 556.906615 2141.05058 637.159533 2110.40856 643.968872 2075.38911 618.190661 2042.80156 618.190661 2010.21401 654.182879 1997.56809 633.754864 1933.85214 653.696498 1906.61479 637.645914 1893.96887 664.883268 1862.35409 682.392996 1869.16342 710.603113 1789.39689 710.603113 1789.39689 756.322957 1944.06615 737.840467 2001.45914 749.027237 2053.50195 726.653696 2098.73541 742.70428 2161.96498 775.77821 2186.77043 812.743191 2161.4786 849.708171 2178.98833 883.268482 2309.8249 916.828794 2334.14397 977.140078 2339.98054 1012.15953 2309.33852 992.70428 2179.96109 1013.61868 2150.29183 1011.18677 2067.12062 1059.33852 2022.85992 1087.06226 2084.14397 1137.15953 2078.30739 1159.04669 2125.48638 1295.23346 2102.62646 1313.22957 2089.49416 1347.27626 2092.89883 1379.86381 2073.92996 1379.86381 2073.92996 1453.30739 2072.47082 1460.60311 2084.14397 1477.62646 2158.07393 1464.00778 2205.25292 1436.28405 2235.40856 1447.9572 2309.33852 1482.00389 2335.60311 1488.32685 2368.67704 1562.25681 2378.89105 1562.25681 2378.89105 1529.66926 2426.07004 1522.85992 2475.19455 1553.50195 2487.35409 1547.17899 2552.0428 1597.27626 2592.41245 1591.92607 2666.82879"></polygon>
                            <polygon id="Yamanashi-(JP-19)" stroke="#999999" stroke-width="0.5" fill="#EEEEEE" points="858.949416 1404.66926 928.501946 1432.87938 928.015564 1465.46693 951.361868 1491.24514 974.708171 1486.8677 985.40856 1466.92607 1071.01167 1468.38521 1097.27626 1523.83268 1144.45525 1523.3463 1179.96109 1477.62646 1199.41634 1478.11284 1249.02724 1489.29961 1263.1323 1520.42802 1319.55253 1530.15564 1353.11284 1555.93385 1372.33928 1550.81826 1372.63565 1557.13137 1381.29348 1548.47353 1396.13548 1553.42087 1401.08281 1550.9472 1412.21431 1545.99987 1417.16165 1552.18403 1415.92481 1559.60503 1420.87215 1568.26287 1429.52998 1575.68387 1436.95098 1574.44703 1436.95098 1601.65737 1441.89832 1620.20987 1451.79298 1631.34137 1449.31932 1646.18337 1457.97715 1662.26221 1470.34548 1668.44637 1475.29282 1679.57787 1477.76648 1684.52521 1490.13482 1705.55137 1532.18715 1731.52488 1543.31865 1733.99854 1551.97649 1738.94588 1565.58166 1738.94588 1589.08149 1759.97204 1582.89732 1768.62988 1576.71316 1778.52454 1575.47632 1782.23505 1585.37099 1795.84021 1581.66049 1815.62955 1591.55516 1825.52421 1585.37099 1829.23471 1590.31832 1834.18205 1589.08149 1840.36621 1586.60782 1850.26088 1579.18682 1858.91872 1585.37099 1866.33972 1586.60782 1879.94488 1586.60782 1886.12905 1570.52899 1902.20788 1571.76582 1915.81305 1559.39749 1931.89189 1544.55549 1946.73389 1535.89765 1947.97072 1526.00299 1949.20755 1507.45049 1949.20755 1504.97682 1961.57589 1496.97605 1970.23372 1492.30128 1970.23326 1486.38132 1978.59922 1399.31907 2018.96887 1379.86381 2073.92996 1347.27626 2092.89883 1313.22957 2089.49416 1295.23346 2102.62646 1159.04669 2125.48638 1137.15953 2078.30739 1087.06226 2084.14397 1059.33852 2022.85992 1011.18677 2067.12062 1013.61868 2150.29183 992.70428 2179.96109 1012.15953 2309.33852 977.140078 2339.98054 916.828794 2334.14397 883.268482 2309.8249 849.708171 2178.98833 812.743191 2161.4786 775.77821 2186.77043 742.70428 2161.96498 726.653696 2098.73541 749.027237 2053.50195 737.840467 2001.45914 756.322957 1944.06615 710.603113 1789.39689 675.097276 1703.30739 723.735409 1649.80545 680.933852 1607.97665 728.11284 1512.15953 737.840467 1506.32296 772.859922 1536.4786"></polygon>
                            <polygon id="Kanagawa-(JP-14)" stroke="#999999" stroke-width="0.5" fill="#EEEEEE" points="1589.08149 1759.97204 1610.10766 1767.39304 1617.52866 1764.91938 1622.47599 1772.34038 1623.71283 1784.70871 1638.55483 1792.12971 1652.15999 1782.23505 1667.00199 1788.41921 1668.23883 1800.78755 1674.42299 1809.44538 1671.94933 1813.15588 1680.60716 1820.57688 1681.844 1827.99788 1691.73866 1836.65571 1702.87016 1842.83988 1707.8175 1839.12938 1715.2385 1841.60305 1718.949 1832.94521 1732.55416 1829.23471 1739.97517 1830.47155 1752.3435 1839.12938 1770.896 1839.12938 1777.08017 1841.60305 1785.738 1837.89255 1806.76417 1845.31355 1835.21134 1861.39238 1842.63234 1862.62922 1846.34284 1872.52388 1852.527 1872.52388 1858.71117 1888.60272 1863.65851 1891.07638 1874.79001 1907.15522 1885.92151 1912.10255 1893.34251 1923.23405 1897.05301 1930.65505 1895.81617 1938.07605 1903.23717 1940.54972 1906.94767 1957.86539 1924.26334 1956.62855 1919.31601 1952.91805 1916.84234 1947.97072 1925.50018 1938.07605 1924.26334 1923.23405 1925.50018 1919.52355 1919.31601 1910.86572 1919.31601 1892.31322 1908.18451 1887.36588 1909.42134 1879.94488 1915.60551 1865.10288 1924.26334 1862.62922 1927.97384 1863.86605 1921.78967 1877.47122 1929.21068 1889.83955 1944.05268 1877.47122 1945.28951 1872.52388 1932.92118 1865.10288 1932.92118 1857.68188 1923.02651 1851.49772 1910.65817 1842.83988 1905.71084 1832.94521 1894.57934 1839.12938 1889.63201 1830.47155 1893.34251 1823.05055 1904.47401 1815.62955 1908.18451 1820.57688 1914.36867 1821.81371 1915.60551 1829.23471 1927.97384 1839.12938 1937.86851 1837.89255 1932.92118 1824.28738 1949.00001 1816.86638 1951.47368 1815.62955 1953.94734 1809.44538 1960.13151 1806.97171 1957.65784 1800.78755 1962.60518 1794.60338 1983.63134 1802.02438 1997.23651 1806.97171 2007.13118 1816.86638 2023.21001 1823.05055 2029.39418 1823.05055 2050.42035 1827.99788 2073.92018 1846.55038 2085.05168 1855.20822 2096.18318 1858.91872 2109.78835 1888.60272 2130.81452 1899.73422 2125.86719 1909.62889 2130.81452 1918.28672 2144.41969 1915.81305 2153.07752 1909.62889 2159.26169 1913.33939 2165.44585 1908.39205 2182.76152 1909.62889 2221.10336 1934.36555 2213.68236 1951.68122 2203.78769 1945.49705 2200.07719 1949.20755 2197.60352 1941.78655 2188.94569 1946.73389 2191.41936 1952.91805 2202.55086 1955.39172 2202.55086 1961.57589 2198.84036 1962.81272 2186.47202 1970.23372 2183.99836 1966.52322 2183.99836 1970.23372 2164.20902 1970.23372 2161.73535 1967.76006 2163.5906 1970.23372 2135.98581 1970.23304 2117.2179 1980.05837 2081.22568 1977.14008 2061.28405 1997.08171 2079.76654 2018.96887 2099.22179 2013.1323 2118.67704 2027.23735 2098.73541 2070.03891 2081.71206 2057.87938 2058.85214 2061.77043 2053.98833 2080.7393 2077.82101 2093.38521 2090.95331 2157.58755 2074.41634 2191.63424 2121.10895 2229.57198 2173.15175 2240.75875 2152.23735 2292.31518 2117.70428 2296.69261 2086.08949 2323.44358 2091.92607 2352.14008 2108.46304 2356.51751 2106.51751 2377.43191 2041.34241 2375.97276 2048.63813 2318.57977 2032.58755 2261.18677 2001.94553 2228.11284 2004.86381 2197.47082 1881.32296 2167.31518 1762.15953 2183.85214 1659.04669 2215.95331 1602.62646 2261.18677 1594.35798 2362.84047 1563.22957 2379.86381 1562.25681 2378.89105 1488.32685 2368.67704 1482.00389 2335.60311 1447.9572 2309.33852 1436.28405 2235.40856 1464.00778 2205.25292 1477.62646 2158.07393 1460.60311 2084.14397 1453.30739 2072.47082 1379.86381 2073.92996 1399.31907 2018.96887 1486.38132 1978.59922 1494.55081 1967.30111 1499.68581 1967.30104 1504.97682 1961.57589 1507.45049 1949.20755 1526.00299 1949.20755 1535.89765 1947.97072 1544.55549 1946.73389 1559.39749 1931.89189 1571.76582 1915.81305 1570.52899 1902.20788 1586.60782 1886.12905 1586.60782 1879.94488 1585.37099 1866.33972 1579.18682 1858.91872 1586.60782 1850.26088 1589.08149 1840.36621 1590.31832 1834.18205 1585.37099 1829.23471 1591.55516 1825.52421 1581.66049 1815.62955 1585.37099 1795.84021 1575.47632 1782.23505 1576.71316 1778.52454 1582.89732 1768.62988"></polygon>
                            <polygon id="Chiba-(JP-12)" stroke="#999999" stroke-width="0.5" fill="#EEEEEE" points="2367.06334 1759.96367 2360.87917 1748.83217 2350.98451 1757.49 2348.51084 1755.01634 2344.80034 1762.43734 2359.64234 1758.72684 2362.11601 1762.43734 2346.03717 1766.14784 2334.90567 1778.51617 2333.66884 1778.51617 2354.69501 1795.83184 2315.11634 1824.27901 2310.169 1813.14751 2306.4585 1818.09484 2291.6165 1814.38434 2290.37967 1804.48967 2295.327 1798.30551 2291.6165 1797.06867 2301.51117 1790.88451 2305.22167 1778.51617 2303.98484 1759.96367 2302.748 1758.72684 2303.98484 1751.30584 2323.77417 1745.12167 2334.90567 1729.04284 2332.43201 1717.91133 2317.59001 1701.8325 2313.87951 1694.4115 2317.59001 1678.33267 2306.4585 1667.20117 2296.56384 1647.41183 2299.0375 1642.4645 2310.169 1635.0435 2310.169 1630.09616 2305.22167 1616.491 2307.69534 1589.28066 2305.22167 1575.67549 2315.11634 1532.38632 2306.4585 1502.70232 2296.37058 1487.55111 2241.73152 1375.48638 2238.81323 1324.90272 2204.28016 1256.80934 2205.25292 1256.32296 2224.70817 1259.24125 2240.75875 1300.09728 2320.03891 1397.85992 2355.05837 1409.53307 2364.78599 1444.06615 2415.36965 1478.11284 2535.01946 1519.94163 2563.22957 1554.96109 2612.84047 1535.01946 2654.66926 1540.36965 2683.36576 1520.9144 2722.27626 1532.10117 2764.10506 1492.2179 2861.8677 1466.92607 2914.39689 1492.2179 2958.65759 1490.27237 3013.61868 1537.45136 3073.44358 1550.09728 3127.43191 1624.51362 3249.02724 1699.41634 3243.67704 1731.03113 3206.71206 1706.22568 3133.75486 1730.54475 3094.84436 1719.84436 3058.36576 1729.0856 2926.07004 1829.76654 2858.46304 1906.1284 2803.98833 2011.18677 2789.88327 2124.02724 2812.74319 2183.85214 2783.07393 2322.47082 2750.48638 2329.28016 2727.62646 2378.89105 2714.00778 2383.75486 2609.4358 2413.91051 2598.24903 2392.50973 2535.99222 2401.75097 2496.59533 2455.25292 2400.77821 2521.40078 2375.97276 2580.25292 2380.83658 2608.46304 2358.94942 2638.1323 2308.36576 2659.04669 2251.45914 2648.83268 2242.2179 2613.81323 2178.50195 2581.22568 2179.96109 2567.12062 2218.8716 2572.47082 2279.66926 2545.23346 2241.73152 2464.49416 2264.10506 2440.1751 2246.59533 2422.66537 2260.70039 2388.61868 2240.75875 2360.89494 2241.24514 2320.52529 2285.99222 2285.99222 2289.88327 2260.70039 2268.48249 2224.22179 2271.40078 2205.25292 2234.92218 2182.87938 2261.18677 2111.8677 2267.99611 2101.6537 2314.68872 2122.08171 2333.65759 2099.22179 2319.06615 2064.20233 2323.44358 2035.99222 2389.10506 2017.50973 2383.26848 1992.70428 2396.88716 1986.38132 2408.56031 2004.86381 2482.00389 1899.80545 2509.72763 1921.69261 2520.9144 1904.66926 2494.64981 1841.92607 2457.68482 1801.55642 2398.83268 1743.67704 2372.01067 1755.01634"></polygon>
                            <polygon id="Saitama-(JP-11)" stroke="#999999" stroke-width="0.5" fill="#EEEEEE" points="1353.11284 1555.93385 1319.55253 1530.15564 1263.1323 1520.42802 1249.02724 1489.29961 1199.41634 1478.11284 1209.14397 1452.82101 1183.85214 1401.75097 1188.71595 1379.37743 1225.19455 1330.25292 1285.01946 1329.28016 1329.76654 1280.15564 1403.6965 1260.70039 1426.07004 1222.76265 1500.48638 1219.35798 1520.9144 1182.393 1521.88716 1137.15953 1581.71206 1041.34241 1615.75875 1043.77432 1697.9572 1085.60311 1727.14008 1078.30739 1774.31907 1092.41245 1816.14786 1082.19844 1904.18288 1147.37354 2027.72374 1124.02724 2053.01556 1147.37354 2076.84825 1138.61868 2091.92607 1110.40856 2132.7821 1130.35019 2124.51362 1173.63813 2166.34241 1268.96887 2185.31128 1273.83268 2204.28016 1256.80934 2238.81323 1324.90272 2241.73152 1375.48638 2296.06198 1487.55111 2306.4585 1502.70232 2315.11634 1532.38632 2305.22167 1575.67549 2307.69534 1589.28066 2305.22167 1616.491 2310.169 1630.09616 2294.09017 1632.56983 2289.14284 1625.14883 2294.09017 1617.72783 2291.6165 1614.01733 2276.7745 1616.491 2274.30084 1621.43833 2265.643 1614.01733 2256.98517 1609.07 2245.85367 1617.72783 2240.90633 1609.07 2244.61683 1596.70166 2240.90633 1592.99116 2240.90633 1596.70166 2235.959 1600.41216 2219.88017 1604.12266 2203.80133 1602.88583 2191.433 1590.51749 2179.06466 1595.46483 2174.11733 1600.41216 2184.012 1617.72783 2179.06466 1626.38566 2171.64366 1626.38566 2162.98583 1633.80666 2162.98583 1625.14883 2150.6175 1625.14883 2146.907 1621.43833 2133.30183 1620.2015 2124.64399 1612.7805 2123.40716 1612.7805 2087.53899 1610.30683 2076.40749 1614.01733 2071.46016 1614.01733 2067.74966 1621.43833 2055.38132 1633.80666 2055.38132 1635.0435 2054.14449 1648.64866 2049.19716 1649.8855 2046.72349 1644.93816 2030.64466 1647.41183 2036.82882 1641.22766 2029.40782 1637.51716 2029.40782 1636.28033 2021.98682 1636.28033 2015.80266 1644.93816 2004.67116 1651.12233 2004.67116 1653.596 1997.25015 1656.06966 1991.06599 1659.78017 1979.93449 1663.49067 1982.40815 1641.22766 1953.96099 1651.12233 1958.90832 1643.70133 1978.69765 1635.0435 1979.93449 1625.14883 1973.75032 1621.43833 1982.40815 1607.83316 1977.46082 1602.88583 1958.90832 1623.912 1951.48732 1625.14883 1935.40848 1636.28033 1934.17165 1632.56983 1927.98748 1635.0435 1921.80332 1633.80666 1913.14548 1639.99083 1882.22465 1649.8855 1879.75098 1646.175 1862.43531 1651.12233 1847.59331 1647.41183 1835.22498 1653.596 1835.22498 1649.8855 1829.04081 1652.35916 1824.09348 1648.64866 1822.85665 1646.175 1824.09348 1644.93816 1825.33031 1641.22766 1821.61981 1635.0435 1815.43564 1636.28033 1817.90931 1635.0435 1812.96198 1627.6225 1815.43564 1621.43833 1796.88314 1618.96466 1793.17264 1615.25416 1777.09381 1618.96466 1770.90964 1615.25416 1763.48864 1594.22799 1763.48864 1581.85966 1753.59397 1585.57016 1751.12031 1570.72816 1743.69931 1570.72816 1739.98881 1567.01766 1735.04147 1569.49133 1731.33097 1564.54399 1711.54164 1569.49133 1694.22597 1568.25449 1691.7523 1563.30716 1684.3313 1568.25449 1665.7788 1557.12299 1660.83147 1557.12299 1657.12097 1563.30716 1643.5158 1562.07033 1621.2528 1552.17566 1620.01597 1552.17566 1616.30547 1544.75466 1605.17397 1537.33366 1560.64796 1532.38632 1543.3323 1523.72849 1533.43763 1527.43899 1523.54296 1524.96532 1482.72746 1495.28132 1475.30646 1497.75499 1466.64863 1512.59699 1451.80663 1516.30749 1445.62246 1511.36016 1434.49096 1517.54432 1413.46479 1531.14949 1410.99112 1539.80733 1412.22796 1545.99149 1401.09646 1550.93883 1396.14912 1553.41249 1381.30712 1548.46516 1372.34007 1557.35409"></polygon>
                            <polygon id="Gunma-(JP-10)" stroke="#999999" stroke-width="0.5" fill="#EEEEEE" points="2091.92607 1110.40856 2076.84825 1138.61868 2053.01556 1147.37354 2027.72374 1124.02724 1904.18288 1147.37354 1816.14786 1082.19844 1774.31907 1092.41245 1727.14008 1078.30739 1697.9572 1085.60311 1615.75875 1043.77432 1581.71206 1041.34241 1521.88716 1137.15953 1520.9144 1182.393 1500.48638 1219.35798 1426.07004 1222.76265 1403.6965 1260.70039 1329.76654 1280.15564 1285.01946 1329.28016 1225.19455 1330.25292 1188.71595 1379.37743 1171.20623 1383.75486 1153.6965 1358.46304 1124.02724 1349.22179 1105.54475 1263.1323 1121.59533 1246.10895 1107.97665 1213.5214 1076.36187 1209.63035 1054.96109 1172.66537 1062.74319 1164.39689 1085.11673 1180.44747 1107.00389 1157.10117 1108.46304 1117.70428 1088.03502 1096.3035 1076.84825 1042.31518 1126.94553 1009.24125 1130.35019 937.256809 1116.24514 881.322957 1075.87549 869.163424 1041.82879 874.027237 1020.42802 893.48249 977.626459 881.322957 967.412451 896.400778 946.498054 892.996109 885.700389 857.003891 882.782101 793.774319 911.964981 713.035019 910.992218 664.883268 957.684825 607.490272 1004.37743 599.708171 1004.86381 546.692607 1091.92607 529.182879 1167.31518 488.81323 1179.47471 497.081712 1196.98444 466.439689 1255.35019 487.840467 1293.77432 455.252918 1288.91051 406.614786 1320.03891 408.07393 1392.50973 377.918288 1380.35019 356.51751 1394.45525 310.311284 1435.79767 315.661479 1440.1751 303.015564 1427.0428 209.143969 1506.80934 195.525292 1546.69261 160.019455 1552.52918 113.81323 1627.43191 189.202335 1632.7821 226.167315 1677.52918 229.571984 1688.71595 246.108949 1689.20233 264.105058 1714.49416 254.377432 1826.36187 288.910506 1798.15175 363.81323 1847.76265 385.214008 1798.15175 453.793774 1811.77043 510.700389 1783.07393 553.988327 1774.31907 620.622568 1845.81712 656.614786 1905.64202 653.210117 1922.17899 686.284047 1882.29572 717.898833 1862.84047 776.264591 1878.89105 813.229572 1821.01167 888.618677 1812.25681 935.311284 1863.32685 973.249027 1861.38132 1001.45914 1915.36965 1048.63813 1964.49416 1034.53307 1999.02724 1055.44747 2053.01556 1046.69261 2071.49805 1058.36576 2067.12062 1071.98444"></polygon>
                            <polygon id="Tochigi-(JP-09)" stroke="#999999" stroke-width="0.5" fill="#EEEEEE" points="2665.36965 259.241245 2660.99222 356.031128 2674.12451 404.182879 2663.42412 467.412451 2693.57977 516.050584 2689.20233 531.614786 2642.99611 541.828794 2629.37743 560.311284 2657.10117 655.155642 2658.07393 743.190661 2613.32685 833.657588 2603.11284 890.564202 2570.03891 900.291829 2556.42023 881.322957 2535.01946 882.29572 2515.07782 905.155642 2482.00389 893.48249 2479.57198 918.774319 2466.92607 925.097276 2391.05058 928.988327 2384.72763 950.875486 2336.08949 973.735409 2330.25292 1016.53696 2275.29183 1002.91829 2248.05447 1085.11673 2168.28794 1127.43191 2132.7821 1130.35019 2091.92607 1110.40856 2067.12062 1071.98444 2071.49805 1058.36576 2053.01556 1046.69261 1999.02724 1055.44747 1964.49416 1034.53307 1915.36965 1048.63813 1861.38132 1001.45914 1863.32685 973.249027 1812.25681 935.311284 1821.01167 888.618677 1878.89105 813.229572 1862.84047 776.264591 1882.29572 717.898833 1922.17899 686.284047 1905.64202 653.210117 1845.81712 656.614786 1774.31907 620.622568 1783.07393 553.988327 1811.77043 510.700389 1798.15175 453.793774 1847.76265 385.214008 1798.15175 363.81323 1826.36187 288.910506 1872.08171 267.996109 1906.61479 218.385214 1972.27626 206.712062 2017.02335 170.233463 2047.66537 165.856031 2058.85214 144.941634 2097.27626 135.214008 2109.92218 115.272374 2246.10895 72.9571984 2254.86381 28.6964981 2321.01167 0 2438.71595 13.618677 2554.96109 62.2568093 2604.57198 109.922179 2615.75875 155.155642 2657.10117 152.723735 2649.31907 243.190661"></polygon>
                            <polygon id="Ibaraki-(JP-08)" stroke="#999999" stroke-width="0.5" fill="#EEEEEE" points="2955.25292 1105.54475 2998.54086 1264.59144 3128.89105 1532.10117 3208.17121 1653.21012 3248.05447 1676.07004 3249.02724 1699.41634 3127.43191 1624.51362 3073.44358 1550.09728 3013.61868 1537.45136 2958.65759 1490.27237 2914.39689 1492.2179 2861.8677 1466.92607 2764.10506 1492.2179 2722.27626 1532.10117 2683.36576 1520.9144 2654.66926 1540.36965 2612.84047 1535.01946 2563.22957 1554.96109 2535.01946 1520.9144 2415.36965 1478.11284 2364.78599 1444.06615 2355.05837 1409.53307 2320.03891 1397.85992 2240.75875 1300.09728 2224.70817 1259.24125 2205.25292 1256.32296 2204.28016 1256.80934 2185.31128 1273.83268 2166.34241 1268.96887 2124.51362 1173.63813 2132.7821 1130.35019 2168.77432 1126.94553 2248.05447 1085.11673 2275.77821 1002.43191 2330.7393 1016.05058 2336.57588 973.249027 2385.21401 950.389105 2391.53696 928.501946 2467.41245 924.610895 2480.05837 918.287938 2482.49027 892.996109 2515.07782 904.669261 2535.01946 882.29572 2556.42023 881.322957 2570.03891 900.291829 2602.62646 890.077821 2612.84047 833.171206 2657.58755 743.190661 2656.61479 655.155642 2628.89105 560.311284 2642.50973 541.828794 2688.71595 531.614786 2693.57977 516.536965 2662.93774 467.898833 2673.63813 404.669261 2660.01946 356.51751 2664.39689 259.727626 2691.14786 261.18677 2728.11284 310.797665 2767.99611 322.957198 2784.04669 379.377432 2839.49416 399.805447 2860.40856 427.529183 2931.42023 359.435798 2985.89494 335.603113 2963.5214 272.373541 2980.05837 250 3007.7821 300.097276 3174.61089 350.680934 3176.55642 351.653696 3178.01556 352.140078 3186.77043 383.268482 3156.1284 391.536965 3132.29572 437.743191 3074.90272 632.29572 3040.85603 689.202335 3002.91829 799.610895 3010.70039 939.688716 2960.11673 1002.43191"></polygon>
                        </g>
                    </g>
                </g>
                <g id="Text" opacity="0.25" font-family="Helvetica" font-size="12" font-weight="normal" fill="#000000" transform="translate(0, 0)">
                    <text id="Saitama">
                        <tspan x="590.989258" y="530.999996">Saitama</tspan>
                    </text>
                    <text id="Yamanashi">
                        <tspan x="180.982422" y="771">Yamanashi</tspan>
                    </text>
                    <text id="Kanagawa">
                        <tspan x="720.643555" y="860.999996">Kanagawa</tspan>
                    </text>
                    <text id="Chiba">
                        <tspan x="1100.32324" y="650.999996">Chiba</tspan>
                    </text>
                </g>
            </g>
            <g id="Municipalities" transform="translate(0, 0)">
                <g id="Map" fill-rule="nonzero">
                    <g id="Village">
                        <polygon id="Hinohara" stroke="#646464" stroke-width="0.5" fill="#B6F2DC" points="355.083247 702.631591 355.083247 687.789591 348.89908 682.842261 347.662246 645.737261 334.057079 627.184761 325.399245 624.711091 325.399245 621.000591 331.583412 617.290091 321.688745 608.632261 316.741411 613.579591 292.004743 597.500751 284.583743 601.211261 282.110076 606.158591 263.557575 606.158591 243.768241 619.763761 232.63674 622.237421 230.163073 638.316261 219.031573 637.079421 204.18957 644.500421 205.42641 646.974091 217.794739 668.000261 259.847075 693.973761 270.978576 696.447431 279.636409 701.394761 293.241577 701.394761 316.741411 722.420931 337.767579 729.841931 345.18858 727.368261"></polygon>
                    </g>
                    <g id="Town">
                        <polygon id="Mizuho" stroke="#646464" stroke-width="0.5" fill="#ECE3B4" points="517.10842 632.132091 515.87159 637.079421 519.58209 635.842591 525.76626 642.026761 523.29259 634.605761 528.23992 637.079421 540.60826 603.684921 545.55559 609.869091 551.73976 607.395421 552.97659 603.684921 549.26609 597.500751 543.08192 598.737591 545.55559 597.500751 540.60826 590.079751 543.08192 583.895591 524.52942 581.421921 520.81892 577.711421 504.74009 581.421921 501.02959 588.842921 493.60859 586.369251 499.79275 596.263921 496.08225 599.974421 505.97692 606.158591"></polygon>
                        <polygon id="Hinode" stroke="#646464" stroke-width="0.5" fill="#ECE3B4" points="435.47742 619.763761 428.05642 612.342761 411.97758 609.869091 402.082916 603.684921 392.188249 604.921761 374.872581 586.369251 360.03058 590.079751 346.425413 598.737591 362.504247 608.632261 363.741081 617.290091 374.872581 618.526921 393.425082 629.658421 395.898749 638.316261 407.03025 643.263591 423.10908 644.500421 441.66158 651.921421 460.21409 653.158261 461.45092 643.263591 456.50359 640.789921 455.26675 629.658421 440.42475 625.947921"></polygon>
                        <polygon id="Okutama" stroke="#646464" stroke-width="0.5" fill="#ECE3B4" points="321.688745 608.632261 322.925578 604.921761 322.925578 598.737591 332.820246 593.790251 331.583412 582.658751 358.793747 565.343091 361.267414 535.659081 350.135913 523.290752 347.662246 514.632918 343.951746 507.211918 332.820246 499.790917 288.294243 494.843584 270.978576 486.18575 263.557575 487.422583 259.847075 489.89625 251.189241 487.422583 210.373739 457.738582 202.95274 460.212248 194.2949 475.054249 179.4529 478.764749 173.26874 473.817416 162.13724 480.001583 141.11107 493.60675 138.6374 502.264584 139.87424 508.448751 144.82157 514.632918 143.58474 522.053919 148.53207 530.711752 157.1899 538.132751 164.6109 536.895921 164.6109 564.106251 169.55824 582.658751 179.4529 593.790251 176.97924 608.632261 185.63707 624.711091 198.0054 630.895261 202.95274 642.026761 204.18957 644.500421 219.031573 637.079421 230.163073 638.316261 232.63674 622.237421 243.768241 619.763761 263.557575 606.158591 282.110076 606.158591 284.583743 601.211261 292.004743 597.500751 316.741411 613.579591"></polygon>
                    </g>
                    <g id="City">
                        <polygon id="Musashino" stroke="#646464" stroke-width="0.5" fill="#F6BAD3" points="723.6596 687.789591 733.55427 692.736931 738.5016 689.026431 747.15943 697.684261 755.81727 684.079091 747.15943 676.658091 727.3701 665.526591 717.47543 665.526591 701.3966 676.658091 693.9756 675.421261 693.9756 670.473931 690.2651 670.473931 689.02826 675.421261 696.44927 679.131761 697.6861 691.500091 700.15977 695.210591 713.76493 696.447431 712.5281 682.842261"></polygon>
                        <polygon id="Tachikawa" stroke="#646464" stroke-width="0.5" fill="#F6BAD3" points="556.68709 700.157931 587.60793 710.052591 591.31843 703.868431 595.02893 706.342091 599.97626 701.394761 601.21309 693.973761 595.02893 687.789591 599.97626 686.552761 606.16043 681.605431 598.73943 672.947591 601.21309 671.710761 597.50259 670.473931 602.44993 668.000261 612.34459 676.658091 614.81826 664.289761 613.58143 663.052931 592.55526 655.631921 596.26576 655.631921 585.13426 651.921421 566.58176 650.684591 555.45026 638.316261 556.68709 643.263591 562.87126 651.921421 555.45026 649.447761 555.45026 651.921421 533.18726 644.500421 527.00309 648.210921 528.23992 660.579261 551.73976 660.579261 551.73976 665.526591 569.05542 676.658091"></polygon>
                        <polygon id="Hachioji" stroke="#646464" stroke-width="0.5" fill="#F6BAD3" points="409.503916 790.446771 419.39858 799.104601 430.53008 805.288771 435.47742 801.578271 442.89842 804.051931 446.60892 795.394101 455.26675 784.262601 463.92459 780.552101 470.10875 783.025761 470.10875 789.209931 483.71392 787.973101 491.13492 791.683601 504.74009 787.973101 512.16109 790.446771 512.16109 779.315261 517.10842 795.394101 523.29259 797.867771 531.95042 801.578271 538.13459 796.630931 557.92392 808.999271 559.16076 801.578271 565.34492 797.867771 575.23959 783.025761 585.13426 776.841601 599.97626 769.420601 585.13426 752.104931 569.05542 760.762761 549.26609 759.525931 550.50292 755.815431 540.60826 754.578601 530.71359 742.210261 530.71359 737.262931 544.31876 729.841931 548.02926 706.342091 551.73976 705.105261 548.02926 700.157931 514.63476 697.684261 510.92426 695.210591 505.97692 679.131761 507.21376 675.421261 504.74009 676.658091 494.84542 668.000261 491.13492 674.184431 484.95075 671.710761 481.24025 676.658091 480.00342 674.184431 472.58242 676.658091 451.55625 672.947591 446.60892 679.131761 434.24058 675.421261 428.05642 677.894931 398.372416 668.000261 387.240915 677.894931 381.056748 703.868431 355.083247 702.631591 345.18858 727.368261 350.135913 734.789261 351.372747 747.157601 366.214747 754.578601 379.819915 744.683931 394.661916 750.868101 395.898749 763.236431 402.082916 771.894261 399.609249 775.604761 408.267083 783.025761"></polygon>
                        <polygon id="Mitaka" stroke="#646464" stroke-width="0.5" fill="#F6BAD3" points="752.10677 711.289431 754.58043 711.289431 750.86993 705.105261 754.58043 702.631591 747.15943 697.684261 738.5016 689.026431 733.55427 692.736931 723.6596 687.789591 712.5281 682.842261 713.76493 696.447431 700.15977 695.210591 697.6861 691.500091 696.44927 703.868431 689.02826 701.394761 691.50193 708.815761 692.73877 712.526261 689.02826 713.763091 695.21243 727.368261 698.92293 726.131431 705.1071 732.315601 707.58077 728.605101 705.1071 724.894601 706.34393 712.526261 721.18593 710.052591 723.6596 712.526261 727.3701 731.078761 734.7911 732.315601 737.26477 737.262931 743.44893 731.078761 737.26477 721.184091 749.6331 726.131431 743.44893 721.184091 748.39627 719.947261 745.9226 711.289431"></polygon>
                        <polygon id="Ome" stroke="#646464" stroke-width="0.5" fill="#F6BAD3" points="346.425413 598.737591 360.03058 590.079751 374.872581 586.369251 392.188249 604.921761 402.082916 603.684921 411.97758 609.869091 428.05642 612.342761 435.47742 619.763761 465.16142 619.763761 472.58242 627.184761 468.87192 602.448091 475.05609 595.027091 480.00342 598.737591 487.42442 602.448091 496.08225 599.974421 499.79275 596.263921 493.60859 586.369251 501.02959 588.842921 504.74009 581.421921 498.55592 577.711421 491.13492 556.685251 491.13492 551.737921 491.13492 544.316921 481.24025 548.027421 478.76659 533.185419 471.34559 533.185419 467.63509 529.474919 462.68775 531.948586 458.97725 527.001252 454.02992 528.238086 439.18792 531.948586 421.87225 530.711752 419.39858 525.764419 411.97758 530.711752 393.425082 519.580252 388.477749 519.580252 384.767248 525.764419 371.162081 524.527585 348.89908 514.632918 347.662246 514.632918 350.135913 523.290752 361.267414 535.659081 358.793747 565.343091 331.583412 582.658751 332.820246 593.790251 322.925578 598.737591 322.925578 604.921761 329.109745 599.974421 332.820246 602.448091 332.820246 597.500751 339.004413 604.921761 342.714913 604.921761 342.714913 598.737591"></polygon>
                        <polygon id="Akishima" stroke="#646464" stroke-width="0.5" fill="#F6BAD3" points="548.02926 700.157931 556.68709 700.157931 569.05542 676.658091 551.73976 665.526591 551.73976 660.579261 528.23992 660.579261 525.76626 664.289761 514.63476 666.763431 513.39792 670.473931 507.21376 675.421261 505.97692 679.131761 510.92426 695.210591 514.63476 697.684261"></polygon>
                        <polygon id="Fuchu" stroke="#646464" stroke-width="0.5" fill="#F6BAD3" points="611.10776 739.736601 640.79176 749.631261 651.92326 745.920761 668.0021 749.631261 676.65993 747.157601 685.31776 753.341761 685.31776 744.683931 681.60726 742.210261 686.5546 732.315601 690.2651 722.420931 685.31776 711.289431 686.5546 705.105261 682.8441 700.157931 679.1336 703.868431 679.1336 706.342091 671.7126 705.105261 665.52843 708.815761 668.0021 705.105261 663.05476 707.578931 656.8706 701.394761 655.63376 695.210591 644.50226 702.631591 633.37076 703.868431 633.37076 700.157931 630.8971 690.263261 627.18659 698.921091 622.23926 703.868431 618.52876 721.184091 621.00243 723.657761 614.81826 721.184091 598.73943 724.894601"></polygon>
                        <polygon id="Chofu" stroke="#646464" stroke-width="0.5" fill="#F6BAD3" points="690.2651 757.052261 711.29127 764.473261 724.89643 769.420601 727.3701 752.104931 736.02793 747.157601 748.39627 753.341761 753.3436 753.341761 753.3436 747.157601 747.15943 732.315601 749.6331 729.841931 749.6331 726.131431 737.26477 721.184091 743.44893 731.078761 737.26477 737.262931 734.7911 732.315601 727.3701 731.078761 723.6596 712.526261 721.18593 710.052591 706.34393 712.526261 705.1071 724.894601 707.58077 728.605101 705.1071 732.315601 698.92293 726.131431 695.21243 727.368261 689.02826 713.763091 692.73877 712.526261 691.50193 708.815761 686.5546 705.105261 685.31776 711.289431 690.2651 722.420931 686.5546 732.315601 681.60726 742.210261 685.31776 744.683931 685.31776 753.341761"></polygon>
                        <polygon id="Machida" stroke="#646464" stroke-width="0.5" fill="#F6BAD3" points="660.5811 820.130771 650.68643 813.946601 638.3181 805.288771 633.37076 795.394101 622.23926 801.578271 617.29193 792.920431 614.81826 796.630931 608.63409 795.394101 603.68676 801.578271 597.50259 797.867771 592.55526 799.104601 586.37109 792.920431 565.34492 797.867771 559.16076 801.578271 557.92392 808.999271 538.13459 796.630931 531.95042 801.578271 523.29259 797.867771 517.10842 795.394101 512.16109 779.315261 512.16109 790.446771 504.74009 787.973101 491.13492 791.683601 483.71392 787.973101 470.10875 789.209931 470.10875 783.025761 463.92459 780.552101 455.26675 784.262601 446.60892 795.394101 460.21409 791.683601 467.63509 792.920431 480.00342 801.578271 498.55592 801.578271 504.74009 804.051931 513.39792 800.341431 534.42409 807.762431 562.87126 823.841271 570.29226 825.078101 574.00276 834.972771 580.18693 834.972771 586.37109 851.051601 591.31843 853.525271 602.44993 869.604101 613.58143 874.551441 621.00243 885.682941 624.71293 893.103941 623.47609 900.524941 630.8971 902.998601 634.6076 920.314271 651.92326 919.077441 646.97593 915.366941 644.50226 910.419611 653.1601 900.524941 651.92326 885.682941 653.1601 881.972441 646.97593 873.314601 646.97593 854.762101 635.84443 849.814771 637.08126 842.393771 643.26543 827.551771 651.92326 825.078101 655.63376 826.314931 649.4496 839.920101 656.8706 852.288441 671.7126 839.920101 672.94943 834.972771 660.5811 827.551771"></polygon>
                        <polygon id="Koganei" stroke="#646464" stroke-width="0.5" fill="#F6BAD3" points="686.5546 705.105261 691.50193 708.815761 689.02826 701.394761 696.44927 703.868431 697.6861 691.500091 696.44927 679.131761 689.02826 675.421261 690.2651 670.473931 687.79143 668.000261 674.18626 671.710761 672.94943 676.658091 661.81793 675.421261 661.81793 679.131761 651.92326 680.368591 650.68643 687.789591 658.10743 690.263261 655.63376 695.210591 656.8706 701.394761 663.05476 707.578931 668.0021 705.105261 665.52843 708.815761 671.7126 705.105261 679.1336 706.342091 679.1336 703.868431 682.8441 700.157931"></polygon>
                        <polygon id="Koidara" stroke="#646464" stroke-width="0.5" fill="#F6BAD3" points="614.81826 664.289761 639.55493 672.947591 639.55493 677.894931 643.26543 680.368591 646.97593 674.184431 651.92326 680.368591 661.81793 679.131761 661.81793 675.421261 672.94943 676.658091 674.18626 671.710761 687.79143 668.000261 681.60726 654.395091 684.08093 651.921421 685.31776 644.500421 682.8441 644.500421 679.1336 642.026761 677.89676 645.737261 677.89676 642.026761 677.89676 645.737261 672.94943 645.737261 671.7126 640.789921 669.23893 653.158261 669.23893 640.789921 664.2916 637.079421 656.8706 642.026761 655.63376 638.316261 651.92326 639.553091 653.1601 650.684591 645.7391 649.447761 644.50226 643.263591 633.37076 639.553091 619.76559 646.974091 609.87093 648.210921 596.26576 655.631921 592.55526 655.631921 613.58143 663.052931"></polygon>
                        <polygon id="Hino" stroke="#646464" stroke-width="0.5" fill="#F6BAD3" points="607.39726 748.394431 611.10776 739.736601 598.73943 724.894601 587.60793 710.052591 556.68709 700.157931 548.02926 700.157931 551.73976 705.105261 548.02926 706.342091 544.31876 729.841931 530.71359 737.262931 530.71359 742.210261 540.60826 754.578601 550.50292 755.815431 549.26609 759.525931 569.05542 760.762761 585.13426 752.104931 586.37109 749.631261 596.26576 755.815431 603.68676 747.157601"></polygon>
                        <polygon id="Higashimurayama" stroke="#646464" stroke-width="0.5" fill="#F6BAD3" points="670.47576 618.526921 663.05476 617.290091 666.76526 613.579591 663.05476 603.684921 661.81793 601.211261 663.05476 598.737591 661.81793 595.027091 655.63376 597.500751 649.4496 596.263921 640.79176 602.448091 609.87093 612.342761 608.63409 616.053261 614.81826 627.184761 619.76559 646.974091 633.37076 639.553091 644.50226 643.263591 645.7391 649.447761 653.1601 650.684591 651.92326 639.553091 660.5811 622.237421"></polygon>
                        <polygon id="Kokubunji" stroke="#646464" stroke-width="0.5" fill="#F6BAD3" points="627.18659 698.921091 630.8971 690.263261 633.37076 700.157931 633.37076 703.868431 644.50226 702.631591 655.63376 695.210591 658.10743 690.263261 650.68643 687.789591 651.92326 680.368591 646.97593 674.184431 643.26543 680.368591 639.55493 677.894931 639.55493 672.947591 614.81826 664.289761 612.34459 676.658091 602.44993 668.000261 597.50259 670.473931 601.21309 671.710761 598.73943 672.947591 606.16043 681.605431 599.97626 686.552761 617.29193 689.026431"></polygon>
                        <polygon id="Kunitachi" stroke="#646464" stroke-width="0.5" fill="#F6BAD3" points="627.18659 698.921091 617.29193 689.026431 599.97626 686.552761 595.02893 687.789591 601.21309 693.973761 599.97626 701.394761 595.02893 706.342091 591.31843 703.868431 587.60793 710.052591 598.73943 724.894601 614.81826 721.184091 621.00243 723.657761 618.52876 721.184091 622.23926 703.868431"></polygon>
                        <polygon id="Fussa" stroke="#646464" stroke-width="0.5" fill="#F6BAD3" points="513.39792 670.473931 514.63476 666.763431 525.76626 664.289761 528.23992 660.579261 527.00309 648.210921 533.18726 644.500421 528.23992 637.079421 523.29259 634.605761 525.76626 642.026761 519.58209 635.842591 515.87159 637.079421 517.10842 632.132091 499.79275 625.947921 489.89809 635.842591 494.84542 651.921421 503.50325 658.105591 504.74009 676.658091 507.21376 675.421261"></polygon>
                        <polygon id="Komae" stroke="#646464" stroke-width="0.5" fill="#F6BAD3" points="750.86993 785.499431 750.86993 780.552101 754.58043 775.604761 745.9226 759.525931 748.39627 753.341761 736.02793 747.157601 727.3701 752.104931 724.89643 769.420601 734.7911 779.315261"></polygon>
                        <polygon id="Higashiyamato" stroke="#646464" stroke-width="0.5" fill="#F6BAD3" points="566.58176 617.290091 578.95009 621.000591 577.71326 633.368921 581.42376 634.605761 585.13426 651.921421 596.26576 655.631921 609.87093 648.210921 619.76559 646.974091 614.81826 627.184761 608.63409 616.053261 609.87093 612.342761 607.39726 608.632261 590.08159 613.579591 575.23959 609.869091 562.87126 616.053261"></polygon>
                        <polygon id="Kiyose" stroke="#646464" stroke-width="0.5" fill="#F6BAD3" points="681.60726 613.579591 686.5546 606.158591 706.34393 597.500751 707.58077 587.606091 701.3966 583.895591 710.05443 570.290421 705.1071 565.343091 686.5546 586.369251 679.1336 587.606091 663.05476 598.737591 661.81793 601.211261 663.05476 603.684921 666.76526 613.579591 663.05476 617.290091 670.47576 618.526921"></polygon>
                        <polygon id="Higashikurume" stroke="#646464" stroke-width="0.5" fill="#F6BAD3" points="707.58077 625.947921 710.05443 603.684921 681.60726 613.579591 670.47576 618.526921 660.5811 622.237421 651.92326 639.553091 655.63376 638.316261 656.8706 642.026761 664.2916 637.079421 669.23893 640.789921 669.23893 653.158261 671.7126 640.789921 672.94943 645.737261 677.89676 645.737261 677.89676 642.026761 677.89676 645.737261 679.1336 642.026761 682.8441 644.500421 685.31776 644.500421 684.08093 651.921421 695.21243 643.263591 691.50193 639.553091 696.44927 638.316261"></polygon>
                        <polygon id="Musashimurayama" stroke="#646464" stroke-width="0.5" fill="#F6BAD3" points="556.68709 643.263591 555.45026 638.316261 566.58176 650.684591 585.13426 651.921421 581.42376 634.605761 577.71326 633.368921 578.95009 621.000591 566.58176 617.290091 562.87126 616.053261 562.87126 612.342761 556.68709 614.816421 551.73976 611.105921 550.50292 608.632261 551.73976 607.395421 545.55559 609.869091 540.60826 603.684921 528.23992 637.079421 533.18726 644.500421 555.45026 651.921421 555.45026 649.447761 562.87126 651.921421"></polygon>
                        <polygon id="Tama" stroke="#646464" stroke-width="0.5" fill="#F6BAD3" points="617.29193 792.920431 621.00243 785.499431 632.13393 778.078431 632.13393 771.894261 638.3181 768.183761 635.84443 754.578601 640.79176 749.631261 611.10776 739.736601 607.39726 748.394431 603.68676 747.157601 596.26576 755.815431 586.37109 749.631261 585.13426 752.104931 599.97626 769.420601 585.13426 776.841601 575.23959 783.025761 565.34492 797.867771 586.37109 792.920431 592.55526 799.104601 597.50259 797.867771 603.68676 801.578271 608.63409 795.394101 614.81826 796.630931"></polygon>
                        <polygon id="Inagi" stroke="#646464" stroke-width="0.5" fill="#F6BAD3" points="690.2651 757.052261 685.31776 753.341761 676.65993 747.157601 668.0021 749.631261 651.92326 745.920761 640.79176 749.631261 635.84443 754.578601 638.3181 768.183761 632.13393 771.894261 632.13393 778.078431 635.84443 783.025761 642.0286 784.262601 643.26543 791.683601 655.63376 801.578271 665.52843 800.341431 660.5811 786.736271 676.65993 779.315261 679.1336 778.078431 681.60726 771.894261 687.79143 769.420601 685.31776 763.236431"></polygon>
                        <polygon id="Hamura" stroke="#646464" stroke-width="0.5" fill="#F6BAD3" points="517.10842 632.132091 505.97692 606.158591 496.08225 599.974421 487.42442 602.448091 480.00342 598.737591 475.05609 595.027091 468.87192 602.448091 472.58242 627.184761 486.18759 630.895261 489.89809 635.842591 499.79275 625.947921"></polygon>
                        <polygon id="Akiruno" stroke="#646464" stroke-width="0.5" fill="#F6BAD3" points="489.899345 635.84184 486.188845 630.89451 472.583675 627.18401 465.162675 619.76301 435.478675 619.76301 440.426005 625.94717 455.268005 629.65767 456.504845 640.78917 461.452175 643.26284 460.215345 653.15751 441.662835 651.92067 423.110335 644.49967 407.031505 643.26284 395.900004 638.31551 393.426337 629.65767 374.873836 618.52617 363.742336 617.28934 362.505502 608.63151 346.426668 598.73684 342.716168 598.73684 342.716168 604.92101 339.005668 604.92101 332.821501 597.5 332.821501 602.44734 329.111 599.97367 322.926833 604.92101 321.69 608.63151 331.584667 617.28934 325.4005 620.99984 325.4005 624.71034 334.058334 627.18401 347.663501 645.73651 348.900335 682.84151 355.084502 687.78884 355.084502 702.63084 381.058003 703.86768 387.24217 677.89418 398.373671 667.99951 428.057675 677.89418 434.241835 675.42051 446.610175 679.13101 451.557505 672.94684 472.583675 676.65734 480.004675 674.18368 481.241505 676.65734 484.952005 671.71001 491.136175 674.18368 494.846675 667.99951 504.741345 676.65734 503.504505 658.10484 494.846675 651.92067"></polygon>
                        <polygon id="Nishitokyo" stroke="#646464" stroke-width="0.5" fill="#F6BAD3" points="687.79143 668.000261 690.2651 670.473931 693.9756 670.473931 693.9756 675.421261 701.3966 676.658091 717.47543 665.526591 727.3701 665.526591 731.0806 632.132091 724.89643 618.526921 718.71227 622.237421 707.58077 625.947921 696.44927 638.316261 691.50193 639.553091 695.21243 643.263591 684.08093 651.921421 681.60726 654.395091"></polygon>
                    </g>
                    <g id="Special-Ward">
                        <path d="M983.394614,686.552761 L994.526115,695.210594 L993.289281,739.736597 L998.236615,739.736597 L996.999781,757.052264 L1006.89445,760.762765 L1019.26278,759.525931 L1029.15745,753.341764 L1032.86795,740.97343 L1031.63112,722.420929 L1030.39428,721.184096 L1031.63112,713.763095 L1051.42045,707.578928 L1062.55195,691.500094 L1060.07828,680.368594 L1045.23628,664.289759 L1041.52578,656.868759 L1045.23628,640.789925 L1035.34162,630.895258 L1034.10478,629.658424 L1025.44695,630.895258 L1030.39428,635.842591 L1021.73645,645.737258 L1018.02595,645.737258 L1013.07862,675.42126 L1005.65762,672.947593 L998.236615,676.658093 L989.578781,666.763426 L980.920947,671.71076 L987.105114,677.894927 L983.394614,686.552761 Z M996.999781,764.473265 L996.999781,760.762765 L1004.42078,761.999598 L1004.42078,765.710098 L1005.65762,763.236431 L998.236615,759.525931 L996.999781,764.473265 Z M1005.65762,765.710098 L1008.13128,763.236431 L1014.31545,765.710098 L1013.07862,768.183765 L1014.31545,765.710098 L1009.36812,763.236431 L1005.65762,765.710098 Z" id="Edogawa" stroke="#646464" stroke-width="0.49473336" fill="#DCB6F2"></path>
                        <polygon id="Adachi" stroke="#646464" stroke-width="0.49473336" fill="#DCB6F2" points="963.60528 619.763757 968.552613 619.763757 971.02628 624.711091 972.263113 617.29009 977.210447 622.237424 979.684114 614.816423 984.631447 616.053257 992.052448 608.632256 1004.42078 612.342757 992.052448 587.606089 993.289281 576.474588 984.631447 571.527254 973.499947 580.185088 968.552613 571.527254 972.263113 559.15892 968.552613 555.44842 968.552613 559.15892 963.60528 562.869421 947.526445 566.579921 931.447611 565.343087 919.079277 552.974753 906.710943 557.922087 901.76361 562.869421 911.658277 580.185088 906.710943 588.842922 899.289943 588.842922 890.632109 596.263922 888.158442 606.15859 898.053109 612.342757 910.421443 608.632256 910.421443 613.57959 900.526776 621.00059 909.18461 625.947924 935.158111 627.184757 941.342278 630.895258 938.868612 635.842591 942.579112 642.026758 963.60528 644.500425 968.552613 639.553091 962.368446 625.947924"></polygon>
                        <polygon id="Nerima" stroke="#646464" stroke-width="0.49473336" fill="#DCB6F2" points="727.3701 665.526593 747.159435 676.658093 748.396268 666.763426 754.580435 669.237093 764.475102 659.342426 783.027603 655.631926 785.50127 649.447759 790.448604 649.447759 801.580104 660.579259 816.422105 660.579259 827.553606 650.684592 833.737773 654.395092 834.974606 651.921425 836.211439 644.500425 836.211439 639.553091 828.790439 638.316258 830.027272 622.237424 825.079939 611.105923 800.343271 607.395423 792.92227 609.86909 783.027603 597.500756 781.79077 611.105923 776.843436 612.342757 774.369769 607.395423 758.290935 609.86909 764.475102 603.684923 757.054102 599.974423 757.054102 598.737589 754.580435 598.737589 749.633101 598.737589 743.448934 607.395423 732.317434 613.57959 732.317434 616.053257 724.896433 618.526924 731.0806 632.132091"></polygon>
                        <polygon id="Itabashi" stroke="#646464" stroke-width="0.49473336" fill="#DCB6F2" points="875.790108 630.895258 869.605941 619.763757 860.948107 612.342757 857.237607 592.553422 851.05344 593.790256 844.869273 588.842922 851.05344 575.237755 815.185272 572.764088 804.053771 576.474588 799.106437 576.474588 795.395937 583.895588 783.027603 596.263922 783.027603 597.500756 792.92227 609.86909 800.343271 607.395423 825.079939 611.105923 830.027272 622.237424 828.790439 638.316258 836.211439 639.553091 836.211439 644.500425 847.34294 639.553091 853.527107 640.789925 858.474441 648.210925 864.658608 637.079425 873.316441 637.079425"></polygon>
                        <polygon id="Katsushika" stroke="#646464" stroke-width="0.49473336" fill="#DCB6F2" points="989.578781 666.763426 998.236615 676.658093 1005.65762 672.947593 1013.07862 675.42126 1018.02595 645.737258 1021.73645 645.737258 1030.39428 635.842591 1025.44695 630.895258 1034.10478 629.658424 1024.21012 609.86909 1026.68378 604.921756 1037.81528 597.500756 1037.81528 592.553422 1021.73645 595.027089 1016.78912 587.606089 1021.73645 580.185088 1019.26278 576.474588 1004.42078 578.948255 1001.94711 583.895588 993.289281 576.474588 992.052448 587.606089 1004.42078 612.342757 992.052448 608.632256 984.631447 616.053257 979.684114 614.816423 977.210447 622.237424 972.263113 617.29009 971.02628 624.711091 968.552613 619.763757 963.60528 619.763757 962.368446 625.947924 968.552613 639.553091"></polygon>
                        <polygon id="Arakawa" stroke="#646464" stroke-width="0.49473336" fill="#DCB6F2" points="914.131944 654.395092 930.210778 660.579259 941.342278 653.158259 958.657946 656.868759 963.60528 644.500425 942.579112 642.026758 938.868612 635.842591 941.342278 630.895258 935.158111 627.184757 909.18461 625.947924 903.000443 627.184757 901.76361 630.895258 919.079277 642.026758 921.552944 645.737258 916.60561 648.210925 912.89511 651.921425"></polygon>
                        <polygon id="Kita" stroke="#646464" stroke-width="0.49473336" fill="#DCB6F2" points="904.237276 649.447759 912.89511 651.921425 916.60561 648.210925 921.552944 645.737258 919.079277 642.026758 901.76361 630.895258 903.000443 627.184757 909.18461 625.947924 900.526776 621.00059 910.421443 613.57959 910.421443 608.632256 898.053109 612.342757 888.158442 606.15859 890.632109 596.263922 890.632109 587.606089 878.263775 587.606089 874.553275 583.895588 860.948107 582.658755 852.290274 575.237755 851.05344 575.237755 844.869273 588.842922 851.05344 593.790256 857.237607 592.553422 860.948107 612.342757 869.605941 619.763757 875.790108 630.895258 873.316441 637.079425 878.263775 643.263592 880.737442 638.316258 885.684775 637.079425 886.921609 642.026758 894.342609 640.789925"></polygon>
                        <polygon id="Toshima" stroke="#646464" stroke-width="0.49473336" fill="#DCB6F2" points="904.237276 649.447759 894.342609 640.789925 886.921609 642.026758 885.684775 637.079425 880.737442 638.316258 878.263775 643.263592 873.316441 637.079425 864.658608 637.079425 858.474441 648.210925 853.527107 640.789925 847.34294 639.553091 836.211439 644.500425 834.974606 651.921425 833.737773 654.395092 833.737773 655.631926 839.92194 664.289759 859.711274 663.052926 860.948107 674.184427 875.790108 675.42126 873.316441 674.184427 872.079608 669.237093 878.263775 666.763426 878.263775 659.342426 889.395276 660.579259 889.395276 655.631926 896.816276 648.210925 901.76361 651.921425"></polygon>
                        <polygon id="Suginami" stroke="#646464" stroke-width="0.49473336" fill="#DCB6F2" points="821.369439 717.473596 816.422105 705.105262 823.843105 700.157928 823.843105 696.447428 817.658938 695.210594 815.185272 679.13176 809.001105 679.13176 790.448604 670.473927 783.027603 655.631926 764.475102 659.342426 754.580435 669.237093 748.396268 666.763426 747.159435 676.658094 755.817268 684.079094 747.159435 697.684261 754.580435 702.631595 750.869935 705.105262 754.580435 711.289429 765.711936 714.999929 768.185602 724.894596 775.606603 724.894596 770.659269 717.473596 783.027603 723.657763 796.632771 729.84193 818.895772 722.420929"></polygon>
                        <polygon id="Nakano" stroke="#646464" stroke-width="0.49473336" fill="#DCB6F2" points="823.843105 700.157928 816.422105 705.105262 821.369439 717.473596 839.92194 698.921095 843.63244 681.605427 849.816607 676.658094 838.685106 677.894927 837.448273 675.42126 834.974606 669.237093 830.027272 668.00026 833.737773 655.631926 833.737773 654.395092 827.553606 650.684592 816.422105 660.579259 801.580104 660.579259 790.448604 649.447759 785.50127 649.447759 783.027603 655.631926 790.448604 670.473927 809.001105 679.13176 815.185272 679.13176 817.658938 695.210594 823.843105 696.447428"></polygon>
                        <polygon id="Shibuya" stroke="#646464" stroke-width="0.49473336" fill="#DCB6F2" points="831.264106 732.315596 842.395606 734.789263 863.421774 757.052264 872.079608 758.289098 873.316441 758.289098 877.026942 752.104931 877.026942 740.97343 867.132274 738.499763 864.658608 729.84193 870.842775 721.184096 867.132274 719.947262 869.605941 712.526262 860.948107 703.868428 854.76394 702.631595 843.63244 711.289429 841.158773 707.578928 839.92194 698.921095 821.369439 717.473596 818.895772 722.420929 826.316772 722.420929"></polygon>
                        <polygon id="Setagaya" stroke="#646464" stroke-width="0.49473336" fill="#DCB6F2" points="750.869935 780.552099 750.869935 785.499433 757.054102 785.499433 778.08027 790.446766 801.580104 808.999267 812.711605 817.657101 815.185272 813.946601 810.237938 811.472934 817.658938 806.5256 826.316772 807.762434 833.737773 815.183434 836.211439 805.288767 833.737773 796.630933 820.132605 796.630933 823.843105 785.499433 818.895772 769.420598 836.211439 776.841599 842.395606 760.762765 839.92194 745.920764 831.264106 732.315596 826.316772 722.420929 818.895772 722.420929 796.632771 729.84193 783.027603 723.657763 770.659269 717.473596 775.606603 724.894596 768.185602 724.894596 765.711936 714.999929 754.580435 711.289429 752.106768 711.289429 745.922601 711.289429 748.396268 719.947262 743.448934 721.184096 749.633101 726.131429 749.633101 729.84193 747.159435 732.315596 753.343602 747.157597 753.343602 753.341764 748.396268 753.341764 745.922601 759.525931 754.580435 775.604765"></polygon>
                        <path d="M925.263444,811.472934 L919.079277,815.183434 L914.131944,812.709767 L914.131944,823.841268 L907.947777,823.841268 L907.947777,818.893934 L900.526776,817.657101 L884.447942,821.367601 L881.974275,812.709767 L873.316441,816.420268 L869.605941,806.5256 L858.474441,805.288767 L851.05344,797.867767 L841.158773,791.6836 L841.158773,800.341433 L836.211439,801.578267 L836.211439,805.288767 L833.737773,815.183434 L826.316772,807.762434 L817.658938,806.5256 L810.237938,811.472934 L815.185272,813.946601 L812.711605,817.657101 L823.843105,821.367601 L837.448273,851.051603 L858.474441,862.183103 L853.527107,872.077771 L858.474441,880.735604 L872.079608,878.261938 L880.737442,872.077771 L886.921609,875.788271 L893.105776,870.840937 L910.421443,872.077771 L948.763279,896.814439 L958.657946,877.025104 L936.394945,841.156936 L922.789777,842.393769 L915.368777,852.288436 L910.421443,847.341103 L905.47411,849.814769 L895.579443,841.156936 L895.579443,836.209602 L875.790108,836.209602 L914.131944,832.499102 L919.079277,827.551768 L919.079277,832.499102 L933.921278,832.499102 L937.631778,830.025435 L932.684445,822.604435 L920.316111,826.314935 L927.737111,817.657101 L925.263444,811.472934 Z M898.053109,839.920102 L903.000443,844.867436 L909.18461,842.393769 L905.47411,834.972769 L898.053109,839.920102 Z M909.18461,839.920102 L917.842444,847.341103 L925.263444,836.209602 L910.421443,836.209602 L909.18461,839.920102 Z" id="Ota" stroke="#646464" stroke-width="0.49473336" fill="#DCB6F2"></path>
                        <polygon id="Meguro" stroke="#646464" stroke-width="0.49473336" fill="#DCB6F2" points="851.05344 797.867767 851.05344 790.446766 858.474441 780.552099 851.05344 778.078432 869.605941 773.131099 867.132274 763.236432 872.079608 758.289098 863.421774 757.052265 842.395606 734.789263 831.264106 732.315597 839.92194 745.920764 842.395606 760.762765 836.211439 776.841599 818.895772 769.420599 823.843105 785.499433 820.132605 796.630933 833.737773 796.630933 836.211439 805.288767 836.211439 801.578267 841.158773 800.341434 841.158773 791.6836"></polygon>
                        <path d="M858.474441,805.288767 L869.605941,806.5256 L873.316441,816.420268 L881.974275,812.709767 L884.447942,821.367601 L900.526776,817.657101 L907.947777,818.893934 L907.947777,823.841268 L914.131944,823.841268 L914.131944,812.709767 L919.079277,815.183434 L925.263444,811.472934 L911.658277,787.973099 L911.658277,774.367932 L909.18461,778.078432 L888.158442,779.315266 L883.211109,769.420598 L879.500608,765.710098 L872.079608,765.710098 L873.316441,758.289098 L872.079608,758.289098 L867.132274,763.236431 L869.605941,773.131099 L851.05344,778.078432 L858.474441,780.552099 L851.05344,790.446766 L851.05344,797.867767 L858.474441,805.288767 Z M925.263444,783.025766 L922.789777,779.315266 L920.316111,775.604765 L919.079277,775.604765 L921.552944,784.262599 L925.263444,783.025766 Z" id="Shinagawa" stroke="#646464" stroke-width="0.49473336" fill="#DCB6F2"></path>
                        <path d="M925.263444,754.578598 L937.631778,774.367932 L942.579112,771.894265 L948.763279,780.552099 L952.473779,775.604765 L950.000112,764.473265 L956.184279,763.236431 L956.184279,759.525931 L982.157781,754.578598 L982.157781,765.710098 L969.789447,769.420598 L988.341948,766.946932 L989.578781,743.447097 L993.289281,739.736597 L994.526115,695.210594 L983.394614,686.552761 L967.31578,680.368594 L968.552613,697.684261 L961.131613,698.921095 L958.657946,705.105262 L940.105445,702.631595 L942.579112,707.578928 L937.631778,719.947262 L940.105445,742.210264 L925.263444,754.578598 Z M969.789447,760.762765 L969.789447,766.946932 L973.499947,765.710098 L973.499947,761.999598 L980.920947,759.525931 L973.499947,759.525931 L974.73678,757.052264 L969.789447,760.762765 Z M974.73678,770.657432 L975.973614,783.025766 L979.684114,781.788932 L983.394614,791.6836 L988.341948,769.420598 L974.73678,770.657432 Z M932.684445,771.894265 L922.789777,779.315266 L925.263444,783.025766 L937.631778,804.051934 L942.579112,795.3941 L931.447611,778.078432 L935.158111,775.604765 L932.684445,771.894265 Z M936.394945,776.841599 L945.052779,790.446766 L947.526445,785.499433 L940.105445,774.367932 L936.394945,776.841599 Z" id="Koto" stroke="#646464" stroke-width="0.49473336" fill="#DCB6F2"></path>
                        <polygon id="Sumida" stroke="#646464" stroke-width="0.49473336" fill="#DCB6F2" points="938.868612 697.684261 940.105445 702.631595 958.657946 705.105262 961.131613 698.921095 968.552613 697.684261 967.31578 680.368594 983.394614 686.552761 987.105114 677.894927 980.920947 671.71076 989.578781 666.763426 968.552613 639.553091 963.60528 644.500425 958.657946 656.868759 956.184279 668.00026 938.868612 696.447428"></polygon>
                        <polygon id="Chiyoda" stroke="#646464" stroke-width="0.49473336" fill="#DCB6F2" points="891.868942 718.710429 900.526776 724.894596 910.421443 726.131429 921.552944 711.289429 919.079277 703.868428 932.684445 693.973761 921.552944 684.079094 919.079277 690.263261 898.053109 686.552761 884.447942 702.631595 884.447942 711.289429"></polygon>
                        <polygon id="Taito" stroke="#646464" stroke-width="0.49473336" fill="#DCB6F2" points="932.684445 693.973761 938.868612 696.447428 956.184279 668.00026 958.657946 656.868759 941.342278 653.158259 930.210778 660.579259 914.131944 654.395092 914.131944 664.289759 919.079277 670.473926 915.368777 669.237093 917.842444 679.13176 922.789777 680.368594 921.552944 684.079094"></polygon>
                        <polygon id="Chuo" stroke="#646464" stroke-width="0.49473336" fill="#DCB6F2" points="916.60561 745.920764 925.263444 754.578598 940.105445 742.210264 937.631778 719.947262 942.579112 707.578928 940.105445 702.631595 938.868612 697.684261 938.868612 696.447428 932.684445 693.973761 919.079277 703.868428 921.552944 711.289429 910.421443 726.131429 914.131944 729.84193 911.658277 737.26293 917.842444 742.210264"></polygon>
                        <path d="M864.658608,729.84193 L867.132274,738.499763 L877.026942,740.97343 L877.026942,752.104931 L873.316441,758.289098 L872.079608,765.710098 L879.500608,765.710098 L883.211109,769.420598 L888.158442,779.315266 L909.18461,778.078432 L911.658277,774.367932 L911.658277,766.946932 L905.47411,765.710098 L906.710943,760.762765 L912.89511,763.236431 L911.658277,753.341764 L912.89511,745.920764 L916.60561,745.920764 L917.842444,742.210264 L911.658277,737.26293 L914.131944,729.84193 L910.421443,726.131429 L900.526776,724.894596 L891.868942,718.710429 L884.447942,711.289429 L874.553275,713.763095 L870.842775,721.184096 L864.658608,729.84193 Z M922.789777,779.315266 L932.684445,771.894265 L927.737111,764.473265 L922.789777,768.183765 L926.500278,765.710098 L928.973944,769.420598 L920.316111,775.604765 L922.789777,779.315266 Z" id="Minato" stroke="#646464" stroke-width="0.49473336" fill="#DCB6F2"></path>
                        <polygon id="Shinjuku" stroke="#646464" stroke-width="0.49473336" fill="#DCB6F2" points="898.053109 686.552761 895.579443 680.368594 885.684775 681.605427 875.790108 675.42126 860.948107 674.184427 859.711274 663.052926 839.92194 664.28976 833.737773 655.631926 830.027272 668.00026 834.974606 669.237093 837.448273 675.42126 838.685106 677.894927 849.816607 676.658094 843.63244 681.605427 839.92194 698.921095 841.158773 707.578929 843.63244 711.289429 854.76394 702.631595 860.948107 703.868428 869.605941 712.526262 867.132274 719.947262 870.842775 721.184096 874.553275 713.763095 884.447942 711.289429 884.447942 702.631595"></polygon>
                        <polygon id="Bunkyo" stroke="#646464" stroke-width="0.49473336" fill="#DCB6F2" points="919.079277 670.473926 914.131944 664.289759 914.131944 654.395092 912.89511 651.921425 904.237276 649.447759 901.76361 651.921425 896.816276 648.210925 889.395276 655.631926 889.395276 660.579259 878.263775 659.342426 878.263775 666.763426 872.079608 669.237093 873.316441 674.184427 875.790108 675.42126 885.684775 681.605427 895.579443 680.368594 898.053109 686.552761 919.079277 690.263261 921.552944 684.079094 922.789777 680.368594 917.842444 679.13176 915.368777 669.237093"></polygon>
                    </g>
                </g>
                <g id="Text" fill="#000000" font-family="Helvetica" font-size="6" font-weight="normal">
                    <g id="Village">
                        <text id="Hinohara">
                            <tspan x="272.325684" y="661">Hinohara</tspan>
                        </text>
                    </g>
                    <g id="Town">
                        <text id="Okutama">
                            <tspan x="238.328613" y="554">Okutama</tspan>
                        </text>
                        <text id="Hinode">
                            <tspan x="397.493164" y="624">Hinode</tspan>
                        </text>
                        <text id="Mizuho">
                            <tspan x="512.329102" y="601">Mizuho</tspan>
                        </text>
                    </g>
                    <g id="City">
                        <text id="Nishitokyo">
                            <tspan x="696.163574" y="651">Nishi-Tokyo</tspan>
                        </text>
                        <text id="Akiruno">
                            <tspan x="401.328125" y="659">Akiruno</tspan>
                        </text>
                        <text id="Hamura">
                            <tspan x="478.330078" y="617">Hamura</tspan>
                        </text>
                        <text id="Inagi">
                            <tspan x="650.494629" y="769">Inagi</tspan>
                        </text>
                        <text id="Tama">
                            <tspan x="606.331543" y="770">Tama</tspan>
                        </text>
                        <text id="Musashimurayama">
                            <tspan x="541.830078" y="625">Musashi-</tspan>
                            <tspan x="539.829102" y="632">Murayama</tspan>
                        </text>
                        <text id="Higashikurume">
                            <tspan x="671.996094" y="626">Higashi-</tspan>
                            <tspan x="672.495605" y="633">Kurume</tspan>
                        </text>
                        <text id="Kiyose">
                            <tspan x="675.495605" y="599">Kiyose</tspan>
                        </text>
                        <text id="Higashiyamato">
                            <tspan x="584.996094" y="629">Higashi-</tspan>
                            <tspan x="585.661133" y="636">Yamato</tspan>
                        </text>
                        <text id="Komae">
                            <tspan x="728.494629" y="768">Komae</tspan>
                        </text>
                        <text id="Fussa">
                            <tspan x="501.830566" y="649">Fussa</tspan>
                        </text>
                        <text id="Kunitachi">
                            <tspan x="593.658691" y="714">Kunitachi</tspan>
                        </text>
                        <text id="Kokubunji">
                            <tspan x="612.82373" y="685">Kokubunji</tspan>
                        </text>
                        <text id="Higashimurayama">
                            <tspan x="624.996094" y="620">Higashi-</tspan>
                            <tspan x="621.829102" y="627">Murayama</tspan>
                        </text>
                        <text id="Hino">
                            <tspan x="562.830078" y="730">Hino</tspan>
                        </text>
                        <text id="Kodaira">
                            <tspan x="635.659668" y="659">Kodaira</tspan>
                        </text>
                        <text id="Koganei">
                            <tspan x="662.990234" y="690">Koganei</tspan>
                        </text>
                        <text id="Machida">
                            <tspan x="607.160645" y="859">Machida</tspan>
                        </text>
                        <text id="Chofu">
                            <tspan x="704.994629" y="741">Chofu</tspan>
                        </text>
                        <text id="Akishima">
                            <tspan x="522.830078" y="682">Akishima</tspan>
                        </text>
                        <text id="Fuchu">
                            <tspan x="639.662109" y="725">Fuchu</tspan>
                        </text>
                        <text id="Ome">
                            <tspan x="415.499023" y="568">Ome</tspan>
                        </text>
                        <text id="Mitaka">
                            <tspan x="715.164062" y="703">Mitaka</tspan>
                        </text>
                        <text id="Musashino">
                            <tspan x="706.492187" y="680">Musashino</tspan>
                        </text>
                        <text id="Tachikawa">
                            <tspan x="570.660645" y="682">Tachikawa</tspan>
                        </text>
                        <text id="Hachioji">
                            <tspan x="453.328613" y="736">Hachioji</tspan>
                        </text>
                    </g>
                    <g id="Special-Ward">
                        <text id="Edogawa">
                            <tspan x="1008.49023" y="699">Edogawa</tspan>
                        </text>
                        <text id="Katsushika">
                            <tspan x="988.325195" y="631">Katsushika</tspan>
                        </text>
                        <text id="Adachi">
                            <tspan x="935.827148" y="600">Adachi</tspan>
                        </text>
                        <text id="Nerima">
                            <tspan x="759.332031" y="636">Nerima</tspan>
                        </text>
                        <text id="Itabashi">
                            <tspan x="817.492676" y="601">Itabashi</tspan>
                        </text>
                        <text id="Arakawa">
                            <tspan x="923.328125" y="649">Arakawa</tspan>
                        </text>
                        <text id="Kita">
                            <tspan x="874.830566" y="616">Kita</tspan>
                        </text>
                        <text id="Toshima">
                            <tspan x="853.496582" y="656">Toshima</tspan>
                        </text>
                        <text id="Suginami">
                            <tspan x="768.493164" y="694">Suginami</tspan>
                        </text>
                        <text id="Nakano">
                            <tspan x="804.659668" y="672">Nakano</tspan>
                        </text>
                        <text id="Shibuya">
                            <tspan x="839.158691" y="726">Shibuya</tspan>
                        </text>
                        <text id="Setagaya">
                            <tspan x="781.323242" y="765">Setagaya</tspan>
                        </text>
                        <text id="Ota">
                            <tspan x="877.164551" y="854">Ota</tspan>
                        </text>
                        <text id="Meguro">
                            <tspan x="843.828125" y="769">Meguro</tspan>
                        </text>
                        <text id="Shinagawa">
                            <tspan x="870.655273" y="796">Shinagawa</tspan>
                        </text>
                        <text id="Koto">
                            <tspan x="961.828613" y="734">Koto</tspan>
                        </text>
                        <text id="Sumida">
                            <tspan x="958.328125" y="674">Sumida</tspan>
                        </text>
                        <text id="Taito">
                            <tspan x="926.330566" y="673">Taito</tspan>
                        </text>
                        <text id="Bunkyo">
                            <tspan x="886.993652" y="671">Bunkyo</tspan>
                        </text>
                        <text id="Shinjuku">
                            <tspan x="855.492187" y="693">Shinjuku</tspan>
                        </text>
                        <text id="Minato">
                            <tspan x="885.495605" y="749">Minato</tspan>
                        </text>
                        <text id="Chuo">
                            <tspan x="918.828125" y="723">Chuo</tspan>
                        </text>
                        <text id="Chiyoda">
                            <tspan x="893.993164" y="705">Chiyoda</tspan>
                        </text>
                    </g>
                </g>
            </g>
            <g id="Info" transform="translate(120, 840)" fill="#000000" opacity="0.25">
                <g id="Scale" transform="translate(280, 30)">
                    <rect id="rect5934" fill-rule="nonzero" x="0" y="15" width="105.130839" height="3"></rect>
                    <text id="10-km" font-family="Helvetica" font-size="12" font-weight="normal">
                        <tspan x="0" y="11">10 km</tspan>
                    </text>
                </g>
            </g>
        </g>
    </g>
</svg>
