<?xml version="1.0" encoding="UTF-8"?>
<svg width="1102px" height="1102px" viewBox="0 0 1102 1102" version="1.1" xmlns="http://www.w3.org/2000/svg" xmlns:xlink="http://www.w3.org/1999/xlink">
    <title>Tokyo</title>
    <g id="Page-1" stroke="none" stroke-width="1" fill="none" fill-rule="evenodd">
        <g id="Tokyo" transform="translate(1, 1)">
            <polygon id="Background" fill="#FCFCFC" fill-rule="nonzero" points="0 4.86103039e-14 0 1100 1100 1100 1100 0"></polygon>
            <g id="Borders">
                <g id="Map" fill="#EEEEEE" fill-rule="nonzero" stroke="#999999" stroke-width="0.5">
                    <polygon id="Shizuoka" points="63.8101093 799.302927 63.9004344 799.304706 70.00498 799.304706 88.3129905 811.38219 87.9495232 836.157378 87.9495232 846.404866 89.9832758 853.679101 93.3736647 863.958165 98.7425626 881.938965 101.93848 892.698744 101.93848 912.626311 98.7425626 921.846826 94.2540949 931.499898 79.0653276 949.771951 73.0078494 963.985867 71.3818535 987.127177 76.615403 1016.73547 87.1261858 1042.59188 105.724109 1072.12947 115.400092 1084.90966 122.918585 1090.77301 131.500391 1097.93904 136.890133 1099.76284 136.810001 1100 134.451075 1100 2.94183224e-15 1100 2.94183224e-15 811.38219 1.98309753 811.064598"></polygon>
                    <polygon id="Saitama" points="0.309217606 200 0.309217606 269.571879 8.96705141 260.914045 23.8090522 265.861379 28.7563858 263.387712 39.8878864 258.440378 38.651053 252.256211 41.1247198 243.598377 62.1508876 229.99321 73.2823882 223.809043 79.4665552 228.756377 94.308556 225.045876 102.96639 210.203876 110.38739 207.730209 151.202892 237.41421 161.09756 239.887877 170.992227 236.177377 188.307894 244.835211 232.833897 249.782544 243.965397 257.203545 247.675898 264.624545 248.912731 264.624545 271.175732 274.519212 284.7809 275.756046 288.4914 269.571879 293.438733 269.571879 311.991234 280.703379 319.412235 275.756046 321.885902 280.703379 339.201569 281.940213 354.04357 278.229713 358.990904 276.992879 362.701404 281.940213 367.648737 279.466546 371.359238 283.177046 378.780238 283.177046 381.253905 298.019047 391.148572 294.308547 391.148572 301.729547 391.148572 306.676881 398.569572 327.703049 404.753739 331.413549 420.832574 327.703049 424.543074 331.413549 443.095575 333.887216 440.621908 340.071383 445.569242 347.492383 443.095575 348.729216 449.279742 347.492383 452.990242 353.67655 451.753409 357.38705 450.516575 358.623884 451.753409 361.09755 456.700742 364.808051 462.884909 362.334384 462.884909 366.044884 475.253243 359.860717 490.095244 363.571217 507.410912 358.623884 509.884578 362.334384 540.805413 352.439717 549.463247 346.25555 555.647414 347.492383 561.831581 345.018716 563.068415 348.729216 579.147249 337.597716 586.568249 336.360882 605.12075 315.334715 610.068084 320.282048 601.41025 333.887216 607.594417 337.597716 606.357584 347.492383 586.568249 356.150217 581.620916 363.571217 610.068084 353.67655 607.594417 375.939551 618.725918 372.229051 624.910085 368.518551 632.331085 366.044884 632.331085 363.571217 643.462586 357.38705 649.646753 348.729216 654.594086 348.729216 657.067753 348.729216 657.067753 349.96605 664.488753 353.67655 658.304586 359.860717 674.383421 357.38705 676.857087 362.334384 681.804421 361.09755 683.041254 347.492383 683.041254 346.25555 695.409588 333.887216 699.120089 326.466215 704.067422 326.466215 715.198923 322.755715 751.067091 325.229382 752.303925 325.229382 760.961759 332.650382 774.566926 333.887216 778.277426 337.597716 790.64576 337.597716 790.64576 346.25555 799.303594 338.834549 806.724594 338.834549 811.671928 330.176715 801.777261 312.861048 806.724594 307.913714 819.092928 302.966381 831.461262 315.334715 847.540097 316.571548 863.618931 312.861048 868.566264 309.150548 868.566264 305.440047 872.276765 309.150548 868.566264 321.518882 873.513598 330.176715 884.645099 321.518882 893.302932 326.466215 901.960766 333.887216 904.434433 328.939882 919.276434 326.466215 921.750101 330.176715 916.802767 337.597716 921.750101 345.018716 937.828935 342.545049 932.881601 328.939882 935.355268 301.729547 932.881601 288.12438 942.776268 244.835211 934.118435 215.151209 924.030512 200 922.986934 0 0.309217606 0"></polygon>
                    <polygon id="Yamanashi" points="39.8742441 258.448752 28.7427435 263.396085 23.7954099 265.869752 8.95340913 260.922418 0.295575334 269.580252 0.295575334 682.682608 0 811.725235 7.65733145 786.118463 33.1729702 742.683181 44.8215777 732.960322 61.4373792 719.082186 74.827529 712.176361 88.3129905 708.984583 124.635983 682.682608 132.636749 674.024774 135.110416 661.65644 153.662917 661.65644 163.557584 660.419607 172.215418 659.182773 187.057419 644.340772 199.425753 628.261938 198.188919 614.656771 214.267754 598.577937 214.267754 592.39377 213.03092 578.788602 206.846753 571.367602 214.267754 562.709768 216.74142 552.815101 217.978254 546.630934 213.03092 541.6836 219.215087 537.9731 209.32042 528.078433 213.03092 508.289098 203.136253 494.683931 204.373086 490.973431 210.557253 481.078764 216.74142 472.42093 193.241586 451.394762 179.636418 451.394762 170.978585 446.447428 159.847084 443.973762 117.794748 418.00026 105.426414 396.974092 104.189581 394.500426 102.952748 392.026759 98.0054139 380.895258 85.6370799 374.711091 76.9792461 358.632257 79.4529129 343.790256 69.5582457 332.658756 64.6109121 314.106255 64.6109121 286.89592 57.1899117 288.132753 48.5320779 280.711753 43.5847443 272.053919 44.8215777 264.632919"></polygon>
                    <path d="M216.74142,472.42093 L210.557253,481.078764 L204.373086,490.973431 L203.136253,494.683931 L213.03092,508.289098 L209.32042,528.078433 L219.215087,537.9731 L213.03092,541.6836 L217.978254,546.630934 L216.74142,552.815101 L214.267754,562.709768 L206.846753,571.367602 L213.03092,578.788602 L214.267754,592.39377 L214.267754,598.577937 L198.188919,614.656771 L199.425753,628.261938 L187.057419,644.340772 L172.215418,659.182773 L163.557584,660.419607 L153.662917,661.65644 L135.110416,661.65644 L132.636749,674.024774 L124.635983,682.682608 L88.3129905,708.950056 C80.1594621,710.461459 73.9566701,712.268386 69.7046144,714.370835 C65.4525587,716.473283 59.2025221,720.823717 50.9545046,727.422135 L33.1729702,742.683181 L7.65733145,786.118463 L0.295575334,811.38219 L69.7046144,799.005664 L88.3129905,811.38219 L88.3129905,846.644734 L101.93848,892.698744 L101.93848,912.626311 L95.9497536,928.681483 L79.1142313,947.809581 L73.3626907,964.14097 L69.7046144,992.342262 L79.1142313,1025.25421 L101.93848,1073.28705 L132.024491,1098.3484 L136.81,1100 L199.425753,1100 L227.285683,1100 L257.600104,1094.68851 L241.406823,1038.58172 L261.267414,992.342262 L294.661925,947.809581 L353,912.626311 L413.397931,892.698744 L505.333132,886.040328 L551.923272,887.135543 L572.94944,892.698744 L585.317774,902.354219 L598.807318,909.071561 L619.001588,904.905826 L630.492385,904.905826 L645.312327,912.626311 L652.764495,928.681483 L704.417263,1007.71436 L704.417263,1019.55721 L710.079732,1026.84246 L708.318842,1043.31196 L701.580113,1067.3084 L706.178153,1088.50813 L735.560843,1092.62654 L748.404981,1085.47493 L758.47445,1083.06476 L766.738951,1077.97273 L763.631499,1067.3084 L753.527116,1054.95769 L748.404981,1046.55752 L756.346249,1025.25421 L775.508873,1007.71436 L814.131953,983.843925 L810.421452,979.315952 L808.689562,971.564329 L805.305891,966.972205 L823.639861,947.809581 L804.235546,937.278769 L772.079617,925.836706 L758.47445,904.905826 L749.61513,909.071561 L745.02131,912.626311 L735.560843,899.055684 L729.760265,877.684733 L728.68992,858.280418 L735.97517,824.547293 L718.435327,791.780932 L721.680888,773.96487 L735.560843,766.955838 L749.61513,769.648964 L762.423045,769.648964 L766.738951,753.455683 L762.423045,740.784182 L749.61513,730.642975 L729.760265,714.370835 L726.411122,694.793883 L777,682.682608 L791.250535,682.682608 L789.395285,680.208941 L791.868951,682.682608 L811.658286,682.682608 L811.658286,678.972108 L814.131953,682.682608 L826.500287,675.261607 L830.210787,674.024774 L830.210787,667.840607 L819.079286,665.36694 L816.605619,659.182773 L825.263453,654.23544 L827.73712,661.65644 L831.44762,657.94594 L841.342287,664.130107 L848.763288,646.814439 L810.421452,622.077771 L793.105785,620.840938 L786.921618,625.788271 L780.737451,622.077771 L772.079617,628.261938 L758.47445,630.735605 L753.527116,622.077771 L758.47445,612.183104 L737.448282,601.051603 L723.843114,571.367602 L712.711614,567.657102 L701.580113,558.999268 L678.080279,540.446767 L657.054111,535.499433 L650.869944,535.499433 L634.79111,529.315266 L624.896442,519.420599 L611.291275,514.473265 L590.265107,507.052265 L585.317774,513.236432 L587.79144,519.420599 L581.607273,521.894266 L579.133607,528.078433 L576.65994,529.315266 L560.581106,536.736267 L565.528439,550.341434 L555.633772,551.578267 L543.265438,541.6836 L542.028605,534.2626 L535.844438,533.025766 L532.133937,528.078433 L521.002437,535.499433 L517.291937,542.920434 L522.23927,551.578267 L533.370771,545.3941 L538.318104,555.288768 L550.686438,563.946601 L560.581106,570.130768 L560.581106,577.551769 L572.94944,584.972769 L571.712606,589.920103 L556.870605,602.288437 L549.449605,589.920103 L555.633772,576.314935 L551.923272,575.078102 L543.265438,577.551769 L537.081271,592.39377 L535.844438,599.81477 L546.975938,604.762104 L546.975938,623.314605 L553.160105,631.972438 L551.923272,635.682939 L553.160105,650.524939 L544.502271,660.419607 L546.975938,665.36694 L551.923272,669.07744 L534.607604,670.314274 L530.897104,652.998606 L523.476104,650.524939 L524.712937,643.103939 L521.002437,635.682939 L513.581436,624.551438 L502.449936,619.604104 L491.318435,603.52527 L486.371102,601.051603 L480.186935,584.972769 L474.002768,584.972769 L470.292267,575.078102 L462.871267,573.841269 L434.424099,557.762434 L413.397931,550.341434 L404.740097,554.051934 L398.55593,551.578267 L380.003429,551.578267 L367.635095,542.920434 L360.214095,541.6836 L346.608927,545.3941 L342.898427,554.051934 L335.477427,551.578267 L330.530093,555.288768 L319.398593,549.104601 L309.503925,540.446767 L308.267092,533.025766 L299.609258,525.604766 L302.082925,521.894266 L295.898758,513.236432 L294.661925,500.868098 L279.819924,494.683931 L266.214756,504.578598 L251.372756,497.157598 L250.135922,484.789264 L245.188589,477.368263 L237.767588,479.84193 L216.74142,472.42093 Z" id="Kanagawa"></path>
                    <polygon id="Chiba" points="1099.74933 653.412996 1091.63756 659.459287 1062.64424 699.816717 1053.45999 709.139075 1053.34865 709.204547 1040.30261 712.815147 997.980969 732.745859 984.711332 742.679996 978.002332 760.478996 989.434058 791.673953 989.447712 791.788296 986.754586 815.404936 986.710985 815.520004 974.453811 833.02532 974.349459 833.110865 958.238129 840.171534 939.663895 843.511405 920.967557 849.839835 892.99558 867.261532 876.778742 873.733558 855.797332 876.670996 855.929332 884.392996 905.085693 902.303178 921.61005 917.221107 951.683286 975.606689 951.70962 975.747732 950.742857 984.793872 950.711757 984.890596 942.045455 1000.16415 932.725659 1010.17142 908.210553 1028.75076 899.828332 1037.95 910.548023 1061.46462 914.732329 1079.43781 914.993332 1099.749 1099.74933 1099.75"></polygon>
                    <polygon id="Chiba" points="924.030512 200 934.118435 215.151209 942.776268 244.835211 932.881601 288.12438 935.355268 301.729547 932.881601 328.939882 937.828935 342.545049 937.828935 347.492383 926.697434 354.913383 924.223767 359.860717 934.118435 379.650051 935.355268 380.886885 945.249935 390.781552 941.539435 406.860386 945.249935 414.281387 960.091936 430.360221 962.565603 441.491721 951.434102 457.570556 931.644768 463.754723 930.407934 471.175723 931.644768 472.412556 932.881601 490.965057 929.171101 503.333391 919.276434 509.517558 922.986934 510.754392 918.0396 516.938559 919.276434 526.833226 934.118435 530.543726 937.828935 525.596393 942.776268 536.727893 982.354937 508.280725 961.328769 490.965057 962.565603 490.965057 973.697103 478.596723 989.775938 474.886223 987.302271 471.175723 972.46027 474.886223 976.17077 467.465223 978.644437 469.93889 988.539104 461.281056 1005.21697 452.499996 1025.08592 453.999996 1050.8783 457.570556 1082.81277 469.93889 1088.74266 469.93889 1096.75042 463.357718 1100 467.465223 1100 -1.26963107e-16 922.986934 0"></polygon>
                </g>
                <g id="Text" transform="translate(20, 220)" fill="#000000" font-family="Helvetica" font-size="12" font-weight="normal" opacity="0.25">
                    <text id="Saitama">
                        <tspan x="492.989258" y="11">Saitama</tspan>
                    </text>
                    <text id="Yamanashi">
                        <tspan x="0.982421875" y="281.75">Yamanashi</tspan>
                    </text>
                    <text id="Kanagawa">
                        <tspan x="306.643555" y="441">Kanagawa</tspan>
                    </text>
                    <text id="Chiba">
                        <tspan x="930.323242" y="151">Chiba</tspan>
                    </text>
                </g>
            </g>
            <g id="Municipalities">
                <g id="Map" fill-rule="nonzero">
                    <g id="Village">
                        <polygon id="Hinohara" stroke="#646464" stroke-width="0.5" fill="#B6F2DC" points="255.083247 452.631591 255.083247 437.789591 248.89908 432.842261 247.662246 395.737261 234.057079 377.184761 225.399245 374.711091 225.399245 371.000591 231.583412 367.290091 221.688745 358.632261 216.741411 363.579591 192.004743 347.500751 184.583743 351.211261 182.110076 356.158591 163.557575 356.158591 143.768241 369.763761 132.63674 372.237421 130.163073 388.316261 119.031573 387.079421 104.18957 394.500421 105.42641 396.974091 117.794739 418.000261 159.847075 443.973761 170.978576 446.447431 179.636409 451.394761 193.241577 451.394761 216.741411 472.420931 237.767579 479.841931 245.18858 477.368261"></polygon>
                    </g>
                    <g id="Town">
                        <polygon id="Mizuho" stroke="#646464" stroke-width="0.5" fill="#ECE3B4" points="417.10842 382.132091 415.87159 387.079421 419.58209 385.842591 425.76626 392.026761 423.29259 384.605761 428.23992 387.079421 440.60826 353.684921 445.55559 359.869091 451.73976 357.395421 452.97659 353.684921 449.26609 347.500751 443.08192 348.737591 445.55559 347.500751 440.60826 340.079751 443.08192 333.895591 424.52942 331.421921 420.81892 327.711421 404.74009 331.421921 401.02959 338.842921 393.60859 336.369251 399.79275 346.263921 396.08225 349.974421 405.97692 356.158591"></polygon>
                        <polygon id="Hinode" stroke="#646464" stroke-width="0.5" fill="#ECE3B4" points="335.47742 369.763761 328.05642 362.342761 311.97758 359.869091 302.082916 353.684921 292.188249 354.921761 274.872581 336.369251 260.03058 340.079751 246.425413 348.737591 262.504247 358.632261 263.741081 367.290091 274.872581 368.526921 293.425082 379.658421 295.898749 388.316261 307.03025 393.263591 323.10908 394.500421 341.66158 401.921421 360.21409 403.158261 361.45092 393.263591 356.50359 390.789921 355.26675 379.658421 340.42475 375.947921"></polygon>
                        <polygon id="Okutama" stroke="#646464" stroke-width="0.5" fill="#ECE3B4" points="221.688745 358.632261 222.925578 354.921761 222.925578 348.737591 232.820246 343.790251 231.583412 332.658751 258.793747 315.343091 261.267414 285.659081 250.135913 273.290752 247.662246 264.632918 243.951746 257.211918 232.820246 249.790917 188.294243 244.843584 170.978576 236.18575 163.557575 237.422583 159.847075 239.89625 151.189241 237.422583 110.373739 207.738582 102.95274 210.212248 94.2949 225.054249 79.4529 228.764749 73.26874 223.817416 62.13724 230.001583 41.11107 243.60675 38.6374 252.264584 39.87424 258.448751 44.82157 264.632918 43.58474 272.053919 48.53207 280.711752 57.1899 288.132751 64.6109 286.895921 64.6109 314.106251 69.55824 332.658751 79.4529 343.790251 76.97924 358.632261 85.63707 374.711091 98.0054 380.895261 102.95274 392.026761 104.18957 394.500421 119.031573 387.079421 130.163073 388.316261 132.63674 372.237421 143.768241 369.763761 163.557575 356.158591 182.110076 356.158591 184.583743 351.211261 192.004743 347.500751 216.741411 363.579591"></polygon>
                    </g>
                    <g id="City">
                        <polygon id="Musashino" stroke="#646464" stroke-width="0.5" fill="#F6BAD3" points="623.6596 437.789591 633.55427 442.736931 638.5016 439.026431 647.15943 447.684261 655.81727 434.079091 647.15943 426.658091 627.3701 415.526591 617.47543 415.526591 601.3966 426.658091 593.9756 425.421261 593.9756 420.473931 590.2651 420.473931 589.02826 425.421261 596.44927 429.131761 597.6861 441.500091 600.15977 445.210591 613.76493 446.447431 612.5281 432.842261"></polygon>
                        <polygon id="Tachikawa" stroke="#646464" stroke-width="0.5" fill="#F6BAD3" points="456.68709 450.157931 487.60793 460.052591 491.31843 453.868431 495.02893 456.342091 499.97626 451.394761 501.21309 443.973761 495.02893 437.789591 499.97626 436.552761 506.16043 431.605431 498.73943 422.947591 501.21309 421.710761 497.50259 420.473931 502.44993 418.000261 512.34459 426.658091 514.81826 414.289761 513.58143 413.052931 492.55526 405.631921 496.26576 405.631921 485.13426 401.921421 466.58176 400.684591 455.45026 388.316261 456.68709 393.263591 462.87126 401.921421 455.45026 399.447761 455.45026 401.921421 433.18726 394.500421 427.00309 398.210921 428.23992 410.579261 451.73976 410.579261 451.73976 415.526591 469.05542 426.658091"></polygon>
                        <polygon id="Hachioji" stroke="#646464" stroke-width="0.5" fill="#F6BAD3" points="309.503916 540.446771 319.39858 549.104601 330.53008 555.288771 335.47742 551.578271 342.89842 554.051931 346.60892 545.394101 355.26675 534.262601 363.92459 530.552101 370.10875 533.025761 370.10875 539.209931 383.71392 537.973101 391.13492 541.683601 404.74009 537.973101 412.16109 540.446771 412.16109 529.315261 417.10842 545.394101 423.29259 547.867771 431.95042 551.578271 438.13459 546.630931 457.92392 558.999271 459.16076 551.578271 465.34492 547.867771 475.23959 533.025761 485.13426 526.841601 499.97626 519.420601 485.13426 502.104931 469.05542 510.762761 449.26609 509.525931 450.50292 505.815431 440.60826 504.578601 430.71359 492.210261 430.71359 487.262931 444.31876 479.841931 448.02926 456.342091 451.73976 455.105261 448.02926 450.157931 414.63476 447.684261 410.92426 445.210591 405.97692 429.131761 407.21376 425.421261 404.74009 426.658091 394.84542 418.000261 391.13492 424.184431 384.95075 421.710761 381.24025 426.658091 380.00342 424.184431 372.58242 426.658091 351.55625 422.947591 346.60892 429.131761 334.24058 425.421261 328.05642 427.894931 298.372416 418.000261 287.240915 427.894931 281.056748 453.868431 255.083247 452.631591 245.18858 477.368261 250.135913 484.789261 251.372747 497.157601 266.214747 504.578601 279.819915 494.683931 294.661916 500.868101 295.898749 513.236431 302.082916 521.894261 299.609249 525.604761 308.267083 533.025761"></polygon>
                        <polygon id="Mitaka" stroke="#646464" stroke-width="0.5" fill="#F6BAD3" points="652.10677 461.289431 654.58043 461.289431 650.86993 455.105261 654.58043 452.631591 647.15943 447.684261 638.5016 439.026431 633.55427 442.736931 623.6596 437.789591 612.5281 432.842261 613.76493 446.447431 600.15977 445.210591 597.6861 441.500091 596.44927 453.868431 589.02826 451.394761 591.50193 458.815761 592.73877 462.526261 589.02826 463.763091 595.21243 477.368261 598.92293 476.131431 605.1071 482.315601 607.58077 478.605101 605.1071 474.894601 606.34393 462.526261 621.18593 460.052591 623.6596 462.526261 627.3701 481.078761 634.7911 482.315601 637.26477 487.262931 643.44893 481.078761 637.26477 471.184091 649.6331 476.131431 643.44893 471.184091 648.39627 469.947261 645.9226 461.289431"></polygon>
                        <polygon id="Ome" stroke="#646464" stroke-width="0.5" fill="#F6BAD3" points="246.425413 348.737591 260.03058 340.079751 274.872581 336.369251 292.188249 354.921761 302.082916 353.684921 311.97758 359.869091 328.05642 362.342761 335.47742 369.763761 365.16142 369.763761 372.58242 377.184761 368.87192 352.448091 375.05609 345.027091 380.00342 348.737591 387.42442 352.448091 396.08225 349.974421 399.79275 346.263921 393.60859 336.369251 401.02959 338.842921 404.74009 331.421921 398.55592 327.711421 391.13492 306.685251 391.13492 301.737921 391.13492 294.316921 381.24025 298.027421 378.76659 283.185419 371.34559 283.185419 367.63509 279.474919 362.68775 281.948586 358.97725 277.001252 354.02992 278.238086 339.18792 281.948586 321.87225 280.711752 319.39858 275.764419 311.97758 280.711752 293.425082 269.580252 288.477749 269.580252 284.767248 275.764419 271.162081 274.527585 248.89908 264.632918 247.662246 264.632918 250.135913 273.290752 261.267414 285.659081 258.793747 315.343091 231.583412 332.658751 232.820246 343.790251 222.925578 348.737591 222.925578 354.921761 229.109745 349.974421 232.820246 352.448091 232.820246 347.500751 239.004413 354.921761 242.714913 354.921761 242.714913 348.737591"></polygon>
                        <polygon id="Akishima" stroke="#646464" stroke-width="0.5" fill="#F6BAD3" points="448.02926 450.157931 456.68709 450.157931 469.05542 426.658091 451.73976 415.526591 451.73976 410.579261 428.23992 410.579261 425.76626 414.289761 414.63476 416.763431 413.39792 420.473931 407.21376 425.421261 405.97692 429.131761 410.92426 445.210591 414.63476 447.684261"></polygon>
                        <polygon id="Fuchu" stroke="#646464" stroke-width="0.5" fill="#F6BAD3" points="511.10776 489.736601 540.79176 499.631261 551.92326 495.920761 568.0021 499.631261 576.65993 497.157601 585.31776 503.341761 585.31776 494.683931 581.60726 492.210261 586.5546 482.315601 590.2651 472.420931 585.31776 461.289431 586.5546 455.105261 582.8441 450.157931 579.1336 453.868431 579.1336 456.342091 571.7126 455.105261 565.52843 458.815761 568.0021 455.105261 563.05476 457.578931 556.8706 451.394761 555.63376 445.210591 544.50226 452.631591 533.37076 453.868431 533.37076 450.157931 530.8971 440.263261 527.18659 448.921091 522.23926 453.868431 518.52876 471.184091 521.00243 473.657761 514.81826 471.184091 498.73943 474.894601"></polygon>
                        <polygon id="Chofu" stroke="#646464" stroke-width="0.5" fill="#F6BAD3" points="590.2651 507.052261 611.29127 514.473261 624.89643 519.420601 627.3701 502.104931 636.02793 497.157601 648.39627 503.341761 653.3436 503.341761 653.3436 497.157601 647.15943 482.315601 649.6331 479.841931 649.6331 476.131431 637.26477 471.184091 643.44893 481.078761 637.26477 487.262931 634.7911 482.315601 627.3701 481.078761 623.6596 462.526261 621.18593 460.052591 606.34393 462.526261 605.1071 474.894601 607.58077 478.605101 605.1071 482.315601 598.92293 476.131431 595.21243 477.368261 589.02826 463.763091 592.73877 462.526261 591.50193 458.815761 586.5546 455.105261 585.31776 461.289431 590.2651 472.420931 586.5546 482.315601 581.60726 492.210261 585.31776 494.683931 585.31776 503.341761"></polygon>
                        <polygon id="Machida" stroke="#646464" stroke-width="0.5" fill="#F6BAD3" points="560.5811 570.130771 550.68643 563.946601 538.3181 555.288771 533.37076 545.394101 522.23926 551.578271 517.29193 542.920431 514.81826 546.630931 508.63409 545.394101 503.68676 551.578271 497.50259 547.867771 492.55526 549.104601 486.37109 542.920431 465.34492 547.867771 459.16076 551.578271 457.92392 558.999271 438.13459 546.630931 431.95042 551.578271 423.29259 547.867771 417.10842 545.394101 412.16109 529.315261 412.16109 540.446771 404.74009 537.973101 391.13492 541.683601 383.71392 537.973101 370.10875 539.209931 370.10875 533.025761 363.92459 530.552101 355.26675 534.262601 346.60892 545.394101 360.21409 541.683601 367.63509 542.920431 380.00342 551.578271 398.55592 551.578271 404.74009 554.051931 413.39792 550.341431 434.42409 557.762431 462.87126 573.841271 470.29226 575.078101 474.00276 584.972771 480.18693 584.972771 486.37109 601.051601 491.31843 603.525271 502.44993 619.604101 513.58143 624.551441 521.00243 635.682941 524.71293 643.103941 523.47609 650.524941 530.8971 652.998601 534.6076 670.314271 551.92326 669.077441 546.97593 665.366941 544.50226 660.419611 553.1601 650.524941 551.92326 635.682941 553.1601 631.972441 546.97593 623.314601 546.97593 604.762101 535.84443 599.814771 537.08126 592.393771 543.26543 577.551771 551.92326 575.078101 555.63376 576.314931 549.4496 589.920101 556.8706 602.288441 571.7126 589.920101 572.94943 584.972771 560.5811 577.551771"></polygon>
                        <polygon id="Koganei" stroke="#646464" stroke-width="0.5" fill="#F6BAD3" points="586.5546 455.105261 591.50193 458.815761 589.02826 451.394761 596.44927 453.868431 597.6861 441.500091 596.44927 429.131761 589.02826 425.421261 590.2651 420.473931 587.79143 418.000261 574.18626 421.710761 572.94943 426.658091 561.81793 425.421261 561.81793 429.131761 551.92326 430.368591 550.68643 437.789591 558.10743 440.263261 555.63376 445.210591 556.8706 451.394761 563.05476 457.578931 568.0021 455.105261 565.52843 458.815761 571.7126 455.105261 579.1336 456.342091 579.1336 453.868431 582.8441 450.157931"></polygon>
                        <polygon id="Koidara" stroke="#646464" stroke-width="0.5" fill="#F6BAD3" points="514.81826 414.289761 539.55493 422.947591 539.55493 427.894931 543.26543 430.368591 546.97593 424.184431 551.92326 430.368591 561.81793 429.131761 561.81793 425.421261 572.94943 426.658091 574.18626 421.710761 587.79143 418.000261 581.60726 404.395091 584.08093 401.921421 585.31776 394.500421 582.8441 394.500421 579.1336 392.026761 577.89676 395.737261 577.89676 392.026761 577.89676 395.737261 572.94943 395.737261 571.7126 390.789921 569.23893 403.158261 569.23893 390.789921 564.2916 387.079421 556.8706 392.026761 555.63376 388.316261 551.92326 389.553091 553.1601 400.684591 545.7391 399.447761 544.50226 393.263591 533.37076 389.553091 519.76559 396.974091 509.87093 398.210921 496.26576 405.631921 492.55526 405.631921 513.58143 413.052931"></polygon>
                        <polygon id="Hino" stroke="#646464" stroke-width="0.5" fill="#F6BAD3" points="507.39726 498.394431 511.10776 489.736601 498.73943 474.894601 487.60793 460.052591 456.68709 450.157931 448.02926 450.157931 451.73976 455.105261 448.02926 456.342091 444.31876 479.841931 430.71359 487.262931 430.71359 492.210261 440.60826 504.578601 450.50292 505.815431 449.26609 509.525931 469.05542 510.762761 485.13426 502.104931 486.37109 499.631261 496.26576 505.815431 503.68676 497.157601"></polygon>
                        <polygon id="Higashimurayama" stroke="#646464" stroke-width="0.5" fill="#F6BAD3" points="570.47576 368.526921 563.05476 367.290091 566.76526 363.579591 563.05476 353.684921 561.81793 351.211261 563.05476 348.737591 561.81793 345.027091 555.63376 347.500751 549.4496 346.263921 540.79176 352.448091 509.87093 362.342761 508.63409 366.053261 514.81826 377.184761 519.76559 396.974091 533.37076 389.553091 544.50226 393.263591 545.7391 399.447761 553.1601 400.684591 551.92326 389.553091 560.5811 372.237421"></polygon>
                        <polygon id="Kokubunji" stroke="#646464" stroke-width="0.5" fill="#F6BAD3" points="527.18659 448.921091 530.8971 440.263261 533.37076 450.157931 533.37076 453.868431 544.50226 452.631591 555.63376 445.210591 558.10743 440.263261 550.68643 437.789591 551.92326 430.368591 546.97593 424.184431 543.26543 430.368591 539.55493 427.894931 539.55493 422.947591 514.81826 414.289761 512.34459 426.658091 502.44993 418.000261 497.50259 420.473931 501.21309 421.710761 498.73943 422.947591 506.16043 431.605431 499.97626 436.552761 517.29193 439.026431"></polygon>
                        <polygon id="Kunitachi" stroke="#646464" stroke-width="0.5" fill="#F6BAD3" points="527.18659 448.921091 517.29193 439.026431 499.97626 436.552761 495.02893 437.789591 501.21309 443.973761 499.97626 451.394761 495.02893 456.342091 491.31843 453.868431 487.60793 460.052591 498.73943 474.894601 514.81826 471.184091 521.00243 473.657761 518.52876 471.184091 522.23926 453.868431"></polygon>
                        <polygon id="Fussa" stroke="#646464" stroke-width="0.5" fill="#F6BAD3" points="413.39792 420.473931 414.63476 416.763431 425.76626 414.289761 428.23992 410.579261 427.00309 398.210921 433.18726 394.500421 428.23992 387.079421 423.29259 384.605761 425.76626 392.026761 419.58209 385.842591 415.87159 387.079421 417.10842 382.132091 399.79275 375.947921 389.89809 385.842591 394.84542 401.921421 403.50325 408.105591 404.74009 426.658091 407.21376 425.421261"></polygon>
                        <polygon id="Komae" stroke="#646464" stroke-width="0.5" fill="#F6BAD3" points="650.86993 535.499431 650.86993 530.552101 654.58043 525.604761 645.9226 509.525931 648.39627 503.341761 636.02793 497.157601 627.3701 502.104931 624.89643 519.420601 634.7911 529.315261"></polygon>
                        <polygon id="Higashiyamato" stroke="#646464" stroke-width="0.5" fill="#F6BAD3" points="466.58176 367.290091 478.95009 371.000591 477.71326 383.368921 481.42376 384.605761 485.13426 401.921421 496.26576 405.631921 509.87093 398.210921 519.76559 396.974091 514.81826 377.184761 508.63409 366.053261 509.87093 362.342761 507.39726 358.632261 490.08159 363.579591 475.23959 359.869091 462.87126 366.053261"></polygon>
                        <polygon id="Kiyose" stroke="#646464" stroke-width="0.5" fill="#F6BAD3" points="581.60726 363.579591 586.5546 356.158591 606.34393 347.500751 607.58077 337.606091 601.3966 333.895591 610.05443 320.290421 605.1071 315.343091 586.5546 336.369251 579.1336 337.606091 563.05476 348.737591 561.81793 351.211261 563.05476 353.684921 566.76526 363.579591 563.05476 367.290091 570.47576 368.526921"></polygon>
                        <polygon id="Higashikurume" stroke="#646464" stroke-width="0.5" fill="#F6BAD3" points="607.58077 375.947921 610.05443 353.684921 581.60726 363.579591 570.47576 368.526921 560.5811 372.237421 551.92326 389.553091 555.63376 388.316261 556.8706 392.026761 564.2916 387.079421 569.23893 390.789921 569.23893 403.158261 571.7126 390.789921 572.94943 395.737261 577.89676 395.737261 577.89676 392.026761 577.89676 395.737261 579.1336 392.026761 582.8441 394.500421 585.31776 394.500421 584.08093 401.921421 595.21243 393.263591 591.50193 389.553091 596.44927 388.316261"></polygon>
                        <polygon id="Musashimurayama" stroke="#646464" stroke-width="0.5" fill="#F6BAD3" points="456.68709 393.263591 455.45026 388.316261 466.58176 400.684591 485.13426 401.921421 481.42376 384.605761 477.71326 383.368921 478.95009 371.000591 466.58176 367.290091 462.87126 366.053261 462.87126 362.342761 456.68709 364.816421 451.73976 361.105921 450.50292 358.632261 451.73976 357.395421 445.55559 359.869091 440.60826 353.684921 428.23992 387.079421 433.18726 394.500421 455.45026 401.921421 455.45026 399.447761 462.87126 401.921421"></polygon>
                        <polygon id="Tama" stroke="#646464" stroke-width="0.5" fill="#F6BAD3" points="517.29193 542.920431 521.00243 535.499431 532.13393 528.078431 532.13393 521.894261 538.3181 518.183761 535.84443 504.578601 540.79176 499.631261 511.10776 489.736601 507.39726 498.394431 503.68676 497.157601 496.26576 505.815431 486.37109 499.631261 485.13426 502.104931 499.97626 519.420601 485.13426 526.841601 475.23959 533.025761 465.34492 547.867771 486.37109 542.920431 492.55526 549.104601 497.50259 547.867771 503.68676 551.578271 508.63409 545.394101 514.81826 546.630931"></polygon>
                        <polygon id="Inagi" stroke="#646464" stroke-width="0.5" fill="#F6BAD3" points="590.2651 507.052261 585.31776 503.341761 576.65993 497.157601 568.0021 499.631261 551.92326 495.920761 540.79176 499.631261 535.84443 504.578601 538.3181 518.183761 532.13393 521.894261 532.13393 528.078431 535.84443 533.025761 542.0286 534.262601 543.26543 541.683601 555.63376 551.578271 565.52843 550.341431 560.5811 536.736271 576.65993 529.315261 579.1336 528.078431 581.60726 521.894261 587.79143 519.420601 585.31776 513.236431"></polygon>
                        <polygon id="Hamura" stroke="#646464" stroke-width="0.5" fill="#F6BAD3" points="417.10842 382.132091 405.97692 356.158591 396.08225 349.974421 387.42442 352.448091 380.00342 348.737591 375.05609 345.027091 368.87192 352.448091 372.58242 377.184761 386.18759 380.895261 389.89809 385.842591 399.79275 375.947921"></polygon>
                        <polygon id="Akiruno" stroke="#646464" stroke-width="0.5" fill="#F6BAD3" points="389.899345 385.84184 386.188845 380.89451 372.583675 377.18401 365.162675 369.76301 335.478675 369.76301 340.426005 375.94717 355.268005 379.65767 356.504845 390.78917 361.452175 393.26284 360.215345 403.15751 341.662835 401.92067 323.110335 394.49967 307.031505 393.26284 295.900004 388.31551 293.426337 379.65767 274.873836 368.52617 263.742336 367.28934 262.505502 358.63151 246.426668 348.73684 242.716168 348.73684 242.716168 354.92101 239.005668 354.92101 232.821501 347.5 232.821501 352.44734 229.111 349.97367 222.926833 354.92101 221.69 358.63151 231.584667 367.28934 225.4005 370.99984 225.4005 374.71034 234.058334 377.18401 247.663501 395.73651 248.900335 432.84151 255.084502 437.78884 255.084502 452.63084 281.058003 453.86768 287.24217 427.89418 298.373671 417.99951 328.057675 427.89418 334.241835 425.42051 346.610175 429.13101 351.557505 422.94684 372.583675 426.65734 380.004675 424.18368 381.241505 426.65734 384.952005 421.71001 391.136175 424.18368 394.846675 417.99951 404.741345 426.65734 403.504505 408.10484 394.846675 401.92067"></polygon>
                        <polygon id="Nishitokyo" stroke="#646464" stroke-width="0.5" fill="#F6BAD3" points="587.79143 418.000261 590.2651 420.473931 593.9756 420.473931 593.9756 425.421261 601.3966 426.658091 617.47543 415.526591 627.3701 415.526591 631.0806 382.132091 624.89643 368.526921 618.71227 372.237421 607.58077 375.947921 596.44927 388.316261 591.50193 389.553091 595.21243 393.263591 584.08093 401.921421 581.60726 404.395091"></polygon>
                    </g>
                    <g id="Special-Ward">
                        <path d="M883.394614,436.552761 L894.526115,445.210594 L893.289281,489.736597 L898.236615,489.736597 L896.999781,507.052264 L906.894449,510.762765 L919.262783,509.525931 L929.15745,503.341764 L932.86795,490.97343 L931.631117,472.420929 L930.394283,471.184096 L931.631117,463.763095 L951.420451,457.578928 L962.551952,441.500094 L960.078285,430.368594 L945.236284,414.289759 L941.525784,406.868759 L945.236284,390.789925 L935.341617,380.895258 L934.104783,379.658424 L925.44695,380.895258 L930.394283,385.842591 L921.736449,395.737258 L918.025949,395.737258 L913.078616,425.42126 L905.657615,422.947593 L898.236615,426.658093 L889.578781,416.763426 L880.920947,421.71076 L887.105114,427.894927 L883.394614,436.552761 Z M896.999781,514.473265 L896.999781,510.762765 L904.420782,511.999598 L904.420782,515.710098 L905.657615,513.236431 L898.236615,509.525931 L896.999781,514.473265 Z M905.657615,515.710098 L908.131282,513.236431 L914.315449,515.710098 L913.078616,518.183765 L914.315449,515.710098 L909.368115,513.236431 L905.657615,515.710098 Z" id="Edogawa" stroke="#646464" stroke-width="0.49473336" fill="#DCB6F2"></path>
                        <polygon id="Adachi" stroke="#646464" stroke-width="0.49473336" fill="#DCB6F2" points="863.60528 369.763757 868.552613 369.763757 871.02628 374.711091 872.263113 367.29009 877.210447 372.237424 879.684114 364.816423 884.631447 366.053257 892.052448 358.632256 904.420782 362.342757 892.052448 337.606089 893.289281 326.474588 884.631447 321.527254 873.499947 330.185088 868.552613 321.527254 872.263113 309.15892 868.552613 305.44842 868.552613 309.15892 863.60528 312.869421 847.526445 316.579921 831.447611 315.343087 819.079277 302.974753 806.710943 307.922087 801.76361 312.869421 811.658277 330.185088 806.710943 338.842922 799.289943 338.842922 790.632109 346.263922 788.158442 356.15859 798.053109 362.342757 810.421443 358.632256 810.421443 363.57959 800.526776 371.00059 809.18461 375.947924 835.158111 377.184757 841.342278 380.895258 838.868612 385.842591 842.579112 392.026758 863.60528 394.500425 868.552613 389.553091 862.368446 375.947924"></polygon>
                        <polygon id="Nerima" stroke="#646464" stroke-width="0.49473336" fill="#DCB6F2" points="627.3701 415.526593 647.159435 426.658093 648.396268 416.763426 654.580435 419.237093 664.475102 409.342426 683.027603 405.631926 685.50127 399.447759 690.448604 399.447759 701.580104 410.579259 716.422105 410.579259 727.553606 400.684592 733.737773 404.395092 734.974606 401.921425 736.211439 394.500425 736.211439 389.553091 728.790439 388.316258 730.027272 372.237424 725.079939 361.105923 700.343271 357.395423 692.92227 359.86909 683.027603 347.500756 681.79077 361.105923 676.843436 362.342757 674.369769 357.395423 658.290935 359.86909 664.475102 353.684923 657.054102 349.974423 657.054102 348.737589 654.580435 348.737589 649.633101 348.737589 643.448934 357.395423 632.317434 363.57959 632.317434 366.053257 624.896433 368.526924 631.0806 382.132091"></polygon>
                        <polygon id="Itabashi" stroke="#646464" stroke-width="0.49473336" fill="#DCB6F2" points="775.790108 380.895258 769.605941 369.763757 760.948107 362.342757 757.237607 342.553422 751.05344 343.790256 744.869273 338.842922 751.05344 325.237755 715.185272 322.764088 704.053771 326.474588 699.106437 326.474588 695.395937 333.895588 683.027603 346.263922 683.027603 347.500756 692.92227 359.86909 700.343271 357.395423 725.079939 361.105923 730.027272 372.237424 728.790439 388.316258 736.211439 389.553091 736.211439 394.500425 747.34294 389.553091 753.527107 390.789925 758.474441 398.210925 764.658608 387.079425 773.316441 387.079425"></polygon>
                        <polygon id="Katsushika" stroke="#646464" stroke-width="0.49473336" fill="#DCB6F2" points="889.578781 416.763426 898.236615 426.658093 905.657615 422.947593 913.078616 425.42126 918.025949 395.737258 921.736449 395.737258 930.394283 385.842591 925.44695 380.895258 934.104783 379.658424 924.210116 359.86909 926.683783 354.921756 937.815284 347.500756 937.815284 342.553422 921.736449 345.027089 916.789116 337.606089 921.736449 330.185088 919.262783 326.474588 904.420782 328.948255 901.947115 333.895588 893.289281 326.474588 892.052448 337.606089 904.420782 362.342757 892.052448 358.632256 884.631447 366.053257 879.684114 364.816423 877.210447 372.237424 872.263113 367.29009 871.02628 374.711091 868.552613 369.763757 863.60528 369.763757 862.368446 375.947924 868.552613 389.553091"></polygon>
                        <polygon id="Arakawa" stroke="#646464" stroke-width="0.49473336" fill="#DCB6F2" points="814.131944 404.395092 830.210778 410.579259 841.342278 403.158259 858.657946 406.868759 863.60528 394.500425 842.579112 392.026758 838.868612 385.842591 841.342278 380.895258 835.158111 377.184757 809.18461 375.947924 803.000443 377.184757 801.76361 380.895258 819.079277 392.026758 821.552944 395.737258 816.60561 398.210925 812.89511 401.921425"></polygon>
                        <polygon id="Kita" stroke="#646464" stroke-width="0.49473336" fill="#DCB6F2" points="804.237276 399.447759 812.89511 401.921425 816.60561 398.210925 821.552944 395.737258 819.079277 392.026758 801.76361 380.895258 803.000443 377.184757 809.18461 375.947924 800.526776 371.00059 810.421443 363.57959 810.421443 358.632256 798.053109 362.342757 788.158442 356.15859 790.632109 346.263922 790.632109 337.606089 778.263775 337.606089 774.553275 333.895588 760.948107 332.658755 752.290274 325.237755 751.05344 325.237755 744.869273 338.842922 751.05344 343.790256 757.237607 342.553422 760.948107 362.342757 769.605941 369.763757 775.790108 380.895258 773.316441 387.079425 778.263775 393.263592 780.737442 388.316258 785.684775 387.079425 786.921609 392.026758 794.342609 390.789925"></polygon>
                        <polygon id="Toshima" stroke="#646464" stroke-width="0.49473336" fill="#DCB6F2" points="804.237276 399.447759 794.342609 390.789925 786.921609 392.026758 785.684775 387.079425 780.737442 388.316258 778.263775 393.263592 773.316441 387.079425 764.658608 387.079425 758.474441 398.210925 753.527107 390.789925 747.34294 389.553091 736.211439 394.500425 734.974606 401.921425 733.737773 404.395092 733.737773 405.631926 739.92194 414.289759 759.711274 413.052926 760.948107 424.184427 775.790108 425.42126 773.316441 424.184427 772.079608 419.237093 778.263775 416.763426 778.263775 409.342426 789.395276 410.579259 789.395276 405.631926 796.816276 398.210925 801.76361 401.921425"></polygon>
                        <polygon id="Suginami" stroke="#646464" stroke-width="0.49473336" fill="#DCB6F2" points="721.369439 467.473596 716.422105 455.105262 723.843105 450.157928 723.843105 446.447428 717.658938 445.210595 715.185272 429.13176 709.001105 429.13176 690.448604 420.473927 683.027603 405.631926 664.475102 409.342426 654.580435 419.237093 648.396268 416.763426 647.159435 426.658094 655.817268 434.079094 647.159435 447.684261 654.580435 452.631595 650.869935 455.105262 654.580435 461.289429 665.711936 464.999929 668.185602 474.894596 675.606603 474.894596 670.659269 467.473596 683.027603 473.657763 696.632771 479.84193 718.895772 472.420929"></polygon>
                        <polygon id="Nakano" stroke="#646464" stroke-width="0.49473336" fill="#DCB6F2" points="723.843105 450.157928 716.422105 455.105262 721.369439 467.473596 739.92194 448.921095 743.63244 431.605427 749.816607 426.658094 738.685106 427.894927 737.448273 425.42126 734.974606 419.237093 730.027272 418.00026 733.737773 405.631926 733.737773 404.395092 727.553606 400.684592 716.422105 410.579259 701.580104 410.579259 690.448604 399.447759 685.50127 399.447759 683.027603 405.631926 690.448604 420.473927 709.001105 429.13176 715.185272 429.13176 717.658938 445.210595 723.843105 446.447428"></polygon>
                        <polygon id="Shibuya" stroke="#646464" stroke-width="0.49473336" fill="#DCB6F2" points="731.264106 482.315596 742.395606 484.789263 763.421774 507.052264 772.079608 508.289098 773.316441 508.289098 777.026942 502.104931 777.026942 490.97343 767.132274 488.499763 764.658608 479.84193 770.842775 471.184096 767.132274 469.947262 769.605941 462.526262 760.948107 453.868428 754.76394 452.631595 743.63244 461.289429 741.158773 457.578928 739.92194 448.921095 721.369439 467.473596 718.895772 472.420929 726.316772 472.420929"></polygon>
                        <polygon id="Setagaya" stroke="#646464" stroke-width="0.49473336" fill="#DCB6F2" points="650.869935 530.552099 650.869935 535.499433 657.054102 535.499433 678.08027 540.446766 701.580104 558.999267 712.711605 567.657101 715.185272 563.946601 710.237938 561.472934 717.658938 556.5256 726.316772 557.762434 733.737773 565.183434 736.211439 555.288767 733.737773 546.630933 720.132605 546.630933 723.843105 535.499433 718.895772 519.420598 736.211439 526.841599 742.395606 510.762765 739.92194 495.920764 731.264106 482.315596 726.316772 472.420929 718.895772 472.420929 696.632771 479.84193 683.027603 473.657763 670.659269 467.473596 675.606603 474.894596 668.185602 474.894596 665.711936 464.999929 654.580435 461.289429 652.106768 461.289429 645.922601 461.289429 648.396268 469.947262 643.448934 471.184096 649.633101 476.131429 649.633101 479.84193 647.159435 482.315596 653.343602 497.157597 653.343602 503.341764 648.396268 503.341764 645.922601 509.525931 654.580435 525.604765"></polygon>
                        <path d="M825.263444,561.472934 L819.079277,565.183434 L814.131944,562.709767 L814.131944,573.841268 L807.947777,573.841268 L807.947777,568.893934 L800.526776,567.657101 L784.447942,571.367601 L781.974275,562.709767 L773.316441,566.420268 L769.605941,556.5256 L758.474441,555.288767 L751.05344,547.867767 L741.158773,541.6836 L741.158773,550.341433 L736.211439,551.578267 L736.211439,555.288767 L733.737773,565.183434 L726.316772,557.762434 L717.658938,556.5256 L710.237938,561.472934 L715.185272,563.946601 L712.711605,567.657101 L723.843105,571.367601 L737.448273,601.051603 L758.474441,612.183103 L753.527107,622.077771 L758.474441,630.735604 L772.079608,628.261938 L780.737442,622.077771 L786.921609,625.788271 L793.105776,620.840937 L810.421443,622.077771 L848.763279,646.814439 L858.657946,627.025104 L836.394945,591.156936 L822.789777,592.393769 L815.368777,602.288436 L810.421443,597.341103 L805.47411,599.814769 L795.579443,591.156936 L795.579443,586.209602 L775.790108,586.209602 L814.131944,582.499102 L819.079277,577.551768 L819.079277,582.499102 L833.921278,582.499102 L837.631778,580.025435 L832.684445,572.604435 L820.316111,576.314935 L827.737111,567.657101 L825.263444,561.472934 Z M798.053109,589.920102 L803.000443,594.867436 L809.18461,592.393769 L805.47411,584.972769 L798.053109,589.920102 Z M809.18461,589.920102 L817.842444,597.341103 L825.263444,586.209602 L810.421443,586.209602 L809.18461,589.920102 Z" id="Ota" stroke="#646464" stroke-width="0.49473336" fill="#DCB6F2"></path>
                        <polygon id="Meguro" stroke="#646464" stroke-width="0.49473336" fill="#DCB6F2" points="751.05344 547.867767 751.05344 540.446766 758.474441 530.552099 751.05344 528.078432 769.605941 523.131099 767.132274 513.236431 772.079608 508.289098 763.421774 507.052265 742.395606 484.789263 731.264106 482.315597 739.92194 495.920764 742.395606 510.762765 736.211439 526.841599 718.895772 519.420598 723.843105 535.499433 720.132605 546.630933 733.737773 546.630933 736.211439 555.288767 736.211439 551.578267 741.158773 550.341433 741.158773 541.6836"></polygon>
                        <path d="M758.474441,555.288767 L769.605941,556.5256 L773.316441,566.420268 L781.974275,562.709767 L784.447942,571.367601 L800.526776,567.657101 L807.947777,568.893934 L807.947777,573.841268 L814.131944,573.841268 L814.131944,562.709767 L819.079277,565.183434 L825.263444,561.472934 L811.658277,537.973099 L811.658277,524.367932 L809.18461,528.078432 L788.158442,529.315266 L783.211109,519.420598 L779.500608,515.710098 L772.079608,515.710098 L773.316441,508.289098 L772.079608,508.289098 L767.132274,513.236431 L769.605941,523.131099 L751.05344,528.078432 L758.474441,530.552099 L751.05344,540.446766 L751.05344,547.867767 L758.474441,555.288767 Z M825.263444,533.025766 L822.789777,529.315266 L820.316111,525.604765 L819.079277,525.604765 L821.552944,534.262599 L825.263444,533.025766 Z" id="Shinagawa" stroke="#646464" stroke-width="0.49473336" fill="#DCB6F2"></path>
                        <path d="M825.263444,504.578598 L837.631778,524.367932 L842.579112,521.894265 L848.763279,530.552099 L852.473779,525.604765 L850.000112,514.473265 L856.184279,513.236431 L856.184279,509.525931 L882.157781,504.578598 L882.157781,515.710098 L869.789447,519.420598 L888.341948,516.946932 L889.578781,493.447097 L893.289281,489.736597 L894.526115,445.210594 L883.394614,436.552761 L867.31578,430.368594 L868.552613,447.684261 L861.131613,448.921095 L858.657946,455.105262 L840.105445,452.631595 L842.579112,457.578928 L837.631778,469.947262 L840.105445,492.210264 L825.263444,504.578598 Z M869.789447,510.762765 L869.789447,516.946932 L873.499947,515.710098 L873.499947,511.999598 L880.920947,509.525931 L873.499947,509.525931 L874.73678,507.052264 L869.789447,510.762765 Z M874.73678,520.657432 L875.973614,533.025766 L879.684114,531.788932 L883.394614,541.6836 L888.341948,519.420598 L874.73678,520.657432 Z M832.684445,521.894265 L822.789777,529.315266 L825.263444,533.025766 L837.631778,554.051934 L842.579112,545.3941 L831.447611,528.078432 L835.158111,525.604765 L832.684445,521.894265 Z M836.394945,526.841599 L845.052779,540.446766 L847.526445,535.499433 L840.105445,524.367932 L836.394945,526.841599 Z" id="Koto" stroke="#646464" stroke-width="0.49473336" fill="#DCB6F2"></path>
                        <polygon id="Sumida" stroke="#646464" stroke-width="0.49473336" fill="#DCB6F2" points="838.868612 447.684261 840.105445 452.631595 858.657946 455.105262 861.131613 448.921095 868.552613 447.684261 867.31578 430.368594 883.394614 436.552761 887.105114 427.894927 880.920947 421.71076 889.578781 416.763426 868.552613 389.553091 863.60528 394.500425 858.657946 406.868759 856.184279 418.00026 838.868612 446.447428"></polygon>
                        <polygon id="Chiyoda" stroke="#646464" stroke-width="0.49473336" fill="#DCB6F2" points="791.868942 468.710429 800.526776 474.894596 810.421443 476.131429 821.552944 461.289429 819.079277 453.868428 832.684445 443.973761 821.552944 434.079094 819.079277 440.263261 798.053109 436.552761 784.447942 452.631595 784.447942 461.289429"></polygon>
                        <polygon id="Taito" stroke="#646464" stroke-width="0.49473336" fill="#DCB6F2" points="832.684445 443.973761 838.868612 446.447428 856.184279 418.00026 858.657946 406.868759 841.342278 403.158259 830.210778 410.579259 814.131944 404.395092 814.131944 414.289759 819.079277 420.473926 815.368777 419.237093 817.842444 429.13176 822.789777 430.368594 821.552944 434.079094"></polygon>
                        <polygon id="Chuo" stroke="#646464" stroke-width="0.49473336" fill="#DCB6F2" points="816.60561 495.920764 825.263444 504.578598 840.105445 492.210264 837.631778 469.947262 842.579112 457.578928 840.105445 452.631595 838.868612 447.684261 838.868612 446.447428 832.684445 443.973761 819.079277 453.868428 821.552944 461.289429 810.421443 476.131429 814.131944 479.84193 811.658277 487.26293 817.842444 492.210264"></polygon>
                        <path d="M764.658608,479.84193 L767.132274,488.499763 L777.026942,490.97343 L777.026942,502.104931 L773.316441,508.289098 L772.079608,515.710098 L779.500608,515.710098 L783.211109,519.420598 L788.158442,529.315266 L809.18461,528.078432 L811.658277,524.367932 L811.658277,516.946932 L805.47411,515.710098 L806.710943,510.762765 L812.89511,513.236431 L811.658277,503.341764 L812.89511,495.920764 L816.60561,495.920764 L817.842444,492.210264 L811.658277,487.26293 L814.131944,479.84193 L810.421443,476.131429 L800.526776,474.894596 L791.868942,468.710429 L784.447942,461.289429 L774.553275,463.763095 L770.842775,471.184096 L764.658608,479.84193 Z M822.789777,529.315266 L832.684445,521.894265 L827.737111,514.473265 L822.789777,518.183765 L826.500278,515.710098 L828.973944,519.420598 L820.316111,525.604765 L822.789777,529.315266 Z" id="Minato" stroke="#646464" stroke-width="0.49473336" fill="#DCB6F2"></path>
                        <polygon id="Shinjuku" stroke="#646464" stroke-width="0.49473336" fill="#DCB6F2" points="798.053109 436.552761 795.579443 430.368594 785.684775 431.605427 775.790108 425.42126 760.948107 424.184427 759.711274 413.052926 739.92194 414.28976 733.737773 405.631926 730.027272 418.00026 734.974606 419.237093 737.448273 425.42126 738.685106 427.894927 749.816607 426.658094 743.63244 431.605427 739.92194 448.921095 741.158773 457.578929 743.63244 461.289429 754.76394 452.631595 760.948107 453.868428 769.605941 462.526262 767.132274 469.947263 770.842775 471.184096 774.553275 463.763096 784.447942 461.289429 784.447942 452.631595"></polygon>
                        <polygon id="Bunkyo" stroke="#646464" stroke-width="0.49473336" fill="#DCB6F2" points="819.079277 420.473926 814.131944 414.289759 814.131944 404.395092 812.89511 401.921425 804.237276 399.447759 801.76361 401.921425 796.816276 398.210925 789.395276 405.631926 789.395276 410.579259 778.263775 409.342426 778.263775 416.763426 772.079608 419.237093 773.316441 424.184427 775.790108 425.42126 785.684775 431.605427 795.579443 430.368594 798.053109 436.552761 819.079277 440.263261 821.552944 434.079094 822.789777 430.368594 817.842444 429.13176 815.368777 419.237093"></polygon>
                    </g>
                </g>
                <g id="Text" fill="#000000" font-family="Helvetica" font-size="6" font-weight="normal">
                    <g id="Village">
                        <text id="Hinohara">
                            <tspan x="172.325684" y="411">Hinohara</tspan>
                        </text>
                    </g>
                    <g id="Town">
                        <text id="Okutama">
                            <tspan x="138.328613" y="304">Okutama</tspan>
                        </text>
                        <text id="Hinode">
                            <tspan x="297.493164" y="374">Hinode</tspan>
                        </text>
                        <text id="Mizuho">
                            <tspan x="412.329102" y="351">Mizuho</tspan>
                        </text>
                    </g>
                    <g id="City">
                        <text id="Nishitokyo">
                            <tspan x="596.163574" y="401">Nishi-Tokyo</tspan>
                        </text>
                        <text id="Akiruno">
                            <tspan x="301.328125" y="409">Akiruno</tspan>
                        </text>
                        <text id="Hamura">
                            <tspan x="378.330078" y="367">Hamura</tspan>
                        </text>
                        <text id="Inagi">
                            <tspan x="550.494629" y="519">Inagi</tspan>
                        </text>
                        <text id="Tama">
                            <tspan x="506.331543" y="520">Tama</tspan>
                        </text>
                        <text id="Musashimurayama">
                            <tspan x="441.830078" y="375">Musashi-</tspan>
                            <tspan x="439.829102" y="382">Murayama</tspan>
                        </text>
                        <text id="Higashikurume">
                            <tspan x="571.996094" y="376">Higashi-</tspan>
                            <tspan x="572.495605" y="383">Kurume</tspan>
                        </text>
                        <text id="Kiyose">
                            <tspan x="575.495605" y="349">Kiyose</tspan>
                        </text>
                        <text id="Higashiyamato">
                            <tspan x="484.996094" y="379">Higashi-</tspan>
                            <tspan x="485.661133" y="386">Yamato</tspan>
                        </text>
                        <text id="Komae">
                            <tspan x="628.494629" y="518">Komae</tspan>
                        </text>
                        <text id="Fussa">
                            <tspan x="401.830566" y="399">Fussa</tspan>
                        </text>
                        <text id="Kunitachi">
                            <tspan x="493.658691" y="464">Kunitachi</tspan>
                        </text>
                        <text id="Kokubunji">
                            <tspan x="512.82373" y="435">Kokubunji</tspan>
                        </text>
                        <text id="Higashimurayama">
                            <tspan x="524.996094" y="370">Higashi-</tspan>
                            <tspan x="521.829102" y="377">Murayama</tspan>
                        </text>
                        <text id="Hino">
                            <tspan x="462.830078" y="480">Hino</tspan>
                        </text>
                        <text id="Kodaira">
                            <tspan x="535.659668" y="409">Kodaira</tspan>
                        </text>
                        <text id="Koganei">
                            <tspan x="562.990234" y="440">Koganei</tspan>
                        </text>
                        <text id="Machida">
                            <tspan x="507.160645" y="609">Machida</tspan>
                        </text>
                        <text id="Chofu">
                            <tspan x="604.994629" y="491">Chofu</tspan>
                        </text>
                        <text id="Akishima">
                            <tspan x="422.830078" y="432">Akishima</tspan>
                        </text>
                        <text id="Fuchu">
                            <tspan x="539.662109" y="475">Fuchu</tspan>
                        </text>
                        <text id="Ome">
                            <tspan x="315.499023" y="318">Ome</tspan>
                        </text>
                        <text id="Mitaka">
                            <tspan x="615.164062" y="453">Mitaka</tspan>
                        </text>
                        <text id="Musashino">
                            <tspan x="606.492187" y="430">Musashino</tspan>
                        </text>
                        <text id="Tachikawa">
                            <tspan x="470.660645" y="432">Tachikawa</tspan>
                        </text>
                        <text id="Hachioji">
                            <tspan x="353.328613" y="486">Hachioji</tspan>
                        </text>
                    </g>
                    <g id="Special-Ward">
                        <text id="Edogawa">
                            <tspan x="908.490234" y="449">Edogawa</tspan>
                        </text>
                        <text id="Katsushika">
                            <tspan x="888.325195" y="381">Katsushika</tspan>
                        </text>
                        <text id="Adachi">
                            <tspan x="835.827148" y="350">Adachi</tspan>
                        </text>
                        <text id="Nerima">
                            <tspan x="659.332031" y="386">Nerima</tspan>
                        </text>
                        <text id="Itabashi">
                            <tspan x="717.492676" y="351">Itabashi</tspan>
                        </text>
                        <text id="Arakawa">
                            <tspan x="823.328125" y="399">Arakawa</tspan>
                        </text>
                        <text id="Kita">
                            <tspan x="774.830566" y="366">Kita</tspan>
                        </text>
                        <text id="Toshima">
                            <tspan x="753.496582" y="406">Toshima</tspan>
                        </text>
                        <text id="Suginami">
                            <tspan x="668.493164" y="444">Suginami</tspan>
                        </text>
                        <text id="Nakano">
                            <tspan x="704.659668" y="422">Nakano</tspan>
                        </text>
                        <text id="Shibuya">
                            <tspan x="739.158691" y="476">Shibuya</tspan>
                        </text>
                        <text id="Setagaya">
                            <tspan x="681.323242" y="515">Setagaya</tspan>
                        </text>
                        <text id="Ota">
                            <tspan x="777.164551" y="604">Ota</tspan>
                        </text>
                        <text id="Meguro">
                            <tspan x="743.828125" y="519">Meguro</tspan>
                        </text>
                        <text id="Shinagawa">
                            <tspan x="770.655273" y="546">Shinagawa</tspan>
                        </text>
                        <text id="Koto">
                            <tspan x="861.828613" y="484">Koto</tspan>
                        </text>
                        <text id="Sumida">
                            <tspan x="858.328125" y="424">Sumida</tspan>
                        </text>
                        <text id="Taito">
                            <tspan x="826.330566" y="423">Taito</tspan>
                        </text>
                        <text id="Bunkyo">
                            <tspan x="786.993652" y="421">Bunkyo</tspan>
                        </text>
                        <text id="Shinjuku">
                            <tspan x="755.492187" y="443">Shinjuku</tspan>
                        </text>
                        <text id="Minato">
                            <tspan x="785.495605" y="499">Minato</tspan>
                        </text>
                        <text id="Chuo">
                            <tspan x="818.828125" y="473">Chuo</tspan>
                        </text>
                        <text id="Chiyoda">
                            <tspan x="793.993164" y="455">Chiyoda</tspan>
                        </text>
                    </g>
                </g>
            </g>
            <g id="Info" transform="translate(20, 590)" fill="#000000">
                <g id="Scale" transform="translate(866.9761, 66)">
                    <rect id="rect5934" fill-rule="nonzero" x="0" y="15" width="105.130839" height="3"></rect>
                    <text id="10-km" font-family="Helvetica" font-size="12" font-weight="normal">
                        <tspan x="36" y="11">10 km</tspan>
                    </text>
                </g>
            </g>
        </g>
    </g>
</svg>
