<svg viewBox="1 -10 511.99962 511" xmlns="http://www.w3.org/2000/svg">
  <path d="m509.804688 184.898438c-5.878907-18.085938-21.964844-29.773438-40.980469-29.773438h-121.761719c-5.691406 0-10.699219-3.636719-12.457031-9.050781l-37.628907-115.800781c-5.875-18.085938-21.960937-29.773438-40.976562-29.773438s-35.101562 11.6875-40.980469 29.773438l-37.625 115.800781c-1.757812 5.414062-6.765625 9.050781-12.457031 9.050781h-121.761719c-19.015625 0-35.101562 11.6875-40.980469 29.773438-5.875 18.085937.269532 36.996093 15.65625 48.171874l98.503907 71.570313c4.605469 3.34375 6.519531 9.230469 4.757812 14.644531l-37.625 115.800782c-5.875 18.085937.269531 36.996093 15.652344 48.175781 15.386719 11.179687 35.269531 11.175781 50.652344 0l98.507812-71.570313c4.601563-3.34375 10.792969-3.347656 15.398438 0l98.507812 71.570313c7.691407 5.589843 16.507813 8.382812 25.324219 8.382812s17.636719-2.796875 25.328125-8.382812c15.382813-11.179688 21.527344-30.089844 15.652344-48.175781l-37.628907-115.800782c-1.757812-5.414062.152344-11.296875 4.757813-14.644531l98.507813-71.566406c15.386718-11.179688 21.53125-30.089844 15.65625-48.175781zm0 0"/>
</svg>
