<svg xmlns="http://www.w3.org/2000/svg">
  <symbol id="star" viewBox="1 -10 511.99962 511">
    <path d="m509.804688 184.898438c-5.878907-18.085938-21.964844-29.773438-40.980469-29.773438h-121.761719c-5.691406 0-10.699219-3.636719-12.457031-9.050781l-37.628907-115.800781c-5.875-18.085938-21.960937-29.773438-40.976562-29.773438s-35.101562 11.6875-40.980469 29.773438l-37.625 115.800781c-1.757812 5.414062-6.765625 9.050781-12.457031 9.050781h-121.761719c-19.015625 0-35.101562 11.6875-40.980469 29.773438-5.875 18.085937.269532 36.996093 15.65625 48.171874l98.503907 71.570313c4.605469 3.34375 6.519531 9.230469 4.757812 14.644531l-37.625 115.800782c-5.875 18.085937.269531 36.996093 15.652344 48.175781 15.386719 11.179687 35.269531 11.175781 50.652344 0l98.507812-71.570313c4.601563-3.34375 10.792969-3.347656 15.398438 0l98.507812 71.570313c7.691407 5.589843 16.507813 8.382812 25.324219 8.382812s17.636719-2.796875 25.328125-8.382812c15.382813-11.179688 21.527344-30.089844 15.652344-48.175781l-37.628907-115.800782c-1.757812-5.414062.152344-11.296875 4.757813-14.644531l98.507813-71.566406c15.386718-11.179688 21.53125-30.089844 15.65625-48.175781zm0 0"/>
  </symbol>

  <symbol id="capital" xmlns:xlink="http://www.w3.org/1999/xlink"
    viewBox="0 0 512 512">
    <g>
      <circle fill="none" stroke="#fff" stroke-width="128" cx="256" cy="256" r="192" />
		  <circle fill="none" stroke="#000" stroke-width="64" cx="256" cy="256" r="192" />
			<circle fill="#000" stroke="#fff" stroke-width="32" cx="256" cy="256" r="96" />
    </g>
  </symbol>

  <symbol id="favorite" viewBox="0 -28 512.00002 512">
    <path d="m471.382812 44.578125c-26.503906-28.746094-62.871093-44.578125-102.410156-44.578125-29.554687 0-56.621094 9.34375-80.449218 27.769531-12.023438 9.300781-22.917969 20.679688-32.523438 33.960938-9.601562-13.277344-20.5-24.660157-32.527344-33.960938-23.824218-18.425781-50.890625-27.769531-80.445312-27.769531-39.539063 0-75.910156 15.832031-102.414063 44.578125-26.1875 28.410156-40.613281 67.222656-40.613281 109.292969 0 43.300781 16.136719 82.9375 50.78125 124.742187 30.992188 37.394531 75.535156 75.355469 127.117188 119.3125 17.613281 15.011719 37.578124 32.027344 58.308593 50.152344 5.476563 4.796875 12.503907 7.4375 19.792969 7.4375 7.285156 0 14.316406-2.640625 19.785156-7.429687 20.730469-18.128907 40.707032-35.152344 58.328125-50.171876 51.574219-43.949218 96.117188-81.90625 127.109375-119.304687 34.644532-41.800781 50.777344-81.4375 50.777344-124.742187 0-42.066407-14.425781-80.878907-40.617188-109.289063zm0 0"/>
  </symbol>

  <symbol id="prefectures" xmlns:xlink="http://www.w3.org/1999/xlink"
   viewBox="0 0 405.333 405.333">
    <g>
      <path d="M10.667,234.667C4.8,234.667,0,239.467,0,245.333C0,251.2,4.8,256,10.667,256c5.867,0,10.667-4.8,10.667-10.667
        C21.333,239.467,16.533,234.667,10.667,234.667z"/>
      <path d="M10.667,149.333C4.8,149.333,0,154.133,0,160c0,5.867,4.8,10.667,10.667,10.667c5.867,0,10.667-4.8,10.667-10.667
        C21.333,154.133,16.533,149.333,10.667,149.333z"/>
      <path d="M160,384c-5.867,0-10.667,4.8-10.667,10.667c0,5.867,4.8,10.667,10.667,10.667c5.867,0,10.667-4.8,10.667-10.667
        C170.667,388.8,165.867,384,160,384z"/>
      <path d="M74.667,53.333c-11.733,0-21.333,9.6-21.333,21.333S62.933,96,74.667,96S96,86.4,96,74.667S86.4,53.333,74.667,53.333z"
        />
      <path d="M74.667,138.667c-11.733,0-21.333,9.6-21.333,21.333s9.6,21.333,21.333,21.333S96,171.733,96,160
        S86.4,138.667,74.667,138.667z"/>
      <path d="M74.667,224c-11.733,0-21.333,9.6-21.333,21.333c0,11.733,9.6,21.333,21.333,21.333S96,257.067,96,245.333
        C96,233.6,86.4,224,74.667,224z"/>
      <path d="M394.667,170.667c5.867,0,10.667-4.8,10.667-10.667c0-5.867-4.8-10.667-10.667-10.667c-5.867,0-10.667,4.8-10.667,10.667
        C384,165.867,388.8,170.667,394.667,170.667z"/>
      <path d="M245.333,21.333c5.867,0,10.667-4.8,10.667-10.667C256,4.8,251.2,0,245.333,0c-5.867,0-10.667,4.8-10.667,10.667
        C234.667,16.533,239.467,21.333,245.333,21.333z"/>
      <path d="M160,96c11.733,0,21.333-9.6,21.333-21.333s-9.6-21.333-21.333-21.333s-21.333,9.6-21.333,21.333S148.267,96,160,96z"/>
      <path d="M160,21.333c5.867,0,10.667-4.8,10.667-10.667C170.667,4.8,165.867,0,160,0c-5.867,0-10.667,4.8-10.667,10.667
        C149.333,16.533,154.133,21.333,160,21.333z"/>
      <path d="M245.333,96c11.733,0,21.333-9.6,21.333-21.333s-9.6-21.333-21.333-21.333c-11.733,0-21.333,9.6-21.333,21.333
        S233.6,96,245.333,96z"/>
      <path d="M74.667,309.333c-11.733,0-21.333,9.6-21.333,21.333c0,11.733,9.6,21.333,21.333,21.333S96,342.4,96,330.667
        C96,318.933,86.4,309.333,74.667,309.333z"/>
      <path d="M245.333,128c-17.707,0-32,14.293-32,32s14.293,32,32,32s32-14.293,32-32S263.04,128,245.333,128z"/>
      <path d="M330.667,224c-11.733,0-21.333,9.6-21.333,21.333c0,11.733,9.6,21.333,21.333,21.333c11.733,0,21.333-9.6,21.333-21.333
        C352,233.6,342.4,224,330.667,224z"/>
      <path d="M330.667,309.333c-11.733,0-21.333,9.6-21.333,21.333c0,11.733,9.6,21.333,21.333,21.333
        C342.4,352,352,342.4,352,330.667C352,318.933,342.4,309.333,330.667,309.333z"/>
      <path d="M330.667,138.667c-11.733,0-21.333,9.6-21.333,21.333s9.6,21.333,21.333,21.333c11.733,0,21.333-9.6,21.333-21.333
        S342.4,138.667,330.667,138.667z"/>
      <path d="M394.667,234.667c-5.867,0-10.667,4.8-10.667,10.667C384,251.2,388.8,256,394.667,256c5.867,0,10.667-4.8,10.667-10.667
        C405.333,239.467,400.533,234.667,394.667,234.667z"/>
      <path d="M330.667,53.333c-11.733,0-21.333,9.6-21.333,21.333S318.933,96,330.667,96C342.4,96,352,86.4,352,74.667
        S342.4,53.333,330.667,53.333z"/>
      <path d="M160,213.333c-17.707,0-32,14.293-32,32s14.293,32,32,32s32-14.293,32-32S177.707,213.333,160,213.333z"/>
      <path d="M160,309.333c-11.733,0-21.333,9.6-21.333,21.333c0,11.733,9.6,21.333,21.333,21.333s21.333-9.6,21.333-21.333
        C181.333,318.933,171.733,309.333,160,309.333z"/>
      <path d="M160,128c-17.707,0-32,14.293-32,32s14.293,32,32,32s32-14.293,32-32S177.707,128,160,128z"/>
      <path d="M245.333,309.333c-11.733,0-21.333,9.6-21.333,21.333C224,342.4,233.6,352,245.333,352
        c11.733,0,21.333-9.6,21.333-21.333C266.667,318.933,257.067,309.333,245.333,309.333z"/>
      <path d="M245.333,384c-5.867,0-10.667,4.8-10.667,10.667c0,5.867,4.8,10.667,10.667,10.667c5.867,0,10.667-4.8,10.667-10.667
        C256,388.8,251.2,384,245.333,384z"/>
      <path d="M245.333,213.333c-17.707,0-32,14.293-32,32s14.293,32,32,32s32-14.293,32-32S263.04,213.333,245.333,213.333z"/>
    </g>
  </symbol>

  <svg>
	  <rect width="100%" height="100%" fill="lightblue" />
	  <use href="#capital" />
	</svg>
</svg>
