<?xml version="1.0" encoding="iso-8859-1"?>
<svg version="1.1" id="Capa_1" xmlns="http://www.w3.org/2000/svg" xmlns:xlink="http://www.w3.org/1999/xlink" x="0px" y="0px"
	 viewBox="0 0 427.155 427.155" style="enable-background:new 0 0 427.155 427.155;" xml:space="preserve">
<g>
	<g>
		<path d="M234.058,93.858h-39.627v0c-0.981,16.463-2.124,31.268-3.363,44.497h46.353
			C236.183,125.126,235.039,110.322,234.058,93.858z"/>
	</g>
</g>
<g>
	<g>
		<path d="M238.777,151.869h-49.066c-2.588,24.25-5.439,42.532-7.981,55.833h65.028
			C244.215,194.402,241.364,176.119,238.777,151.869z"/>
	</g>
</g>
<g>
	<g>
		<path d="M280.542,221.216h-30.951h-70.693h-30.952c-4.852,0.081-8.341,4.725-7.018,9.419l11.056,39.223
			c0.971,3.444,3.663,6.021,6.979,6.969h110.563c3.315-0.947,6.008-3.524,6.979-6.969l11.057-39.223
			C288.884,225.942,285.395,221.297,280.542,221.216z M181.057,259.011h-13.514v-19.577h13.514V259.011z M221.001,259.011h-13.515
			v-19.577h13.515V259.011z M260.947,259.011h-13.516v-19.577h13.516V259.011z"/>
	</g>
</g>
<g>
	<g>
		<polygon points="232.673,50.53 231.227,50.53 231.227,34.683 221.001,34.683 220.221,34.683 207.486,34.683 197.262,34.683
			197.262,50.53 180.279,50.53 180.279,80.343 233.507,80.343 248.21,80.343 248.21,50.53 		"/>
	</g>
</g>
<g>
	<g>
		<path d="M339.654,411.01c-32.674-43.135-58.38-96.445-69.296-120.668H158.131c-10.917,24.223-36.623,77.533-69.296,120.668H70.816
			v16.145h5.018h66.573h15.469V411.01h-10.079c7.126-16.695,22.482-41.263,52.708-48.119c9.022-2.047,18.457-2.047,27.478,0
			c30.227,6.856,45.582,31.424,52.708,48.119h-11.413v16.144h16.805h66.572h3.684V411.01H339.654z"/>
	</g>
</g>
<g>
	<g>
		<rect x="207.487" width="13.515" height="21.16"/>
	</g>
</g>
</svg>
