<?xml version="1.0" encoding="UTF-8" standalone="no"?>
<!-- Created with Inkscape (http://www.inkscape.org/) -->

<svg
   xmlns:dc="http://purl.org/dc/elements/1.1/"
   xmlns:cc="http://creativecommons.org/ns#"
   xmlns:rdf="http://www.w3.org/1999/02/22-rdf-syntax-ns#"
   xmlns:svg="http://www.w3.org/2000/svg"
   xmlns="http://www.w3.org/2000/svg"
   xmlns:sodipodi="http://sodipodi.sourceforge.net/DTD/sodipodi-0.dtd"
   xmlns:inkscape="http://www.inkscape.org/namespaces/inkscape"
   version="1.1"
   id="svg2"
   width="324"
   height="216"
   viewBox="0 0 324 216"
   sodipodi:docname="Flag_of_Adachi,_Tokyo.svg"
   inkscape:version="0.92.3 (2405546, 2018-03-11)">
  <metadata
     id="metadata8">
    <rdf:RDF>
      <cc:Work
         rdf:about="">
        <dc:format>image/svg+xml</dc:format>
        <dc:type
           rdf:resource="http://purl.org/dc/dcmitype/StillImage" />
        <dc:title></dc:title>
      </cc:Work>
    </rdf:RDF>
  </metadata>
  <defs
     id="defs6" />
  <sodipodi:namedview
     pagecolor="#ffffff"
     bordercolor="#666666"
     borderopacity="1"
     objecttolerance="10"
     gridtolerance="10"
     guidetolerance="10"
     inkscape:pageopacity="0"
     inkscape:pageshadow="2"
     inkscape:window-width="1920"
     inkscape:window-height="1017"
     id="namedview4"
     showgrid="false"
     inkscape:zoom="1.7530864"
     inkscape:cx="333.88298"
     inkscape:cy="176.4507"
     inkscape:window-x="-8"
     inkscape:window-y="-8"
     inkscape:window-maximized="1"
     inkscape:current-layer="svg2" />
  <g
     id="g942"
     transform="translate(336.04225,-279.0845)">
    <rect
       style="fill:#5a004a;fill-opacity:1;stroke:none;stroke-width:1"
       id="rect2422"
       y="279.0845"
       x="-336.04227"
       height="216"
       width="324.00003" />
    <path
       style="fill:#ffffff;stroke:none;stroke-width:1"
       id="path2413"
       d="m -173.47184,314.76057 c -18.99161,0 -27.20637,3.83438 -35.22319,13.91502 -5.90307,7.42275 -6.743,16.30393 -6.743,21.08678 0,6.31758 2.00808,14.92951 8.32767,21.87614 6.16416,6.77577 13.25118,10.67214 24.54585,11.94166 v 55.40073 c -9.61488,-3.77077 -16.46494,-13.34711 -16.52419,-24.57119 4.66159,1.22349 8.70503,1.74683 11.62813,1.9621 v -19.24874 c -9.12176,-1.03348 -28.7123,-6.08986 -38.81873,-30.08531 l -17.1362,7.58898 c 6.79192,15.94181 16.53637,25.82709 26.2398,31.95719 -0.41032,2.49696 -0.62293,5.06224 -0.62293,7.6792 0,25.24675 19.8584,45.73689 44.32679,45.73689 24.46839,0 44.32682,-20.49014 44.32681,-45.73689 0,-0.8334 -0.0236,-1.65883 -0.0655,-2.48081 -6.7549,3.99193 -13.41421,6.378 -19.158,7.80325 -1.76988,8.92888 -7.91214,16.21928 -16.01055,19.39533 v -22.4625 c 0,0 42.06532,2.32411 60.85099,-41.85783 l -17.13621,-7.58899 c -13.42483,31.8743 -43.59326,30.33973 -43.71478,30.3334 v -13.82481 c 11.29467,-1.26952 18.3817,-5.16589 24.54586,-11.94166 6.31958,-6.94663 8.32766,-15.55856 8.32766,-21.87614 0,-4.78285 -0.83994,-13.66403 -6.743,-21.08678 -8.01682,-10.08064 -16.23158,-13.91502 -35.2232,-13.91502 z m 0,19.30512 c 11.31139,0 14.81371,0.68664 19.25637,5.09691 3.27128,3.24745 3.9999,6.40561 3.9999,10.21639 0,4.11809 -1.48891,8.07562 -5.13649,10.92677 -4.9514,3.8703 -8.77051,4.07078 -18.11978,4.07078 -9.34926,0 -14.47982,-0.74173 -18.64435,-4.61204 -3.40019,-3.15996 -4.61192,-6.99011 -4.61192,-10.38551 0,-2.0925 0.29147,-6.42768 3.99991,-10.21639 4.38082,-4.47565 7.85755,-5.09691 19.25636,-5.09691 z"
       inkscape:connector-curvature="0" />
  </g>
</svg>
