<?xml version="1.0" encoding="UTF-8" standalone="no"?>
<!-- Created with Inkscape (http://www.inkscape.org/) -->

<svg
   xmlns:dc="http://purl.org/dc/elements/1.1/"
   xmlns:cc="http://creativecommons.org/ns#"
   xmlns:rdf="http://www.w3.org/1999/02/22-rdf-syntax-ns#"
   xmlns:svg="http://www.w3.org/2000/svg"
   xmlns="http://www.w3.org/2000/svg"
   xmlns:sodipodi="http://sodipodi.sourceforge.net/DTD/sodipodi-0.dtd"
   xmlns:inkscape="http://www.inkscape.org/namespaces/inkscape"
   version="1.1"
   id="svg2"
   width="324"
   height="216"
   viewBox="0 0 324 216"
   sodipodi:docname="Flag_of_Akishima,_Tokyo.svg"
   inkscape:version="0.92.3 (2405546, 2018-03-11)">
  <metadata
     id="metadata8">
    <rdf:RDF>
      <cc:Work
         rdf:about="">
        <dc:format>image/svg+xml</dc:format>
        <dc:type
           rdf:resource="http://purl.org/dc/dcmitype/StillImage" />
        <dc:title></dc:title>
      </cc:Work>
    </rdf:RDF>
  </metadata>
  <defs
     id="defs6" />
  <sodipodi:namedview
     pagecolor="#ffffff"
     bordercolor="#666666"
     borderopacity="1"
     objecttolerance="10"
     gridtolerance="10"
     guidetolerance="10"
     inkscape:pageopacity="0"
     inkscape:pageshadow="2"
     inkscape:window-width="1920"
     inkscape:window-height="1017"
     id="namedview4"
     showgrid="false"
     inkscape:zoom="0.87654321"
     inkscape:cx="333.88298"
     inkscape:cy="176.4507"
     inkscape:window-x="-8"
     inkscape:window-y="-8"
     inkscape:window-maximized="1"
     inkscape:current-layer="svg2" />
  <g
     id="g965"
     transform="translate(524.42944,-392.46714)">
    <rect
       style="fill:#29004b;fill-opacity:1;stroke:none;stroke-width:1"
       id="rect2433"
       y="392.46713"
       x="-524.42944"
       height="216"
       width="324.00003" />
    <path
       style="fill:#ffffff;stroke:none;stroke-width:1"
       id="path2386"
       d="m -363.0188,435.36754 c -34.78168,0.88934 -62.72902,29.62225 -62.72902,64.90372 0,35.30026 27.97748,64.04357 62.78495,64.9037 v -12.98074 -8.0749 -3.28184 -81.13245 -3.28185 -8.07489 -12.98075 c -0.0186,3.7e-4 -0.0374,-3.5e-4 -0.0559,0 z m 3.27739,0 v 12.99203 8.06361 3.28185 32.26577 h 12.88586 v -29.58165 c 2.99146,1.16672 5.81369,2.68331 8.41159,4.49984 v 18.22491 h 17.94175 c -4.46456,-12.21232 -14.16707,-21.87463 -26.35334,-26.22087 v -8.46962 c 18.82393,5.56364 33.19277,21.67449 36.36449,41.54739 h 13.00889 c -3.97959,-31.40138 -30.22515,-55.81165 -62.25924,-56.60326 z m -16.1073,15.04458 v 43.36312 h -25.25716 c 0.46039,-2.88028 1.22095,-5.6568 2.24831,-8.30046 h 14.59725 v -18.58579 -3.92467 c -10.63724,6.65662 -18.21695,17.80378 -20.13414,30.81092 h -8.07603 c 2.56667,-20.69953 17.22977,-37.63224 36.62177,-43.36312 z m 16.1073,43.36312 v 47.06224 3.28184 8.06362 12.99202 c 34.80748,-0.86013 62.78495,-29.60344 62.78496,-64.9037 0,-2.19107 -0.11387,-4.36056 -0.32438,-6.49602 h -12.95296 -36.62176 z m -52.72907,12.99202 h 36.62177 v 31.38611 c -2.99146,-1.16674 -5.8137,-2.68333 -8.4116,-4.49984 v -18.22491 h -14.45184 -3.48992 c 4.46458,12.21231 14.16707,21.87461 26.35336,26.22085 v 8.48091 c -19.392,-5.73088 -34.0551,-22.66358 -36.62177,-43.36312 z m 65.61493,0 h 25.25715 c -0.48226,3.01024 -1.29429,5.91086 -2.39372,8.66136 h -14.45184 v 18.22491 3.92466 c 10.63724,-6.65662 18.21695,-17.80379 20.13414,-30.81093 h 8.07603 c -2.56648,20.69801 -17.23126,37.62074 -36.62176,43.35184 z"
       inkscape:connector-curvature="0" />
  </g>
</svg>
