<?xml version="1.0" encoding="UTF-8" standalone="no"?>
<!-- Created with Inkscape (http://www.inkscape.org/) -->

<svg
   xmlns:dc="http://purl.org/dc/elements/1.1/"
   xmlns:cc="http://creativecommons.org/ns#"
   xmlns:rdf="http://www.w3.org/1999/02/22-rdf-syntax-ns#"
   xmlns:svg="http://www.w3.org/2000/svg"
   xmlns="http://www.w3.org/2000/svg"
   xmlns:sodipodi="http://sodipodi.sourceforge.net/DTD/sodipodi-0.dtd"
   xmlns:inkscape="http://www.inkscape.org/namespaces/inkscape"
   version="1.1"
   id="svg2"
   width="324"
   height="216"
   viewBox="0 0 324 216"
   sodipodi:docname="Flag_of_Aogashima,_Tokyo.svg"
   inkscape:version="0.92.3 (2405546, 2018-03-11)">
  <metadata
     id="metadata8">
    <rdf:RDF>
      <cc:Work
         rdf:about="">
        <dc:format>image/svg+xml</dc:format>
        <dc:type
           rdf:resource="http://purl.org/dc/dcmitype/StillImage" />
        <dc:title></dc:title>
      </cc:Work>
    </rdf:RDF>
  </metadata>
  <defs
     id="defs6" />
  <sodipodi:namedview
     pagecolor="#ffffff"
     bordercolor="#666666"
     borderopacity="1"
     objecttolerance="10"
     gridtolerance="10"
     guidetolerance="10"
     inkscape:pageopacity="0"
     inkscape:pageshadow="2"
     inkscape:window-width="1920"
     inkscape:window-height="1017"
     id="namedview4"
     showgrid="false"
     inkscape:zoom="1.7530864"
     inkscape:cx="333.88298"
     inkscape:cy="153.6338"
     inkscape:window-x="-8"
     inkscape:window-y="-8"
     inkscape:window-maximized="1"
     inkscape:current-layer="svg2" />
  <g
     id="g919"
     transform="translate(367.98592,-342.97183)">
    <rect
       style="fill:#0042ce;fill-opacity:1;stroke:none;stroke-width:1"
       id="rect2414"
       y="342.97183"
       x="-367.98593"
       height="216"
       width="324.00003" />
    <path
       style="fill:#ffffff;stroke:none;stroke-width:1"
       id="path2386"
       d="m -206.40072,380.4193 c -25.34562,0 -47.52267,13.74602 -59.63546,34.25631 h 15.28558 c 10.41286,-13.12516 26.41786,-21.53045 44.34988,-21.53045 17.93201,0 33.93701,8.40529 44.34987,21.53045 h 15.28558 c -12.11278,-20.51029 -34.28984,-34.25631 -59.63545,-34.25631 z m 60.49135,35.72983 -7.67895,13.21297 c 2.57709,6.55006 3.99016,13.69147 3.99016,21.16511 1e-5,28.77566 -21.0092,52.75929 -48.36415,56.90711 l -7.76334,13.34693 c 38.00095,-0.36777 68.72482,-31.7794 68.72483,-70.25404 0,-12.48965 -3.23524,-24.21841 -8.90855,-34.37808 z m -121.12736,0.28009 c -5.57885,10.09625 -8.76389,21.72062 -8.76389,34.09799 0,38.53957 30.8281,69.99072 68.9177,70.25404 l -7.73923,-13.3104 c -27.46134,-4.05305 -48.58113,-28.09154 -48.58113,-56.94364 0,-7.34963 1.37321,-14.3757 3.86962,-20.83631 z m 2.00111,0.19484 28.54593,49.10111 28.54594,-49.10111 z m 60.46724,0 28.35306,49.10111 28.16018,-49.10111 z m -1.83234,1.16908 -28.54594,49.1011 h 57.09187 z m -39.15423,10.13197 h 18.13053 l -9.06527,15.58765 z m 60.17792,0 h 18.13053 l -9.06526,15.58765 z m -21.02369,12.08043 9.06526,15.58766 h -18.13053 z m -28.54594,29.22685 28.54594,49.10111 28.54593,-49.10111 z m 19.48067,11.30105 h 18.13053 l -9.06526,15.58765 z"
       inkscape:connector-curvature="0" />
  </g>
</svg>
