<?xml version="1.0" encoding="UTF-8" standalone="no"?>
<!-- Created with Inkscape (http://www.inkscape.org/) -->

<svg
   xmlns:dc="http://purl.org/dc/elements/1.1/"
   xmlns:cc="http://creativecommons.org/ns#"
   xmlns:rdf="http://www.w3.org/1999/02/22-rdf-syntax-ns#"
   xmlns:svg="http://www.w3.org/2000/svg"
   xmlns="http://www.w3.org/2000/svg"
   xmlns:sodipodi="http://sodipodi.sourceforge.net/DTD/sodipodi-0.dtd"
   xmlns:inkscape="http://www.inkscape.org/namespaces/inkscape"
   version="1.1"
   id="svg2"
   width="324"
   height="216"
   viewBox="0 0 324 216"
   sodipodi:docname="Flag_of_Arakawa,_Tokyo.svg"
   inkscape:version="0.92.3 (2405546, 2018-03-11)">
  <metadata
     id="metadata8">
    <rdf:RDF>
      <cc:Work
         rdf:about="">
        <dc:format>image/svg+xml</dc:format>
        <dc:type
           rdf:resource="http://purl.org/dc/dcmitype/StillImage" />
        <dc:title></dc:title>
      </cc:Work>
    </rdf:RDF>
  </metadata>
  <defs
     id="defs6" />
  <sodipodi:namedview
     pagecolor="#ffffff"
     bordercolor="#666666"
     borderopacity="1"
     objecttolerance="10"
     gridtolerance="10"
     guidetolerance="10"
     inkscape:pageopacity="0"
     inkscape:pageshadow="2"
     inkscape:window-width="1920"
     inkscape:window-height="1017"
     id="namedview4"
     showgrid="false"
     inkscape:zoom="1.7530864"
     inkscape:cx="333.88298"
     inkscape:cy="176.4507"
     inkscape:window-x="-8"
     inkscape:window-y="-8"
     inkscape:window-maximized="1"
     inkscape:current-layer="svg2" />
  <g
     inkscape:label="Layer 1"
     id="layer1"
     transform="translate(278.40845,-19.366202)">
    <rect
       style="opacity:1;fill:#006633;fill-opacity:1;stroke-width:0;stroke-miterlimit:4;stroke-dasharray:none"
       id="rect2158"
       width="324.00003"
       height="216.00005"
       x="-278.40845"
       y="19.366194" />
    <path
       style="opacity:1;fill:#ffffff;fill-opacity:1;stroke:none;stroke-width:0.1;stroke-linecap:round;stroke-linejoin:round;stroke-miterlimit:4;stroke-dasharray:none;stroke-opacity:0.37654323"
       d="m -116.42096,55.259541 c -35.45323,0 -64.90838,25.976564 -70.68017,60.060629 h 17.83691 c 5.51653,-24.288106 27.07858,-42.429849 52.84326,-42.429849 18.743542,0 35.252524,9.611631 44.99503,24.195919 l -19.102756,15.72851 1.864253,-4.87166 h -18.251177 v 47.67269 l 15.42029,-40.29561 h 27.940642 8.42362 9.413284 C -51.493422,81.236105 -80.96772,55.259541 -116.42096,55.259541 Z m -27.73351,52.683549 18.25118,47.7191 v -47.7191 z m 20.02336,0 v 52.33558 l 7.71015,20.1594 7.73317,-20.20581 v -52.28917 z m -63.2462,9.18656 c -0.47248,3.29253 -0.74337,6.64804 -0.75951,10.06811 h 4.46498 13.0267 31.64611 l -3.86658,-10.06811 h -26.78987 -14.01636 z m 97.400994,0 -3.843564,10.06811 h 31.646126 13.026689 4.464981 c -0.01614,-3.42007 -0.286705,-6.77558 -0.759509,-10.06811 h -3.705472 -14.016352 z m -98.137484,11.85438 c 0.0668,3.42846 0.37249,6.79501 0.8976,10.0913 h 6.74349 11.07039 34.93731 l -3.84355,-10.0913 h -32.29056 -9.87359 z m 93.60346,0 -3.866575,10.0913 h 34.960331 c -5.254604,24.64739 -26.990675,43.14901 -53.004376,43.14901 -25.37938,10e-6 -46.66835,-17.61585 -52.56707,-41.36273 H -186.917 c 6.20637,33.5527 35.42067,58.99351 70.49604,58.99351 39.111254,0 70.950248,-31.63188 71.715857,-70.87109 h -7.664112 -9.850572 z"
       id="path2148"
       inkscape:connector-curvature="0" />
  </g>
</svg>
