<?xml version="1.0" encoding="UTF-8" standalone="no"?>
<!-- Created with Inkscape (http://www.inkscape.org/) -->
<svg
   xmlns:svg="http://www.w3.org/2000/svg"
   xmlns="http://www.w3.org/2000/svg"
   version="1.0"
   width="900"
   height="600"
   id="svg2">
  <defs
     id="defs5" />
  <rect
     width="900"
     height="600"
     x="0"
     y="0"
     id="rect2414"
     style="fill:#5a004a;stroke:none" />
  <path
     d="M 382,90 L 382,176.09375 C 341.7082,199.56922 314.59375,243.2261 314.59375,293.1875 C 314.59375,309.66781 317.53959,325.45126 322.9375,340.0625 L 417.34375,302.25 C 416.54411,299.36349 416.09375,296.32803 416.09375,293.1875 C 416.09375,274.46617 431.27868,259.25 450,259.25 C 468.72133,259.25001 483.90625,274.46618 483.90625,293.1875 C 483.90625,301.82696 480.66658,309.69904 475.34375,315.6875 L 475.28125,315.53125 C 469.08627,322.49834 460.04927,326.875 450,326.875 C 435.84705,326.875 423.72514,318.16105 418.6875,305.8125 L 418.5625,305.875 L 382.625,320.25 L 324.3125,343.59375 C 324.31608,343.60265 324.30892,343.6161 324.3125,343.625 L 223.71875,383.90625 L 274.3125,510.15625 C 274.3125,510.15625 486.09375,426.59375 514.09375,412.46875 C 556.53685,389.60203 585.40624,344.75152 585.40625,293.1875 C 585.40625,243.22611 558.2918,199.56922 518,176.09375 L 518,90 L 382,90 z M 579.53125,344.8125 C 567.28709,375.47265 544.47324,400.78231 515.59375,416.21875 C 497.46875,425.09375 455.40625,441.59375 455.40625,441.59375 L 626.59375,510.15625 L 677.15625,383.90625 L 579.53125,344.8125 z"
     id="path2386"
     style="fill:#ffffff;stroke:none" />
</svg>
