<?xml version="1.0" encoding="UTF-8" standalone="no"?>
<!-- Created with Inkscape (http://www.inkscape.org/) -->
<svg
   xmlns:svg="http://www.w3.org/2000/svg"
   xmlns="http://www.w3.org/2000/svg"
   version="1.0"
   width="810"
   height="540"
   id="svg2">
  <defs
     id="defs5" />
  <rect
     width="810"
     height="540"
     x="0"
     y="0"
     id="rect2403"
     style="fill:#5a004a;stroke:none" />
  <path
     d="M 405,90.375 C 305.64,90.374997 225,170.64 225,270 C 225,369.36 305.64,450 405,450 C 504.36,450 585,369.36 585,270 C 585,194.66677 538.63001,130.31425 472.90625,103.59375 L 449.875,127.1875 C 510.77655,146.18415 555,202.82932 555,270 C 555,291.76556 550.34978,312.45264 542,331.125 L 542,330 C 542,330 501.38094,297.63324 444,290 C 444,290 455.24178,220.17058 409.96875,162 L 468.5,102 L 359,167 C 409.01092,205.42944 415,287 415,287 C 321.82178,284.36785 268,331 268,331 C 268,331 267.97079,331.08475 267.96875,331.09375 C 259.62953,312.43121 255,291.75097 255,270 C 254.99999,187.2 322.2,120.375 405,120.375 C 412.39566,120.375 419.67127,120.90744 426.78125,121.9375 L 463.59375,100.09375 C 445.22388,93.791616 425.50973,90.375 405,90.375 z M 411.09375,317.78125 C 411.98695,317.78124 412.90165,317.80224 413.8125,317.8125 C 401.63174,396.07064 320.56621,398.15656 297.9375,369.0625 C 297.9375,369.0625 297.53886,368.2296 297.53886,367.60149 C 297.53886,366.80324 298,366 298,366 C 298,366 330.24595,317.78213 411.09375,317.78125 z M 438.9375,321.5 C 492.56365,334.07608 515.5,370.5 515.5,370.5 L 516.71875,370.0625 C 489.24856,400.70763 449.3629,420 405,420 C 377.14733,420.00001 351.07326,412.40413 328.71875,399.15625 C 371.80558,403.28496 426.2449,377.30878 438.9375,321.5 z"
     id="path2386"
     style="fill:#ffffff;stroke:none" />
</svg>
