<?xml version="1.0" encoding="UTF-8" standalone="no"?>
<!-- Created with Inkscape (http://www.inkscape.org/) -->
<svg
   xmlns:svg="http://www.w3.org/2000/svg"
   xmlns="http://www.w3.org/2000/svg"
   version="1.0"
   width="900"
   height="600"
   id="svg2">
  <defs
     id="defs5" />
  <rect
     width="900"
     height="600"
     x="0"
     y="0"
     id="rect2417"
     style="fill:#660066;stroke:none" />
  <path
     d="M 450,120 C 350.64,120 270,200.64 270,300 C 270,399.36 350.64,480 450,480 C 549.36,480 630,399.36 630,300 L 603.0625,300 L 405,300 C 405,281.77047 415.87179,266.06998 431.46875,259 L 625.28125,259 C 624.65206,256.30699 623.96657,253.64569 623.21875,251 L 450,251 L 450,210 C 418.38493,210 390.55517,226.32186 374.5,251 L 337,251 C 335.50218,253.27069 334.62919,256.30699 334,259 L 369.875,259 C 363.56576,271.29807 360,285.23608 360,300 C 360,316.39134 364.39607,331.75849 372.0625,345 L 577.3125,345 C 558.76663,397.41667 508.74363,435 450,435 C 375.48,435 315,374.52 315,300 C 315,225.48 375.48,165 450,165 C 489.95538,165 525.86888,182.38477 550.59375,210 L 605.90625,210 C 574.76745,156.21559 516.57798,120 450,120 z"
     id="path2411"
     style="fill:#ffffff;stroke:none" />
</svg>
