<?xml version="1.0" encoding="UTF-8" standalone="no"?>
<!-- Created with Inkscape (http://www.inkscape.org/) -->
<svg
   xmlns:svg="http://www.w3.org/2000/svg"
   xmlns="http://www.w3.org/2000/svg"
   version="1.0"
   width="900"
   height="600"
   id="svg2">
  <defs
     id="defs5" />
  <rect
     width="900"
     height="600"
     x="0"
     y="0"
     id="rect2451"
     style="fill:#426b8c;stroke:none" />
  <path
     d="M 450,120 C 446.41726,120 443.03877,120.85198 440.03125,122.34375 C 438.41232,121.97321 436.73075,121.75 435,121.75 C 422.58,121.75 412.5,131.83 412.5,144.25 C 412.5,153.7316 418.3819,161.84583 426.6875,165.15625 C 426.97753,165.77582 427.5,167.00429 427.5,168 C 427.5,182.75212 404.5,175.98716 404.5,188 C 404.5,192.08556 408.34269,194.09216 409.8125,194.71875 C 379.96115,206.12733 356.21789,229.88125 344.78125,259.71875 C 344.08858,258.15191 342.05703,254.5 338.09375,254.5 C 326.08091,254.5 332.84587,277.5 318.09375,277.5 C 317.09804,277.5 315.86957,276.97753 315.25,276.6875 C 311.93958,268.3819 303.82535,262.5 294.34375,262.5 C 281.92375,262.5 271.84375,272.58 271.84375,285 C 271.84375,286.73075 272.06696,288.41232 272.4375,290.03125 C 270.94573,293.03877 270.09375,296.41726 270.09375,300 C 270.09375,303.58274 270.94573,306.96123 272.4375,309.96875 C 272.06696,311.58768 271.84375,313.26925 271.84375,315 C 271.84375,327.42 281.92375,337.5 294.34375,337.5 C 303.82535,337.5 311.93958,331.6181 315.25,323.3125 C 315.86957,323.02247 317.09804,322.5 318.09375,322.5 C 332.84587,322.5 326.08091,345.5 338.09375,345.5 C 342.05703,345.5 344.08858,341.84809 344.78125,340.28125 C 356.2296,370.1493 380.01187,393.91753 409.90625,405.3125 C 408.55421,405.8688 404.5,407.85466 404.5,412.0625 C 404.5,424.07534 427.5,417.31038 427.5,432.0625 C 427.5,433.05821 426.97753,434.28668 426.6875,434.90625 C 418.3819,438.21667 412.5,446.3309 412.5,455.8125 C 412.5,468.2325 422.58,478.3125 435,478.3125 C 436.73075,478.3125 438.41232,478.08929 440.03125,477.71875 C 443.03877,479.21052 446.41726,480.0625 450,480.0625 C 453.58274,480.0625 456.96123,479.21052 459.96875,477.71875 C 461.58768,478.08929 463.26925,478.3125 465,478.3125 C 477.42,478.3125 487.5,468.2325 487.5,455.8125 C 487.5,446.3309 481.6181,438.21667 473.3125,434.90625 C 473.02247,434.28668 472.5,433.05821 472.5,432.0625 C 472.5,417.31038 495.5,424.07534 495.5,412.0625 C 495.5,407.85466 491.44579,405.8688 490.09375,405.3125 C 519.98813,393.91753 543.7704,370.1493 555.21875,340.28125 C 555.91142,341.84809 557.94297,345.5 561.90625,345.5 C 573.91909,345.5 567.15413,322.5 581.90625,322.5 C 582.90196,322.5 584.13043,323.02247 584.75,323.3125 C 588.06042,331.6181 596.17465,337.5 605.65625,337.5 C 618.07625,337.5 628.15625,327.42 628.15625,315 C 628.15625,313.26925 627.93304,311.58768 627.5625,309.96875 C 629.05427,306.96123 629.90625,303.58274 629.90625,300 C 629.90625,296.41726 629.05427,293.03877 627.5625,290.03125 C 627.93304,288.41232 628.15625,286.73075 628.15625,285 C 628.15625,272.58 618.07625,262.5 605.65625,262.5 C 596.17465,262.5 588.06042,268.3819 584.75,276.6875 C 584.13043,276.97753 582.90196,277.5 581.90625,277.5 C 567.15413,277.5 573.91909,254.5 561.90625,254.5 C 557.94297,254.5 555.91142,258.15191 555.21875,259.71875 C 543.78211,229.88125 520.03885,206.12733 490.1875,194.71875 C 491.65731,194.09216 495.5,192.08556 495.5,188 C 495.5,175.98716 472.5,182.75212 472.5,168 C 472.5,167.00429 473.02247,165.77582 473.3125,165.15625 C 481.6181,161.84583 487.5,153.7316 487.5,144.25 C 487.5,131.83 477.42,121.75 465,121.75 C 463.26925,121.75 461.58768,121.97321 459.96875,122.34375 C 456.96123,120.85198 453.58274,120 450,120 z M 442,195 L 458,195 L 458,202.75 C 505.81468,206.63488 543.90793,245.05147 547.3125,293 L 524.71875,293 L 509.71875,293 L 486.9375,293 C 484.14198,278.20006 472.65899,266.4675 458,263.28125 L 458,271 C 458,271 454.91364,270 450,270 C 445.11214,270 442,271 442,271 L 442,263.28125 C 427.34101,266.4675 415.85801,278.20006 413.0625,293 L 352.6875,293 C 356.09208,245.05147 394.18532,206.63488 442,202.75 L 442,195 z M 442,225.375 C 414.72234,228.27142 391.81883,245.83665 381.25,270 L 397.90625,270 C 407.03261,254.18707 423.12465,242.91531 442,240.40625 L 442,225.375 z M 458,225.375 L 458,240.40625 C 476.87535,242.91531 492.96739,254.18707 502.09375,270 L 518.75,270 C 508.18116,245.83665 485.27766,228.27142 458,225.375 z M 450,277.5 C 462.42,277.5 472.5,287.58 472.5,300 C 472.5,312.42 462.42,322.5 450,322.5 C 437.58,322.5 427.5,312.42 427.5,300 C 427.5,287.58 437.58,277.5 450,277.5 z M 352.6875,307 L 413.0625,307 C 415.85802,321.79994 427.34101,333.5325 442,336.71875 L 442,329 C 442,329 444.34075,330 450,330 C 455.63341,330 458,329 458,329 L 458,336.71875 C 472.65899,333.5325 484.14199,321.79994 486.9375,307 L 509.71875,307 L 524.71875,307 L 547.3125,307 C 545.15881,337.33192 529.12818,363.84759 505.53125,380.21875 L 509.5,387.0625 L 495.65625,395.0625 L 491.6875,388.1875 C 479.04281,394.1785 464.91486,397.5625 450,397.5625 C 435.08984,397.5625 420.95415,394.20621 408.3125,388.21875 L 404.3125,395.15625 L 390.4375,387.15625 L 394.46875,380.1875 C 370.87959,363.81556 354.84078,337.32584 352.6875,307 z M 381.25,330 C 391.81884,354.16335 414.72234,371.72858 442,374.625 L 442,359.59375 C 423.12465,357.08468 407.03261,345.81293 397.90625,330 L 381.25,330 z M 502.09375,330 C 492.96739,345.81293 476.87535,357.08469 458,359.59375 L 458,374.625 C 485.27766,371.72858 508.18116,354.16335 518.75,330 L 502.09375,330 z"
     id="path2386"
     style="fill:#ffffff;stroke:none" />
</svg>
