<svg xmlns="http://www.w3.org/2000/svg" version="1.0" width="900" height="600">
  <path style="fill:#006300;stroke:none" d="M0 0h900v600H0z"/>
  <path d="M450 120c-5.67875 0-11.29886.29724-16.84375.8125L450.3125 152.5C531.58894 152.66892 597.5 218.68425 597.5 300c0 57.7623-33.25733 107.79612-81.65625 132l15.46875 28.625C589.85857 430.90986 629.99999 370.1097 630 300c0-99.36-80.64-180-180-180zm-29.09375 2.71875c-14.75429 2.42247-28.90091 6.65506-42.21875 12.4375l77.1875 142.5625s4.17785 7.84926-2.75 12.8125L430.40625 307.875c-23.95349 15.58538-22.69209 38.57077-16.28125 49.53125l65.1875 120.4375c14.7543-2.42248 28.90091-6.65506 42.21875-12.4375L444.375 322.84375c-.00001.00002-4.3341-8.44301 2.59375-13.40625l22.875-16.75c22.63743-15.00044 22.69209-38.57077 16.28125-49.53125l-65.21875-120.4375zM368.5625 139.4375C310.08366 169.17547 270.00001 229.93974 270 300c0 99.36 80.64 179.99999 180 180 5.63561 0 11.21489-.2737 16.71875-.78125L449.53125 447.5C368.32662 447.24685 302.5 381.26363 302.5 300c0-57.72239 33.21794-107.71467 81.5625-131.9375l-15.5-28.625z" style="fill:#fff;stroke:none"/>
</svg>
