<?xml version="1.0" encoding="UTF-8" standalone="no"?>
<!-- Created with Inkscape (http://www.inkscape.org/) -->

<svg
   xmlns:dc="http://purl.org/dc/elements/1.1/"
   xmlns:cc="http://creativecommons.org/ns#"
   xmlns:rdf="http://www.w3.org/1999/02/22-rdf-syntax-ns#"
   xmlns:svg="http://www.w3.org/2000/svg"
   xmlns="http://www.w3.org/2000/svg"
   xmlns:sodipodi="http://sodipodi.sourceforge.net/DTD/sodipodi-0.dtd"
   xmlns:inkscape="http://www.inkscape.org/namespaces/inkscape"
   version="1.1"
   id="svg2"
   width="324"
   height="216"
   viewBox="0 0 324 216"
   sodipodi:docname="Flag of Fussa, Tokyo.svg"
   inkscape:version="0.92.3 (2405546, 2018-03-11)">
  <metadata
     id="metadata8">
    <rdf:RDF>
      <cc:Work
         rdf:about="">
        <dc:format>image/svg+xml</dc:format>
        <dc:type
           rdf:resource="http://purl.org/dc/dcmitype/StillImage" />
        <dc:title></dc:title>
      </cc:Work>
    </rdf:RDF>
  </metadata>
  <defs
     id="defs6">
    <inkscape:perspective
       sodipodi:type="inkscape:persp3d"
       inkscape:vp_x="0 : 300 : 1"
       inkscape:vp_y="0 : 1000 : 0"
       inkscape:vp_z="900 : 300 : 1"
       inkscape:persp3d-origin="450 : 200 : 1"
       id="perspective833" />
  </defs>
  <sodipodi:namedview
     pagecolor="#ffffff"
     bordercolor="#666666"
     borderopacity="1"
     objecttolerance="10"
     gridtolerance="10"
     guidetolerance="10"
     inkscape:pageopacity="0"
     inkscape:pageshadow="2"
     inkscape:window-width="1920"
     inkscape:window-height="1017"
     id="namedview4"
     showgrid="false"
     inkscape:zoom="1.7530864"
     inkscape:cx="246.34194"
     inkscape:cy="78.911332"
     inkscape:window-x="-8"
     inkscape:window-y="-8"
     inkscape:window-maximized="1"
     inkscape:current-layer="svg2" />
  <g
     id="g1207"
     transform="translate(211.71319,-348.92994)">
    <path
       id="path1201"
       d="m -211.71317,348.93 h 324 v 216 h -324 z"
       inkscape:connector-curvature="0"
       style="fill:#ffffff" />
    <g
       id="g1205"
       transform="matrix(0.48886698,0,0,0.48886698,-183.28995,228.34739)"
       style="fill:#660066;fill-opacity:1">
      <path
         id="path1203"
         d="m 314.19,332.97 -36.36,50.81 c 42.09,1.86 75.64,36.56 75.64,79.11 0,33.76 -21.13,62.58 -50.88,73.97 l 22.52,51.96 c 49.04,-20.28 83.59,-69.02 83.59,-125.94 0,-61.06 -39.77,-112.72 -94.52,-129.91 z M 195.1,462.89 c 0,-42.55 33.56,-77.25 75.64,-79.11 l -36.36,-50.81 c -54.76,17.2 -94.52,68.86 -94.52,129.91 0,66.1 46.62,121.19 108.4,133.45 l -2.72,-59.64 C 216.02,525.18 195.1,496.48 195.1,462.88 Z m 107.16,53.66 -47.16,-65.07 6.61,56.29 -12.16,10.14 3.32,79.27 c 6.98,1.13 14.13,1.73 21.42,1.73 16.38,0 32.07,-2.97 46.59,-8.39 l -20.83,-48.05 c 1.67,-4.03 6.8,-17.88 2.21,-25.9 z"
         inkscape:connector-curvature="0"
         style="fill:#660066;fill-opacity:1" />
    </g>
  </g>
</svg>
