<?xml version="1.0" encoding="UTF-8" standalone="no"?>
<!-- Created with Inkscape (http://www.inkscape.org/) -->
<svg
   xmlns:svg="http://www.w3.org/2000/svg"
   xmlns="http://www.w3.org/2000/svg"
   version="1.0"
   width="900"
   height="600"
   id="svg2">
  <defs
     id="defs5" />
  <rect
     width="900"
     height="600"
     x="0"
     y="0"
     id="rect2397"
     style="fill:#007524;stroke:none" />
  <path
     d="M 450,121 C 427.6079,121 422.5,142 422.5,142 L 413.5,183 L 387,183 L 376.125,279 L 438,279 L 438,286 L 378.84375,286 L 411,354 L 352,479 L 430,479 L 450,437 L 470,479 L 548,479 L 489,354 L 524,280 L 513,183 L 486.5,183 L 477.5,142 C 477.5,142 472.3921,121 450,121 z M 325.90625,159.0625 C 313.77512,158.9865 311,172 311,172 L 286,390 L 356,390 L 380,183 L 333.65625,160.625 C 330.72687,159.54777 328.15276,159.07657 325.90625,159.0625 z M 574.09375,159.0625 C 571.84724,159.07657 569.27313,159.54777 566.34375,160.625 L 520,183 L 544,390 L 614,390 L 589,172 C 589,172 586.22488,158.9865 574.09375,159.0625 z"
     id="path2384"
     style="fill:#ffffff;stroke:none" />
</svg>
