<?xml version="1.0" encoding="UTF-8" standalone="no"?>
<!-- Created with Inkscape (http://www.inkscape.org/) -->
<svg
   xmlns:svg="http://www.w3.org/2000/svg"
   xmlns="http://www.w3.org/2000/svg"
   version="1.0"
   width="900"
   height="630"
   id="svg2">
  <defs
     id="defs5" />
  <rect
     width="900"
     height="630"
     rx="0"
     ry="0"
     x="0"
     y="0"
     id="rect3184"
     style="fill:#66097b;stroke:none" />
  <path
     d="M 486.5,98.75 C 471.79517,99.296019 459.61849,110.62143 458.125,125.40625 C 456.58334,140.66799 466.93902,154.59064 482,157.5 C 502.81008,161.72664 521.82311,169.73212 538.5,180.6875 C 483.8953,215.96814 415.80456,215.47234 362.09375,180.03125 C 378.68033,169.46665 397.68468,161.81746 418.6875,157.53125 C 433.9056,154.56838 444.27211,140.36734 442.46875,124.96875 C 440.66537,109.57016 427.30338,98.178983 411.8125,98.8125 C 410.14388,98.881735 408.47699,99.088776 406.84375,99.4375 C 319.29655,117.30394 252.92794,183.77094 235.1875,271.34375 C 211.14041,390.04829 288.45171,506.57791 407.15625,530.625 C 417.67007,533.06351 428.68831,529.58673 435.90625,521.5625 C 443.12418,513.53826 445.40912,502.22913 441.875,492.03125 C 438.34088,481.83337 429.54167,474.36832 418.90625,472.53125 C 398.13852,468.32413 379.15396,460.31735 362.5,449.40625 C 416.36363,414.3121 484.46513,414.1852 538.9375,449.84375 C 522.2128,460.52648 502.99221,468.25092 481.78125,472.53125 C 465.73008,475.76575 455.35924,491.38634 458.59375,507.4375 C 461.82825,523.48867 477.44884,533.89076 493.5,530.65625 C 581.21553,512.9554 647.78281,446.47447 665.59375,358.78125 C 689.70084,240.08888 612.47361,123.51331 493.78125,99.40625 C 491.85067,98.991414 489.88076,98.773707 487.90625,98.75 C 487.42692,98.744954 486.97435,98.732386 486.5,98.75 z M 318.875,221.6875 C 349.60968,244.49378 384.78864,258.3913 421,263.3125 L 421,286 L 360.71875,286 C 344.65275,286 331.71875,298.934 331.71875,315 C 331.71875,331.066 344.65275,344 360.71875,344 L 421,344 L 421,366.5625 C 384.9887,371.38734 349.95549,385.11822 319.3125,407.625 C 294.80094,372.80665 284.15065,328.31974 293.3125,283.09375 C 297.982,260.0435 306.69782,239.38759 318.875,221.6875 z M 581.625,222.53125 C 606.08141,257.34811 616.6766,301.78726 607.5,346.96875 C 602.84531,369.88632 594.17688,390.43677 582.09375,408.0625 C 550.90473,385.04067 515.37961,371.20459 479,366.46875 L 479,344 L 540.125,344 C 556.191,344 569.125,331.066 569.125,315 C 569.125,298.934 556.191,286 540.125,286 L 479,286 L 479,263.5625 C 515.18624,258.92142 550.52731,245.25672 581.625,222.53125 z"
     id="path2384"
     style="fill:#ffffff;stroke:none" />
</svg>
