<?xml version="1.0" encoding="UTF-8" standalone="no"?>
<!-- Created with Inkscape (http://www.inkscape.org/) -->

<svg
   xmlns:dc="http://purl.org/dc/elements/1.1/"
   xmlns:cc="http://creativecommons.org/ns#"
   xmlns:rdf="http://www.w3.org/1999/02/22-rdf-syntax-ns#"
   xmlns:svg="http://www.w3.org/2000/svg"
   xmlns="http://www.w3.org/2000/svg"
   xmlns:sodipodi="http://sodipodi.sourceforge.net/DTD/sodipodi-0.dtd"
   xmlns:inkscape="http://www.inkscape.org/namespaces/inkscape"
   version="1.1"
   id="svg2"
   width="324"
   height="216"
   viewBox="0 0 324 216"
   sodipodi:docname="Flag of Hamura, Tokyo.svg"
   inkscape:version="0.92.3 (2405546, 2018-03-11)">
  <metadata
     id="metadata8">
    <rdf:RDF>
      <cc:Work
         rdf:about="">
        <dc:format>image/svg+xml</dc:format>
        <dc:type
           rdf:resource="http://purl.org/dc/dcmitype/StillImage" />
        <dc:title></dc:title>
      </cc:Work>
    </rdf:RDF>
  </metadata>
  <defs
     id="defs6" />
  <sodipodi:namedview
     pagecolor="#ffffff"
     bordercolor="#666666"
     borderopacity="1"
     objecttolerance="10"
     gridtolerance="10"
     guidetolerance="10"
     inkscape:pageopacity="0"
     inkscape:pageshadow="2"
     inkscape:window-width="1920"
     inkscape:window-height="1017"
     id="namedview4"
     showgrid="false"
     inkscape:zoom="1.7530864"
     inkscape:cx="130.3173"
     inkscape:cy="98.54893"
     inkscape:window-x="-8"
     inkscape:window-y="-8"
     inkscape:window-maximized="1"
     inkscape:current-layer="svg2" />
  <g
     id="g898"
     transform="translate(-331.98591,-100.77465)">
    <rect
       id="rect884"
       width="324"
       height="215.99994"
       x="331.9859"
       y="100.77465"
       style="fill:#880016;fill-opacity:1" />
    <path
       id="path886"
       d="m 494.84157,143.96478 c -32.88366,0 -60.11262,24.3564 -64.62232,55.99463 3.03325,-4.66036 8.18576,-7.98489 13.80029,-8.08533 0.17075,-0.0101 0.35154,-0.0302 0.52228,-0.0302 1.4865,-0.0502 2.9529,0.20087 4.33896,0.68299 7.19142,-15.79903 23.13105,-26.79707 41.61179,-26.79707 10.6666,0 20.47947,3.66601 28.26347,9.80282 -31.67839,5.3333 -56.9287,29.69975 -63.54762,60.92616 h 18.09907 c 7.00059,-23.29174 28.61501,-40.2659 54.17669,-40.2659 2.09917,0 4.17825,0.12053 6.2272,0.35154 0.51224,1.48649 0.94412,3.00312 1.3057,4.54987 -2.46075,-0.36158 -4.97172,-0.54237 -7.5329,-0.54237 -23.13106,0 -42.7568,15.06582 -49.61677,35.90686 h 19.17377 c 5.64466,-9.7526 16.19073,-16.32129 28.27352,-16.32129 3.39483,0 6.65909,0.52227 9.74256,1.48649 -4.63023,20.32881 -22.82974,35.51516 -44.55465,35.51516 -23.76382,0 -43.29916,-18.15934 -45.48873,-41.35066 5.89576,-0.13056 10.65656,-4.95162 10.65656,-10.88756 0,-6.00624 -4.87128,-10.87752 -10.87752,-10.87752 -0.19083,0 -0.37162,0 -0.56246,0.0101 -0.01,0 -0.01,0 -0.0201,0 -8.13554,0.30131 -14.65402,7.00058 -14.65402,15.21647 0,36.03743 29.24778,65.28521 65.28522,65.28521 36.03744,0 65.28521,-29.24778 65.28521,-65.28521 0,-36.03743 -29.24777,-65.28521 -65.28521,-65.28521 z"
       inkscape:connector-curvature="0"
       style="fill:#ffffff;stroke-width:1" />
  </g>
</svg>
