<?xml version="1.0" encoding="utf-8"?>
<!-- Generator: Adobe Illustrator 17.1.0, SVG Export Plug-In . SVG Version: 6.00 Build 0)  -->
<!DOCTYPE svg PUBLIC "-//W3C//DTD SVG 1.1//EN" "http://www.w3.org/Graphics/SVG/1.1/DTD/svg11.dtd">
<svg version="1.1" id="Layer_2" xmlns="http://www.w3.org/2000/svg" xmlns:xlink="http://www.w3.org/1999/xlink" x="0px" y="0px"
	 viewBox="0 0 324 216" style="enable-background:new 0 0 324 216;" width="324" height="216" xml:space="preserve">
<style type="text/css">
	.st0{fill:#003A6C;}
	.st1{fill:#fff;}
</style>
<rect class="st0" width="324" height="216"/>
<g>
	<path class="st1" d="M162,85.6l-31.1,77.1h18.6l12.5-30.9l12.5,30.9h18.6L162,85.6z"/>
	<path class="st1" d="M152.3,44.6c-31.7,4.8-55.1,32-55.1,64.1c0,29.6,20.1,55.4,48.8,62.8l6.5-16.2c-22.1-4.5-38-24-38-46.6
		c0-22.5,15.8-41.9,37.8-46.5V44.6z M171.7,44.6v17.5c22,4.6,37.8,24,37.8,46.5c0,22.6-15.9,42.1-38,46.6l6.5,16.2
		c28.7-7.3,48.8-33.2,48.8-62.8C226.8,76.6,203.4,49.4,171.7,44.6z"/>
	<path class="st1" d="M152.3,44.9c-21.4,4.6-36.7,23.5-36.7,45.4c0,24.9,19.6,45.3,44.4,46.4l2-4.9l2,4.9
		c24.8-1.1,44.4-21.5,44.5-46.3c0-21.9-15.3-40.8-36.7-45.4v17.9c11.6,4.1,19.4,15.1,19.4,27.5c0,16.1-13.1,29.2-29.2,29.2
		s-29.2-13.1-29.2-29.2c0-12.3,7.8-23.3,19.4-27.5V44.9z"/>
</g>
</svg>
