<svg xmlns="http://www.w3.org/2000/svg" xml:space="preserve" height="216" width="324">
  <path d="M0 0h324v216H0z" fill="#fff"/>
  <path d="M228 108s-12.85-.06-17.47 14.95c-.01.03-.02.05-.02.08-.03.1-.07.2-.1.3-.04.13-.08.26-.12.38-5.01 15.4-17.17 27.56-32.57 32.57-.12.04-.25.08-.38.12-.1.03-.2.07-.3.1-.03.01-.05.02-.08.03C161.94 161.15 162 174 162 174s.06-12.85-14.95-17.47c-.03-.01-.05-.02-.08-.02-.1-.03-.2-.06-.31-.1-.13-.04-.26-.08-.38-.12-15.4-5.01-27.56-17.17-32.57-32.57-.04-.12-.08-.25-.12-.38-.03-.1-.07-.2-.1-.3-.01-.03-.02-.05-.02-.08C108.85 107.94 96 108 96 108s12.85.06 17.47-14.95c.01-.02.01-.04.02-.06.04-.14.09-.27.13-.4.03-.09.06-.19.09-.28 5-15.42 17.18-27.6 32.6-32.6.1-.03.2-.07.31-.1.13-.04.25-.08.38-.12.02-.01.04-.01.06-.02C162.06 54.85 162 42 162 42s-.06 12.85 14.95 17.47c.02.01.04.01.06.02.13.04.25.08.38.12.1.03.21.07.31.1 15.42 5.01 27.6 17.19 32.6 32.6.03.09.06.18.09.28.04.13.09.27.13.4.01.02.01.04.02.06C215.15 108.06 228 108 228 108Zm-66-40.62c-22.43 0-40.62 18.18-40.62 40.62 0 22.43 18.19 40.62 40.62 40.62 22.43 0 40.62-18.19 40.62-40.62 0-22.43-18.18-40.62-40.62-40.62zm30.26 36.69c-.94.66-5.2 3.31-13.71 3.31-1.82 0-3.7-.29-5.62-.76-.1-.03-.21-.05-.31-.08-8.23-2.1-17.08-7.42-24.59-7.42-9.35 0-16.49 12.83-16.49 12.83l.2-.03c.94-.66 5.2-3.31 13.71-3.31 1.82 0 3.7.29 5.62.76.1.03.21.05.31.08 8.23 2.1 17.08 7.42 24.59 7.42 9.35 0 16.49-12.83 16.49-12.83l-.2.03z" fill="#009600"/>
</svg>
