<?xml version="1.0" encoding="UTF-8" standalone="no"?>
<!-- Created with Inkscape (http://www.inkscape.org/) -->

<svg
   xmlns:dc="http://purl.org/dc/elements/1.1/"
   xmlns:cc="http://creativecommons.org/ns#"
   xmlns:rdf="http://www.w3.org/1999/02/22-rdf-syntax-ns#"
   xmlns:svg="http://www.w3.org/2000/svg"
   xmlns="http://www.w3.org/2000/svg"
   xmlns:sodipodi="http://sodipodi.sourceforge.net/DTD/sodipodi-0.dtd"
   xmlns:inkscape="http://www.inkscape.org/namespaces/inkscape"
   version="1.1"
   id="svg2"
   width="324"
   height="216"
   viewBox="0 0 324 216"
   sodipodi:docname="Flag of Hinode, Tokyo.svg"
   inkscape:version="0.92.3 (2405546, 2018-03-11)">
  <metadata
     id="metadata8">
    <rdf:RDF>
      <cc:Work
         rdf:about="">
        <dc:format>image/svg+xml</dc:format>
        <dc:type
           rdf:resource="http://purl.org/dc/dcmitype/StillImage" />
        <dc:title></dc:title>
      </cc:Work>
    </rdf:RDF>
  </metadata>
  <defs
     id="defs6">
    <inkscape:perspective
       sodipodi:type="inkscape:persp3d"
       inkscape:vp_x="0 : 300 : 1"
       inkscape:vp_y="0 : 1000 : 0"
       inkscape:vp_z="900 : 300 : 1"
       inkscape:persp3d-origin="450 : 200 : 1"
       id="perspective833" />
  </defs>
  <sodipodi:namedview
     pagecolor="#ffffff"
     bordercolor="#666666"
     borderopacity="1"
     objecttolerance="10"
     gridtolerance="10"
     guidetolerance="10"
     inkscape:pageopacity="0"
     inkscape:pageshadow="2"
     inkscape:window-width="1920"
     inkscape:window-height="1017"
     id="namedview4"
     showgrid="false"
     inkscape:zoom="1.7530864"
     inkscape:cx="246.34194"
     inkscape:cy="78.911332"
     inkscape:window-x="-8"
     inkscape:window-y="-8"
     inkscape:window-maximized="1"
     inkscape:current-layer="svg2" />
  <g
     id="g1304"
     transform="translate(-127.74155,-38.618166)">
    <path
       id="path1298"
       d="m 127.74157,38.618253 h 324 V 254.61825 h -324 z"
       inkscape:connector-curvature="0"
       style="fill:#660066;fill-opacity:1" />
    <g
       id="g1302"
       transform="matrix(0.62915032,0,0,0.6528521,-52.754881,75.344222)"
       style="fill:#ffffff;stroke-width:1.01421201">
      <path
         id="path1300"
         d="m 660.42,92.96 -9.23,-30.81 c -32.68,25.28 -52.68,36.88 -103.3,14.23 v 34.24 c 19.88,8.73 42.59,10.29 63.96,5.85 -4.78,32.57 -32.84,57.59 -66.73,57.59 -33.76,0 -61.72,-24.8 -66.66,-57.19 20.76,3.94 42.7,2.18 61.92,-6.25 V 76.38 C 489.78,99.03 469.75,87.43 437.07,62.15 l -9.2,30.81 c 5.17,4.49 10.88,8.42 16.95,11.82 -0.05,1.26 -0.09,2.52 -0.09,3.81 0,55.24 44.75,100 100,100 55.22,0 99.99,-44.77 99.99,-100 0,-1.51 -0.05,-2.99 -0.12,-4.45 5.65,-3.24 10.96,-6.96 15.82,-11.17 M 545.12,39.16 c 28.14,0 52.25,17.23 62.37,41.73 10.8,-1.5 18.81,-6.99 28.35,-13.49 -15.7,-34.67 -50.58,-58.81 -91.11,-58.81 -40.77,0 -75.83,24.43 -91.39,59.42 7.61,6.38 19.01,12.77 29.26,13.27 9.99,-24.69 34.22,-42.12 62.51,-42.12"
         inkscape:connector-curvature="0"
         style="fill:#ffffff;stroke-width:1.01421201" />
    </g>
  </g>
</svg>
