<?xml version="1.0" encoding="UTF-8" standalone="no"?>
<!-- Created with Inkscape (http://www.inkscape.org/) -->

<svg
   xmlns:dc="http://purl.org/dc/elements/1.1/"
   xmlns:cc="http://creativecommons.org/ns#"
   xmlns:rdf="http://www.w3.org/1999/02/22-rdf-syntax-ns#"
   xmlns:svg="http://www.w3.org/2000/svg"
   xmlns="http://www.w3.org/2000/svg"
   xmlns:sodipodi="http://sodipodi.sourceforge.net/DTD/sodipodi-0.dtd"
   xmlns:inkscape="http://www.inkscape.org/namespaces/inkscape"
   version="1.1"
   id="svg2"
   width="324"
   height="216"
   viewBox="0 0 324 216"
   sodipodi:docname="Flag of Hinohara, Tokyo.svg"
   inkscape:version="0.92.3 (2405546, 2018-03-11)">
  <metadata
     id="metadata8">
    <rdf:RDF>
      <cc:Work
         rdf:about="">
        <dc:format>image/svg+xml</dc:format>
        <dc:type
           rdf:resource="http://purl.org/dc/dcmitype/StillImage" />
        <dc:title></dc:title>
      </cc:Work>
    </rdf:RDF>
  </metadata>
  <defs
     id="defs6">
    <inkscape:perspective
       sodipodi:type="inkscape:persp3d"
       inkscape:vp_x="0 : 300 : 1"
       inkscape:vp_y="0 : 1000 : 0"
       inkscape:vp_z="900 : 300 : 1"
       inkscape:persp3d-origin="450 : 200 : 1"
       id="perspective833" />
  </defs>
  <sodipodi:namedview
     pagecolor="#ffffff"
     bordercolor="#666666"
     borderopacity="1"
     objecttolerance="10"
     gridtolerance="10"
     guidetolerance="10"
     inkscape:pageopacity="0"
     inkscape:pageshadow="2"
     inkscape:window-width="1920"
     inkscape:window-height="1017"
     id="namedview4"
     showgrid="false"
     inkscape:zoom="0.87654321"
     inkscape:cx="246.34194"
     inkscape:cy="78.911332"
     inkscape:window-x="-8"
     inkscape:window-y="-8"
     inkscape:window-maximized="1"
     inkscape:current-layer="svg2" />
  <g
     id="g1274"
     transform="translate(248.10831,-529.69608)">
    <rect
       id="rect1270"
       width="324"
       height="215.99997"
       x="-248.10829"
       y="529.69617"
       style="fill:#005831;fill-opacity:1" />
    <path
       id="path1272"
       d="m -76.000887,577.46816 c 22.186521,4.69082 38.828936,24.28776 38.828936,47.76191 0,26.96965 -21.964353,48.81658 -49.078968,48.81658 -27.114621,0 -49.109271,-21.84693 -49.109271,-48.81658 0,-23.47415 16.67272,-43.08114 38.879437,-47.76191 1.282516,-0.2712 2.615525,-0.34152 3.90814,-0.66294 6.83672,-1.70758 2.918482,-3.20422 0.05049,-3.20422 h -96.017047 l 47.91764,29.49084 c -6.50347,10.02448 -10.29043,21.96747 -10.29043,34.79438 0,35.50753 28.96265,64.28521 64.661038,64.28521 35.698385,0 64.630739,-28.77768 64.630739,-64.28521 0,-12.80682 -3.776858,-24.73976 -10.260129,-34.76424 L 16.037322,573.601 h -95.865564 c -2.938679,0 -6.846819,1.52678 0,3.19418 1.898528,0.3616 2.867989,0.4721 3.827352,0.67298 z"
       inkscape:connector-curvature="0"
       style="fill:#ffffff;stroke-width:1" />
  </g>
</svg>
