<?xml version="1.0" encoding="UTF-8" standalone="no"?>
<!-- Created with Inkscape (http://www.inkscape.org/) -->
<svg
   xmlns:svg="http://www.w3.org/2000/svg"
   xmlns="http://www.w3.org/2000/svg"
   version="1.0"
   width="900"
   height="600"
   id="svg2">
  <defs
     id="defs5" />
  <rect
     width="900"
     height="600"
     x="0"
     y="0"
     id="rect2484"
     style="fill:#5a004a;stroke:none" />
  <path
     d="M 445,99.25 L 382.4375,208.8125 C 395.93337,198.79514 411.72313,191.70002 428.875,188.46875 L 445,160.25 L 445,99.25 z M 455,99.25 L 455,160.25 L 471.125,188.46875 C 488.27687,191.70002 504.06663,198.79514 517.5625,208.8125 L 455,99.25 z M 450,196.5 C 392.868,196.5 346.5,242.868 346.5,300 C 346.5,323.01647 354.02691,344.27424 366.75,361.46875 C 376.09651,357.39059 384.31851,351.25633 390.875,343.625 C 381.84447,331.41972 376.5,316.33906 376.5,300 C 376.5,281.3089 383.49519,264.25557 395,251.28125 C 406.48911,264.25445 413.46875,281.32345 413.46875,300 C 413.46874,315.419 408.7166,329.73512 400.59375,341.5625 C 391.79076,353.39915 382.8287,360.11751 371.03125,366.84375 C 377.88458,374.93061 385.96578,381.94983 394.96875,387.625 C 404.33941,381.72918 412.71815,374.36842 419.75,365.875 C 421.05895,364.31719 422.28249,362.69145 423.5,361.0625 C 436.04453,343.94004 443.46875,322.84086 443.46875,300 C 443.46874,274.59339 434.30383,251.3266 419.09375,233.3125 C 428.49441,228.9434 438.95688,226.5 450,226.5 C 458.54126,226.5 466.7225,227.96681 474.34375,230.65625 C 481.21365,222.14876 489.36809,214.72016 498.4375,208.5625 C 483.97777,200.88091 467.50475,196.5 450,196.5 z M 505.21875,212.46875 C 494.88422,218.94473 485.93578,227.34991 478.40625,236.90625 C 464.93685,254.37352 456.9375,276.24941 456.9375,300 C 456.9375,304.98757 457.28509,309.8882 457.96875,314.6875 L 487.5625,309.34375 C 487.17214,306.27714 486.9375,303.17201 486.9375,300 C 486.93751,281.42972 493.84376,264.47229 505.21875,251.53125 C 516.59243,264.47452 523.5,281.42849 523.5,300 C 523.5,318.57999 516.60172,335.5545 505.21875,348.5 C 497.25964,339.44547 491.49877,328.41586 488.75,316.25 L 459.1875,321.59375 C 462.77322,338.45679 470.48226,353.79572 481.1875,366.53125 C 471.71231,370.98564 461.15711,373.5 450,373.5 C 441.40037,373.5 433.16817,372.00024 425.5,369.28125 C 418.6044,377.78561 410.47386,385.23814 401.375,391.375 C 415.87095,399.11888 432.42512,403.5 450,403.5 C 507.132,403.5 553.5,357.132 553.5,300 C 553.5,263.1642 534.22653,230.81264 505.21875,212.46875 z M 359,232.1875 L 249,295 L 310,295 L 338.5,278.71875 C 341.76489,261.52195 348.91551,245.69688 359,232.1875 z M 541.1875,232.4375 C 551.20486,245.93337 558.29998,261.72313 561.53125,278.875 L 589.75,295 L 650.75,295 L 541.1875,232.4375 z M 249,305 L 359,367.8125 C 348.91551,354.30312 341.76489,338.47805 338.5,321.28125 L 310,305 L 249,305 z M 589.75,305 L 561.53125,321.125 C 558.29998,338.27687 551.20486,354.06663 541.1875,367.5625 L 650.75,305 L 589.75,305 z M 382.1875,391 L 445,501 L 445,440 L 428.71875,411.5 C 411.52195,408.23511 395.69688,401.08449 382.1875,391 z M 517.8125,391 C 504.30312,401.08449 488.47805,408.23511 471.28125,411.5 L 455,440 L 455,501 L 517.8125,391 z"
     id="path2464"
     style="fill:#ffffff;stroke:none" />
</svg>
