<?xml version="1.0" encoding="UTF-8" standalone="no"?>
<!-- Created with Inkscape (http://www.inkscape.org/) -->
<svg
   xmlns:dc="http://purl.org/dc/elements/1.1/"
   xmlns:cc="http://web.resource.org/cc/"
   xmlns:rdf="http://www.w3.org/1999/02/22-rdf-syntax-ns#"
   xmlns:svg="http://www.w3.org/2000/svg"
   xmlns="http://www.w3.org/2000/svg"
   xmlns:sodipodi="http://sodipodi.sourceforge.net/DTD/sodipodi-0.dtd"
   xmlns:inkscape="http://www.inkscape.org/namespaces/inkscape"
   width="600"
   height="400"
   id="svg2"
   sodipodi:version="0.32"
   inkscape:version="0.45.1"
   version="1.0"
   inkscape:output_extension="org.inkscape.output.svg.inkscape">
  <defs
     id="defs4" />
  <metadata
     id="metadata7">
    <rdf:RDF>
      <cc:Work
         rdf:about="">
        <dc:format>image/svg+xml</dc:format>
        <dc:type
           rdf:resource="http://purl.org/dc/dcmitype/StillImage" />
      </cc:Work>
    </rdf:RDF>
  </metadata>
  <g
     inkscape:label="Layer 1"
     inkscape:groupmode="layer"
     id="layer1">
    <rect
       style="opacity:1;fill:#ffffff;fill-opacity:1;stroke-width:0;stroke-miterlimit:4;stroke-dasharray:none"
       id="rect2158"
       width="600"
       height="400"
       x="0"
       y="0" />
    <path
       style="opacity:1;fill:#282525;fill-opacity:1;stroke:none;stroke-width:0.1;stroke-linecap:round;stroke-linejoin:round;stroke-miterlimit:4;stroke-dasharray:none;stroke-opacity:0.37654323"
       d="M 295.28042,103.64673 C 253.95154,105.36572 219.11113,132.20607 205.54481,169.27659 L 154.84496,169.27659 L 216.54792,259.5954 L 216.70344,259.82869 C 233.97031,285.22698 262.60736,302.28646 295.28042,303.64673 L 295.28042,238.36679 C 277.97642,236.27413 264.56502,221.51223 264.56502,203.64673 C 264.56502,185.78124 277.97641,171.01933 295.28042,168.92667 L 295.28042,103.64673 z M 303.71744,103.64673 L 303.71744,168.92667 C 321.03993,171.00219 334.47171,185.76805 334.47171,203.64673 C 334.47171,221.52542 321.03993,236.29127 303.71744,238.36679 L 303.71744,303.64673 C 336.50078,302.29043 365.2342,285.12864 382.48882,259.5954 L 444.19179,169.27659 L 393.49193,169.27659 C 379.92134,132.19438 345.06343,105.3504 303.71744,103.64673 z "
       id="path2148" />
  </g>
</svg>
