<?xml version="1.0" encoding="UTF-8" standalone="no"?>
<!-- Generator: Adobe Illustrator 18.0.0, SVG Export Plug-In . SVG Version: 6.00 Build 0)  -->

<svg
   xmlns:osb="http://www.openswatchbook.org/uri/2009/osb"
   xmlns:dc="http://purl.org/dc/elements/1.1/"
   xmlns:cc="http://creativecommons.org/ns#"
   xmlns:rdf="http://www.w3.org/1999/02/22-rdf-syntax-ns#"
   xmlns:svg="http://www.w3.org/2000/svg"
   xmlns="http://www.w3.org/2000/svg"
   xmlns:sodipodi="http://sodipodi.sourceforge.net/DTD/sodipodi-0.dtd"
   xmlns:inkscape="http://www.inkscape.org/namespaces/inkscape"
   version="1.1"
   x="0px"
   y="0px"
   viewBox="0 0 324 216"
   style="enable-background:new 0 0 324 216;"
   width="324"
   height="216"
   xml:space="preserve"
   id="svg34"
   sodipodi:docname="Flag of Kiyose Tokyo.svg"
   inkscape:version="0.92.3 (2405546, 2018-03-11)"><metadata
   id="metadata40"><rdf:RDF><cc:Work
       rdf:about=""><dc:format>image/svg+xml</dc:format><dc:type
         rdf:resource="http://purl.org/dc/dcmitype/StillImage" /><dc:title></dc:title></cc:Work></rdf:RDF></metadata><defs
   id="defs38"><style
     id="style1023"
     type="text/css">
   <![CDATA[
    .fil1 {fill:#FEFEFE}
    .fil0 {fill:#7092BF}
   ]]>
  </style><style
     id="style1066"
     type="text/css">
   <![CDATA[
    .fil0 {fill:#400000}
    .fil1 {fill:white}
   ]]>
  </style><style
     id="style2-3"
     type="text/css">
   <![CDATA[
    .fil1 {fill:#FEFEFE}
    .fil0 {fill:#018821}
   ]]>
  </style><path
     id="e2FACu9Ylf"
     d="M0 0L1000 0L1000 690L0 690L0 0Z" /><path
     id="a1saAh7sU9"
     d="M192.35 456.13C192.35 456.93 192.36 457.72 192.37 458.51C206.56 404.56 242.13 342.98 290.62 288.46C379.67 188.44 495.88 146.55 550.18 194.89C574.97 217.06 583.41 255.72 573.8 303.1C617.48 220.39 621.71 147.44 584.76 114.37C530.46 66.03 406.01 117.19 306.78 228.64C239.29 304.43 195.68 391.15 192.35 456.13Z" /><path
     id="a1Tbbvve3K"
     d="M292.89 327.57C227.05 401.52 181.99 483.9 174.69 543.68C167.39 603.46 198.95 631.56 257.48 617.39C269.77 614.36 283.01 609.52 296.94 602.97C293.49 603.91 290.12 604.68 286.83 605.26C246.22 612.19 222.55 591.11 224.74 549.98C226.93 508.84 254.63 453.89 297.43 405.83C352.39 344.17 420.82 306.71 467.93 312.49C444.26 370.44 444.01 419.02 467.23 445.21C509.06 491.95 614.03 455.42 706.55 361.93C706.61 361.98 707.06 362.38 707.11 362.43C772.95 288.49 818.01 206.11 825.31 146.33C832.61 86.55 801.05 58.45 742.52 72.62C730.23 75.65 716.99 80.49 703.06 87.04C706.51 86.1 709.88 85.33 713.17 84.75C753.78 77.82 777.45 98.89 775.26 140.03C773.07 181.17 745.37 236.12 702.57 284.18C647.61 345.84 579.18 383.3 532.07 377.52C555.74 319.57 555.99 270.98 532.77 244.8C490.94 198.06 385.97 234.59 293.45 328.07C293.34 327.97 293 327.67 292.89 327.57Z" /><path
     id="a15x9jlPKO"
     d="M807.64 233.9C807.64 233.11 807.63 232.31 807.62 231.52C793.43 285.48 757.85 347.06 709.37 401.57C620.32 501.59 504.11 543.49 449.81 495.14C425.02 472.97 416.58 434.31 426.19 386.94C382.51 469.65 378.28 542.6 415.23 575.66C469.52 624 593.98 572.84 693.21 461.39C760.69 385.6 804.31 298.88 807.64 233.9Z" /><style
     id="style1747"
     type="text/css">
   <![CDATA[
    .fil1 {fill:#FEFEFE}
    .fil0 {fill:#A349A3}
   ]]>
  </style><inkscape:path-effect
     cusp_linecap_type="round"
     end_linecap_type="zerowidth"
     miter_limit="4"
     linejoin_type="round"
     start_linecap_type="zerowidth"
     interpolator_beta="0.2"
     interpolator_type="CubicBezierJohan"
     sort_points="true"
     offset_points="0,0.5"
     is_visible="true"
     id="path-effect4283"
     effect="powerstroke" /><inkscape:path-effect
     cusp_linecap_type="round"
     end_linecap_type="zerowidth"
     miter_limit="4"
     linejoin_type="round"
     start_linecap_type="zerowidth"
     interpolator_beta="0.2"
     interpolator_type="CubicBezierJohan"
     sort_points="true"
     offset_points="0,0.5"
     is_visible="true"
     id="path-effect4275"
     effect="powerstroke" /><linearGradient
     osb:paint="solid"
     id="linearGradient5904"><stop
       id="stop5906"
       offset="0"
       style="stop-color:#00b248;stop-opacity:1;" /></linearGradient><inkscape:path-effect
     cusp_linecap_type="round"
     end_linecap_type="zerowidth"
     miter_limit="4"
     linejoin_type="round"
     start_linecap_type="zerowidth"
     interpolator_beta="0.2"
     interpolator_type="Linear"
     sort_points="true"
     offset_points="0.035690123,1.3014427"
     is_visible="true"
     id="path-effect5890"
     effect="powerstroke" /><inkscape:path-effect
     cusp_linecap_type="round"
     end_linecap_type="zerowidth"
     miter_limit="4"
     linejoin_type="round"
     start_linecap_type="zerowidth"
     interpolator_beta="0.2"
     interpolator_type="Linear"
     sort_points="true"
     offset_points="0,0.5"
     is_visible="true"
     id="path-effect5884"
     effect="powerstroke" /><inkscape:path-effect
     fuse_tolerance="0"
     vertical_pattern="false"
     prop_units="false"
     tang_offset="0"
     normal_offset="0"
     spacing="0"
     scale_y_rel="false"
     prop_scale="1"
     copytype="single_stretched"
     pattern="m -898.145,66.520153 c 0,-2.76 2.24,-5 5,-5 2.76,0 5,2.24 5,5 0,2.76 -2.24,5 -5,5 -2.76,0 -5,-2.24 -5,-5 z"
     is_visible="true"
     id="path-effect4225"
     effect="skeletal" /></defs><sodipodi:namedview
   pagecolor="#ffffff"
   bordercolor="#666666"
   borderopacity="1"
   objecttolerance="10"
   gridtolerance="10"
   guidetolerance="10"
   inkscape:pageopacity="0"
   inkscape:pageshadow="2"
   inkscape:window-width="1920"
   inkscape:window-height="1017"
   id="namedview36"
   showgrid="false"
   inkscape:zoom="1.654952"
   inkscape:cx="206.2764"
   inkscape:cy="124.30456"
   inkscape:window-x="-8"
   inkscape:window-y="-8"
   inkscape:window-maximized="1"
   inkscape:current-layer="svg34" />
<style
   type="text/css"
   id="style2">
	.st0{fill:#606;}
	.st1{fill:#fff;}
</style>


<style
   id="style847"
   type="text/css">
	.st0{fill:#000040;}
	.st1{fill:#fff;}
</style><style
   id="style865"
   type="text/css">
	.st0{fill:#3F47CD;}
	.st1{fill:#fff;}
	.st2{fill:none;stroke:#fff;stroke-width:10;}
</style><style
   id="style914"
   type="text/css">
	.st0{fill:#004101;}
	.st1{fill:#fff;}
</style><style
   id="style1245"
   type="text/css">
	.st0{fill:#400040;}
	.st1{fill:#fff;}
</style><style
   id="style1328"
   type="text/css">
	.st0{fill:#fff;}
	.st1{fill:#F35911;}
	.st2{fill:#008143;}
	.st3{fill:#0066AC;}
</style><style
   id="style1432"
   type="text/css">
	.st0{fill:#004080;}
	.st1{fill:#fff;}
</style><style
   id="style1470"
   type="text/css">
	.st0{fill:#23B14D;}
	.st1{fill:#fff;}
	.st2{fill:#F01630;}
</style><style
   id="style1541"
   type="text/css">
	.st0{fill:#3F47CD;}
	.st1{fill:#fff;}
</style><style
   id="style1614"
   type="text/css">
	.st0{fill:#800080;}
	.st1{fill:none;stroke:#fff;stroke-width:3;}
	.st2{fill:#fff;}
</style><style
   id="style1691"
   type="text/css">
	.st0{fill:#880015;}
	.st1{fill:#FFFFFF;}
</style><style
   id="style894"
   type="text/css">
	.st0{fill:#fff;}
	.st1{fill:#447550;}
	.st2{fill:#FCB931;stroke:#DBA12B;stroke-width:0.5;}
</style><g
   id="g1736"
   transform="matrix(0.43199996,0,0,0.43200008,161.99995,108.00003)"
   style="stroke-width:2.31481481"><polygon
     id="polygon1713"
     style="fill:#660066;stroke:none;stroke-width:2.31481481"
     points="375,250 -375,250 -375,-250 375,-250 "
     transform="translate(-6.4172863e-6,4.4167046e-6)" /><g
     id="g1721"
     style="fill:#ffffff;stroke:none;stroke-width:2.31481481"
     transform="translate(0,-3.9561775)"><path
       id="path1715"
       d="m 12,-153.5 v 36.125 A 118,118 0 0 1 118,0 118,118 0 0 1 0,118 118,118 0 0 1 -118,0 118,118 0 0 1 -12,-117.28125 V -153.375 A 154,154 0 0 0 -154,0 154,154 0 0 0 0,154 154,154 0 0 0 154,0 154,154 0 0 0 12,-153.5 Z"
       inkscape:connector-curvature="0"
       style="stroke-width:2.31481481" /><path
       id="path1717"
       d="M -12,-107.28125 A 108,108 0 0 0 -108,0 108,108 0 0 0 0,108 108,108 0 0 0 108,0 108,108 0 0 0 12,-107.1875 v 36.28125 A 72,72 0 0 1 72,0 72,72 0 0 1 0,72 72,72 0 0 1 -72,0 72,72 0 0 1 -12,-70.96875 Z"
       inkscape:connector-curvature="0"
       style="stroke-width:2.31481481" /><path
       id="path1719"
       d="M -21,0 H 21 V 168 H -21 Z"
       inkscape:connector-curvature="0"
       style="stroke-width:2.31481481" /></g></g></svg>