<?xml version="1.0" encoding="UTF-8" standalone="no"?>
<!-- Created with Inkscape (http://www.inkscape.org/) -->
<svg
   xmlns:svg="http://www.w3.org/2000/svg"
   xmlns="http://www.w3.org/2000/svg"
   version="1.0"
   width="900"
   height="600"
   id="svg2">
  <defs
     id="defs5" />
  <rect
     width="900"
     height="600"
     x="0"
     y="0"
     id="rect2411"
     style="fill:#ffffff;stroke:none" />
  <path
     d="M 450,119.53125 C 375.27022,119.53125 312.15636,169.6026 292.40625,238 L 356,238 C 372.84015,203.08232 408.4526,179.125 450,179.125 C 491.54363,179.125 527.47742,203.08748 544.5,238 L 607.59375,238 C 587.84364,169.6026 524.72978,119.53125 450,119.53125 z M 450,193 L 402.5,377.28125 C 382.10566,366.80744 365.64506,349.80133 355.78125,329 L 292.40625,329 C 306.30209,377.18981 341.72268,416.3049 387.5625,435.21875 L 376,480 L 524,480 L 512.4375,435.21875 C 558.27732,416.3049 593.69791,377.18981 607.59375,329 L 544.75,329 C 534.76347,349.83667 518.09124,366.87451 497.53125,377.34375 L 450,193 z M 204,247 L 265,320 L 403.96875,320 L 422.8125,247 L 204,247 z M 477.1875,247 L 496.03125,320 L 635,320 L 696,247 L 477.1875,247 z"
     id="path2386"
     style="fill:#005831;stroke:none" />
</svg>
