<svg xmlns="http://www.w3.org/2000/svg" viewBox="-97.5 -65 195 130" width="900" height="600" fill="#fff">
<path d="M-97.5-65h195v130h-195z"/>
<path d="M29 0A29 29 0 0 0-29 0 29 29 0 0 0 29 0m4 0A33 33 0 0 1-33 0 33 33 0 0 1 33 0m2 0A35 35 0 0 0-35 0 35 35 0 0 0 35 0m4 0A39 39 0 0 1-39 0 39 39 0 0 1 39 0zM31-5.2h6V5.2h-6zM-21 0A42.953463 42.953463 0 0 0 0-21 42.953463 42.953463 0 0 0 21 0 42.953463 42.953463 0 0 0 14.538462 3.692308 49.203658 49.203658 0 0 1 0-9 49.203658 49.203658 0 0 1-14.538462 3.692308 42.953463 42.953463 0 0 0-21 0M-13.20783 4.652308A50.702663 50.702663 0 0 0 0-6.6 50.702663 50.702663 0 0 0 13.20783 4.652308 42.953463 42.953463 0 0 0 0 21 42.953463 42.953463 0 0 0-5.588653 12.005891L2.402971 5.058878 1.090959 3.549582-6.881431 10.479875A42.953463 42.953463 0 0 0-13.20783 4.652308z"  fill="#be2900"/>
<path d="M-45-1.2h20v2.4H-50zm70 0h20v2.4h-20z"/>
</svg>