<?xml version="1.0" encoding="UTF-8" standalone="no"?>
<!-- Created with Inkscape (http://www.inkscape.org/) -->

<svg
   xmlns:dc="http://purl.org/dc/elements/1.1/"
   xmlns:cc="http://creativecommons.org/ns#"
   xmlns:rdf="http://www.w3.org/1999/02/22-rdf-syntax-ns#"
   xmlns:svg="http://www.w3.org/2000/svg"
   xmlns="http://www.w3.org/2000/svg"
   xmlns:sodipodi="http://sodipodi.sourceforge.net/DTD/sodipodi-0.dtd"
   xmlns:inkscape="http://www.inkscape.org/namespaces/inkscape"
   version="1.1"
   id="svg2"
   width="324"
   height="216"
   viewBox="0 0 324 216"
   sodipodi:docname="Flag of Komae, Tokyo.svg"
   inkscape:version="0.92.3 (2405546, 2018-03-11)">
  <metadata
     id="metadata8">
    <rdf:RDF>
      <cc:Work
         rdf:about="">
        <dc:format>image/svg+xml</dc:format>
        <dc:type
           rdf:resource="http://purl.org/dc/dcmitype/StillImage" />
        <dc:title></dc:title>
      </cc:Work>
    </rdf:RDF>
  </metadata>
  <defs
     id="defs6" />
  <sodipodi:namedview
     pagecolor="#ffffff"
     bordercolor="#666666"
     borderopacity="1"
     objecttolerance="10"
     gridtolerance="10"
     guidetolerance="10"
     inkscape:pageopacity="0"
     inkscape:pageshadow="2"
     inkscape:window-width="1920"
     inkscape:window-height="1017"
     id="namedview4"
     showgrid="false"
     inkscape:zoom="1.7530864"
     inkscape:cx="19.964789"
     inkscape:cy="108"
     inkscape:window-x="-8"
     inkscape:window-y="-8"
     inkscape:window-maximized="1"
     inkscape:current-layer="svg2" />
  <g
     id="g832"
     transform="translate(-412,-156.07042)">
    <path
       id="path828"
       d="m 412,156.07042 h 324 v 216 H 412 Z"
       inkscape:connector-curvature="0"
       style="fill:#660066;fill-opacity:1" />
    <path
       id="path830"
       d="m 539.20811,199.6831 -21.27408,36.25821 h 66.00173 c 5.08225,0 9.20977,6.31527 9.20977,14.10252 0,9.78155 -5.18833,18.4235 -13.04798,23.45673 h 44.13938 c 7.82107,-7.81575 12.66223,-18.55645 12.66223,-30.44626 0,-24.01702 -19.65394,-43.3712 -44.04295,-43.3712 h -53.63846 z m -13.17335,55.32748 c -7.82107,7.81574 -12.66222,18.55645 -12.66222,30.44626 0,24.01702 19.65393,43.37119 44.04294,43.37119 h 53.63847 l 21.27408,-36.2582 H 566.3263 c -5.08225,0 -9.20977,-6.31527 -9.20977,-14.10253 0,-9.78155 5.18833,-18.42349 13.04797,-23.45672 h -44.13938 z"
       inkscape:connector-curvature="0"
       style="fill:#ffffff;stroke-width:1" />
  </g>
</svg>
