<?xml version="1.0" encoding="UTF-8" standalone="no"?>
<!-- Created with Inkscape (http://www.inkscape.org/) -->
<svg
   xmlns:dc="http://purl.org/dc/elements/1.1/"
   xmlns:cc="http://web.resource.org/cc/"
   xmlns:rdf="http://www.w3.org/1999/02/22-rdf-syntax-ns#"
   xmlns:svg="http://www.w3.org/2000/svg"
   xmlns="http://www.w3.org/2000/svg"
   xmlns:sodipodi="http://sodipodi.sourceforge.net/DTD/sodipodi-0.dtd"
   xmlns:inkscape="http://www.inkscape.org/namespaces/inkscape"
   width="600"
   height="400"
   id="svg2"
   sodipodi:version="0.32"
   inkscape:version="0.45.1"
   version="1.0"
   inkscape:output_extension="org.inkscape.output.svg.inkscape">
  <defs
     id="defs4" />
  <metadata
     id="metadata7">
    <rdf:RDF>
      <cc:Work
         rdf:about="">
        <dc:format>image/svg+xml</dc:format>
        <dc:type
           rdf:resource="http://purl.org/dc/dcmitype/StillImage" />
      </cc:Work>
    </rdf:RDF>
  </metadata>
  <g
     inkscape:label="Layer 1"
     inkscape:groupmode="layer"
     id="layer1">
    <rect
       style="opacity:1;fill:#13075d;fill-opacity:1;stroke-width:0;stroke-miterlimit:4;stroke-dasharray:none"
       id="rect2162"
       width="600"
       height="400"
       x="0"
       y="0" />
    <path
       style="opacity:1;fill:#ffffff;fill-opacity:1;stroke:none;stroke-width:5;stroke-linecap:round;stroke-linejoin:round;stroke-miterlimit:4;stroke-dasharray:none;stroke-opacity:1"
       d="M 299.98565,61.45216 L 294.07106,66.16085 L 294.07106,80.40179 C 254.34493,82.3324 219.70784,103.66058 199.38031,135.09733 L 187.03434,127.97686 L 180,130.73317 L 181.11975,138.19818 L 193.43701,145.31864 C 185.00573,161.70867 180.25841,180.2938 180.25841,199.98547 C 180.25841,219.69027 185.02392,238.27941 193.46573,254.68101 L 181.14846,261.80148 L 180.02871,269.2952 L 187.06304,272.05151 L 199.40902,264.93104 C 219.74616,296.35402 254.38427,317.67617 294.09977,319.59787 L 294.09977,333.8388 L 300.01435,338.5475 L 305.92894,333.8388 L 305.92894,319.59787 C 345.63657,317.65777 380.28739,296.32976 400.61969,264.90232 L 412.96566,272.02279 L 420,269.26648 L 418.88025,261.77277 L 406.53427,254.6523 C 414.96866,238.25906 419.74159,219.67655 419.74159,199.98547 C 419.74159,180.2938 414.96914,161.70867 406.53427,145.31864 L 418.85154,138.19818 L 419.97129,130.70446 L 412.93695,127.94815 L 400.61969,135.06862 C 380.28251,103.64171 345.61981,82.33203 305.90023,80.40179 L 305.90023,66.16085 L 299.98565,61.45216 z M 299.98565,90.04888 C 360.6779,90.04888 409.95095,139.29323 409.95095,199.98547 C 409.95095,260.67772 360.6779,309.95078 299.98565,309.95078 C 239.29339,309.95078 190.04905,260.67772 190.04905,199.98547 C 190.04905,139.29321 239.29339,90.04888 299.98565,90.04888 z M 299.98565,94.47046 C 241.72588,94.47046 194.44192,141.7257 194.44192,199.98547 C 194.44192,258.24524 241.72588,305.52921 299.98565,305.52919 C 358.24541,305.52919 405.52936,258.24524 405.52937,199.98547 C 405.52937,141.7257 358.24542,94.47045 299.98565,94.47046 z M 299.98565,96.96837 C 356.85542,96.96837 403.03146,143.11569 403.03146,199.98547 C 403.03147,256.85525 356.85542,303.03129 299.98565,303.03129 C 243.11587,303.0313 196.96854,256.85525 196.96854,199.98547 C 196.96854,143.11569 243.11587,96.96837 299.98565,96.96837 z M 269.6088,108.02232 L 269.6088,117.1526 L 294.18591,117.1526 L 294.18591,108.02232 L 269.6088,108.02232 z M 302.65582,108.02232 L 302.65582,117.1526 L 310.69506,117.1526 L 310.69506,137.62395 L 302.65582,137.62395 L 302.65582,146.75423 L 330.3912,146.75423 L 330.3912,137.62395 L 318.56203,137.62395 L 318.56203,117.1526 L 330.3912,117.1526 L 330.3912,108.02232 L 302.65582,108.02232 z M 269.6088,122.80877 L 269.6088,131.93905 L 294.18591,131.93905 L 294.18591,122.80877 L 269.6088,122.80877 z M 269.6088,137.62395 L 269.6088,146.75423 L 294.18591,146.75423 L 294.18591,137.62395 L 269.6088,137.62395 z M 295.10468,153.04206 L 295.10468,155.25285 L 269.6088,155.25285 L 269.6088,158.38241 L 295.10468,158.38241 L 295.10468,161.85651 L 277.82032,161.85651 L 269.6088,161.85651 L 269.3504,161.85651 L 268.02967,162.94755 L 268.02967,166.56521 L 268.02967,174.11635 L 268.02967,177.76272 L 269.3504,178.85376 L 277.82032,178.85376 L 295.10468,178.85376 L 295.10468,180.74872 L 287.23771,180.74872 L 276.21247,180.74872 L 268.02967,187.46723 L 268.02967,193.20954 L 268.02967,197.43014 L 280.34693,197.43014 L 280.34693,193.20954 L 280.34693,186.49104 L 280.34693,184.82577 L 287.23771,184.82577 L 295.10468,184.82577 L 295.10468,197.74597 L 304.89532,197.74597 L 304.89532,184.82577 L 312.76229,184.82577 L 319.65307,184.82577 L 319.65307,186.49104 L 319.65307,193.20954 L 319.65307,197.43014 L 331.97033,197.43014 L 331.97033,193.20954 L 331.97033,187.46723 L 323.78753,180.74872 L 312.76229,180.74872 L 304.89532,180.74872 L 304.89532,178.85376 L 330.3912,178.85376 L 330.6496,178.85376 L 331.97033,177.76272 L 331.97033,174.11635 L 331.97033,166.56521 L 331.97033,162.94755 L 330.6496,161.85651 L 330.3912,161.85651 L 322.17968,161.85651 L 304.89532,161.85651 L 304.89532,158.38241 L 330.3912,158.38241 L 330.3912,155.25285 L 304.89532,155.25285 L 304.89532,153.04206 L 295.10468,153.04206 z M 277.82032,164.98607 L 295.10468,164.98607 L 295.10468,168.776 L 277.82032,168.776 L 277.82032,166.56521 L 277.82032,164.98607 z M 304.89532,164.98607 L 322.17968,164.98607 L 322.17968,166.56521 L 322.17968,168.776 L 304.89532,168.776 L 304.89532,164.98607 z M 277.82032,171.93427 L 295.10468,171.93427 L 295.10468,175.69549 L 277.82032,175.69549 L 277.82032,174.11635 L 277.82032,171.93427 z M 304.89532,171.93427 L 322.17968,171.93427 L 322.17968,174.11635 L 322.17968,175.69549 L 304.89532,175.69549 L 304.89532,171.93427 z "
       id="path2148" />
  </g>
</svg>
