<svg xmlns="http://www.w3.org/2000/svg" xmlns:xlink="http://www.w3.org/1999/xlink" width="900" height="600">
<path d="M0 0h900v600H0z" fill="#7d57a4"/>
<g transform="translate(450 300) scale(2) rotate(16)" fill="#fff">
<g id="a">
<path d="M-79.383563-46.5 A92 92 0 0 1 88.436076-25.358637L95.707548 0H69A69 69 0 0 0-50.977936-46.5zM-104.023164-29H-62.609903A67 67 0 0 0-66.037868-20H-101.442456zM-100.008729-15H-67.349833A69 69 0 0 0-68.818602-5H-97.141275z"/>
</g>
<use xlink:href="#a" transform="rotate(180)"/>
<path d="M-107.607482-41.5H0A48 21.25 0 0 1 0 1 16.5 16.5 0 0 0 0 34H105.456891L107.607482 41.5H0A48 21.25 0 0 1 0-1 16.5 16.5 0 0 0 0 -34H-105.456891z"/>
</g>
</svg>