<?xml version="1.0" encoding="UTF-8" standalone="no"?>
<!-- Created with Inkscape (http://www.inkscape.org/) -->
<svg
   xmlns:svg="http://www.w3.org/2000/svg"
   xmlns="http://www.w3.org/2000/svg"
   version="1.0"
   width="900"
   height="600"
   id="svg2">
  <defs
     id="defs5" />
  <rect
     width="900"
     height="600"
     x="0"
     y="0"
     id="rect2416"
     style="fill:#660066;stroke:none" />
  <path
     d="M 450,120 C 359.51229,120 284.54244,186.8807 271.875,273.875 C 282.50215,265.22464 301.64503,252.91363 329.59375,247.0625 C 349.97689,200.81558 396.24341,168.5 450,168.5 C 508.69943,168.5 558.45256,207.02805 575.34375,260.15625 C 565.85824,257.61726 554.59452,256 541.3125,256 C 495.92066,256 470.34375,276.96875 470.34375,276.96875 L 450,192 L 429.75,276.78125 C 428.45008,275.74086 403.20492,256 359,256 C 350.76007,256 343.10591,256.6779 336.03125,257.8125 C 332.44456,258.38918 329.00775,259.07631 325.71875,259.875 C 293.92504,267.5957 276.00563,284.6 271.3125,289.5625 C 271.3125,289.5625 270.21875,290.75 270.21875,290.75 L 270.21875,291.125 C 270.0755,294.0681 270,297.02159 270,300 C 270,399.36 350.64,480.00001 450,480 C 525.65639,480 590.45043,433.23582 617.0625,367.0625 C 612.53628,359.15366 601.24669,344.32249 576.75,335.125 C 561.37696,390.68233 510.42946,431.5 450,431.5 C 385.50605,431.5 331.82969,385.00311 320.65625,323.71875 C 323.8396,322.36095 342.38325,314.96876 369.5,314.96875 C 395.56109,314.96875 414.95635,323.17718 418.3125,324.6875 L 402,393 L 498,393 L 481.71875,324.8125 C 483.76136,323.86595 503.67494,314.96875 530.84375,314.96875 C 536.62849,314.95597 542.40898,315.32675 548.15625,315.96875 C 576.07237,319.48928 603.86004,331.41182 621.8125,353.75 L 621.96875,353.25 C 627.1817,336.41603 630,318.53977 630,300 C 630,200.64 549.36,120 450,120 z"
     id="path2386"
     style="fill:#ffffff;stroke:none" />
</svg>
