<?xml version="1.0" encoding="UTF-8" standalone="no"?>
<!-- Created with Inkscape (http://www.inkscape.org/) -->

<svg
   xmlns:dc="http://purl.org/dc/elements/1.1/"
   xmlns:cc="http://creativecommons.org/ns#"
   xmlns:rdf="http://www.w3.org/1999/02/22-rdf-syntax-ns#"
   xmlns:svg="http://www.w3.org/2000/svg"
   xmlns="http://www.w3.org/2000/svg"
   xmlns:sodipodi="http://sodipodi.sourceforge.net/DTD/sodipodi-0.dtd"
   xmlns:inkscape="http://www.inkscape.org/namespaces/inkscape"
   version="1.1"
   id="svg2"
   width="324"
   height="216"
   viewBox="0 0 324 216"
   sodipodi:docname="Flag of Mikurajima, Tokyo.svg"
   inkscape:version="0.92.3 (2405546, 2018-03-11)">
  <metadata
     id="metadata8">
    <rdf:RDF>
      <cc:Work
         rdf:about="">
        <dc:format>image/svg+xml</dc:format>
        <dc:type
           rdf:resource="http://purl.org/dc/dcmitype/StillImage" />
        <dc:title></dc:title>
      </cc:Work>
    </rdf:RDF>
  </metadata>
  <defs
     id="defs6" />
  <sodipodi:namedview
     pagecolor="#ffffff"
     bordercolor="#666666"
     borderopacity="1"
     objecttolerance="10"
     gridtolerance="10"
     guidetolerance="10"
     inkscape:pageopacity="0"
     inkscape:pageshadow="2"
     inkscape:window-width="1920"
     inkscape:window-height="1017"
     id="namedview4"
     showgrid="false"
     inkscape:zoom="1.2396193"
     inkscape:cx="19.964789"
     inkscape:cy="156.40196"
     inkscape:window-x="-8"
     inkscape:window-y="-8"
     inkscape:window-maximized="1"
     inkscape:current-layer="g825" />
  <g
     id="g825"
     transform="translate(-356.5545,-950.17983)">
    <path
       id="path817"
       d="m 356.5545,950.17983 h 324 v 215.99997 h -324 z"
       inkscape:connector-curvature="0"
       style="fill:#0042ce;fill-opacity:1" />
    <g
       id="g821"
       transform="matrix(0.30250841,0,0,0.29451183,429.47638,792.57065)"
       style="fill:#ffffff;stroke-width:1.01348507">
      <path
         id="path819"
         d="m 392.32,968.15 c -28.6,-5.05 -55.89,-29.35 -46.88,-26.59 37.93,11.64 73.56,-5.77 106.2,-20.53 35.26,-14.81 77.58,-25.18 113.69,-6.81 11.7,4.62 27.03,16.71 2.8,6.18 -28.95,-11.8 -58.09,4.04 -82.53,18.71 -28.03,16.47 -59.37,35.36 -93.27,29.04 z M 208.37,907.18 c -1.28,-1.45 0.98,-2.98 4.39,-1.69 12.81,4.83 25.92,6.31 46.1,4.94 43.54,-2.97 81.38,-28.1 122.05,-41.36 43.88,-17.05 94.81,-24.97 138.96,-4.39 7.91,3.99 40.68,20.67 17.61,14.96 -31.72,-18.56 -69.81,-11.16 -103.95,8.86 -45.06,22.45 -88.17,58.78 -141.24,56.69 -42.4,-2.19 -72.87,-25.46 -83.91,-38.01 z m -74.64,2.14 c -55.1,-8.23 -83.39,-26.95 -112.81,-56.45 -4.1,-3.28 -1.25,-5.1 5.36,-2.97 6.32,2.03 17.94,7.72 38.62,8.23 37.68,2.76 72.39,-2.32 110.02,-18.51 70.34,-26.91 142.99,-60.53 220.28,-54.27 11.1,-0.01 62.83,8.58 102.74,39.7 4,3.12 3.91,6.41 -2.58,3.7 -10.49,-4.39 -30.6,-14.6 -43.34,-15.94 -54.57,-11.66 -105.27,17.88 -151.35,42.89 -51.52,27.71 -106.06,59.93 -166.94,53.62 z M 54.57,831.38 C 44.19,829.46 27.36,826.83 24.16,822 l 3.01,-20.19 c 6.93,-32.94 6.9,-71.17 33.54,-95.68 46.97,-43.94 122.03,-50.17 179.04,-23.34 33.18,15.56 59.66,43.14 61.98,87.17 -23.47,6.07 -30.32,6.54 -68.47,20.92 -49.67,18.58 -99.12,44.4 -153.64,42.25 -8.38,0.05 -16.78,-0.37 -25.06,-1.75 z"
         inkscape:connector-curvature="0"
         style="fill:#ffffff;stroke-width:1.01348507" />
    </g>
    <path
       id="path823"
       d="m 439.20881,1087.4498 c -1.08,1.07 -1.83,2.41 -2.79,3.59 -0.88,1.18 -1.76,2.35 -2.67,3.5 0.95,0.44 2,-0.44 2.85,-0.91 1.72,-1.11 3.39,-2.3 5.09,-3.45 -0.13,-0.8 -0.68,-1.42 -1.4,-1.75 -0.4,-0.28 -0.78,-0.59 -1.07,-0.98 z m 5.23,0.72 c -0.43,3.09 -2.67,5.63 -4.3,7.87 h 0.62 c 0.34,0 1.48,-0.67 2.53,-1.5 0.58,-0.46 1.16,-0.92 1.75,-1.36 0.81,0.05 1.47,0.37 2.26,0.67 v 0 c 0.02,1.19 -0.18,2.38 -0.32,3.56 l -2.2,0.19 -2.52,0.22 c 0,0 -0.01,0.39 -0.01,0.72 -0.01,0.47 0.02,0.82 0.04,1.23 l 0.62,-0.16 h 1.53 l 2.2,0.36 -0.03,0.54 c -0.02,0.3 -0.03,3.14 -0.03,6.32 v 4.82 c -0.14,0.27 -0.27,0.55 -0.41,0.82 -0.46,-0.16 -0.92,-0.31 -1.38,-0.47 0.2,-3.3 0.29,-5.84 0.58,-8.95 l -0.88,0.13 c -1,0 -2.01,0 -3.01,0 0.14,3.31 0.27,6.63 0.41,9.94 -0.32,0.39 -0.68,0.66 -1.1,0.92 0.48,0.58 0.97,1.16 1.45,1.75 l 0.17,0.33 c 0.01,0 0.03,0.04 0.03,0.04 0,0 3.95,-1.38 5.4,-1.99 l 3.98,-1.69 0.49,-0.38 v -1 c -0.51,0.19 -1.01,0.39 -1.52,0.58 l -0.63,-0.17 v -5.78 l 0.15,-0.4 h 1.99 v 0 -1.43 0 h -1.04 c -0.38,0 -0.79,-0.16 -1.1,-0.37 v -3.62 l 0.1,-0.3 h 0.3 l 0.67,0.26 1.07,0.41 v -2.77 c -0.43,0.17 -0.87,0.33 -1.3,0.5 -0.28,-0.07 -0.57,-0.15 -0.85,-0.22 v -3.53 c 0.31,-0.22 0.73,-0.37 1.12,-0.37 h 1.03 0.83 c 0,0 -0.27,-0.81 -0.6,-1.79 v 0 c -1.99,0.07 -3.97,0.21 -5.96,0.19 0.4,-1.24 1.12,-2.09 1.78,-2.75 -1.57,-1.19 -2.26,-1.35 -3.92,-1.37 z m 36.53,0.7 c -0.73,-0.01 -1.45,-0.01 -2.18,0.02 l 0.36,1.79 -6.8,0.44 v 1.71 0.01 0 0.02 c 0,0 4.21,-0.02 6.31,-0.03 l 0.08,0.09 c 0.11,0.51 0.05,1.06 0.05,1.58 l 0.41,0.16 0.18,0.67 h 3.71 v -2.15 h 8.57 c -0.16,0.74 -0.38,1.45 -0.65,2.15 h 0.09 c 0.18,0 0.35,0 0.86,-0.21 0.51,-0.21 0.86,-0.51 1.15,-0.87 l 0.89,-1.07 h 9.13 v -2.26 l -4.65,0.62 -2.87,-0.25 1.79,-2.4 v 0 c 0,0 -3.34,0 -5.01,0 v 1.4 l -0.42,0.74 h -8.89 v -1.77 l 0.06,-0.37 v 0 c -0.73,0.01 -1.45,-0.01 -2.18,-0.02 z m 43.99,0.38 c 0,0 0.1,2.16 -0.7,3.06 -0.3,0.34 -0.93,0.07 -1.37,0.16 -2,-0.04 -4.01,0.09 -6,-0.07 -0.36,0.07 -0.07,0.84 -0.16,1.2 v 16.42 c 5.95,0.12 11.91,0.24 17.86,0.35 1.41,0.16 3.1,-0.08 4.22,0.94 0.22,0.62 0.04,1.37 0.1,2.04 v 4.08 c -0.47,0.28 -1.14,0.71 -1.4,0.99 0.11,0.44 -0.72,0.5 -0.03,0.59 -0.04,0.51 -0.09,1.05 0.55,0.67 1.72,-0.29 3.49,-0.21 5.23,-0.33 -0.1,-3.16 -0.04,-6.43 -0.05,-9.63 -0.65,-0.09 -0.06,-1.07 -0.52,-1.16 -0.33,-0.23 -0.62,-0.5 -1.2,-0.36 -7,-0.02 -14,0.04 -20.99,-0.03 -0.42,-0.04 -0.09,-0.81 -0.19,-1.17 0.07,-0.39 -0.24,-1.15 0.41,-0.95 7.2,0.03 14.41,-0.09 21.61,0.14 0.32,-0.24 1.15,0.21 0.89,-0.55 -0.31,-0.59 0.69,-0.72 0,-0.63 0.5,-0.54 -0.06,-0.37 -0.57,-0.39 -7.31,-0.02 -14.61,0.03 -21.92,-0.03 -0.71,-0.43 -0.41,-1.88 -0.41,-2.83 6.88,-0.26 13.36,0.58 19.33,0.28 0.08,-0.43 0.04,-0.92 0.01,-1.42 -0.03,-2.72 -0.01,-5.44 -0.01,-8.16 -4.41,-0.02 -8.83,-0.03 -13.24,-0.05 1.79,-1.25 3.73,-3.17 3.73,-3.17 l -5.16,-0.01 z m 36.86,0.26 c -1.42,0.16 -2.86,0.1 -4.29,0.1 -0.03,1.91 0.07,3.82 -0.09,5.73 h -5.72 c 0,0 0.08,0.68 0.08,1.43 2.04,0.01 3.75,-0.05 5.73,0.08 0.04,0.44 -0.09,0.85 -0.18,1.27 -1.38,4.31 -2.23,7.67 -4.26,11.43 -0.72,1.01 -1.41,2.04 -2.24,2.97 0.32,0.33 0.97,0.97 0.97,0.97 1.26,-1.23 2.52,-2.47 3.79,-3.7 v 0 c 0.95,-0.78 1.71,-1.28 1.91,-1.2 -0.02,3.71 0,11.08 0,11.08 h 4.29 c 0,0 -0.1,-15.1 0.02,-22 l 0.14,-0.9 h 4.85 v -1.43 c 0,0 -3.03,0 -4.61,0 l -0.4,-0.15 v -5.57 -0.1 z m 14.31,0 c -0.04,2.08 -0.21,4.16 -0.34,5.82 h -5.08 l -1.74,-0.11 v 0.24 l -0.75,1.22 1.34,0.08 6.21,0.36 0.31,21.42 -2.91,1.22 1.83,-0.09 c 1.45,0.12 4.35,0.36 4.35,0.36 l 0.31,0.06 0.01,-0.42 v -0.01 c 0,0 0.28,-15.89 0.39,-22.54 l 3.94,0.41 v -2.11 l -3.91,-0.45 c 0,0 0.29,-3.58 0.44,-5.37 h -3.58 c -0.27,-0.04 -0.56,-0.06 -0.83,-0.1 z m -121.09,1.09 c -0.51,0.01 -0.59,0.48 -0.59,0.96 -0.01,4.33 -0.3,8.65 -0.46,12.97 -0.17,4.57 -0.29,9.13 -0.47,13.7 h 3.8 c 0.06,-8.25 0.23,-16.51 0.35,-24.76 -0.11,-0.7 0.49,-0.74 1,-0.79 0.48,-0.04 0.98,-0.2 1.44,-0.17 0.16,0.28 0.02,0.71 0.06,1.05 -0.06,5.87 -0.22,20.08 -0.22,20.08 l -1.56,1.28 c 0,0 1.06,-0.41 1.64,-0.57 1,-0.16 1.99,-0.48 3.01,-0.41 0.01,-7.54 -0.03,-15.09 0.05,-22.63 0.31,-0.43 -0.27,-0.24 -0.52,-0.28 -2.16,0.07 -4.29,-0.3 -6.44,-0.39 -0.36,-0.02 -0.72,-0.04 -1.08,-0.04 z m 46.03,3.15 -0.19,0.12 -0.26,0.16 -0.36,-0.22 v 0.44 l -0.74,0.46 0.24,0.38 -0.33,0.95 h 2.27 v -1.13 -0.01 l 0.26,-0.26 -0.26,-0.26 v -0.6 l -0.45,0.15 -0.17,-0.17 z m 30.76,0.1 c 1.23,-0.01 2.46,0 3.71,0.04 0.35,0.17 0.06,0.97 0.16,1.4 v 4.97 c -4.21,0.15 -8.86,0.11 -12.59,0.04 -0.93,-0.06 -1.86,-0.12 -2.79,-0.18 v -2.6 c 4.8,-0.2 9.6,0.21 14.4,-0.05 -0.24,-0.48 -0.68,-0.91 -0.8,-1.43 h -13.29 c -0.11,-0.71 -0.35,-1.42 -0.31,-2.15 4.18,0.15 7.84,-0.01 11.53,-0.04 z m -38.01,0.75 c 0.03,0.64 -0.27,1.87 -0.27,1.87 l -1.19,0.26 -18.5,0.01 c 0,0 0.34,6.82 0.04,10.23 -0.23,2.84 -0.38,5.72 -1.02,8.5 -0.24,0.69 -0.54,1.48 -0.59,1.93 -0.33,0.67 -0.06,0.41 0.31,0 1.69,-1.7 3.13,-3.06 3.95,-5.04 0.33,-1.01 0.92,-1.96 0.87,-3.06 0.28,-3.59 0.55,-7.18 0.83,-10.77 5.09,-0.01 10.19,0 15.28,0 0.79,4.28 1.58,8.57 2.37,12.85 -1.02,1.08 -3.05,3.24 -3.05,3.24 l 0.91,0.93 c 0,0 2.09,-2.08 3.18,-2.24 0.9,1.65 3.36,6.11 4.59,5.16 0.75,-1.18 1.4,-2.42 2.11,-3.62 -1.26,-0.73 -2.5,-1.58 -3.22,-2.89 -0.33,-0.59 -0.62,-1.21 -0.82,-1.85 0.38,-1.72 1.71,-2.92 2.68,-4.31 l 0.92,-1.21 c -1.01,-0.76 -2.61,-1.99 -2.61,-1.99 -0.3,0.31 -0.35,1.11 -0.91,1.71 -0.39,0.43 -0.78,1.34 -1.24,1.51 -0.44,-0.59 -0.29,-1.4 -0.46,-2.1 -0.1,-1.62 -0.18,-3.24 -0.23,-4.87 0.18,-0.58 0.87,-0.31 1.33,-0.41 1.34,-0.07 2.69,-0.17 4.03,-0.29 0.18,-0.52 0.36,-0.01 0,-0.44 -0.09,-0.32 0.22,-1.04 -0.24,-0.99 h -4.82 c -0.2,-0.72 -0.7,-1.39 -0.67,-2.15 -1.19,0 -2.39,0 -3.58,0 z m -55.63,2.09 -0.29,0.68 c 0,0 -1.7,3.75 -2.76,5.52 -0.61,0.96 -1.22,1.92 -2.01,2.74 -0.08,0.12 -0.33,0.32 -0.32,0.4 0.25,0.12 0.5,0.07 0.86,0.01 0.85,-0.12 1.69,-0.23 2.54,-0.35 -0.01,3.74 -0.02,7.48 -0.03,11.22 -0.13,0.45 -0.32,0.87 -0.48,1.31 1.36,0 2.74,0.01 4.09,-0.01 0.14,-4.53 0.31,-9.08 0.43,-13.59 -1.04,-0.02 -2.09,0.06 -3.13,-0.07 -0.68,-0.09 -0.17,-0.52 0.06,-0.78 1.25,-1.41 2.6,-2.71 3.89,-4.07 0.29,-0.18 -0.13,-0.43 -0.19,-0.65 v -0.82 c -0.97,-0.47 -1.79,-1.26 -2.67,-1.54 z m 41.35,3.58 c 0,0 -0.01,0.55 -0.04,0.81 -0.01,4.33 0.01,8.67 -0.01,13 -0.03,1.14 -0.06,2.28 -0.09,3.42 h 14.5 c -0.26,-0.45 -0.58,-0.88 -0.8,-1.34 0.04,-0.32 -0.46,-0.01 -0.67,-0.09 -0.87,-0.01 -1.76,0.02 -2.63,-0.02 -0.39,-0.01 -0.28,-0.37 -0.29,-0.65 v -3.63 h 2.95 c -0.05,-2.32 -0.14,-4.3 -0.08,-6.4 -0.82,-0.09 -2.01,-0.23 -2.86,-0.35 v -2.45 c 1.07,-0.15 2.15,-0.31 3.22,-0.46 -0.2,-0.37 0.36,-0.36 0.36,-0.36 l -1.44,-1.48 h -12.13 z m 3.66,1.48 c 0.92,0.02 1.89,-0.1 2.74,0.3 -0.02,0.91 0.03,1.82 -0.02,2.73 0.02,0.38 -0.4,0.27 -0.65,0.34 -0.48,0.05 -0.96,0.16 -1.43,0.18 -0.23,-0.12 -0.64,-0.06 -0.74,-0.33 -0.05,-0.95 -0.01,-1.92 -0.02,-2.88 0.04,-0.11 0.08,-0.23 0.12,-0.34 z m 80.57,0.08 c -0.5,0.09 -0.46,0.29 -0.62,0.51 0.35,0.91 0.85,1.64 1,2.34 0.4,1.71 0.37,1.91 1.37,2.25 2.62,-0.49 1.19,-3.38 0.55,-4.3 l -0.75,-0.2 c -0.25,-0.13 -0.47,-0.24 -0.67,-0.33 -0.37,-0.16 -0.66,-0.25 -0.88,-0.27 z m 6.1,0.52 c -0.54,0.01 -1.08,0.12 -1.63,0.12 2.06,1.3 1.43,3.93 2.88,6.56 1.33,0.14 2.45,-1.21 2.25,-2.49 0.11,-0.92 -0.07,-1.89 -0.77,-2.54 -0.75,-0.75 -1.56,-1.75 -2.74,-1.64 z m -84.98,4.42 h 4.64 v 3.24 c -1.5,0.09 -3,0.17 -4.5,0.26 -0.78,-0.05 -1.72,-0.38 -1.86,-1.26 -0.14,-0.69 -0.07,-1.4 -0.08,-2.1 0.6,-0.05 1.2,-0.1 1.81,-0.14 z m 41.14,4.2 -3.94,0.45 c -0.1,1.68 -0.2,3.36 -0.33,5.04 -1.22,0.1 -2.43,0.27 -3.65,0.33 -0.2,-0.07 -0.68,0.15 -0.67,-0.13 v -4.88 h -3.58 v 6.44 c 6.92,0 13.85,0 20.76,0 0.01,-1.82 -0.02,-3.65 0.02,-5.47 0.02,-0.27 0.04,-0.55 0.06,-0.82 -0.06,-0.2 -0.38,-0.15 -0.65,-0.15 h -3.57 c 0.07,1.55 0.14,3.1 0.21,4.65 -0.82,0.06 -1.64,0.19 -2.46,0.21 -0.71,-0.06 -1.42,-0.12 -2.13,-0.17 -0.12,-1.3 -0.03,-2.61 -0.06,-3.91 0,-0.53 0,-1.06 0,-1.59 z m -41.64,0.45 c 0.24,0.01 0.47,0.05 0.68,0.18 0.25,0.09 0.56,0.15 0.58,0.47 0.09,1.16 0.27,2.32 0.3,3.48 0.1,0.37 -0.4,0.22 -0.63,0.31 -0.74,0.09 -1.48,0.26 -2.24,0.22 -0.04,-1.34 0.2,-2.66 0.29,-3.99 -0.01,-0.28 0.07,-0.49 0.3,-0.66 0.24,0.01 0.48,-0.01 0.71,0 z"
       inkscape:connector-curvature="0"
       style="fill:#ffffff" />
  </g>
</svg>
