<?xml version="1.0" encoding="UTF-8" standalone="no"?>
<!-- Created with Inkscape (http://www.inkscape.org/) -->

<svg
   xmlns:dc="http://purl.org/dc/elements/1.1/"
   xmlns:cc="http://creativecommons.org/ns#"
   xmlns:rdf="http://www.w3.org/1999/02/22-rdf-syntax-ns#"
   xmlns:svg="http://www.w3.org/2000/svg"
   xmlns="http://www.w3.org/2000/svg"
   xmlns:sodipodi="http://sodipodi.sourceforge.net/DTD/sodipodi-0.dtd"
   xmlns:inkscape="http://www.inkscape.org/namespaces/inkscape"
   version="1.1"
   id="svg2"
   width="324"
   height="216"
   viewBox="0 0 324 216"
   sodipodi:docname="Flag_of_Minato,_Tokyo.svg"
   inkscape:version="0.92.3 (2405546, 2018-03-11)">
  <metadata
     id="metadata8">
    <rdf:RDF>
      <cc:Work
         rdf:about="">
        <dc:format>image/svg+xml</dc:format>
        <dc:type
           rdf:resource="http://purl.org/dc/dcmitype/StillImage" />
        <dc:title></dc:title>
      </cc:Work>
    </rdf:RDF>
  </metadata>
  <defs
     id="defs6">
    <inkscape:perspective
       sodipodi:type="inkscape:persp3d"
       inkscape:vp_x="0 : 300 : 1"
       inkscape:vp_y="0 : 1000 : 0"
       inkscape:vp_z="900 : 300 : 1"
       inkscape:persp3d-origin="450 : 200 : 1"
       id="perspective833" />
  </defs>
  <sodipodi:namedview
     pagecolor="#ffffff"
     bordercolor="#666666"
     borderopacity="1"
     objecttolerance="10"
     gridtolerance="10"
     guidetolerance="10"
     inkscape:pageopacity="0"
     inkscape:pageshadow="2"
     inkscape:window-width="1920"
     inkscape:window-height="1017"
     id="namedview4"
     showgrid="false"
     inkscape:zoom="1.2396193"
     inkscape:cx="246.34194"
     inkscape:cy="78.911332"
     inkscape:window-x="-8"
     inkscape:window-y="-8"
     inkscape:window-maximized="1"
     inkscape:current-layer="svg2" />
  <g
     id="g1188"
     transform="translate(412.93752,-352.25906)">
    <rect
       width="324.00317"
       height="216.00101"
       x="-412.9375"
       y="352.25912"
       id="rect2408"
       style="fill:#5a004a;fill-opacity:1;stroke:none;stroke-width:1" />
    <path
       d="m -251.04931,387.62718 c -40.11454,0 -72.66681,32.29556 -72.66681,72.09375 0,39.79819 32.55227,72.09375 72.66681,72.09376 40.11454,0 72.66682,-32.29557 72.66682,-72.09376 0,-39.79819 -32.55228,-72.09375 -72.66682,-72.09375 z m 0,12.92353 c 32.92159,0 59.64056,26.50825 59.64056,59.17022 0,32.66197 -26.71897,59.17023 -59.64056,59.17023 -32.92159,0 -59.64055,-26.50826 -59.64055,-59.17023 0,-32.66197 26.71896,-59.17022 59.64055,-59.17022 z m -19.38791,19.89873 v 11.23295 h 18.85778 l -10.14836,16.83064 -6.79082,-3.24341 c 0,0 -2.4981,-1.40255 -7.80061,-1.40255 -12.32199,0 -18.78204,8.2144 -18.78204,15.82882 0,7.32706 6.07101,15.87891 18.59271,15.87891 9.68194,0 15.03806,-4.71355 19.37529,-12.59794 l 6.47526,3.16827 -19.77921,32.8473 h 38.77583 v -11.23295 h -18.85778 l 10.12312,-16.78055 6.68984,3.19331 c 0,0 2.4981,1.40256 7.80061,1.40256 12.32199,0 18.78204,-8.2144 18.78204,-15.82882 0,-7.32706 -6.07101,-15.87891 -18.5927,-15.87891 -9.68195,0 -15.03808,4.71355 -19.3753,12.59794 l -6.37428,-3.11818 19.80445,-32.89739 z m -5.88201,33.63623 c 3.28424,0 8.72203,3.61909 8.72203,3.61909 -2.24677,3.55648 -3.5876,7.62638 -8.72203,7.62638 -3.9389,0 -6.66459,-2.42895 -6.66459,-5.63525 0,-3.90627 4.10689,-5.61022 6.66459,-5.61022 z m 50.41363,0.025 c 3.9389,0 6.6646,2.42896 6.6646,5.63527 0,3.90627 -4.1069,5.61021 -6.6646,5.61021 -3.28424,0 -8.72204,-3.61909 -8.72204,-3.61909 2.24678,-3.55648 3.58761,-7.62639 8.72204,-7.62639 z"
       id="path2398"
       style="fill:#ffffff;stroke:none;stroke-width:0.99999994"
       inkscape:connector-curvature="0" />
  </g>
</svg>
