<?xml version="1.0" encoding="UTF-8" standalone="no"?>
<!-- Created with Inkscape (http://www.inkscape.org/) -->
<svg
   xmlns:svg="http://www.w3.org/2000/svg"
   xmlns="http://www.w3.org/2000/svg"
   version="1.0"
   width="900"
   height="600"
   id="svg2">
  <defs
     id="defs5" />
  <rect
     width="900"
     height="600"
     x="0"
     y="0"
     id="rect3193"
     style="fill:#23115d;stroke:none" />
  <path
     d="M 450,120.03125 C 350.75445,120.03125 270.03123,200.75445 270.03125,300 C 270.03125,349.47716 290.53477,394.89201 322.625,427.375 L 336.875,413.125 C 307.93604,384.17907 290.03125,344.2119 290.03125,300 C 290.03124,211.57571 361.57571,140.03125 450,140.03125 C 538.42429,140.03125 610,211.57571 610,300 C 610,344.11169 592.17574,384.00811 563.34375,412.9375 L 577.625,427.21875 C 610.11024,394.72869 630.00001,349.79078 630,300 C 630,200.75445 549.24555,120.03125 450,120.03125 z M 450,150 C 367.30684,150 299.99998,217.30683 300,300 C 300,341.34915 316.83416,378.82895 344,406 L 358.0625,391.9375 C 334.54273,368.41478 320,335.93901 320,300 C 319.99999,228.1281 378.12809,170 450,170 C 521.87191,170 580.03125,228.12809 580.03125,300 C 580.03125,335.83486 565.56434,368.24314 542.15625,391.75 L 556.21875,405.8125 C 583.27522,378.65815 600.03126,341.2466 600.03125,300 C 600.03125,217.30684 532.69316,150 450,150 z M 450,180 C 383.85923,180 329.99999,233.85923 330,300 C 330,333.07461 343.45142,363.07329 365.1875,384.8125 L 379.25,370.75 C 361.16494,352.65713 350,327.65976 350,300 C 349.99999,244.68048 394.68048,200 450,200 C 505.31952,199.99999 550.03125,244.68048 550.03125,300 C 550.03125,327.56461 538.92067,352.48451 520.9375,370.5625 L 535,384.59375 C 556.63186,362.87032 570.03126,332.97582 570.03125,300 C 570.03125,233.85923 516.14077,179.99999 450,180 z M 421,340 L 434,362 L 423.90625,396.625 C 410.06881,392.90667 397.41986,386.28003 386.65625,377.46875 L 329.84375,434.3125 C 345.83414,448.7857 364.28904,460.2051 384.25,467.625 L 395.34375,439.6875 C 400.59574,441.75144 405.98064,443.53206 411.5,445 L 403.1875,474.28125 C 418.55747,478.56683 433.28145,480 450,480 C 466.79809,480 481.31329,478.26253 496.75,473.9375 L 488.71875,444.9375 C 494.23314,443.46161 499.6281,441.69589 504.875,439.625 L 515.65625,467.5625 C 535.99329,459.71142 554.46148,448.29078 570.34375,434.09375 L 513.5625,377.3125 C 503.16854,386.34568 489.44882,392.9306 476,396.781 L 461,340 L 421,340 z"
     id="path2384"
     style="fill:#ffffff;stroke:none" />
</svg>
