<?xml version="1.0" encoding="UTF-8" standalone="no"?>
<!-- Created with Inkscape (http://www.inkscape.org/) -->

<svg
   xmlns:dc="http://purl.org/dc/elements/1.1/"
   xmlns:cc="http://creativecommons.org/ns#"
   xmlns:rdf="http://www.w3.org/1999/02/22-rdf-syntax-ns#"
   xmlns:svg="http://www.w3.org/2000/svg"
   xmlns="http://www.w3.org/2000/svg"
   xmlns:sodipodi="http://sodipodi.sourceforge.net/DTD/sodipodi-0.dtd"
   xmlns:inkscape="http://www.inkscape.org/namespaces/inkscape"
   version="1.1"
   id="svg2"
   width="324"
   height="216"
   viewBox="0 0 324 216"
   sodipodi:docname="Flag of Mizuho, Tokyo.svg"
   inkscape:version="0.92.3 (2405546, 2018-03-11)">
  <metadata
     id="metadata8">
    <rdf:RDF>
      <cc:Work
         rdf:about="">
        <dc:format>image/svg+xml</dc:format>
        <dc:type
           rdf:resource="http://purl.org/dc/dcmitype/StillImage" />
        <dc:title></dc:title>
      </cc:Work>
    </rdf:RDF>
  </metadata>
  <defs
     id="defs6" />
  <sodipodi:namedview
     pagecolor="#ffffff"
     bordercolor="#666666"
     borderopacity="1"
     objecttolerance="10"
     gridtolerance="10"
     guidetolerance="10"
     inkscape:pageopacity="0"
     inkscape:pageshadow="2"
     inkscape:window-width="1920"
     inkscape:window-height="1017"
     id="namedview4"
     showgrid="false"
     inkscape:zoom="1.7530864"
     inkscape:cx="130.3173"
     inkscape:cy="98.54893"
     inkscape:window-x="-8"
     inkscape:window-y="-8"
     inkscape:window-maximized="1"
     inkscape:current-layer="svg2" />
  <g
     id="g915"
     transform="translate(-340.24001,-419.48)">
    <path
       id="path911"
       d="m 340.24,419.48 h 324 v 216 h -324 z"
       inkscape:connector-curvature="0"
       style="fill:#005830"
       transform="translate(1.8018656e-6)" />
    <path
       id="path913"
       d="m 530.15756,566.81622 c -4.68072,3.2368 -9.97679,5.66442 -15.66628,7.15454 -4.09563,1.07565 -8.38293,1.69735 -12.82154,1.69735 -4.74125,0 -9.311,-0.69079 -13.64874,-1.90459 -5.48774,-1.53946 -10.56188,-3.97694 -15.10137,-7.14467 -12.56935,-8.78282 -20.80096,-23.15111 -20.80096,-39.424 0,-14.4571 6.49652,-27.38463 16.74568,-36.26613 8.62503,2.43748 16.19085,6.53285 22.06193,11.82227 -5.25573,7.6381 -8.25179,16.39131 -8.25179,25.68727 0,9.78939 3.32896,18.96694 9.11933,26.88135 2.62282,3.57233 5.73994,6.88809 9.29083,9.88806 3.60133,-3.01971 6.72853,-6.36507 9.34126,-9.97688 5.518,-7.63809 8.68556,-16.43077 8.68556,-25.8057 0,-9.83872 -3.48028,-19.04588 -9.52284,-26.93067 5.94169,-5.8914 13.87066,-10.48017 22.96982,-13.15449 11.35881,8.8815 18.66235,22.5294 18.66235,37.86479 0,16.39131 -8.33249,30.84841 -21.07332,39.62136 m -26.42993,-37.39111 c 0,4.47035 -0.94825,8.74334 -2.66317,12.75975 -1.90658,-4.31246 -2.99606,-8.92097 -2.99606,-13.73672 0,-4.46049 0.89781,-8.74334 2.53203,-12.75976 1.9772,4.3026 3.11711,8.91111 3.11711,13.73673 m 48.80457,-42.70028 c 3.27852,0.0691 6.47634,0.4046 9.58337,0.92762 L 550.48439,474.5769 c -3.53071,0.0197 -7.02108,0.24671 -10.41056,0.68092 -10.80399,-7.65783 -24.06939,-12.1874 -38.43436,-12.1874 -12.95268,0 -25.00755,3.72037 -35.176,10.07557 8.77634,1.13486 17.01804,3.46379 24.46281,6.75981 3.45001,-0.75 7.03116,-1.17433 10.72328,-1.17433 5.62897,0 11.02592,0.9671 16.0698,2.65458 -6.72854,2.9605 -12.74084,6.79928 -17.82507,11.29924 -5.08423,-4.06576 -10.97548,-7.49993 -17.51234,-10.15452 -6.64784,-2.69405 -13.9312,-4.5789 -21.62816,-5.45719 -4.24694,3.32563 -8.0702,7.14468 -11.35881,11.38807 -8.35266,10.75648 -13.31584,24.17741 -13.31584,38.7332 0,16.60841 6.45617,31.74643 17.04831,43.13449 3.78291,4.07562 8.10047,7.65783 12.84172,10.66767 10.26933,6.52297 22.51587,10.33215 35.68039,10.33215 13.03338,0 25.15887,-3.74011 35.36768,-10.14465 4.92282,-3.08879 9.40179,-6.78942 13.29566,-11.02293 10.50136,-11.37819 16.90708,-26.44714 16.90708,-42.97659 0,-15.34527 -5.50791,-29.43724 -14.69786,-40.47004"
       inkscape:connector-curvature="0"
       style="fill:#ffffff;stroke-width:1" />
  </g>
</svg>
