<?xml version="1.0" encoding="UTF-8" standalone="no"?>
<!-- Created with Inkscape (http://www.inkscape.org/) -->

<svg
   xmlns:dc="http://purl.org/dc/elements/1.1/"
   xmlns:cc="http://creativecommons.org/ns#"
   xmlns:rdf="http://www.w3.org/1999/02/22-rdf-syntax-ns#"
   xmlns:svg="http://www.w3.org/2000/svg"
   xmlns="http://www.w3.org/2000/svg"
   xmlns:sodipodi="http://sodipodi.sourceforge.net/DTD/sodipodi-0.dtd"
   xmlns:inkscape="http://www.inkscape.org/namespaces/inkscape"
   version="1.1"
   id="svg2"
   width="324"
   height="216"
   viewBox="0 0 324 216"
   sodipodi:docname="Flag of Musashino, Tokyo.svg"
   inkscape:version="0.92.3 (2405546, 2018-03-11)">
  <metadata
     id="metadata8">
    <rdf:RDF>
      <cc:Work
         rdf:about="">
        <dc:format>image/svg+xml</dc:format>
        <dc:type
           rdf:resource="http://purl.org/dc/dcmitype/StillImage" />
        <dc:title></dc:title>
      </cc:Work>
    </rdf:RDF>
  </metadata>
  <defs
     id="defs6" />
  <sodipodi:namedview
     pagecolor="#ffffff"
     bordercolor="#666666"
     borderopacity="1"
     objecttolerance="10"
     gridtolerance="10"
     guidetolerance="10"
     inkscape:pageopacity="0"
     inkscape:pageshadow="2"
     inkscape:window-width="1920"
     inkscape:window-height="1017"
     id="namedview4"
     showgrid="false"
     inkscape:zoom="1.7530864"
     inkscape:cx="200.2935"
     inkscape:cy="93.684288"
     inkscape:window-x="-8"
     inkscape:window-y="-8"
     inkscape:window-maximized="1"
     inkscape:current-layer="svg2" />
  <style
     id="style938"
     type="text/css">
	.st0{fill:#004000;}
	.st1{fill:#fff;}
</style>
  <style
     id="style982"
     type="text/css">
	.st0{fill:#0C4975;}
	.st1{fill:#fff;}
</style>
  <style
     id="style1121"
     type="text/css">
	.st0{fill:#800000;}
	.st1{fill:#fff;}
</style>
  <style
     id="style1264"
     type="text/css">
	.st0{fill:#86C7EF;}
	.st1{fill:#2A582A;}
	.st2{fill:#FFFFFF;}
</style>
  <style
     id="style1325"
     type="text/css">
	.st0{fill:#008000;}
	.st1{fill:#FFFFFF;}
</style>
  <style
     id="style1366"
     type="text/css">
	.st0{fill:#FFFFFF;}
	.st1{fill:#000061;}
</style>
  <style
     id="style1390"
     type="text/css">
	.st0{fill:#FBC200;}
	.st1{fill:#010066;stroke:#FFFFFF;stroke-width:2;stroke-miterlimit:10;}
</style>
  <style
     id="style2"
     type="text/css">
	.st0{fill:#004101;}
	.st1{fill:#FA802D;}
</style>
  <rect
     style="opacity:1;fill:#660066;fill-opacity:1;fill-rule:evenodd;stroke:none;stroke-width:6.18599987;stroke-miterlimit:4;stroke-dasharray:none;stroke-opacity:1"
     id="rect1472"
     width="324"
     height="216"
     x="-4.0078125e-005"
     y="-2.6691407e-005" />
  <path
     inkscape:connector-curvature="0"
     style="fill:#ffffff;fill-opacity:1;stroke-width:0.20278873"
     id="path2"
     d="m 214.67331,144.63328 v -0.006 l -0.006,0.002 c 5.69478,-9.19463 8.97725,-20.00592 8.97725,-31.57822 0,-9.23489 -2.09367,-17.986602 -5.82959,-25.818242 l -8.88125,5.067413 c 2.89233,6.327724 4.5019,13.352039 4.5019,20.748809 0,27.88185 -22.86492,50.48288 -51.07126,50.48288 -28.20429,0 -51.07126,-22.60103 -51.07126,-50.48288 0,-27.881843 22.86901,-50.486896 51.07126,-50.486896 17.07209,0 32.1792,8.280601 41.45467,20.996447 l 8.88126,-5.067414 C 203.46962,65.382993 189.13462,56.051463 172.53845,53.309382 h 0.0368 l -0.008,-0.0061 c -5.47418,-2.146151 -9.49812,-7.126993 -10.2069,-13.114473 -0.71083,5.98748 -4.73476,10.968322 -10.2069,13.114473 v 0.0061 h 0.0286 c -28.99682,4.799648 -51.09373,29.715941 -51.09373,59.741928 0,11.5723 3.28451,22.3856 8.97929,31.58426 v -0.0121 0.006 c 1.95273,5.49221 0.78641,11.76155 -3.31719,16.21894 5.03911,-3.3964 11.48149,-3.66416 16.71056,-0.98651 v 0 l -0.0327,-0.0362 c 10.58886,8.62084 24.1538,13.801 38.94226,13.801 14.78847,0 28.34932,-5.17614 38.9341,-13.79295 l -0.0265,0.0282 h 0.006 c 5.23315,-2.67765 11.67553,-2.40787 16.71055,0.98651 -4.10359,-4.45739 -5.26992,-10.72874 -3.31311,-16.21894 m -23.60036,-42.1459 c 1.23782,3.28768 1.92005,6.84916 1.92005,10.56365 0,15.01098 -11.04436,27.46108 -25.53461,29.86693 v 10.20731 c 20.15235,-2.48438 35.74968,-19.47844 35.74968,-40.07424 0,-5.55664 -1.13977,-10.84753 -3.19055,-15.667306 z m -5.11877,-8.735605 8.94662,-5.107679 c -6.49141,-8.43965 -16.26527,-14.2862 -27.44445,-15.661267 v 10.207445 c 7.40649,1.228098 13.90606,5.085533 18.49988,10.563655 m -54.24751,19.301261 c 0,-3.71448 0.67814,-7.27597 1.92005,-10.56365 l -8.94457,-5.103649 c -2.05486,4.815749 -3.19055,10.110659 -3.19055,15.667299 0,20.59581 15.59733,37.58987 35.74967,40.07425 v -10.21134 c -14.49024,-2.40585 -25.5346,-14.85595 -25.5346,-29.86291 m 7.03882,-19.301261 c 4.59177,-5.478122 11.09134,-9.335557 18.49987,-10.563655 V 72.9788 c -11.17918,1.379093 -20.95304,7.221617 -27.44649,15.66328 z m 46.07504,14.251971 h -2.68807 c -1.84651,-7.09679 -7.4984,-12.683629 -14.67612,-14.507657 V 104.3098 c 1.5483,0.88584 2.83718,2.16427 3.73593,3.69234 h -17.68692 c 0.8967,-1.52807 2.18559,-2.8065 3.73592,-3.69234 V 93.494073 c -7.18179,1.824028 -12.8296,7.410867 -14.67816,14.507657 h -2.68806 v 10.09657 h 2.68806 c 1.8506,7.0968 7.49841,12.68364 14.67816,14.51169 v -10.81732 c -1.55033,-0.88584 -2.84126,-2.16427 -3.73592,-3.69235 h 17.68692 c -0.89875,1.52808 -2.18763,2.80651 -3.73593,3.69235 v 10.81732 c 7.17772,-1.82604 12.82961,-7.41489 14.67612,-14.51169 h 2.68807 z" />
</svg>
