<?xml version="1.0" encoding="UTF-8" standalone="no"?>
<!-- Created with Inkscape (http://www.inkscape.org/) -->

<svg
   xmlns:dc="http://purl.org/dc/elements/1.1/"
   xmlns:cc="http://creativecommons.org/ns#"
   xmlns:rdf="http://www.w3.org/1999/02/22-rdf-syntax-ns#"
   xmlns:svg="http://www.w3.org/2000/svg"
   xmlns="http://www.w3.org/2000/svg"
   xmlns:sodipodi="http://sodipodi.sourceforge.net/DTD/sodipodi-0.dtd"
   xmlns:inkscape="http://www.inkscape.org/namespaces/inkscape"
   version="1.1"
   id="svg2"
   width="324"
   height="216"
   viewBox="0 0 324 216"
   sodipodi:docname="Flag of Musashimurayama, Tokyo.svg"
   inkscape:version="0.92.3 (2405546, 2018-03-11)">
  <metadata
     id="metadata8">
    <rdf:RDF>
      <cc:Work
         rdf:about="">
        <dc:format>image/svg+xml</dc:format>
        <dc:type
           rdf:resource="http://purl.org/dc/dcmitype/StillImage" />
        <dc:title></dc:title>
      </cc:Work>
    </rdf:RDF>
  </metadata>
  <defs
     id="defs6" />
  <sodipodi:namedview
     pagecolor="#ffffff"
     bordercolor="#666666"
     borderopacity="1"
     objecttolerance="10"
     gridtolerance="10"
     guidetolerance="10"
     inkscape:pageopacity="0"
     inkscape:pageshadow="2"
     inkscape:window-width="1920"
     inkscape:window-height="1017"
     id="namedview4"
     showgrid="false"
     inkscape:zoom="1.7530864"
     inkscape:cx="130.3173"
     inkscape:cy="98.54893"
     inkscape:window-x="-8"
     inkscape:window-y="-8"
     inkscape:window-maximized="1"
     inkscape:current-layer="svg2" />
  <g
     id="g860"
     transform="translate(-1013.2442,-869.51254)">
    <path
       id="path856"
       d="m 1013.2442,869.51254 h 324 v 215.99996 h -324 z"
       inkscape:connector-curvature="0"
       style="fill:#003a6c;fill-opacity:1" />
    <path
       id="path858"
       d="m 1259.1067,912.65856 c -99.8824,3.29426 -102.1679,67.45813 -102.1679,67.45813 l -14.5345,-55.30496 -50.8959,-12.34534 c 10.2792,25.5042 41.1153,95.67191 46.4951,103.49261 12.1525,17.6736 29.8205,23.6213 38.2159,26.1733 7.406,-3.5639 19.8962,-9.3545 30.454,-20.0399 7.2626,-7.3549 23.1118,-27.57627 11.3644,-52.46362 0.1249,0.36676 16.9365,0.40335 16.9365,0.40335 0,0 24.2957,-57.37357 24.1324,-57.37357 m -85.1064,89.63224 c -9.8277,0 -15.6621,-5.98267 -15.6621,-16.1329 0,-10.14022 6.69,-15.94309 16.5177,-15.94309 9.8276,0 15.6644,7.65605 15.3322,16.93539 -0.3215,8.98118 -6.3602,15.1406 -16.1878,15.1406 z"
       inkscape:connector-curvature="0"
       style="fill:#ffffff;stroke-width:1"
       sodipodi:nodetypes="ccccccccccsssss" />
  </g>
</svg>
