<?xml version="1.0" encoding="UTF-8" standalone="no"?>
<!-- Created with Inkscape (http://www.inkscape.org/) -->
<svg
   xmlns:svg="http://www.w3.org/2000/svg"
   xmlns="http://www.w3.org/2000/svg"
   version="1.0"
   width="900"
   height="600"
   id="svg2">
  <defs
     id="defs5" />
  <rect
     width="900"
     height="600"
     x="0"
     y="0"
     id="rect2412"
     style="fill:#13075d;stroke:none" />
  <path
     d="M 450,92 L 420,110 L 420,125.46875 C 323.7764,139.95333 249.9375,223.0403 249.9375,323.28125 C 249.9375,406.16531 300.43276,477.33942 372.3125,507.6875 L 419.53125,460.46875 C 429.3421,462.64055 439.53884,463.78125 450,463.78125 C 460.46116,463.78125 470.6579,462.64055 480.46875,460.46875 L 527.6875,507.6875 C 599.56723,477.33942 650.06248,406.16532 650.0625,323.28125 C 650.0625,223.0403 576.22359,139.95333 480,125.46875 L 480,110 L 450,92 z M 420,186 L 420,375 L 362.125,432.875 C 330.05545,407.1161 309.5,367.58443 309.5,323.28125 C 309.49999,256.02036 356.84207,199.75402 420,186 z M 480,186 C 543.15793,199.75402 590.5,256.02035 590.5,323.28125 C 590.5,367.58443 569.94455,407.11611 537.875,432.875 L 480,375 L 480,186 z"
     id="path2388"
     style="fill:#ffffff;stroke:none" />
</svg>
