<svg xmlns="http://www.w3.org/2000/svg" width="900" height="600">
<path d="M0 0 h900v600H0z" fill="#420042"/>
<g transform="translate(450 300) scale(3.6)" fill="#fff">
<circle cx="-25" cy="-39" r="11"/>
<path d="M-3-35V28A22 22 0 1 1-33.299422 7.625516L29.149711-17.812758A11 11 0 1 0 14-28V6h11A22 22 0 1 1 3 28v-8a11 11 0 0 0 11 0v8A11 11 0 1 0 25 17H3V-28A22 22 0 1 1 33.299422-7.625516L-29.149711 17.812758A11 11 0 1 0 -14 28V-4.947441A22 22 0 0 1-44.052559-35 11 11 0 0 0-35.246951-28 11 11 0 0 0-16.2-17.4z"/>
</g>
</svg>