<?xml version="1.0" encoding="UTF-8" standalone="no"?>
<!-- Created with Inkscape (http://www.inkscape.org/) -->
<svg
   xmlns:svg="http://www.w3.org/2000/svg"
   xmlns="http://www.w3.org/2000/svg"
   version="1.0"
   width="900"
   height="600"
   id="svg2">
  <defs
     id="defs5" />
  <rect
     width="900"
     height="600"
     x="0"
     y="0"
     id="rect2389"
     style="fill:#ffffff;stroke:none" />
  <path
     d="M 510,120 C 399.43678,120 253.32153,204.76928 227,351 C 260.63307,213.54312 413.42944,148 500,148 C 574.87927,148 600,180 600,180 C 600,180 617,196.36427 617,230 C 617,271.26606 584.13098,311 554,311 C 529.24126,311 525,286.21875 525,286.21875 C 525.00001,286.21875 524.95186,267 503,267 C 484.03031,267 475.61175,279.92558 460.78125,288.375 C 446.061,296.76161 430.8601,308 406,308 C 361.219,308 361,272 361,272 C 361,235.31859 421.31043,205.63259 437,198 C 402.19709,206.77384 287,263.80342 287,363 C 287,459.04864 393.88567,480 425,480 C 531.08279,480 673,385.38278 673,257 C 673,188.50345 622.90489,120 510,120 z M 538.25,175.25 C 514.238,175.25 494.75001,194.73801 494.75,218.75 C 494.75,242.762 514.23798,262.24999 538.25,262.25 C 562.262,262.25 581.74997,242.762 581.75,218.75 C 581.75,194.738 562.26197,175.25001 538.25,175.25 z"
     id="path2384"
     style="fill:#009f62;stroke:none" />
</svg>
