<?xml version="1.0" encoding="UTF-8" standalone="no"?>
<!-- Created with Inkscape (http://www.inkscape.org/) -->
<svg
   xmlns:svg="http://www.w3.org/2000/svg"
   xmlns="http://www.w3.org/2000/svg"
   version="1.0"
   width="900"
   height="600"
   id="svg2">
  <defs
     id="defs5" />
  <rect
     width="900"
     height="600"
     x="0"
     y="0"
     id="rect2425"
     style="fill:#ffffff;stroke:none" />
  <g
     id="g2419">
    <path
       d="M 636.12132,285.24817 A 179.91728,179.91728 0 1 1 276.28676,285.24817 A 179.91728,179.91728 0 1 1 636.12132,285.24817 z"
       transform="matrix(1.0004598,0,0,1.0004598,-6.4138031,14.620674)"
       id="path2384"
       style="fill:#30539b;stroke:none" />
    <path
       d="M 384.9375,146.4375 C 380.44164,146.49726 361.68749,147.3125 349,156.5 C 375,161.5 385,224.25 395,286 C 413,422 500.25,443 515,443 C 521.75463,443 547.4375,444.75 555,440.5 C 529.25,422.25 490.46875,368 485.96875,295 C 478.25876,241.24004 459.43751,150.43751 385.9375,146.4375 C 385.9375,146.4375 385.57977,146.42896 384.9375,146.4375 z M 385.96875,147.96875 C 390.84916,147.96875 397.75,155.8125 404.9375,161 C 384.5,175.125 376.96875,191 376.96875,191 C 373.90625,174.5625 373.46875,161 373.46875,161 C 373.46875,154.58804 381.15082,147.96875 385.96875,147.96875 z M 385.28125,152.9375 C 380.54858,152.9375 376.71874,156.76734 376.71875,161.5 C 376.71875,166.23267 380.54857,170.09376 385.28125,170.09375 C 390.01392,170.09375 393.84374,166.23267 393.84375,161.5 C 393.84375,156.76733 390.01391,152.93751 385.28125,152.9375 z M 385.28125,155.75 C 388.45261,155.75 391.03125,158.32863 391.03125,161.5 C 391.03124,164.67138 388.45262,167.25 385.28125,167.25 C 382.10987,167.25 379.53125,164.67137 379.53125,161.5 C 379.53124,158.32863 382.10988,155.75 385.28125,155.75 z"
       id="path2388"
       style="fill:#ffffff;stroke:none" />
    <path
       d="M 521,175 C 521,175 529.0625,185.2175 529.0625,197.25 C 529.0625,232.25179 496.99999,258.64286 497,310.96875 C 497,345.6563 516.22444,384.10051 565.03125,394 C 565.03125,394 553.96872,387.26186 553.96875,373.46875 C 553.96875,345.15836 585,308.81251 585,258.59375 C 585,258.59375 586.76093,188.78858 521,175 z M 547.4375,191.375 C 554.69376,191.375 558.625,197.25 565,213 C 549.65165,211.375 526.9375,225 526.9375,225 C 525.25,223.875 532.12501,209.0625 537.875,198.3125 C 539.64468,195.00397 544.19875,191.375 547.4375,191.375 z M 547.9375,194.5625 C 543.26275,194.5625 539.46872,198.35651 539.46875,203.03125 C 539.46875,207.706 543.26272,211.5 547.9375,211.5 C 552.61225,211.5 556.40622,207.706 556.40625,203.03125 C 556.40625,198.3565 552.61222,194.56251 547.9375,194.5625 z M 547.9375,197.0625 C 551.23222,197.06251 553.90625,199.7365 553.90625,203.03125 C 553.90622,206.326 551.23225,209 547.9375,209 C 544.64272,209 541.96875,206.326 541.96875,203.03125 C 541.96872,199.7365 544.64275,197.0625 547.9375,197.0625 z"
       id="path2390"
       style="fill:#ffffff;stroke:none" />
    <path
       d="M 316.96875,238 C 316.96875,238 328.96874,248.61388 328.96875,269.9375 C 328.96875,290.45243 314.99999,323.97977 315,340.9375 C 315,394.37215 365.75538,424.99999 386.9375,425 C 386.9375,425 385.06251,410.45514 385.0625,399.90625 C 385.0625,379.57229 389.93751,336.46557 389.9375,319.875 C 389.9375,256.16444 344.26654,238 316.96875,238 z M 346.375,247.9375 C 346.375,247.9375 354.375,247 367,267 C 349.5625,269.625 331,280 331,280 C 332.375,258.375 334.55985,247.9375 346.375,247.9375 z M 346.34375,251.875 C 341.807,251.875 338.125,255.557 338.125,260.09375 C 338.125,264.6305 341.807,268.3125 346.34375,268.3125 C 350.8805,268.3125 354.5625,264.6305 354.5625,260.09375 C 354.5625,255.557 350.8805,251.875 346.34375,251.875 z M 346.34375,254.375 C 349.5005,254.375 352.0625,256.937 352.0625,260.09375 C 352.0625,263.2505 349.5005,265.8125 346.34375,265.8125 C 343.187,265.8125 340.625,263.2505 340.625,260.09375 C 340.625,256.937 343.187,254.375 346.34375,254.375 z"
       id="path2386"
       style="fill:#ffffff;stroke:none" />
  </g>
</svg>
