<?xml version="1.0" encoding="UTF-8" standalone="no"?>
<!-- Created with Inkscape (http://www.inkscape.org/) -->
<svg
   xmlns:svg="http://www.w3.org/2000/svg"
   xmlns="http://www.w3.org/2000/svg"
   version="1.0"
   width="900"
   height="600"
   id="svg2">
  <defs
     id="defs5" />
  <rect
     width="900"
     height="600"
     x="0"
     y="0"
     id="rect2438"
     style="fill:#81006c;stroke:none" />
  <path
     d="M 454,100 L 413.375,157.21875 C 343.99583,175.61078 292.81251,238.86272 292.8125,314 C 292.8125,345.15639 301.62545,374.28021 316.875,399 L 258,399 L 302,462 L 329,462 L 356,462 L 329,500 L 422,500 L 449,462 L 476,500 L 571,500 L 544,462 L 571,462 L 598,462 L 642,399 L 593.125,399 C 608.37456,374.28021 617.1875,345.15639 617.1875,314 C 617.1875,237.98336 564.80494,174.13395 494.1875,156.59375 L 454,100 z M 455,206 C 514.61599,206.00001 563,254.384 563,314 C 563.00002,373.616 514.616,422 455,422 C 451.70259,422 448.44115,421.85225 445.21875,421.5625 C 428.69197,417.23517 416.5,402.19457 416.5,384.3125 C 416.5,362.6644 432.86486,345.8125 455,345.8125 C 464.68857,345.8125 473.54155,349.39965 480.3125,355.3125 C 494.18783,346.78962 503.4375,331.46675 503.4375,314 C 503.4375,287.26047 481.73952,265.56251 455,265.5625 C 428.26047,265.5625 406.5625,287.26046 406.5625,314 C 406.5625,327.84374 412.40007,340.32417 421.71875,349.15625 C 412.39968,357.98603 406.5625,370.46859 406.5625,384.3125 C 406.5625,396.15471 410.81031,407.01979 417.875,415.4375 C 376.52795,400.28889 347,360.575 347,314 C 346.99999,254.38399 395.384,206 455,206 z"
     id="path2386"
     style="fill:#ffffff;stroke:none" />
</svg>
