<?xml version="1.0" encoding="UTF-8" standalone="no"?>
<!-- Created with Inkscape (http://www.inkscape.org/) -->
<svg
   xmlns:svg="http://www.w3.org/2000/svg"
   xmlns="http://www.w3.org/2000/svg"
   version="1.0"
   width="900"
   height="600"
   id="svg2">
  <defs
     id="defs5" />
  <rect
     width="900"
     height="600"
     x="0"
     y="0"
     id="rect2619"
     style="fill:#061966;stroke:none" />
  <g
     id="g2621">
    <path
       d="M 450,88.59375 C 401.25697,88.59375 361.4375,126.98277 359.125,175.15625 C 351.6898,173.19081 343.894,172.125 335.84375,172.125 C 285.61581,172.125 244.84375,212.89707 244.84375,263.125 C 244.84375,301.97121 269.24504,335.14226 303.53125,348.1875 C 294.15643,362.49495 288.6875,379.59801 288.6875,397.96875 C 288.6875,448.19669 329.45957,488.93751 379.6875,488.9375 C 408.23191,488.9375 433.71939,475.77338 450.40625,455.1875 C 467.09296,475.77895 492.57609,488.9375 521.125,488.9375 C 571.35294,488.9375 612.12502,448.19669 612.125,397.96875 C 612.125,379.54584 606.64252,362.39464 597.21875,348.0625 C 631.33338,334.93139 655.56248,301.84796 655.5625,263.125 C 655.5625,212.89706 614.79045,172.12501 564.5625,172.125 C 556.368,172.125 548.42982,173.21588 540.875,175.25 C 538.60994,127.03238 498.7748,88.593752 450,88.59375 z M 450,96.21875 C 496.00424,96.218752 533.34375,133.55827 533.34375,179.5625 C 533.34375,181.70841 533.25332,183.83221 533.09375,185.9375 C 542.80633,181.96961 553.42796,179.78125 564.5625,179.78125 C 610.56673,179.78126 647.90625,217.12077 647.90625,263.125 C 647.90625,302.21157 620.94609,335.0418 584.625,344.03125 C 596.98689,358.57142 604.46875,377.40298 604.46875,397.96875 C 604.46872,443.97298 567.12923,481.28125 521.125,481.28125 C 491.29261,481.28124 465.1312,465.58339 450.40625,442 C 435.68005,465.5774 409.51533,481.28125 379.6875,481.28125 C 333.68328,481.28124 296.34375,443.97298 296.34375,397.96875 C 296.34375,377.43478 303.79737,358.62469 316.125,344.09375 C 279.63189,335.22581 252.5,302.33366 252.5,263.125 C 252.5,217.12078 289.83952,179.78125 335.84375,179.78125 C 346.81909,179.78125 357.30685,181.92036 366.90625,185.78125 C 366.75435,183.7266 366.65625,181.65574 366.65625,179.5625 C 366.65624,133.55828 403.99577,96.21875 450,96.21875 z M 447.90625,98.3125 C 404.01128,99.425824 368.71876,135.4008 368.71875,179.5625 C 368.71875,182.77612 368.91787,185.9459 369.28125,189.0625 C 359.07794,184.4448 347.76546,181.84375 335.84375,181.84375 C 290.98107,181.84375 254.56249,218.26233 254.5625,263.125 C 254.5625,302.55509 282.69815,335.45378 319.96875,342.84375 C 306.59012,357.33215 298.40624,376.7083 298.40625,397.96875 C 298.40625,442.83143 334.82483,479.21875 379.6875,479.21875 C 410.00157,479.21875 436.43603,462.59181 450.40625,437.96875 C 464.37521,462.59645 490.80746,479.21875 521.125,479.21875 C 565.98768,479.21875 602.40626,442.83143 602.40625,397.96875 C 602.40625,376.67645 594.19552,357.27672 580.78125,342.78125 C 617.88225,335.25874 645.84373,302.43475 645.84375,263.125 C 645.84375,218.26232 609.42519,181.84375 564.5625,181.84375 C 552.47163,181.84375 541.0032,184.50799 530.6875,189.25 C 531.06554,186.07248 531.28125,182.84123 531.28125,179.5625 C 531.28125,134.69982 494.86269,98.312502 450,98.3125 C 449.29902,98.3125 448.603,98.294828 447.90625,98.3125 z M 450,100.5625 C 493.60699,100.5625 529,135.95552 529,179.5625 C 529,184.21726 528.58595,188.78426 527.8125,193.21875 C 538.80049,187.42242 551.28342,184.125 564.5625,184.125 C 608.16949,184.12501 643.5625,219.51802 643.5625,263.125 C 643.5625,302.8062 614.25965,335.68304 576.125,341.28125 C 590.92406,355.64138 600.125,375.73483 600.125,397.96875 C 600.12497,441.57573 564.73198,476.9375 521.125,476.9375 C 490.16051,476.93749 463.38723,459.08481 450.4375,433.125 C 437.49019,459.09174 410.65706,476.9375 379.6875,476.9375 C 336.08053,476.93749 300.6875,441.57573 300.6875,397.96875 C 300.6875,375.75895 309.88539,355.66948 324.65625,341.3125 C 286.34014,335.87435 256.84375,302.93526 256.84375,263.125 C 256.84375,219.51803 292.23677,184.125 335.84375,184.125 C 348.93381,184.125 361.28191,187.32565 372.15625,192.96875 C 371.41067,188.61202 371,184.13081 371,179.5625 C 370.99999,135.95552 406.39302,100.5625 450,100.5625 z M 450,102.4375 C 407.42041,102.4375 372.875,136.98291 372.875,179.5625 C 372.875,185.38762 373.52441,191.07436 374.75,196.53125 C 363.32504,189.83904 350.03189,185.96875 335.84375,185.96875 C 293.26416,185.96875 258.71876,220.54542 258.71875,263.125 C 258.71875,303.37295 289.59523,336.40401 328.9375,339.90625 C 312.77669,354.0489 302.5625,374.82265 302.5625,397.96875 C 302.5625,440.54834 337.10792,475.09376 379.6875,475.09375 C 411.32825,475.09375 438.51336,455.99516 450.40625,428.71875 C 462.29854,455.99655 489.48323,475.09376 521.125,475.09375 C 563.70459,475.09375 598.28127,440.54834 598.28125,397.96875 C 598.28125,374.81024 588.05086,354.01812 571.875,339.875 C 611.02376,336.18243 641.71874,303.23461 641.71875,263.125 C 641.71875,220.54541 607.1421,185.96875 564.5625,185.96875 C 550.17187,185.96875 536.7211,189.94232 525.1875,196.8125 C 526.45454,191.26911 527.125,185.48815 527.125,179.5625 C 527.125,136.98291 492.5796,102.4375 450,102.4375 z M 450,104.90625 C 491.20975,104.90625 524.65625,138.35276 524.65625,179.5625 C 524.65626,187.567 523.39799,195.26956 521.0625,202.5 C 533.31797,193.68651 548.32553,188.46875 564.5625,188.46875 C 605.77224,188.46876 639.21875,221.91526 639.21875,263.125 C 639.21874,304.08336 606.17576,337.34539 565.3125,337.75 C 583.80354,351.34261 595.78125,373.27633 595.78125,397.96875 C 595.78128,439.17849 562.33474,472.625 521.125,472.625 C 488.2704,472.62499 460.40819,451.34669 450.4375,421.84375 C 440.46961,451.35167 412.54564,472.625 379.6875,472.625 C 338.47777,472.62499 305.03125,439.17849 305.03125,397.96875 C 305.03125,373.28278 317.04842,351.37465 335.53125,337.78125 C 294.46563,337.612 261.1875,304.2301 261.1875,263.125 C 261.1875,221.91527 294.63401,188.46875 335.84375,188.46875 C 351.84209,188.46875 366.65707,193.51499 378.8125,202.09375 C 376.55989,194.98056 375.34375,187.41778 375.34375,179.5625 C 375.34374,138.35277 408.79026,104.90625 450,104.90625 z"
       id="path2394"
       style="fill:#ffffff;stroke:none" />
    <path
       d="M 450,152 L 422.03125,215.90625 L 222,186 L 246,228 L 422.09375,240.59375 L 423.40625,244.875 L 248,232 L 265,262 L 431.875,273.125 L 433,276.875 L 268,266 L 284,295 L 450,302.5 L 616,295 L 632,266 L 467.125,276.875 L 468.25,273.125 L 635,262 L 652,232 L 476.75,244.875 L 478.03125,240.59375 L 654,228 L 678,186 L 477.96875,215.90625 L 450,152 z M 371,303 L 441.5,445 L 426,337 L 450,337 L 474,337 L 458.5,445 L 529,303 L 450,307 L 371,303 z M 450,342 L 438,360.5 L 450,379 L 462,360.5 L 450,342 z M 450,380 L 438,398.5 L 450,417 L 462,398.5 L 450,380 z"
       id="path2581"
       style="fill:#ffffff;stroke:none" />
  </g>
</svg>
