<?xml version="1.0" encoding="UTF-8" standalone="no"?>
<!-- Created with Inkscape (http://www.inkscape.org/) -->
<svg
   xmlns:svg="http://www.w3.org/2000/svg"
   xmlns="http://www.w3.org/2000/svg"
   version="1.0"
   width="900"
   height="600"
   id="svg2">
  <defs
     id="defs5" />
  <rect
     width="900"
     height="600"
     x="0"
     y="0"
     id="rect2416"
     style="fill:#ffffff;stroke:none" />
  <path
     d="M 450,150 L 399,200 L 226,200 L 340.9375,264.40625 C 330.86588,282.41179 325.125,303.16443 325.125,325.25 C 325.125,391.49796 376.78836,445.7466 442,449.875 L 442,400.09375 C 404.21966,396.09432 374.75,364.08505 374.75,325.25 C 374.75,283.712 408.462,250 450,250 C 491.538,250 525.25,283.712 525.25,325.25 C 525.25,364.08505 495.78034,396.09432 458,400.09375 L 458,449.875 C 523.21164,445.74661 574.87502,391.49796 574.875,325.25 C 574.875,303.16443 569.13412,282.41179 559.0625,264.40625 L 674,200 L 501,200 L 450,150 z M 449.9375,263 C 448.87379,297.39844 420.65503,325 386,325 C 421.328,325 450,353.672 450,389 C 450,354.34497 477.60155,326.12621 512,325.0625 L 512,324.9375 C 478.26954,323.89444 451.10555,296.73046 450.0625,263 L 449.9375,263 z"
     id="path2386"
     style="fill:#420042;stroke:none" />
</svg>
