<?xml version="1.0" encoding="UTF-8" standalone="no"?>
<!-- Created with Inkscape (http://www.inkscape.org/) -->

<svg
   xmlns:dc="http://purl.org/dc/elements/1.1/"
   xmlns:cc="http://creativecommons.org/ns#"
   xmlns:rdf="http://www.w3.org/1999/02/22-rdf-syntax-ns#"
   xmlns:svg="http://www.w3.org/2000/svg"
   xmlns="http://www.w3.org/2000/svg"
   xmlns:sodipodi="http://sodipodi.sourceforge.net/DTD/sodipodi-0.dtd"
   xmlns:inkscape="http://www.inkscape.org/namespaces/inkscape"
   version="1.1"
   id="svg2"
   width="324"
   height="216"
   viewBox="0 0 324 216"
   sodipodi:docname="Flag of Setagaya, Tokyo.svg"
   inkscape:version="0.92.3 (2405546, 2018-03-11)">
  <metadata
     id="metadata8">
    <rdf:RDF>
      <cc:Work
         rdf:about="">
        <dc:format>image/svg+xml</dc:format>
        <dc:type
           rdf:resource="http://purl.org/dc/dcmitype/StillImage" />
        <dc:title></dc:title>
      </cc:Work>
    </rdf:RDF>
  </metadata>
  <defs
     id="defs6" />
  <sodipodi:namedview
     pagecolor="#ffffff"
     bordercolor="#666666"
     borderopacity="1"
     objecttolerance="10"
     gridtolerance="10"
     guidetolerance="10"
     inkscape:pageopacity="0"
     inkscape:pageshadow="2"
     inkscape:window-width="1920"
     inkscape:window-height="1017"
     id="namedview4"
     showgrid="false"
     inkscape:zoom="1.7530864"
     inkscape:cx="130.3173"
     inkscape:cy="98.54893"
     inkscape:window-x="-8"
     inkscape:window-y="-8"
     inkscape:window-maximized="1"
     inkscape:current-layer="svg2" />
  <g
     id="g947"
     transform="matrix(0.36,0,0,0.36,-8.1981344e-6,0)"
     style="stroke-width:2.77777767">
    <rect
       width="900"
       height="600"
       x="3.4106051e-013"
       y="5.6843419e-014"
       id="rect2405"
       style="fill:#5a004a;fill-opacity:1;stroke:none;stroke-width:2.77777767" />
    <path
       d="m 452.08451,102.90801 c -109.51214,0 -198.38425,89.04956 -198.38425,198.78037 0,109.73081 88.87212,198.78037 198.38425,198.78037 109.51214,0 198.38423,-89.04957 198.38424,-198.78037 0,-109.73081 -88.8721,-198.78037 -198.38424,-198.78037 z m 9.85876,14.66234 c 97.00244,5.14353 174.17138,85.64757 174.17138,184.11803 0,30.06009 -7.2151,58.4507 -19.96553,83.53187 -33.84189,-24.32114 -57.6722,-41.11613 -74.99477,-53.4927 l 41.38818,-71.82064 -70.77844,50.13776 c -14.32425,-11.33544 -18.65975,-17.22215 -25.32894,-28.79659 -6.58268,-11.4243 -9.51628,-18.61616 -12.05993,-36.18989 l 79.3971,-36.31416 h -83.3654 c -1.96598,-21.11444 -4.46428,-50.00726 -8.46365,-91.17368 z m -20.24456,0.031 c -3.99752,41.14909 -6.4982,70.03381 -8.46365,91.14266 h -82.83837 l 78.87007,36.40735 c -2.54056,17.50557 -5.48895,24.69272 -12.05993,36.0967 -6.66633,11.56947 -10.98842,17.47068 -25.29795,28.79659 l -70.77843,-50.13776 41.38818,71.82064 c -17.25559,12.3289 -41.01106,29.0378 -74.65374,53.21312 -12.66037,-25.01127 -19.81052,-53.30579 -19.81052,-83.25229 0,-98.29259 76.88887,-178.68108 173.64434,-184.08696 z m 9.88976,224.34633 c 13.33513,0 20.59667,0.81608 37.54389,7.57968 l -8.27764,86.85575 41.6052,-72.22447 c 19.34251,8.8395 45.7689,21.12861 83.70643,38.33333 -32.87158,50.32511 -89.61682,83.594 -154.08184,83.594 -64.46503,0 -121.21026,-33.26889 -154.08184,-83.594 37.68655,-17.1622 63.97702,-29.48126 83.21039,-38.33333 l 41.6052,72.22447 -8.30864,-86.88681 c 16.3017,-6.50097 23.97578,-7.54862 37.07885,-7.54862 z"
       id="path2386"
       style="fill:#ffffff;stroke:none;stroke-width:2.77777767"
       inkscape:connector-curvature="0" />
  </g>
</svg>
