<?xml version="1.0" encoding="UTF-8" standalone="no"?>
<!-- Created with Inkscape (http://www.inkscape.org/) -->
<svg
   xmlns:svg="http://www.w3.org/2000/svg"
   xmlns="http://www.w3.org/2000/svg"
   version="1.0"
   width="900"
   height="600"
   id="svg2">
  <defs
     id="defs5" />
  <rect
     width="900"
     height="600"
     x="0"
     y="0"
     id="rect2414"
     style="fill:#5a004a;stroke:none" />
  <path
     d="M 430,100.53125 C 416.20712,101.89889 402.82928,104.66426 390,108.6875 L 390,130.3125 C 320.13928,155.04529 270.03125,221.70372 270.03125,300 C 270.03125,392.5785 340.06085,468.88543 430,478.84375 L 430,458.90625 C 403.69088,455.62184 379.34984,445.95786 358.59375,431.5 L 430.09375,390.1875 L 366.5,280 L 533.6875,280 L 470.15625,390 L 541.6875,431.28125 C 520.86789,445.85185 496.43238,455.60645 470,458.90625 L 470,478.84375 C 559.93915,468.88543 629.96875,392.5785 629.96875,300 C 629.96875,221.70372 579.86072,155.04529 510,130.3125 L 510,108.6875 C 497.17072,104.66426 483.79288,101.89889 470,100.53125 L 470,240 L 430,240 L 430,100.53125 z M 390,151.5 L 390,240 L 301.5,240 C 317.7584,199.82817 349.82817,167.7584 390,151.5 z M 510,151.5 C 550.17183,167.7584 582.2416,199.82817 598.5,240 L 510,240 L 510,151.5 z M 291.09375,280 L 343.4375,280 L 392.8125,365.53125 L 327.5625,403.1875 C 304.03484,375.3111 289.84375,339.30683 289.84375,300 C 289.84375,293.22211 290.27515,286.55722 291.09375,280 z M 556.75,280 L 608.90625,280 C 609.72485,286.55722 610.15625,293.22211 610.15625,300 C 610.15626,339.20271 596.04095,375.12324 572.625,402.96875 L 507.46875,365.34375 L 556.75,280 z"
     id="path2386"
     style="fill:#ffffff;stroke:none" />
</svg>
