<?xml version="1.0" encoding="UTF-8" standalone="no"?>
<!-- Created with Inkscape (http://www.inkscape.org/) -->
<svg
   xmlns:svg="http://www.w3.org/2000/svg"
   xmlns="http://www.w3.org/2000/svg"
   version="1.0"
   width="900"
   height="600"
   id="svg2">
  <defs
     id="defs5" />
  <rect
     width="900"
     height="600"
     x="0"
     y="0"
     id="rect2444"
     style="fill:#004477;stroke:none" />
  <path
     d="M 473,100 L 473,206.5 L 473,260.375 L 427,287 L 427,233.96875 L 427,182 C 393.35144,201.4815 359.67881,220.92793 326.03125,240.40625 C 322.14643,243.59995 317.16783,245.5 311.75,245.5 C 299.33001,245.5 289.25,235.42 289.25,223 C 289.25001,210.58 299.33,200.5 311.75,200.5 C 319.94111,200.5 327.12723,204.88912 331.0625,211.4375 L 448.9375,143.15625 L 448.9375,116.90625 L 356.78125,170.34375 C 344.75658,160.15895 329.23055,154 312.25,154 C 274.162,154 243.25,184.912 243.25,223 C 243.25,261.088 274.162,292 312.25,292 C 330.38149,292 344.11901,282.85595 359.1875,273.53125 L 382,260.21875 L 382,313.0625 L 243,393.5 L 427,500 L 427,393.5 L 427,339.25 L 473,312.40625 L 473,313 L 473,365.875 L 473,417.75 C 507.24021,397.88665 541.51961,378.08829 575.71875,358.15625 C 579.25366,355.84389 583.46359,354.5 588,354.5 C 600.42001,354.5 610.5,364.58 610.5,377 C 610.50001,389.42 600.42,399.5 588,399.5 C 579.78377,399.5 572.58364,395.08177 568.65625,388.5 L 451,456.96875 L 451,483 L 543.65625,429.40625 C 555.72216,439.74557 571.3762,446 588.5,446 C 626.588,446 657.5,415.088 657.5,377 C 657.5,338.912 626.588,308 588.5,308 C 571.15395,308 557.56479,316.16927 543.1875,325 L 518,339.59375 L 518,286.96875 L 657,206.5 L 473,100 z M 518,178.5 L 566,206.5 L 518,234.5 L 518,178.5 z M 382,365.5 L 382,421.5 L 334,393.5 L 382,365.5 z"
     id="path2415"
     style="fill:#ffffff;stroke:none" />
</svg>
