<?xml version="1.0" encoding="UTF-8" standalone="no"?>
<!-- Created with Inkscape (http://www.inkscape.org/) -->
<svg
   xmlns:svg="http://www.w3.org/2000/svg"
   xmlns="http://www.w3.org/2000/svg"
   version="1.0"
   width="900"
   height="600"
   id="svg2">
  <defs
     id="defs5" />
  <rect
     width="900"
     height="600"
     x="0"
     y="0"
     id="rect2391"
     style="fill:#23115d;stroke:none" />
  <path
     d="M 442.59375,100.46875 C 414.53562,100.63928 382.84424,102.42657 350.03125,107.21875 C 350.03124,107.21875 351.47819,179.38024 390.71875,272.71875 C 409.68656,270.05858 429.4375,269.6875 429.4375,269.6875 C 398.34623,201.11267 389.96875,136.03125 389.96875,136.03125 C 444.42566,130.22013 509.15625,135.5625 509.15625,135.5625 C 494.24095,235.36351 453.96875,301.15625 453.96875,301.15625 C 453.96874,301.15624 469.35425,326.77709 474.65625,337.34375 C 474.65625,337.34375 540.1268,242.20786 548.46875,107.46875 C 548.46875,107.46875 504.32163,100.09357 442.59375,100.46875 z M 440.125,276.5 C 402.0762,276.74721 314.64384,282.89108 224,328 C 224,328 257.21875,416.73346 323,500 C 323,500 384.78676,462.65257 446,382 C 434.21232,366.90349 424,350 424,350 C 380.15809,411.21324 328,451 328,451 C 295.73897,406.74449 268,348 268,348 C 361.88787,311.01654 439,313 439,313 C 439,313 453.5,286.875 460,277 C 460,277 452.80793,276.4176 440.125,276.5 z M 513.09375,280.3125 C 505.91362,298.06918 496.375,315.375 496.375,315.375 C 571.30818,322.73658 631.84375,348 631.84375,348 C 609.64787,398.06664 572.65625,451.46875 572.65625,451.46875 C 493.68371,388.65119 456.84375,320.875 456.84375,320.875 C 456.84376,320.875 426.95825,321.37917 415.15625,320.6875 C 415.15625,320.68749 464.79598,424.96861 577.3125,499.5625 C 577.3125,499.56251 637.56093,426.44525 676.78125,327.84375 C 676.78126,327.84375 613.54755,292.99843 513.09375,280.3125 z"
     id="path2384"
     style="fill:#ffffff;stroke:none" />
</svg>
