<?xml version="1.0" encoding="UTF-8" standalone="no"?>
<!-- Created with Inkscape (http://www.inkscape.org/) -->
<svg
   xmlns:svg="http://www.w3.org/2000/svg"
   xmlns="http://www.w3.org/2000/svg"
   version="1.0"
   width="900"
   height="600"
   id="svg2">
  <defs
     id="defs5" />
  <rect
     width="900"
     height="600"
     x="0"
     y="0"
     id="rect2404"
     style="fill:#297b29;stroke:none" />
  <path
     d="M 249.71875,100 L 430.90625,293.59375 L 250.25,500 L 275.5,500 L 431,322.34375 L 431,500 L 450,500 L 450,314 L 624.0625,500 L 650.0625,500 L 572.59375,417.21875 L 650,328.78125 L 650,299.90625 L 559.53125,403.25 L 514.5625,355.1875 L 650,200.4375 L 650,171.59375 L 501.53125,341.25 L 456.53125,293.1875 L 625.59375,100 L 600.34375,100 L 450,271.78125 L 450,100 L 431,100 L 431,265.90625 L 275.71875,100 L 249.71875,100 z"
     id="rect2384"
     style="fill:#ffffff;stroke:none" />
</svg>
