<?xml version="1.0" encoding="UTF-8" standalone="no"?>
<!-- Created with Inkscape (http://www.inkscape.org/) -->
<svg
   xmlns:svg="http://www.w3.org/2000/svg"
   xmlns="http://www.w3.org/2000/svg"
   version="1.0"
   width="900"
   height="600"
   id="svg2">
  <defs
     id="defs5" />
  <rect
     width="900"
     height="600"
     x="0"
     y="0"
     id="rect2400"
     style="fill:#13075d;stroke:none" />
  <path
     d="M 450,84 L 432,116 L 432,154 L 248,154 L 339.75,312.96875 L 307.5625,331.5625 L 288,364.59375 L 326.375,364.15625 L 358.5625,345.5625 L 450,504 L 541.53125,345.4375 L 573.96875,364.15625 L 612.34375,364.59375 L 592.78125,331.5625 L 560.34375,312.84375 L 652,154 L 468,154 L 468,116 L 450,84 z M 349.3125,191 L 432,191 L 432,238.71875 L 349.3125,191 z M 468,191 L 551.03125,191 L 468,238.9375 L 468,191 z M 331.28125,224.03125 L 412.53125,270.9375 L 371.90625,294.40625 L 331.28125,224.03125 z M 568.53125,224.34375 L 528.1875,294.25 L 487.78125,270.9375 L 568.53125,224.34375 z M 468,302.96875 L 509.375,326.84375 L 468,398.53125 L 468,302.96875 z M 432,303.1875 L 432,398.53125 L 390.71875,327 L 432,303.1875 z"
     id="rect2384"
     style="fill:#ffffff;stroke:none" />
</svg>
