<?xml version="1.0" encoding="UTF-8" standalone="no"?>
<!-- Created with Inkscape (http://www.inkscape.org/) -->
<svg
   xmlns:svg="http://www.w3.org/2000/svg"
   xmlns="http://www.w3.org/2000/svg"
   version="1.0"
   width="900"
   height="600"
   id="svg2">
  <defs
     id="defs5" />
  <rect
     width="900"
     height="600"
     x="0"
     y="0"
     id="rect2412"
     style="fill:#660066;stroke:none" />
  <g
     id="g2414">
    <path
       d="M 450,100 L 366.375,160.75 C 367.64547,160.58568 368.93502,160.5 370.25,160.5 C 386.80999,160.5 400.25,173.94 400.25,190.5 C 400.24999,207.06 386.81,220.5 370.25,220.5 C 353.68999,220.5 340.25,207.06 340.25,190.5 C 340.25,185.89224 341.29749,181.52734 343.15625,177.625 L 259.78125,238.1875 L 291.375,335.4375 C 294.18538,321.78594 306.27053,311.5 320.75,311.5 C 337.30999,311.5 350.75,324.94 350.75,341.5 C 350.74999,358.06 337.31,371.5 320.75,371.5 C 312.97183,371.5 305.89466,368.54824 300.5625,363.6875 L 332.4375,461.8125 L 435.59375,461.8125 C 426.30849,456.71086 420,446.83583 420,435.5 C 420,418.93999 433.44,405.5 450,405.5 C 466.56,405.49999 480,418.94 480,435.5 C 480,446.83582 473.69151,456.71086 464.40625,461.8125 L 567.5625,461.8125 L 599.4375,363.6875 C 594.10534,368.54824 587.02817,371.5 579.25,371.5 C 562.69,371.5 549.25,358.06 549.25,341.5 C 549.25,324.94 562.69,311.5 579.25,311.5 C 593.72947,311.5 605.81462,321.78594 608.625,335.4375 L 640.21875,238.1875 L 557.59375,178.15625 C 559.2969,181.92131 560.25,186.10125 560.25,190.5 C 560.24999,207.06 546.81,220.5 530.25,220.5 C 513.68999,220.5 500.25,207.06 500.25,190.5 C 500.24999,173.94 513.69,160.5 530.25,160.5 C 531.36063,160.5 532.4518,160.56971 533.53125,160.6875 L 450,100 z M 450,224.5 C 491.952,224.49999 526,258.548 526,300.5 C 526,342.452 491.952,376.5 450,376.5 C 408.048,376.5 374,342.452 374,300.5 C 374,258.54799 408.048,224.5 450,224.5 z"
       id="path2384"
       style="fill:#ffffff;stroke:none" />
    <path
       d="M 422.46875,242.03125 C 422.46875,242.03125 394,243.86658 394,274.5 C 394.00001,299.4455 410,303.42284 410,331 C 410.00001,347.97886 402.5,359.96875 402.5,359.96875 C 402.5,359.96874 430.96875,356.74107 430.96875,327 C 430.96874,303.12058 414.53125,296.28463 414.53125,271 C 414.53125,253.85176 422.46875,242.03125 422.46875,242.03125 z M 459.96875,242.03125 C 459.96875,242.03125 431.5,243.86658 431.5,274.5 C 431.50001,299.4455 447.5,303.42284 447.5,331 C 447.50001,347.97886 440,359.96875 440,359.96875 C 440,359.96874 468.46875,356.74107 468.46875,327 C 468.46874,303.12058 452.03125,296.28463 452.03125,271 C 452.03125,253.85176 459.96875,242.03125 459.96875,242.03125 z M 497.46875,242.03125 C 497.46875,242.03125 469,243.86658 469,274.5 C 469.00001,299.4455 485,303.42284 485,331 C 485.00001,347.97886 477.5,359.96875 477.5,359.96875 C 477.5,359.96874 505.96875,356.74107 505.96875,327 C 505.96874,303.12058 489.53125,296.28463 489.53125,271 C 489.53125,253.85176 497.46875,242.03125 497.46875,242.03125 z"
       id="path2404"
       style="fill:#ffffff;stroke:none" />
  </g>
</svg>
