<?xml version="1.0" encoding="UTF-8" standalone="no"?>
<!-- Created with Inkscape (http://www.inkscape.org/) -->
<svg
   xmlns:svg="http://www.w3.org/2000/svg"
   xmlns="http://www.w3.org/2000/svg"
   version="1.0"
   width="900"
   height="600"
   id="svg2">
  <defs
     id="defs5" />
  <rect
     width="900"
     height="600"
     x="0"
     y="0"
     id="rect2413"
     style="fill:#660066;stroke:none" />
  <path
     d="M 450,120.09375 C 350.68566,120.09375 270.09373,200.68566 270.09375,300 C 270.09375,399.31434 350.68566,479.90627 450,479.90625 C 549.31434,479.90625 629.90623,399.31434 629.90625,300 C 629.90625,200.68566 549.31434,120.09375 450,120.09375 z M 450,134.15625 C 541.55184,134.15625 615.84375,208.44816 615.84375,300 C 615.84373,391.55184 541.55184,465.84375 450,465.84375 C 358.44816,465.84377 284.15625,391.55184 284.15625,300 C 284.15623,208.44816 358.44816,134.15625 450,134.15625 z M 439.96875,165.40625 C 410.20771,165.40625 393.91636,183.77114 388.125,189.5625 L 298,279.71875 L 317.78125,299.53125 L 407.9375,209.375 C 416.93891,200.37359 425.37385,194.34375 439.96875,194.34375 C 461.82931,194.34374 479.5625,212.10818 479.5625,233.96875 C 479.5625,251.39767 468.83963,261.47287 464.4375,265.875 L 439.8125,290.5 L 394,244.6875 L 374.1875,264.46875 L 420.03125,310.3125 L 333.5625,396.78125 L 353.375,416.5625 L 484.25,285.6875 C 492.87564,277.06186 502.30333,270.65625 516.5,270.65625 C 538.36056,270.65623 556.09375,288.42068 556.09375,310.28125 C 556.38275,323.39214 548.48576,334.57674 540.9375,342.125 L 516.1875,366.875 L 470.375,321.03125 L 450.5625,340.84375 L 496.375,386.6875 L 450.71875,432.34375 L 470.5,452.15625 L 560.71875,361.9375 C 574.63285,348.0234 585.0625,332.54275 585.0625,310.28125 C 585.0625,276.14085 560.02335,247.81233 527.34375,242.59375 L 561.59375,208.34375 L 541.8125,188.53125 L 507.59375,222.75 C 502.23128,190.23976 473.98876,165.40625 439.96875,165.40625 z"
     id="path2386"
     style="fill:#ffffff;stroke:none" />
</svg>
