<?xml version="1.0" encoding="UTF-8" standalone="no"?>
<!-- Created with Inkscape (http://www.inkscape.org/) -->

<svg
   xmlns:dc="http://purl.org/dc/elements/1.1/"
   xmlns:cc="http://creativecommons.org/ns#"
   xmlns:rdf="http://www.w3.org/1999/02/22-rdf-syntax-ns#"
   xmlns:svg="http://www.w3.org/2000/svg"
   xmlns="http://www.w3.org/2000/svg"
   xmlns:sodipodi="http://sodipodi.sourceforge.net/DTD/sodipodi-0.dtd"
   xmlns:inkscape="http://www.inkscape.org/namespaces/inkscape"
   version="1.1"
   id="svg2"
   width="324"
   height="216"
   viewBox="0 0 324 216"
   sodipodi:docname="Flag_of_Toshima_Village,_Tokyo.svg"
   inkscape:version="0.92.3 (2405546, 2018-03-11)">
  <metadata
     id="metadata8">
    <rdf:RDF>
      <cc:Work
         rdf:about="">
        <dc:format>image/svg+xml</dc:format>
        <dc:type
           rdf:resource="http://purl.org/dc/dcmitype/StillImage" />
        <dc:title></dc:title>
      </cc:Work>
    </rdf:RDF>
  </metadata>
  <defs
     id="defs6">
    <inkscape:perspective
       sodipodi:type="inkscape:persp3d"
       inkscape:vp_x="0 : 300 : 1"
       inkscape:vp_y="0 : 1000 : 0"
       inkscape:vp_z="900 : 300 : 1"
       inkscape:persp3d-origin="450 : 200 : 1"
       id="perspective833" />
  </defs>
  <sodipodi:namedview
     pagecolor="#ffffff"
     bordercolor="#666666"
     borderopacity="1"
     objecttolerance="10"
     gridtolerance="10"
     guidetolerance="10"
     inkscape:pageopacity="0"
     inkscape:pageshadow="2"
     inkscape:window-width="1920"
     inkscape:window-height="1017"
     id="namedview4"
     showgrid="false"
     inkscape:zoom="1.7530864"
     inkscape:cx="246.34194"
     inkscape:cy="78.911332"
     inkscape:window-x="-8"
     inkscape:window-y="-8"
     inkscape:window-maximized="1"
     inkscape:current-layer="svg2" />
  <g
     id="layer1"
     transform="translate(-713.48588,-337.953)">
    <path
       style="opacity:1;fill:#ffffff;fill-opacity:1;stroke:none;stroke-width:2;stroke-linecap:round;stroke-linejoin:miter;stroke-miterlimit:4;stroke-dasharray:none;stroke-dashoffset:0;stroke-opacity:1"
       d="m 713.4859,337.95306 h 324 v 216 h -324 z"
       id="rect13874"
       inkscape:connector-curvature="0" />
    <g
       id="g13856"
       transform="matrix(1.6371915,0,0,1.6698093,-815.50936,-471.13486)"
       style="stroke-width:0.99406874">
      <path
         d="m 1077.8004,549.56377 c 0,24.05375 -19.885,43.545 -44.4137,43.545 -24.5288,0 -44.41499,-19.49125 -44.41499,-43.545 0,-24.055 19.88619,-43.555 44.41499,-43.555 24.5287,0 44.4137,19.5 44.4137,43.555"
         style="fill:#0042ce;fill-opacity:1;fill-rule:nonzero;stroke:none;stroke-width:0.99406874"
         id="path12137"
         inkscape:connector-curvature="0" />
      <path
         d="m 1068.775,524.07777 c 8.0463,11.175 -1.2987,31.65125 -20.865,45.73125 -19.565,14.07625 -41.9437,16.435 -49.98749,5.2625 -8.0437,-11.17625 1.2988,-31.65 20.86499,-45.73 19.5638,-14.0825 41.9413,-16.43875 49.9875,-5.26375"
         style="fill:#ffffff;fill-opacity:1;fill-rule:nonzero;stroke:none;stroke-width:0.99406874"
         id="path12141"
         inkscape:connector-curvature="0" />
      <path
         id="path12145"
         d="m 1053.7109,518.89648 c -8.0339,0.17369 -17.8634,3.6729 -26.9668,10.22461 -16.185,11.64875 -23.9486,28.5343 -17.3398,37.7168 6.6087,9.18375 25.0896,7.18266 41.2734,-4.46484 16.1837,-11.64875 23.951,-28.5375 17.336,-37.71875 -2.8913,-4.0168 -8.0542,-5.8929 -14.3028,-5.75782 z m 1.5176,0.38086 c 5.3409,0.0735 9.7471,1.80356 12.3242,5.29883 6.3512,8.605 -0.7963,24.63961 -15.955,35.81836 -15.1538,11.175 -32.5847,13.26195 -38.9297,4.6582 -6.3437,-8.605 0.7987,-24.64015 15.955,-35.8164 8.9983,-6.6359 18.7996,-10.06644 26.6055,-9.95899 z"
         style="fill:#0042ce;fill-opacity:1;fill-rule:nonzero;stroke:none;stroke-width:0.99406874"
         inkscape:connector-curvature="0" />
      <path
         id="path12153"
         d="m 1055.7148,520.09961 c -7.1485,-0.0511 -16.1444,3.13863 -24.4257,9.24609 -13.95,10.28625 -20.5901,24.95688 -14.8301,32.76563 5.7576,7.81 21.7336,5.80062 35.6836,-4.48438 13.9499,-10.2875 20.5926,-24.95882 14.8301,-32.76757 -2.3405,-3.17282 -6.3668,-4.72482 -11.2579,-4.75977 z m 0.2422,0.40039 c 4.6423,0.0565 8.4711,1.55285 10.7071,4.58398 5.51,7.46375 -0.7237,21.40071 -13.9161,31.12696 -13.1901,9.72875 -28.3458,11.56656 -33.8496,4.10156 -5.5025,-7.4625 0.7313,-21.3975 13.92,-31.125 7.8316,-5.7757 16.3538,-8.7701 23.1386,-8.6875 z"
         style="fill:#0042ce;fill-opacity:1;fill-rule:nonzero;stroke:none;stroke-width:0.99406874"
         inkscape:connector-curvature="0" />
      <path
         id="path12161"
         d="m 1055.2969,521.54883 c -5.9439,0.17984 -13.1787,2.83765 -19.8457,7.7539 -11.8487,8.73875 -17.4151,21.30868 -12.4239,28.07618 4.9913,6.76625 18.6436,5.16828 30.4961,-3.57422 11.8512,-8.73875 17.4169,-21.30992 12.4219,-28.07617 -2.1836,-2.96079 -6.0254,-4.31957 -10.6484,-4.17969 z m 0.2617,0.67969 c 4.3492,-0.14447 7.9581,1.12023 10.0039,3.89453 4.6788,6.34125 -0.5894,18.16234 -11.7656,26.40234 -11.1726,8.24 -24.0242,9.78266 -28.6992,3.44141 -4.6762,-6.34125 0.5945,-18.16039 11.7695,-26.40039 6.2852,-4.63571 13.0995,-7.15215 18.6914,-7.33789 z"
         style="fill:#0042ce;fill-opacity:1;fill-rule:nonzero;stroke:none;stroke-width:0.99406874"
         inkscape:connector-curvature="0" />
      <path
         id="path12169"
         d="m 1056.0996,523.1875 c -4.8932,0.13033 -10.8443,2.30125 -16.3203,6.33789 -9.7299,7.17625 -14.2713,17.53477 -10.1426,23.13477 4.1325,5.6025 15.3696,4.32078 25.0996,-2.85547 9.7325,-7.1775 14.2764,-17.53477 10.1426,-23.13477 -1.8074,-2.45 -4.9735,-3.58379 -8.7793,-3.48242 z m 0.2129,0.52734 c 3.5857,-0.0919 6.5688,0.97993 8.2734,3.29102 3.8975,5.285 -0.3682,15.04328 -9.5332,21.80078 -9.16,6.7575 -19.7483,7.95047 -23.6445,2.66797 -3.8963,-5.285 0.3739,-15.04383 9.5352,-21.79883 5.1545,-3.80109 10.7589,-5.84271 15.3691,-5.96094 z"
         style="fill:#0042ce;fill-opacity:1;fill-rule:nonzero;stroke:none;stroke-width:0.99406874"
         inkscape:connector-curvature="0" />
      <path
         d="m 1063.8329,527.72065 c 3.0838,4.1775 -0.4312,12 -7.8525,17.47125 -7.4162,5.46875 -15.9262,6.5175 -19.01,2.34 -3.0812,-4.17875 0.435,-12.00125 7.8538,-17.47 7.4187,-5.47 15.9287,-6.51875 19.0087,-2.34125"
         style="fill:#0042ce;fill-opacity:1;fill-rule:nonzero;stroke:none;stroke-width:0.99406874"
         id="path12177"
         inkscape:connector-curvature="0" />
      <path
         d="m 1011.2301,527.93415 c 2.395,3.2475 -0.1587,9.1925 -5.7037,13.28125 -5.54379,4.08875 -11.97759,4.7725 -14.37249,1.525 -2.395,-3.245 0.16,-9.19125 5.705,-13.28 5.54369,-4.08875 11.97749,-4.77125 14.37119,-1.52625"
         style="fill:#ffffff;fill-opacity:1;fill-rule:nonzero;stroke:none;stroke-width:0.99406874"
         id="path12181"
         inkscape:connector-curvature="0" />
    </g>
  </g>
</svg>
