<?xml version="1.0" encoding="UTF-8" standalone="no"?>
<!-- Created with Inkscape (http://www.inkscape.org/) -->
<svg
   xmlns:svg="http://www.w3.org/2000/svg"
   xmlns="http://www.w3.org/2000/svg"
   xmlns:xlink="http://www.w3.org/1999/xlink"
   version="1.0"
   width="900"
   height="600"
   id="svg2">
  <defs
     id="defs5" />
  <rect
     width="900"
     height="600"
     rx="0"
     ry="0"
     x="0"
     y="0"
     id="rect2516"
     style="fill:#5a004a;stroke:none" />
  <g
     id="g2500">
    <path
       d="M 446.84375,233.84375 C 424.85052,234.95979 405.67533,246.7765 394.40625,264.1875 C 395.95833,263.481 397.80897,263.51531 399.40625,264.4375 L 403.28125,266.6875 C 412.71116,253.52292 427.52256,244.4926 444.5,242.8125 L 444.5,238.40625 C 444.5,236.50188 445.4437,234.83021 446.90625,233.84375 C 446.88547,233.84478 446.86452,233.8427 446.84375,233.84375 z M 453.09375,233.84375 C 454.5563,234.83021 455.5,236.50188 455.5,238.40625 L 455.5,242.75 C 472.59055,244.29239 487.53276,253.29526 497.0625,266.46875 L 500.59375,264.4375 C 502.47935,263.34885 504.72385,263.51512 506.40625,264.65625 C 495.08523,246.83927 475.51951,234.79381 453.09375,233.84375 z M 450.25,248.25 C 421.546,248.25 398.25,271.546 398.25,300.25 C 398.25,328.954 421.546,352.25 450.25,352.25 C 478.954,352.25 502.25,328.954 502.25,300.25 C 502.25,271.546 478.954,248.25 450.25,248.25 z M 440,260.3125 C 441.385,260.3125 442.5,261.52498 442.5,263.03125 L 442.5,266 L 457,266 L 457,263.03125 C 457,261.52497 458.115,260.3125 459.5,260.3125 C 460.885,260.3125 462,261.52498 462,263.03125 L 462,266 L 477.125,266 C 478.43499,266 479.5,267.06502 479.5,268.375 L 479.5,288.125 C 479.5,289.43499 478.43498,290.5 477.125,290.5 L 421.875,290.5 C 420.56501,290.5 419.5,289.43498 419.5,288.125 L 419.5,268.375 C 419.5,267.06501 420.56502,266 421.875,266 L 437.5,266 L 437.5,263.03125 C 437.5,261.52497 438.615,260.3125 440,260.3125 z M 508.8125,268.71875 C 509.00246,270.78071 508.0143,272.85992 506.09375,273.96875 L 502.65625,275.96875 C 506.08658,283.35275 508,291.57666 508,300.25 C 508,308.77945 506.13638,316.8673 502.8125,324.15625 L 506.09375,326.03125 C 508.23775,327.2691 509.21027,329.71482 508.6875,332 C 513.82892,322.56314 516.75,311.74622 516.75,300.25 C 516.75,288.84334 513.87951,278.1034 508.8125,268.71875 z M 427.03125,269.5 C 425.91453,269.5 425,270.41455 425,271.53125 L 425,276 L 437.5,276 L 437.5,269.5 L 427.03125,269.5 z M 442.5,269.5 L 442.5,276 L 457,276 L 457,269.5 L 442.5,269.5 z M 462,269.5 L 462,276 L 474.5,276 L 474.5,271.53125 C 474.5,270.41453 473.58545,269.5 472.46875,269.5 L 462,269.5 z M 391.1875,269.6875 C 386.43703,278.84155 383.75,289.2307 383.75,300.25 C 383.75,311.24447 386.42578,321.611 391.15625,330.75 C 391.16579,328.8698 392.1501,327.04517 393.90625,326.03125 L 397.5625,323.90625 C 394.311,316.68333 392.5,308.68048 392.5,300.25 C 392.5,291.66098 394.38222,283.51595 397.75,276.1875 L 393.90625,273.96875 C 392.28573,273.03313 391.33345,271.40948 391.1875,269.6875 z M 425,280 L 425,284.46875 C 425,285.58547 425.91455,286.5 427.03125,286.5 L 437.5,286.5 L 437.5,280 L 425,280 z M 442.5,280 L 442.5,286.5 L 457,286.5 L 457,280 L 442.5,280 z M 462,280 L 462,286.5 L 472.46875,286.5 C 473.58547,286.5 474.5,285.58545 474.5,284.46875 L 474.5,280 L 462,280 z M 416.75,293.5 L 483.25,293.5 C 484.635,293.5 485.75,294.615 485.75,296 L 485.75,296.125 C 485.75,297.51002 484.635,298.625 483.25,298.625 L 416.75,298.625 C 415.365,298.62502 414.25,297.51 414.25,296.125 L 414.25,296 C 414.25,294.615 415.365,293.5 416.75,293.5 z M 422.65625,302.5 L 476.34375,302.5 C 477.53645,302.5 478.5,303.4587 478.5,304.65625 L 478.5,315.34375 C 478.5,316.54128 477.53645,317.5 476.34375,317.5 L 469.25,317.5 L 464.75,326.375 L 483.25,326.375 C 484.635,326.375 485.75,327.49 485.75,328.875 L 485.75,329 C 485.75,330.38502 484.635,331.5 483.25,331.5 L 416.75,331.5 C 415.365,331.50002 414.25,330.385 414.25,329 L 414.25,328.875 C 414.25,327.49 415.365,326.375 416.75,326.375 L 433.125,326.375 L 430.25,317.5 L 422.65625,317.5 C 421.46355,317.5 420.5,316.5413 420.5,315.34375 L 420.5,304.65625 C 420.5,303.45872 421.46355,302.5 422.65625,302.5 z M 428.15625,306 C 426.96869,306 426,306.96869 426,308.15625 L 426,311.84375 C 426,313.03131 426.96869,314 428.15625,314 L 471.84375,314 C 473.03131,314 474,313.03131 474,311.84375 L 474,308.15625 C 474,306.96869 473.03131,306 471.84375,306 L 428.15625,306 z M 435.15625,317.5 L 439.21875,326.375 L 458.875,326.375 L 462.875,317.5 L 435.15625,317.5 z M 403.03125,333.46875 L 399.40625,335.5625 C 397.63413,336.58564 395.54764,336.49148 393.90625,335.53125 C 405.28583,353.65689 425.16109,365.90306 447.9375,366.6875 C 445.91578,365.87593 444.5,363.9124 444.5,361.59375 L 444.5,357.6875 C 427.37288,355.99259 412.4481,346.82246 403.03125,333.46875 z M 497.3125,333.65625 C 487.79619,347.03049 472.7496,356.19326 455.5,357.75 L 455.5,361.59375 C 455.5,363.92235 454.06683,365.88249 452.03125,366.6875 C 475.30809,366.06991 495.63654,353.50756 507.03125,334.875 C 505.31221,336.44791 502.72411,336.79246 500.59375,335.5625 L 497.3125,333.65625 z"
       id="path2439"
       style="fill:#ffffff;stroke:none" />
    <g
       id="g2486">
      <path
         d="M 450.25,100.25 C 428.722,100.25 411.25,117.722 411.25,139.25 C 411.18477,142.55253 411.74442,145.79472 412.46875,149 L 435,232.96875 C 439.90587,231.86073 445.01079,231.25 450.25,231.25 C 455.48921,231.25 460.59413,231.86073 465.5,232.96875 L 488.03125,149 C 488.90017,145.816 489.17194,142.53522 489.25,139.25 C 489.25,117.722 471.778,100.25 450.25,100.25 z"
         id="path2386"
         style="fill:#ffffff;stroke:none" />
      <use
         transform="matrix(0.8660254,0.5,-0.5,0.8660254,210.44672,-184.89783)"
         id="use2409"
         x="0"
         y="0"
         width="900"
         height="600"
         xlink:href="#path2386" />
      <use
         transform="matrix(0.5,0.8660254,-0.8660254,0.5,485.14784,-239.80069)"
         id="use2412"
         x="0"
         y="0"
         width="900"
         height="600"
         xlink:href="#path2386" />
      <use
         transform="matrix(0,1,-1,0,750.49741,-149.9974)"
         id="use2414"
         x="0"
         y="0"
         width="900"
         height="600"
         xlink:href="#path2386" />
      <use
         transform="matrix(-0.5,0.8660254,-0.8660254,-0.5,935.39524,60.449314)"
         id="use2416"
         x="0"
         y="0"
         width="900"
         height="600"
         xlink:href="#path2386" />
      <use
         transform="matrix(-0.8660254,0.5,-0.5,-0.8660254,990.2981,335.15043)"
         id="use2418"
         x="0"
         y="0"
         width="900"
         height="600"
         xlink:href="#path2386" />
      <use
         transform="matrix(-1,0,0,-1,900.49481,600.5)"
         id="use2420"
         x="0"
         y="0"
         width="900"
         height="600"
         xlink:href="#path2386" />
      <use
         transform="matrix(-0.8660254,-0.5,0.5,-0.8660254,690.0481,785.39783)"
         id="use2422"
         x="0"
         y="0"
         width="900"
         height="600"
         xlink:href="#path2386" />
      <use
         transform="matrix(-0.5,-0.8660254,0.8660254,-0.5,415.34698,840.30069)"
         id="use2424"
         x="0"
         y="0"
         width="900"
         height="600"
         xlink:href="#path2386" />
      <use
         transform="matrix(0,-1,1,0,149.99741,750.4974)"
         id="use2426"
         x="0"
         y="0"
         width="900"
         height="600"
         xlink:href="#path2386" />
      <use
         transform="matrix(0.5,-0.8660254,0.8660254,0.5,-34.900417,540.05069)"
         id="use2428"
         x="0"
         y="0"
         width="900"
         height="600"
         xlink:href="#path2386" />
      <use
         transform="matrix(0.8660254,-0.5,0.5,0.8660254,-89.803278,265.34958)"
         id="use2430"
         x="0"
         y="0"
         width="900"
         height="600"
         xlink:href="#path2386" />
    </g>
  </g>
</svg>
