<?xml version="1.0" encoding="iso-8859-1"?>
<!DOCTYPE svg PUBLIC "-//W3C//DTD SVG 1.0//EN"    "http://www.w3.org/TR/2001/REC-SVG-20010904/DTD/svg10.dtd" [
	<!ENTITY ns_flows "http://ns.adobe.com/Flows/1.0/">
	<!ENTITY ns_svg "http://www.w3.org/2000/svg">
	<!ENTITY ns_xlink "http://www.w3.org/1999/xlink">
]>
<svg  xmlns="&ns_svg;" xmlns:xlink="&ns_xlink;" xmlns:a="http://ns.adobe.com/AdobeSVGViewerExtensions/3.0/"
	 width="900" height="600" viewBox="0 0 900 600" style="overflow:visible;enable-background:new 0 0 900 600" xml:space="preserve"
	>
	<style type="text/css">
	<![CDATA[
		.st0{fill:#FFFFFF;}
		.st1{fill:#3D117B;}
	]]>
	</style>
	<g id="Layer_1">
		<path class="st0" d="M900,600H0V0h900V600z"/>
		<path class="st1" d="M489.333,299.667H561l-36.667,63.5H479l13.833-23.667H466L489.333,299.667z"/>
		<path class="st1" d="M410.5,299.667h-71.667l36.667,63.5h45.333L407,339.5h26.833L410.5,299.667z"/>
		<path class="st1" d="M381.833,232.5h45.5l22.833,38.5L473,232.5h45.75l-68.583,118L381.833,232.5z"/>
		<path class="st1" d="M518.751,224.5H473.25L450.418,186l-22.834,38.5h-45.75l68.584-118L518.751,224.5z"/>
		<path class="st1" d="M536.421,493.732l22.818-39.364l45.261-0.034l-22.358-39.474l22.943-39.581l67.692,118.514L536.421,493.732z"
			/>
		<path class="st1" d="M598.164,371.267l-22.819,39.365L530,410.666l22.442,39.475l-22.943,39.58l-67.693-118.514L598.164,371.267z"
			/>
		<path class="st1" d="M363.161,493.732l-22.818-39.364l-45.261-0.034l22.358-39.474l-22.943-39.581l-67.692,118.514
			L363.161,493.732z"/>
		<path class="st1" d="M301.418,371.267l22.819,39.365l45.345,0.034l-22.442,39.475l22.943,39.58l67.693-118.514L301.418,371.267z"
			/>
		<path class="st1" d="M413.086,430.863l35.833,62.065l36.66-63.505l-22.667-39.26l-13.579,23.813l-13.417-23.237L413.086,430.863z"
			/>
	</g>
</svg>
