<?xml version="1.0" encoding="UTF-8" standalone="no"?>
<!-- Created with Inkscape (http://www.inkscape.org/) -->

<svg
   xmlns:dc="http://purl.org/dc/elements/1.1/"
   xmlns:cc="http://creativecommons.org/ns#"
   xmlns:rdf="http://www.w3.org/1999/02/22-rdf-syntax-ns#"
   xmlns:svg="http://www.w3.org/2000/svg"
   xmlns="http://www.w3.org/2000/svg"
   version="1.0"
   width="900"
   height="660"
   id="svg2">
  <metadata
     id="metadata8">
    <rdf:RDF>
      <cc:Work
         rdf:about="">
        <dc:format>image/svg+xml</dc:format>
        <dc:type
           rdf:resource="http://purl.org/dc/dcmitype/StillImage" />
        <dc:title></dc:title>
      </cc:Work>
    </rdf:RDF>
  </metadata>
  <defs
     id="defs5" />
  <rect
     width="900"
     height="660"
     x="0"
     y="0"
     id="rect2446"
     style="fill:#ffffff;stroke:none" />
  <path
     d="m 432.74261,105 -41.14979,41.19546 17.31967,17.33886 -42.27122,42.31806 -17.31967,-17.33886 -41.05634,41.10186 17.25737,17.27652 -42.30237,42.34926 L 265.96289,271.9647 225,313.00416 l 17.13277,17.15178 -16.69667,16.71516 41.2744,41.35134 16.63436,-16.65282 42.30237,42.34932 -16.63436,16.65276 40.77599,40.85244 16.72782,-16.74642 42.27121,42.34932 -16.69667,16.71522 L 433.30332,555 450.03113,538.25364 466.75895,555 l 40.86944,-40.91472 -17.03931,-17.05824 42.30235,-42.34932 17.03933,17.05824 40.96289,-41.00832 -16.79011,-16.8087 42.30238,-42.34932 16.7901,16.80876 41.36784,-41.44488 -16.7589,-16.77756 L 675,312.94182 633.88134,271.77756 616.40592,289.24116 574.10354,246.8919 591.57897,229.4283 550.58492,188.38878 533.26525,205.7277 490.96289,163.40958 508.28256,146.03952 467.28851,105 450.03114,122.27652 432.74262,105 z m 17.28852,99.69852 42.27122,42.34932 -34.29669,34.3347 0,97.76508 34.29669,34.3659 -42.27122,42.31806 -42.30235,-42.31806 33.33101,-33.36798 0,-99.76092 -33.33101,-33.33678 42.30235,-42.34932 z m -82.92259,83.10816 16.13595,16.15386 0,52.39086 -16.13595,16.1538 -42.30237,-42.34926 42.30237,-42.34926 z m 165.78289,0 42.30237,42.34926 -42.30237,42.34926 -16.07365,-16.09152 0,-52.51554 16.07365,-16.09146 z"
     id="rect2384"
     style="fill:#1b8845;stroke:none" />
</svg>
