<?xml version="1.0" encoding="UTF-8" standalone="no"?>
<!-- Created with Inkscape (http://www.inkscape.org/) -->

<svg
   xmlns:dc="http://purl.org/dc/elements/1.1/"
   xmlns:cc="http://creativecommons.org/ns#"
   xmlns:rdf="http://www.w3.org/1999/02/22-rdf-syntax-ns#"
   xmlns:svg="http://www.w3.org/2000/svg"
   xmlns="http://www.w3.org/2000/svg"
   xmlns:sodipodi="http://sodipodi.sourceforge.net/DTD/sodipodi-0.dtd"
   xmlns:inkscape="http://www.inkscape.org/namespaces/inkscape"
   version="1.1"
   id="svg2"
   width="324"
   height="216"
   viewBox="0 0 324 216"
   sodipodi:docname="Flag of Fukushima, Fukushima.svg"
   inkscape:version="0.92.3 (2405546, 2018-03-11)">
  <metadata
     id="metadata8">
    <rdf:RDF>
      <cc:Work
         rdf:about="">
        <dc:format>image/svg+xml</dc:format>
        <dc:type
           rdf:resource="http://purl.org/dc/dcmitype/StillImage" />
        <dc:title></dc:title>
      </cc:Work>
    </rdf:RDF>
  </metadata>
  <defs
     id="defs6">
    <style
       id="style839"
       type="text/css"><![CDATA[
    .fil0 {fill:#00A2E8}
    .fil1 {fill:white}
   ]]></style>
  </defs>
  <sodipodi:namedview
     pagecolor="#ffffff"
     bordercolor="#666666"
     borderopacity="1"
     objecttolerance="10"
     gridtolerance="10"
     guidetolerance="10"
     inkscape:pageopacity="0"
     inkscape:pageshadow="2"
     inkscape:window-width="1920"
     inkscape:window-height="1017"
     id="namedview4"
     showgrid="false"
     inkscape:zoom="2.3032755"
     inkscape:cx="56.465934"
     inkscape:cy="112.57759"
     inkscape:window-x="-8"
     inkscape:window-y="-8"
     inkscape:window-maximized="1"
     inkscape:current-layer="svg2" />
  <g
     id="g1291"
     transform="matrix(0.36111111,0,0,0.36166667,9.6708027e-6,-1.5447554e-6)"
     style="stroke-width:2.76710296">
    <rect
       style="fill:#d4472c;fill-opacity:1;stroke:none;stroke-width:2.76710296"
       id="rect2437"
       y="3.5527137e-015"
       x="2.7692306e-006"
       height="600"
       width="900" />
    <path
       style="fill:#ffffff;stroke:none;stroke-width:2.76710296"
       id="path2384"
       d="m 448.56667,122.60818 -62.48481,62.97548 -54.89736,-18.80905 -7.2248,86.93962 -54.25578,22.12502 50.57364,71.44652 -28.34133,51.18849 85.58187,22.01356 11.7159,57.904 78.99865,-37.78529 45.60832,36.69855 37.10035,-79.86184 58.0495,-1.2818 -22.98548,-84.73826 43.57199,-38.62125 -72.19226,-50.90983 9.23324,-57.4303 -87.95294,7.83014 z m 1.36686,28.67335 40.92196,40.87834 58.85845,-4.45845 4.4632,57.95975 48.20256,33.41044 -33.83663,47.28735 15.09119,56.2321 -57.4637,16.07825 -24.12917,52.52602 -52.10786,-24.52143 -52.24735,24.52143 -24.15706,-52.52602 -57.4637,-16.07825 15.09119,-56.2321 -33.83664,-47.28735 48.20257,-33.41044 4.4632,-57.95975 58.88634,4.45845 z m 3.59845,53.19479 v 20.67602 c 35.32901,0.65386 65.10963,24.11397 75.17703,56.25996 H 474.0627 v -43.58127 c -6.48776,-2.11322 -13.37516,-3.33482 -20.53072,-3.48316 v 67.57326 h 78.74759 20.69809 c -1.81415,-53.59609 -45.5419,-96.6514 -99.44568,-97.44481 z m -7.14112,0.13932 c -51.99078,2.86627 -93.54962,45.08474 -95.31722,97.30549 h 20.6702 c 1.42601,-33.6446 23.64202,-61.95478 54.1163,-72.44968 v 51.94085 h -40.7825 c -2.31654,6.45729 -3.7307,13.34288 -4.07266,20.50883 h 65.38588 v -76.6016 z m -95.28932,104.3554 c 1.83711,52.15501 43.34503,94.27633 95.28932,97.1383 v -20.70389 c -33.45142,-2.32324 -61.27866,-25.11268 -70.99278,-55.92558 h 50.46206 v 41.90935 c 6.44052,2.55149 13.32891,4.22781 20.53072,4.79283 v -67.21101 h -74.61913 z m 102.43044,0 v 76.62947 20.64816 c 53.85679,-0.79225 97.53221,-43.74778 99.41778,-97.27763 h -20.67019 c -1.54812,35.08226 -25.68045,64.32758 -58.21687,73.59215 v -53.08332 h 44.85516 c 1.50545,-4.16363 2.64085,-8.50234 3.3474,-12.98521 0,0 0.83069,-4.01774 0.83069,-7.52362 z"
       inkscape:connector-curvature="0" />
  </g>
</svg>
