<?xml version="1.0" encoding="UTF-8" standalone="no"?>
<svg xmlns="http://www.w3.org/2000/svg" xmlns:xlink="http://www.w3.org/1999/xlink" height="600" width="900" version="1.1">
	<rect y="0" x="0" height="600" width="900" fill="#085c20"/>
	
	<symbol id="wave">
		<path d="m 450,118.59375 c -62.82599,0 -56.62311,23.53124 -119.125,23.53125 C 276.27045,142.125 267.19853,123 249,123 l 0,95 c 13.02849,0 33.70139,19.34374 81.875,19.34375 58.95441,0 60.63952,-23.75 119.125,-23.75 61.17204,0 61.02838,24.46876 118.28125,24.46875 47.32533,0 68.86151,-20.06249 82.71875,-20.0625 l 0,-95 c -18.65345,0 -27.33217,19.21876 -82.71875,19.21875 -56.0129,0 -59.16587,-23.625 -118.28125,-23.625 z" style="fill:#FFF;" />
	</symbol>
	
	<use xlink:href="#wave" />
	<use xlink:href="#wave" y="125"/>
	<use xlink:href="#wave" y="250"/>
</svg>
