<?xml version="1.0" encoding="UTF-8" standalone="no"?>
<!-- Created with Inkscape (http://www.inkscape.org/) -->
<svg
   xmlns:svg="http://www.w3.org/2000/svg"
   xmlns="http://www.w3.org/2000/svg"
   version="1.0"
   width="900"
   height="600"
   id="svg2">
  <defs
     id="defs5" />
  <rect
     width="900"
     height="600"
     x="0"
     y="0"
     id="rect2469"
     style="fill:#ffffff;stroke:none" />
  <g
     id="g2465">
    <path
       d="M 454.59375,38.96875 C 434.42637,38.968748 424.625,52.070476 424.625,63.96875 C 424.62499,80.276588 438.9775,89.40625 454.78125,89.40625 C 470.50359,89.406248 476,70.1875 476,70.1875 C 475.0694,104.20634 449.96875,108.4375 449.96875,108.4375 C 449.96875,108.4375 454.05004,110 459.53125,110 C 459.53125,110 491.53125,109.16697 491.53125,74 C 491.53125,58.696686 481.51249,38.96875 454.59375,38.96875 z M 312.5,108.5 C 312.5,108.5 255.02206,286.32721 78,398 L 401.71875,398 C 386.6319,378.86626 375.90283,356.15065 371,331.34375 C 357.93067,302.64989 314.03125,304 314.03125,304 L 314.03125,297 C 314.03125,297 359.38134,297.99269 370.875,270.71875 C 382.775,209.25182 430.50368,160.52447 491.4375,147.15625 C 482.39151,132.76806 478,124 478,124 L 387,124 L 379,142 L 350,112 L 341,134 L 312.5,108.5 z M 495.03125,212 C 467.77016,221.29629 446.16774,242.81239 436.71875,270 L 495.03125,270 L 495.03125,212 z M 556.03125,230.5625 L 556.03125,270 L 596.03125,270 C 581.21915,256.67332 567.90409,243.38185 556.03125,230.5625 z M 436.53125,331 C 445.88676,358.42666 467.60124,380.14611 495.03125,389.5 L 495.03125,331 L 436.53125,331 z M 556.03125,331 L 556.03125,389.3125 C 583.22203,379.86446 604.7317,358.25458 614.03125,331 L 556.03125,331 z M 679.21875,332.78125 C 674.19433,357.0324 663.5773,379.23507 648.78125,398 L 824,398 C 768.48525,381.55118 720.40911,358.54036 679.21875,332.78125 z"
       id="path2384"
       style="fill:#be0026;stroke:none" />
    <path
       d="M 525.375,116.16925 C 521.74632,133.10165 510.01247,147.01327 494.4375,153.7005 C 436.30225,165.88553 390.78206,211.82646 378.6875,270.10675 L 429.28125,270.10675 C 439.87982,236.76458 466.7863,211.13581 501.03125,202.7005 L 501.03125,276.013 L 375.34375,276.013 C 367.84404,288.44929 355.39772,297.60302 340.71875,300.638 C 357.5991,304.25553 371.47651,315.92383 378.1875,331.41925 C 390.32908,389.90602 437.73125,434.97183 495.03125,447.2005 L 495.03125,396.638 C 461.50321,386.12712 436.12222,359.39067 427.65625,325.013 L 501.03125,325.013 L 501.03125,450.388 C 513.27878,457.82907 522.27932,470.06771 525.375,484.513 C 528.41545,469.80752 537.56045,457.35203 550.03125,449.85675 L 550.03125,325.013 L 622.84375,325.013 C 615.41854,358.9752 589.32584,385.85906 556.03125,396.48175 L 556.03125,447.10675 C 613.72925,434.1478 658.93283,391.10553 671.84375,334.013 C 678.07569,317.23009 692.53243,304.45504 710.34375,300.638 C 695.66478,297.60302 683.21846,288.44929 675.71875,276.013 L 550.03125,276.013 L 550.03125,202.5755 C 584.03867,211.13812 611.20072,236.9324 621.75,270.10675 L 672.375,270.10675 C 660.19352,211.40764 613.74454,165.20201 554.90625,153.41925 C 539.95668,146.44716 528.79994,132.73435 525.375,116.16925 z"
       id="path2392"
       style="fill:#000000;stroke:none" />
  </g>
</svg>
