<svg xmlns="http://www.w3.org/2000/svg" width="900" height="600">
<path d="M0 0h900v600H0z" fill="#290841"/>
<path d="M449.711 120c-41.958 0-77.434 27.848-88.995 66.049a93.8 93.8 0 0 0-3.694-.076c-51.328 0-92.991 41.664-92.991 92.991 0 32.112 16.314 60.423 41.092 77.132-3.412 9.672-5.253 20.078-5.253 30.913 0 51.328 41.638 92.991 92.966 92.991 21.416 0 41.15-7.271 56.875-19.453C465.437 472.73 485.17 480 506.586 480c51.328 0 92.966-41.663 92.966-92.99 0-10.716-1.812-21.006-5.152-30.587 25.048-16.665 41.569-45.139 41.569-77.459 0-51.327-41.663-92.99-92.99-92.99-1.426 0-2.839.036-4.248.1C527.179 147.858 491.68 120 449.71 120Zm0 13.37c39.76 0 72.738 29.198 78.665 67.306a80.022 80.022 0 0 1 14.602-1.332c43.95 0 79.62 35.67 79.62 79.62 0 31.597-18.442 58.894-45.138 71.754 5.587 10.883 8.746 23.224 8.746 36.291 0 43.95-35.67 79.62-79.62 79.62-22.274 0-42.42-9.168-56.875-23.926-14.455 14.758-34.601 23.926-56.875 23.926-43.95 0-79.62-35.67-79.62-79.62a79.248 79.248 0 0 1 8.871-36.518c-26.45-12.95-44.685-40.11-44.685-71.527 0-43.95 35.67-79.62 79.62-79.62 4.798 0 9.483.417 14.049 1.231 5.97-38.058 38.914-67.204 78.64-67.204zm-.302 6.711c-13.61 62.296-77.702 109.264-158.134 126.367 4 .204 8.027 0 12.089 0 46.308 0 86.296-13.595 118.626-36.166l11.636 11.913v17.065c-27.633 1.496-54.256 6.803-79.344 15.431 25.088 8.629 51.71 13.936 79.344 15.432v67.079c-43.253 5.614-79.516 33.569-96.836 71.904 29.97-26.843 69.55-43.177 112.921-43.177 43.37 0 82.95 16.334 112.92 43.177-17.426-38.57-54.035-66.607-97.64-71.98v-66.953c27.922-1.435 54.818-6.77 80.149-15.482-25.331-8.712-52.227-14.046-80.148-15.481v-16.613l12.264-12.591c23.617 17.514 60.365 36.442 123.125 36.442h7.716c-83.304-16.875-146.472-67.258-158.688-126.367Zm-.025 64.968 7.238 7.238-7.238 7.238-7.238-7.238zm-81.932 87.663c-24.939 0-55.242 9.525-55.242 9.525s22.127 1.556 51.698 5.78c24.454 5.26 29.48 5.6 29.48 12.617 0 6.255-5.904 7.59-29.505 12.566-17.771 2.844-51.698 6.032-51.698 6.032s25.538 9.626 56.398 9.626c40.961 0 55.317-9.515 55.317-28.425 0-20.102-16.486-27.721-56.448-27.721zm163.84 0c-39.963 0-56.448 7.619-56.448 27.72 0 18.911 14.33 28.426 55.291 28.426 30.86 0 56.423-9.626 56.423-9.626s-33.926-3.188-51.698-6.032c-23.6-4.976-29.53-6.31-29.53-12.566 0-7.018 5.052-7.356 29.505-12.617 29.571-4.224 51.673-5.78 51.673-5.78s-30.278-9.525-55.216-9.525z" fill="#fff"/>
</svg>
