<?xml version="1.0" encoding="UTF-8" standalone="no"?>
<!-- Created with Inkscape (http://www.inkscape.org/) -->
<svg
   xmlns:svg="http://www.w3.org/2000/svg"
   xmlns="http://www.w3.org/2000/svg"
   version="1.0"
   width="900"
   height="600"
   id="svg2">
  <defs
     id="defs5" />
  <rect
     width="900"
     height="600"
     x="0"
     y="0"
     id="rect2408"
     style="fill:#ffffff;stroke:none" />
  <path
     d="M 450,101 C 450,101 380.71875,158.84375 292.71875,185.84375 L 333.0625,215.5 C 333.0625,215.5 398.25,191.875 450,151.875 C 497.5,189.375 567.21875,215.65625 567.21875,215.65625 L 607.375,186.15625 C 526.875,161.40625 450,101 450,101 z M 450,167 C 405.25,200 348,223 348,223 L 348,270 L 552,270 L 552,223 C 552,223 499.24998,202 450,167 z M 288.5,191.4375 C 288.5,191.4375 295.5,224.77567 295.5,300 C 295.5,374.72443 288.5,399.5 288.5,399.5 C 288.5,399.5 388.75,449.78125 446.75,499.78125 L 446.75,449.3125 C 398,414.8125 329,376.8125 329,376.8125 C 329,376.8125 331.14623,343.53172 332.0625,318 L 568.875,318 C 569.50688,343.63275 570.9375,376.8125 570.9375,376.8125 C 570.9375,376.8125 477.25,430.15625 454,448.40625 L 454,499.78125 C 513,449.03125 611,399.5 611,399.5 C 611,399.5 605,356.91406 605,299.8125 C 605,241.71094 611,192.15625 611,192.15625 L 570.9375,221.59375 C 570.9375,221.59375 569.4673,255.28919 568.84375,281 L 332.03125,281 C 331.0994,255.03846 329,221.1875 329,221.1875 L 288.5,191.4375 z M 450,207 C 470.375,221.875 501,237 501,237 L 399,237 C 399,237 429,222.5 450,207 z M 348,329 L 348,370 C 348,370 404.25,399.75 450,431 C 495.49998,400.25 552,370 552,370 L 552,329 L 348,329 z M 399,362 L 501,362 C 501,362 477.875,374.625 450,390.5 C 425.25,375.75 399,362 399,362 z"
     id="path2403"
     style="fill:#be0026;stroke:none" />
</svg>
