<?xml version="1.0" encoding="UTF-8" standalone="no"?>
<!-- Created with Inkscape (http://www.inkscape.org/) -->
<svg
   xmlns:svg="http://www.w3.org/2000/svg"
   xmlns="http://www.w3.org/2000/svg"
   version="1.0"
   width="900"
   height="600"
   id="svg2">
  <defs
     id="defs5" />
  <rect
     width="900"
     height="600"
     x="0"
     y="2.0428104e-13"
     id="rect2420"
     style="fill:#ffffff;stroke:none" />
  <path
     d="M 449.5,101 L 105,300.5 L 449.5,500 L 794,300.5 L 449.5,101 z M 450,176.625 C 456.094,176.625 461,181.308 461,187.125 L 461,221.75 C 482.03554,224.68325 500.4168,235.9218 512.75,252.03125 L 556.625,238.71875 L 523.125,270.09375 C 526.90645,279.32314 529,289.41481 529,300 C 529,310.7642 526.80997,321.02024 522.90625,330.375 L 557.34375,362.625 L 512.0625,348.875 C 499.63936,364.6265 481.34889,375.54091 460.5,378.3125 L 449.75,424.5 L 438.96875,378.21875 C 418.28768,375.31883 400.16117,364.4076 387.84375,348.71875 L 342.03125,362.625 L 376.90625,329.96875 C 373.11036,320.72588 371,310.60575 371,300 C 371,289.58207 373.01866,279.64184 376.6875,270.53125 L 342.71875,238.71875 L 387.125,252.1875 C 399.45875,235.99301 417.89536,224.69289 439,221.75 L 439,187.125 C 439,181.308 443.906,176.625 450,176.625 z M 450,240 C 416.88,240 390,266.88 390,300 C 390,333.12 416.88,360 450,360 C 483.12,360 510,333.12 510,300 C 510,266.88 483.12,240 450,240 z"
     id="rect2388"
     style="fill:#6a4f9a;stroke:none" />
</svg>
