<?xml version="1.0" encoding="UTF-8" standalone="no"?>
<!-- Created with Inkscape (http://www.inkscape.org/) -->
<svg
   xmlns:svg="http://www.w3.org/2000/svg"
   xmlns="http://www.w3.org/2000/svg"
   version="1.0"
   width="900"
   height="600"
   id="svg2">
  <defs
     id="defs5" />
  <rect
     width="900"
     height="600"
     x="0"
     y="0"
     id="rect2404"
     style="fill:#009933;stroke:none" />
  <path
     d="M 450,120.5 C 350.916,120.5 270.49999,200.91599 270.5,300 C 270.5,399.084 350.91599,479.49999 450,479.5 C 511.31208,479.5 565.4885,448.7027 597.875,401.75 C 606.07961,391.55078 611,378.59869 611,364.5 C 611,331.656 584.344,305 551.5,305 C 531.43762,305 513.68582,314.96056 502.90625,330.1875 C 496.62546,337.52128 491.77308,342.31143 490.25,343.78125 C 479.65276,353.52805 465.5219,359.5 450,359.5 C 417.156,359.5 390.5,332.844 390.5,300 C 390.5,267.156 417.156,240.5 450,240.5 C 465.57161,240.5 479.73598,246.5107 490.34375,256.3125 C 492.0597,258.12112 497.20268,263.63426 503.71875,271.46875 L 507.65625,276.1875 C 518.53571,288.05069 534.14705,295.5 551.5,295.5 C 584.344,295.5 611,268.844 611,236 C 611,224.87957 607.94215,214.4697 602.625,205.5625 C 570.96188,154.5239 514.43839,120.5 450,120.5 z"
     id="path2388"
     style="fill:#ffffff;stroke:none" />
</svg>
