<?xml version="1.0" encoding="UTF-8" standalone="no"?>
<!-- Created with Inkscape (http://www.inkscape.org/) -->
<svg
   xmlns:svg="http://www.w3.org/2000/svg"
   xmlns="http://www.w3.org/2000/svg"
   xmlns:xlink="http://www.w3.org/1999/xlink"
   version="1.0"
   width="900"
   height="600"
   id="svg2">
  <defs
     id="defs5" />
  <rect
     width="900"
     height="600"
     x="0"
     y="0"
     id="rect2532"
     style="fill:#ffffff;stroke:none" />
  <path
     d="M 419,117.1875 C 368.79539,126.08719 325.92067,155.8575 299.5,197.25 L 359.53125,226.84375 C 374.99474,206.01778 397.41941,190.66477 423.375,184.28125 L 419,117.40625 C 418.99533,117.33134 419.00186,117.2622 419,117.1875 z M 482,117.1875 C 481.99814,117.2622 482.00467,117.33134 482,117.40625 L 477.625,184.28125 C 503.44658,190.62996 525.79276,205.84211 541.25,226.5 L 601.0625,197 C 574.72199,155.75276 532.04994,126.07014 482,117.1875 z M 394.375,206.5 L 388,224.4375 L 408.375,245.8125 L 425.09375,235 L 413.3125,208.34375 L 394.375,206.5 z M 507.34375,206.78125 L 488.4375,208.96875 L 477.5625,236.0625 L 493.90625,246.375 L 514.0625,224.5625 L 507.34375,206.78125 z M 609.21875,211.09375 L 553.90625,248.0625 C 560.22509,262.17032 563.75,277.79638 563.75,294.25 C 563.75,305.06419 562.20794,315.48453 559.375,325.34375 L 618.4375,354.46875 C 618.61549,354.55602 618.80198,354.64675 618.96875,354.75 C 625.68585,335.88235 629.34375,315.51932 629.34375,294.25 C 629.34375,264.25873 622.09052,235.96473 609.21875,211.09375 z M 291.375,211.4375 C 278.55494,236.23159 271.28125,264.38471 271.28125,294.25 C 271.28125,315.41546 274.94257,335.67765 281.625,354.46875 C 281.63309,354.46474 281.64814,354.47273 281.65625,354.46875 L 341.5,324.96875 C 338.74556,315.22479 337.25,304.91877 337.25,294.25 C 337.25,277.96847 340.70859,262.52147 346.90625,248.53125 L 291.375,211.4375 z M 358.6875,274 L 347,289 L 358.6875,304 L 386.9375,299.9375 L 386.9375,280.3125 L 358.6875,274 z M 542.3125,275 L 514.0625,281.1875 L 514.0625,300.6875 L 542.3125,305 L 554,290 L 542.3125,275 z M 413.28125,346.15625 L 395.5,368.375 L 402.65625,386 L 421.46875,383.375 L 430.03125,355.0625 L 413.28125,346.15625 z M 487.75,346.53125 L 470.46875,355.59375 L 479.03125,383.84375 L 497.78125,387 L 505.40625,369.5625 L 487.75,346.53125 z M 368.5625,371.9375 L 313.15625,409 C 313.07646,409.05287 312.98802,409.07625 312.90625,409.125 C 344.11724,446.36086 390.2783,470.61193 442.375,472.90625 L 437.96875,405.8125 C 410.78318,402.87005 386.47507,390.48554 368.5625,371.9375 z M 532.03125,372.3125 C 514.15766,390.63835 490.01911,402.89097 463.03125,405.8125 L 458.625,472.90625 C 510.5769,470.61362 556.55051,446.48486 587.65625,409.40625 C 587.40591,409.28666 587.17206,409.15544 586.9375,409 L 532.03125,372.3125 z"
     id="path2489"
     style="fill:#610051;stroke:none" />
  <g
     id="g2424"
     style="fill:#ffd700;stroke:none">
    <path
       d="M 320.22825,197.02991 C 317.28361,191.92966 318.46186,186.52019 320.89419,182.93337 C 323.32653,179.34653 326.46899,177.26931 328.83958,175.82019 C 339.47291,169.32018 350.06088,172.75218 352.50795,173.3775 C 351.05633,170.14626 351.09693,167.02464 351.53118,162.93569 C 351.95744,160.47598 353.51664,158.06301 355.26973,156.41104 L 359.74908,151.732 C 362.76832,149.08819 363.53353,150.13853 363.43988,150.59341 C 363.36778,151.37477 362.15732,152.43447 362.3027,152.87375 C 362.3027,152.87375 363.8499,153.35768 365.03016,153.87909 C 366.34697,154.46085 367.73814,155.31946 368.64058,156.88253 C 369.15031,157.76541 369.49172,158.93994 369.50473,160.3168 C 369.51775,161.69367 369.04246,163.43437 367.46446,164.34543 C 365.08783,165.39763 362.85441,164.23564 362.74781,162.73845 C 363.02242,161.5711 364.328,162.97479 365.96445,161.74735 C 366.31157,161.40261 366.48875,161.10672 366.48143,160.33025 C 366.47409,159.5538 366.15777,158.58217 366.0425,158.38252 C 365.47485,157.39934 364.84644,156.96344 364.10866,156.72053 C 363.37089,156.47762 362.47077,156.47205 361.59649,156.61931 C 359.84792,156.91382 358.33409,157.78117 358.33409,157.78117 C 356.59638,158.78443 355.37316,160.87048 354.944,163.34687 C 354.51485,165.82327 354.92369,167.87417 356.15588,170.00841 C 358.74208,174.48802 365.20312,177.05368 365.20312,177.05368 L 369.0805,178.207 C 371.62101,178.88773 384.20776,181.59763 394.3844,175.72214 C 396.19547,174.67654 397.85483,173.46714 399.28786,172.27769 C 400.7209,171.08825 401.7463,169.28556 401.94365,168.94015 C 405.87039,162.06802 404.18484,156.19701 401.65812,151.82059 L 399.84561,148.68124 C 398.10017,145.98933 396.23553,144.09256 392.92084,143.87468 C 390.91257,143.9028 389.36269,144.77428 389.36269,144.77428 C 387.12105,146.06848 385.62509,147.55016 384.83079,149.10787 C 384.0365,150.66559 383.99022,152.0623 384.92074,153.63867 C 386.67911,156.68425 388.67272,155.55929 389.06879,156.27988 C 389.55153,157.40055 388.71386,158.21083 386.69898,158.10514 C 385.76107,157.98323 383.45046,157.53401 382.15339,155.28741 C 380.7321,152.87963 380.82741,150.15426 381.98861,147.877 C 383.14981,145.59974 385.25401,143.68231 387.86268,142.1762 C 387.86268,142.1762 389.93736,140.64883 392.79721,140.60876 C 394.17836,140.58943 395.68747,140.96519 397.24143,141.79567 C 397.25752,140.54665 397.71056,138.69789 398.13806,137.51028 C 399.60485,133.75777 402.88864,132.20192 402.88864,132.20192 C 403.0052,132.12243 404.36031,131.09251 406.13848,130.83081 C 408.00123,130.55665 410.52358,131.42599 412.07583,134.11459 C 413.27183,136.35093 412.80567,138.3654 411.35491,140.06154 C 410.8621,140.7333 409.29122,141.16811 408.68501,140.60137 C 408.07881,140.03464 409.03942,138.95759 409.38085,138.22632 C 409.80324,137.02212 409.80904,136.42239 409.40799,135.61877 C 407.84855,132.73024 404.38864,134.8 404.38864,134.8 C 402.95184,135.62953 401.8966,137.59311 401.20026,139.52756 C 400.50392,141.46201 400.50038,143.44033 401.26232,144.76005 L 404.25619,150.32059 C 406.98578,155.04838 410.11881,161.05127 406.46637,169.64873 C 406.46637,169.64873 407.21301,170.19194 408.80892,169.95614 C 409.68307,169.82637 411.21255,169.52326 411.5981,169.94613 C 411.98364,170.36898 411.26234,171.42343 407.98982,172.38457 C 404.80022,173.36006 402.69485,173.99127 402.69485,173.99127 C 402.69485,173.99127 401.24712,175.29622 401.24712,175.29622 C 399.78515,176.62399 398.19811,177.74641 396.1969,178.86149 C 385.423,185.38367 378.55823,182.68254 369.34569,183.79132 C 366.30004,184.25001 362.94448,185.35808 357.89619,188.27271 C 357.89619,188.27271 354.66874,189.74901 352.25282,192.68561 C 351.04486,194.1539 350.19431,195.96505 349.82976,197.80125 C 349.05864,201.05039 350.1779,203.64632 352.62867,205.71159 C 355.19905,207.19663 357.10871,206.72062 359.73189,205.32722 C 362.13694,203.95691 362.5549,201.63629 361.57263,199.14049 C 360.58602,197.43163 358.81209,197.2341 358.81209,197.2341 C 357.40859,197.29915 356.64283,196.31873 357.4504,195.19222 C 358.05101,194.35441 359.90008,194.01352 360.52164,194.22637 C 360.52164,194.22637 362.48081,194.58851 364.13108,197.44686 C 365.95032,200.59788 365.29811,203.2684 364.20743,205.01658 C 363.11674,206.76477 361.20482,207.94093 361.20482,207.94093 C 359.42828,209.08704 357.66277,209.49261 355.61999,209.83022 L 352.18767,210.26023 C 350.17998,210.22463 345.43359,211.27533 345.46542,209.23957 C 345.65708,208.52224 346.48845,208.73458 347.48551,208.42839 C 348.55539,208.09985 349.10819,207.23895 349.10819,207.23895 C 346.45473,203.77344 345.60717,200.54524 346.0545,196.94981 C 346.54866,194.46078 347.66696,192.30709 349.08829,190.57947 C 351.93092,187.12416 355.38617,185.17523 355.38617,185.17523 C 359.27866,182.92791 361.76493,182.23359 364.69961,181.49408 L 355.25683,177.8887 C 345.0724,175.13076 339.76476,174.91708 331.3161,178.35965 C 329.16635,179.60081 325.46321,182.78127 323.95048,185.10202 C 321.76612,188.45318 321.36618,192.12588 323.33858,195.66718 C 323.61348,196.16019 324.50895,197.36228 325.97748,198.11289 C 327.44602,198.86351 329.14085,199.17327 331.50348,197.8092 C 333.14042,196.86413 333.68547,196.14846 333.892,195.38374 C 334.1328,194.49212 333.98773,193.61205 333.71535,193.14026 C 333.09218,192.06091 332.18022,191.35631 332.18022,191.35631 C 330.9388,190.53688 331.55353,189.1378 333.34782,189.81618 C 333.76326,189.97325 334.83945,190.27477 335.84609,192.01832 C 336.39105,192.96218 336.87706,194.1451 336.53338,195.77123 C 336.1897,197.39736 335.07202,199.14085 332.86399,200.41566 C 329.69616,202.24459 326.75936,201.89062 324.59787,200.78582 C 322.43635,199.68099 320.85227,198.11076 320.22825,197.02991 z"
       id="path2404"
       style="fill:#ffd700;fill-opacity:1;stroke:none" />
    <use
       transform="matrix(-1,0,0,1,900.82136,0)"
       id="use2413"
       style="fill:#ffd700;fill-opacity:1"
       x="0"
       y="0"
       width="900"
       height="600"
       xlink:href="#path2404" />
    <use
       transform="matrix(0.5,-0.8660254,-0.8660254,-0.5,479.281,830.36039)"
       id="use2416"
       style="fill:#ffd700;fill-opacity:1"
       x="0"
       y="0"
       width="900"
       height="600"
       xlink:href="#path2404" />
    <use
       transform="matrix(-0.5,-0.8660254,0.8660254,-0.5,420.8102,830.56719)"
       id="use2418"
       style="fill:#ffd700;fill-opacity:1"
       x="0"
       y="0"
       width="900"
       height="600"
       xlink:href="#path2404" />
    <use
       transform="matrix(-0.5,0.8660254,-0.8660254,-0.5,929.79174,50.316989)"
       id="use2420"
       style="fill:#ffd700;fill-opacity:1"
       x="0"
       y="0"
       width="900"
       height="600"
       xlink:href="#path2404" />
    <use
       transform="matrix(0.5,0.8660254,0.8660254,-0.5,-28.978481,50.316989)"
       id="use2422"
       style="fill:#ffd700;fill-opacity:1"
       x="0"
       y="0"
       width="900"
       height="600"
       xlink:href="#path2404" />
  </g>
  <path
     d="M 450.5,95 L 425,117 L 433.6875,249.375 C 426.83489,251.94465 420.73148,256.04369 415.78125,261.25 L 267,187.90625 L 404.75,280 C 403.34984,284.49969 402.59375,289.29075 402.59375,294.25 C 402.59375,296.64269 402.786,298.98246 403.125,301.28125 L 284.3125,359.84375 L 278,392.90625 L 309.8125,404 L 419.4375,330.71875 C 425.18531,335.62015 432.1069,339.18523 439.71875,340.9375 L 450.5,505 L 461.28125,340.9375 C 468.7147,339.22629 475.48975,335.78768 481.15625,331.0625 L 590.28125,404 L 622.0625,392.90625 L 615.78125,359.84375 L 497.8125,301.6875 C 498.19199,299.25939 498.40625,296.78426 498.40625,294.25 C 498.40625,289.1024 497.56659,284.14803 496.0625,279.5 L 633.0625,187.90625 L 484.90625,260.9375 C 480.01118,255.88278 474.02457,251.89195 467.3125,249.375 L 476,117 L 450.5,95 z M 450.5,279.75 C 458.228,279.75 464.5,286.522 464.5,294.25 C 464.5,301.978 458.228,308.375 450.5,308.375 C 442.772,308.375 436,301.978 436,294.25 C 436,286.522 442.772,279.75 450.5,279.75 z"
     id="path2491"
     style="fill:#ffd700;stroke:none" />
</svg>
