<?xml version="1.0" encoding="UTF-8" standalone="no"?>
<!-- Created with Inkscape (http://www.inkscape.org/) -->
<svg
   xmlns:svg="http://www.w3.org/2000/svg"
   xmlns="http://www.w3.org/2000/svg"
   version="1.0"
   width="900"
   height="600"
   id="svg2">
  <defs
     id="defs5" />
  <rect
     width="900"
     height="600"
     x="0"
     y="0"
     id="rect2409"
     style="fill:#ffffff;stroke:none" />
  <path
     d="M 450,101 L 437.3125,122.46875 C 380.94635,126.43579 331.76179,156.58086 301.90625,200.84375 L 277.4375,201.09375 L 289.46875,222.40625 C 277.96542,245.99649 271.5,272.50386 271.5,300.5 C 271.5,328.44632 277.94133,354.91016 289.40625,378.46875 L 277.28125,399.96875 L 301.9375,400.21875 C 331.79682,444.45034 380.97071,474.56593 437.3125,478.53125 L 450,500 L 462.6875,478.53125 C 519.02929,474.56593 568.20318,444.45034 598.0625,400.21875 L 622.4375,399.96875 L 610.4375,378.75 C 621.99082,355.11869 628.5,328.56088 628.5,300.5 C 628.5,272.41421 621.97883,245.83459 610.40625,222.1875 L 622.28125,201.09375 L 598.09375,200.84375 C 568.23821,156.58086 519.05365,126.43579 462.6875,122.46875 L 450,101 z M 450,151 C 500.95563,151 545.98072,176.46953 573.09375,215.34375 L 449.625,286.59375 L 326.6875,215.625 C 353.77835,176.58645 398.91703,151 450,151 z M 585.21875,236.0625 C 594.68302,255.71814 600,277.73737 600,301 C 600.00001,379.76002 539.19513,444.41041 462,450.53125 L 462,307.1875 L 585.21875,236.0625 z M 314.625,236.40625 L 438,307.59375 L 438,450.53125 C 360.80487,444.41041 300,379.76002 300,301 C 300,277.87176 305.26324,255.97559 314.625,236.40625 z"
     id="path2386"
     style="fill:#0069b3;stroke:none" />
</svg>
