<?xml version="1.0" encoding="UTF-8" standalone="no"?>
<!-- Created with Inkscape (http://www.inkscape.org/) -->

<svg
   xmlns:dc="http://purl.org/dc/elements/1.1/"
   xmlns:cc="http://creativecommons.org/ns#"
   xmlns:rdf="http://www.w3.org/1999/02/22-rdf-syntax-ns#"
   xmlns:svg="http://www.w3.org/2000/svg"
   xmlns="http://www.w3.org/2000/svg"
   xmlns:sodipodi="http://sodipodi.sourceforge.net/DTD/sodipodi-0.dtd"
   xmlns:inkscape="http://www.inkscape.org/namespaces/inkscape"
   version="1.1"
   id="svg2"
   width="323"
   height="215"
   viewBox="0 0 323 215"
   sodipodi:docname="Flag of Matsuyama, Ehime.svg"
   inkscape:version="0.92.3 (2405546, 2018-03-11)">
  <metadata
     id="metadata8">
    <rdf:RDF>
      <cc:Work
         rdf:about="">
        <dc:format>image/svg+xml</dc:format>
        <dc:type
           rdf:resource="http://purl.org/dc/dcmitype/StillImage" />
        <dc:title></dc:title>
      </cc:Work>
    </rdf:RDF>
  </metadata>
  <defs
     id="defs6" />
  <sodipodi:namedview
     pagecolor="#ffffff"
     bordercolor="#666666"
     borderopacity="1"
     objecttolerance="10"
     gridtolerance="10"
     guidetolerance="10"
     inkscape:pageopacity="0"
     inkscape:pageshadow="2"
     inkscape:window-width="1920"
     inkscape:window-height="1017"
     id="namedview4"
     showgrid="false"
     inkscape:zoom="1.633704"
     inkscape:cx="235.23116"
     inkscape:cy="136.2581"
     inkscape:window-x="-8"
     inkscape:window-y="-8"
     inkscape:window-maximized="1"
     inkscape:current-layer="svg2" />
  <style
     id="style847"
     type="text/css">
	.st0{fill:#fff;}
	.st1{fill:#1B1986;}
</style>
  <style
     id="style934"
     type="text/css">
	.st0{fill:#000040;}
	.st1{fill:#FFFFFF;}
</style>
  <g
     id="g864"
     transform="matrix(0.35888886,0,0,0.35846974,3.1819633e-5,-1.0161983e-5)"
     style="stroke-width:2.78800631">
    <rect
       style="fill:#ffffff;stroke:none;stroke-width:2.78800631"
       id="rect2598"
       y="1.1368684e-012"
       x="-1.2587681e-005"
       height="600"
       width="900" />
    <path
       style="fill:#2d842f;fill-opacity:1;stroke:none;stroke-width:2.78800631"
       id="rect2386"
       d="m 317.30072,120.68399 v 20.33245 l -41.39235,-16.41909 v 87.34161 l 33.38457,13.24303 v 19.25485 l -33.38457,-13.24303 v 87.34162 l 57.74628,22.88464 v 19.25485 l 65.86685,26.08906 v -51.9796 l 40.60287,-16.07881 v -87.39832 l -32.48229,12.84602 v -19.25486 l 32.48229,-12.84602 v -87.4834 l -41.50515,16.44745 v -20.33245 l -40.71564,16.47581 z m 181.47221,0 v 20.33245 L 457.2678,124.56899 v 87.11475 l 33.38456,13.21467 v 19.25486 L 457.2678,230.9386 v 87.39832 l 41.50513,16.44746 v 51.9796 l 65.86686,-26.08906 v -19.25485 l 57.74628,-22.88464 v -87.34162 l -33.38456,13.24303 v -19.25485 l 33.38456,-13.24303 v -87.36997 l -41.50514,16.44745 v -20.33245 l -40.99761,16.47581 z m -182.26171,51.12887 33.38457,13.21468 v -12.61917 h 16.24115 v 12.7326 l 33.61013,-13.32811 v 19.25485 l -33.61013,13.32811 v 87.25654 l 33.61013,-13.32811 v 19.25487 l -33.61013,13.3281 v 24.84131 l -16.24115,-5.44466 v -19.51009 l -33.38457,-13.21466 v -19.25487 l 33.38457,13.21468 v -87.25654 l -33.38457,-13.21468 z m 181.81057,0 33.61015,13.32811 v -12.7326 h 16.24113 v 12.61917 l 33.38458,-13.21468 v 19.25485 l -33.38458,13.21468 v 87.25654 l 33.38458,-13.21468 v 19.25487 l -33.38458,13.21466 v 19.51009 l -16.24113,5.44466 v -24.84131 l -33.61015,-13.3281 v -19.25487 l 33.61015,13.32811 v -87.25654 l -33.61015,-13.32811 z m -49.17457,162.97152 -33.38457,12.81766 v 64.85398 L 317.4135,373.49258 v -19.25485 l -41.50513,-16.44744 v 74.18365 l 173.23885,68.65392 173.23885,-68.65392 v -74.18365 l -41.50514,16.44744 v 19.25485 l -98.34914,38.96344 v -64.85398 z"
       inkscape:connector-curvature="0" />
  </g>
</svg>
