<?xml version="1.0" encoding="UTF-8" standalone="no"?>
<!-- Created with Inkscape (http://www.inkscape.org/) -->

<svg
   xmlns:svg="http://www.w3.org/2000/svg"
   xmlns="http://www.w3.org/2000/svg"
   version="1.0"
   width="900"
   height="600"
   id="svg2">
  <defs
     id="defs4" />
  <g
     id="layer1">
    <rect
       width="900"
       height="600"
       x="0"
       y="0"
       id="rect2120"
       style="fill:#333399;fill-opacity:1;stroke:none" />
    <path
       d="m 429.84061,90 0,26.25649 c -49.31331,5.03915 -96.7984,28.44274 -131.23054,69.32542 -70.38339,83.56909 -59.69955,208.52692 23.86954,278.9103 31.597,26.61157 69.11739,41.63198 107.361,45.50779 l 0,-36.32321 C 399.84328,469.94466 370.5566,457.79897 345.72646,436.88658 277.38534,379.32847 268.60568,277.1699 326.16383,208.82876 353.47574,176.40019 390.81782,157.40162 429.84061,152.5278 l 0,214.255 40.26687,0 0,-214.255 c 30.01062,3.7175 59.33483,15.82579 84.16605,36.73831 68.34113,57.55815 77.06888,159.76859 19.51074,228.10973 -27.3081,32.42402 -64.66456,51.42711 -103.67679,56.30095 l 0,36.32321 c 49.33488,-5.02862 96.83984,-28.48224 131.28245,-69.37732 C 671.7733,357.0536 661.08948,232.09578 577.52039,161.71237 545.91152,135.09181 508.37053,120.06988 470.10748,116.2046 l 0,-26.2046 -40.26687,0 z m -16.76056,101.96442 c -22.62091,6.86782 -43.57572,20.11839 -59.93329,39.5404 -45.03113,53.46732 -38.21157,133.41954 15.25576,178.4507 18.22093,15.34598 39.49578,24.67586 61.43809,28.17644 l 0,-37.62047 c -13.45542,-3.08027 -26.39618,-9.28731 -37.67235,-18.78429 -37.88522,-31.9076 -42.70078,-88.57141 -10.79317,-126.45663 8.94735,-10.62354 19.82586,-18.6268 31.70496,-23.97331 l 0,-39.33284 z m 73.78799,0 0,39.33284 c 7.36619,3.3341 14.42167,7.71424 20.91178,13.18013 37.88526,31.90762 42.7527,88.51952 10.84508,126.40474 -13.03483,15.47681 -30.18764,25.4292 -48.51742,29.62936 l 0,37.56858 c 28.93786,-4.64483 56.40106,-19.27608 76.74573,-43.43219 45.03114,-53.46732 38.15967,-133.36767 -15.30762,-178.39881 -13.52593,-11.39136 -28.76119,-19.43899 -44.67755,-24.28465 z"
       id="path2768"
       style="fill:#ffffff;fill-opacity:1;stroke:none" />
  </g>
</svg>
