<?xml version="1.0" encoding="UTF-8" standalone="no"?>
<!-- Created with Inkscape (http://www.inkscape.org/) -->
<svg
   xmlns:svg="http://www.w3.org/2000/svg"
   xmlns="http://www.w3.org/2000/svg"
   version="1.0"
   width="900"
   height="600"
   id="svg2">
  <defs
     id="defs5" />
  <rect
     width="900"
     height="600"
     x="0"
     y="0"
     id="rect3217"
     style="fill:#e65226;stroke:none;" />
  <path
     d="M 117.57031,204.02344 C 115.24217,211.77867 107.77603,216.52606 100.48438,220.95312 L 100.09375,220.17188 C 106.47395,215.87502 111.06769,211.39065 114.5,204.34375 C 108.38019,204.99482 105.93304,205.79705 105.41222,205.92723 L 103.06847,203.7788 C 105.67263,203.90904 108.69568,203.41693 115.07591,202.76586 C 116.29433,201.69902 116.34957,199.83217 116.34957,197.76172 C 116.34957,195.92841 116.41143,194.47921 115.89062,193.4375 L 116.47656,193.04688 L 120.01562,195.25 C 120.01562,195.25 119.94127,196.62304 119.55667,198.05836 C 119.16415,199.52328 118.82228,200.73716 118.29105,202.18505 C 122.13477,201.52362 128.59111,199.70875 129.24219,199.31809 L 134.68214,201.92992 C 132.46856,201.92995 123.22653,202.74252 119.54458,203.17256 C 122.53934,206.55801 126.62497,209.83726 128.875,211.46484 C 130.70307,212.78719 133.36454,214.35939 134.78125,215.14062 C 135.92145,215.76937 139.16662,217.75002 142.8125,217.75 L 142.8125,218.72656 L 133.5,219.82812 C 133.36975,219.1771 131.20309,217.61981 129.25,215.40625 L 118.59544,203.93681 L 117.57031,204.02344 z M 120.54688,233.16406 C 120.54685,235.89844 120.08852,239.82291 118.23438,239.21875 C 117.04685,238.57291 116.64842,235.61198 111.72656,233.64844 L 112.11719,233.0625 L 117.64844,233.875 C 117.90883,233.875 118.03904,233.09375 118.03906,231.53125 L 118.03906,221.64062 C 111.26821,222.29168 106.12238,223.68491 105.60156,223.94531 L 103.0625,221.99219 C 105.92707,221.9922 112.58722,220.66408 119.29297,219.88281 C 125.99867,219.10158 127.23694,218.07814 127.75781,217.6875 L 132.30469,220.40625 C 130.22132,220.40626 126.30205,220.23178 120.54688,221.19531 L 120.54688,233.16406 z M 110.16406,225.51953 C 110.16406,225.51953 109.79585,229.63281 108.45703,231.23047 C 105.42578,235.29297 104.75781,232.29688 104.75781,232.29688 C 104.61354,229.98693 107.1707,227.81638 110.16406,225.51953 z M 125.36719,213.96094 C 122.76299,214.22137 120.91273,214.85809 118.47266,215.33984 C 116.08792,215.81067 114.33592,216.45835 113.16406,216.71875 L 111.21094,214.96094 C 113.42446,214.83075 115.33461,214.22528 118.06641,213.55078 C 120.69532,212.90168 121.92966,212.58075 122.71094,212.32031 L 125.36719,213.96094 z M 133.64844,229.25781 C 134.71611,230.8724 134.71611,232.98698 133.64844,233.16406 C 130.29423,233.1224 131.91924,230.32292 124.71094,225.45312 L 125.29688,224.86719 C 129.50517,226.33074 132.74736,227.89844 133.64844,229.25781 L 133.64844,229.25781 z"
     id="text2384"
     style="fill:#ffffff;stroke:none;" />
  <path
     d="M 107.03906,325.86719 C 107.03906,324.21618 107.15877,323.41681 106.30469,321.9375 L 106.89062,321.74219 C 106.89062,321.74219 109.29688,323 110.04688,322.9375 L 124.25781,319.67969 C 124.82031,319.42969 125.86719,318.40625 125.86719,318.40625 L 129.59375,321.1875 C 129.59375,321.1875 128.20625,321.95469 128.03125,322.55469 C 127.59375,324.05469 126.28125,331.54688 126.28125,331.54688 L 125.92188,334.0625 L 114.34375,336.36719 C 117.41144,338.8047 118.91925,340.28126 120.86719,341.73438 L 127.04688,335.46094 L 130.71094,338.28125 C 128.16049,339.40235 124.57647,340.87822 122.375,342.67969 C 125.23955,345.41407 129.03512,348.32813 130.44922,349.17188 C 134.08196,351.74797 138.39529,353.66889 142.80469,354.96875 L 142.80469,355.94531 C 138.24735,356.33594 133.65621,356.03906 130.46875,356.05469 C 130.46871,355.40364 128.06638,351.92577 125.26172,348.87109 C 124.4668,347.82616 122.3723,345.63549 120.4973,343.76049 C 120.4973,343.76049 118.45408,344.70606 118.45408,344.70606 C 118.45408,344.70606 119.88402,342.89136 119.88402,342.89136 C 119.88402,342.89136 114.70312,338.05859 112.97656,336.5625 L 110.04688,337.51562 L 110.04688,351.92188 L 119.46875,347.25781 L 119.85938,347.84375 C 112.38019,354.03646 109.09634,357.15625 108.00781,358.01562 L 105.4375,353.78906 C 106.08853,353.13802 107.03905,352.29167 107.03906,351.5 L 107.03906,325.86719 L 107.03906,325.86719 z M 110.04688,328.72656 C 116.33852,327.75784 118.37758,326.2318 119.28906,325.71094 L 123.33594,327.23438 C 121.57549,327.7969 117.06248,329.63284 110.04688,330.67969 L 110.04688,335.5625 L 122.95312,332.0625 L 124.32812,321.6875 L 110.04688,324.69531 L 110.04688,328.72656 z M 118.99219,320.17969 C 118.99219,320.17969 115.6354,317.45837 113.42188,314.20313 L 114.20312,313.8125 C 116.5729,314.92191 119.78906,316.0625 119.78906,316.0625 C 119.77862,317.29691 119.85675,318.19014 119.33594,319.49219 L 118.99219,320.17969 z"
     id="text2388"
     style="fill:#ffffff;stroke:none;" />
  <path
     d="M 131.97656,450.03906 C 131.97656,450.03906 134.92188,452.17969 135.42188,452.42969 C 134.80493,452.97772 134.84375,454.08594 134.84375,454.08594 C 134.06246,468.33595 131.92705,468.92188 130.25,470.78125 C 128.76038,469.52605 127.54945,468.1849 124.55469,465.32031 L 124.94531,464.73438 L 128.96875,465.24219 C 129.81246,464.93491 131.3984,461.75262 131.10156,453.00781 L 121.97656,453.99219 L 121.47656,475.46875 C 121.60674,477.55208 120.47393,481.39843 119.57812,480.94531 C 118.33037,480.04264 118.35775,478.55806 118.40625,475.84375 L 118.71875,454.5 L 110.02344,455.66406 C 110.02344,455.66406 110.83594,461.49219 110.83594,467.55469 C 110.96613,468.98698 110.77082,469.57292 110.25,469.3125 L 107.92188,466.1875 C 108.1979,465.66147 108.07847,463.2539 108.07812,461.94531 C 108.0314,458.68679 108.16573,456.10662 106.60938,453.21875 L 107.19531,452.82812 L 109.64844,453.71094 L 118.625,452.38281 L 118.625,449.83594 C 118.62498,448.01305 118.61977,446.74482 118.35937,446.09375 C 108.20311,447.00524 101.29687,448.24742 100.51563,448.50781 C 98.17188,447.72656 97.125,446.32812 97.125,446.32812 C 99.85937,446.32815 109.16535,444.80732 120.16797,443.76562 C 131.17054,442.72399 134.51037,441.06774 135.8125,440.54688 C 139.96875,442.17188 142.05469,443.89062 142.05469,443.89062 C 140.36193,443.76045 134.07027,444.09899 121.17969,445.53125 L 122.25781,447.14062 C 122.16924,447.78649 122.03383,449.07555 121.97656,450.19531 L 121.97656,451.84375 L 129.83594,450.79688 C 130.71094,450.57813 131.97656,450.03906 131.97656,450.03906 z M 119.13281,443.88281 C 118.58591,440.8516 116.74477,438.19014 114.92188,435.58594 L 115.50781,435 C 118.26821,435.69275 121.08852,436.38025 121.90625,437.5 C 121.38539,438.67191 121.30466,442.71618 120.91406,443.75781 L 119.13281,443.88281 z"
     id="text2392"
     style="fill:#ffffff;stroke:none;" />
  <g
     id="g3225">
    <g
       id="g2429">
      <path
         d="M 533.8125,139.625 C 520.75811,140.75818 507.76285,144.76263 496.15625,149.6875 L 501.71875,158.59375 C 509.94376,155.62149 518.49024,153.47839 526.71875,153.03125 L 536.53125,181.75 L 566.84375,182.28125 C 569.19965,189.84782 569.79549,198.87051 569.375,208.03125 L 579.53125,210.28125 C 580.40164,198.10661 580.19716,184.53494 577.75,170.84375 L 544.5625,171.03125 L 533.8125,139.625 z M 370.75,139.71875 L 360.25,170.8125 L 328.0625,171.46875 C 325.03398,184.54625 324.82263,198.08537 325.96875,210.53125 L 336.4375,207.34375 C 336.06435,198.71844 336.5963,190.12252 338.65625,182.375 L 368.3125,181.65625 L 378.15625,153 C 386.7772,153.55059 395.48147,155.66349 403.78125,158.5625 L 409.21875,149.21875 C 397.48352,144.39376 384.26782,140.58511 370.75,139.71875 z M 297.34375,290.65625 C 287.41169,300.67538 277.96172,313.01682 272.09375,327.46875 L 298.375,347.15625 L 288.375,379.28125 C 301.0142,386.3194 314.31026,390.66469 327.625,393.3125 L 327.875,382.71875 C 318.82649,380.57213 309.82999,377.56766 301.78125,373.3125 L 310.9375,343.59375 L 286.78125,325.5625 C 290.88906,316.01212 297.29078,307.13615 304.4375,299.25 L 297.34375,290.65625 z M 607.125,292.09375 L 598.96875,300.8125 C 603.91098,307.76866 608.68047,315.52453 612.84375,324.03125 L 588.59375,342.5625 L 597.875,371.46875 C 590.88286,375.39765 583.7739,378.35736 576.84375,380.625 L 577.6875,392.53125 C 589.33849,389.71754 601.51181,385.26336 612.34375,378.21875 L 602.59375,346.875 L 628.78125,327.03125 C 622.9308,313.88829 615.12063,302.09856 607.125,292.09375 z M 409.40625,441.625 L 399.875,445.25 C 406.36884,457.25526 414.90786,469.29655 425.96875,478.46875 L 452.34375,459.875 L 479.6875,478.65625 C 490.25656,469.4813 499.09898,457.66181 506.25,445.90625 L 495.9375,441.84375 C 490.62566,449.85693 484.45699,457.58348 477.375,464.09375 L 452.34375,446.40625 L 427.65625,464.0625 C 420.35758,457.46563 414.34956,449.66905 409.40625,441.625 z"
         id="path2424"
         style="fill:#009f62;stroke:#ffffff;stroke-width:2.5" />
      <path
         d="M 426.28125,121.3125 C 393.28126,149.3125 380.9375,198.5625 380.9375,198.5625 C 380.9375,198.56251 327.55533,195.48662 294.125,217.75 L 303.71875,248.46875 L 277.3125,268.875 C 286.50489,291.50242 311.24035,317.56458 334.9375,334.59375 C 334.93749,334.59375 314.16668,386.10686 324.40625,428.15625 L 357.09375,428.375 L 367.84375,459.75 C 410.99933,456.49445 452.71875,421.9277 452.71875,421.9277 C 452.71875,421.9277 496.17964,457.02588 537.62836,459.64001 L 548.50336,428.67126 L 581.36672,428.39001 C 591.51294,383.18847 570.25444,334.33839 570.25444,334.33839 C 570.25444,334.33839 611.12391,308.34549 628.73392,268.33931 L 602,248.6875 L 611.65625,217.65625 C 576.83997,196.16509 524.625,198.53125 524.625,198.53125 C 524.62502,198.53125 512.13598,149.00364 479.5,121.3125 L 452.5,140 L 426.28125,121.3125 z M 428.28125,136.375 L 452.5,153.5 L 477.5,136.375 C 505.43072,160.06308 518.15625,207.3125 518.15625,207.3125 C 518.15628,207.3125 569.49259,205.31336 597.96875,224.1875 L 589.15625,252.5 L 613.15625,271 C 598.03052,304.95191 559.09283,330.3027 559.09283,330.3027 C 559.09283,330.3027 578.64234,372.12831 570.36764,416.47487 L 539.85876,416.84987 L 530.05606,445.58915 C 488.32303,440.2317 452.71875,409.4375 452.71875,409.4375 C 452.71875,409.4375 415.82155,441.30355 375.21875,445.53125 L 365.90625,416.5625 L 335.0625,416.25 C 326.97237,375.55695 346.21875,330.65625 346.21875,330.65625 C 346.21874,330.65624 309.18943,306.81349 292.25,271.28125 L 316.5625,252.65625 L 307.84375,224.3125 C 337.18869,204.51351 387.625,207.71875 387.625,207.71875 C 387.625,207.71875 401.53125,157.625 428.28125,136.375 z"
         id="path2399"
         style="fill:#009f62;stroke:#ffffff;stroke-width:2.5" />
    </g>
    <g
       id="g3219">
      <path
         d="M 452.9375,204 C 456.6875,237.5 467.5625,254.4375 467.5625,254.4375 C 467.5625,254.4375 500.125,253.875 527.5,226.25 C 515.25,263 478.75,270.75 478.75,270.75 C 478.75,270.75 505.875,308.75 563.875,320.25 C 530.875,324.5 488.5,303.125 488.5,303.125 C 488.5,303.125 482.25,323.5 460.5,330 C 460.5,330 458.38068,383.25 452.875,383.25 C 447.125,383.25 445.125,329.75 445.125,329.75 C 421.625,323.25 417.625,302.375 417.625,302.375 C 417.625,302.375 375.125,323 342.125,319.5 C 401.36161,307.43304 426.375,270.9375 426.375,270.9375 C 426.375,270.9375 388.375,260.875 378,226.875 C 401.5,252.375 437.5,254.5 437.5,254.5 C 437.5,254.5 449.1875,237.5 452.9375,204 z"
         id="path2433"
         style="fill:#009b60;stroke:#ffffff;stroke-width:2.5;" />
      <path
         d="M 452.5,274 C 452.5,274 438.15625,290.53125 418.15625,301.03125 C 418.15625,301.03125 418.96875,304.4375 419.625,306.375 C 419.625,306.375 431.74847,316.125 452.125,316.125 C 471.75995,316.125 486.5,305.75 486.5,305.75 L 488.1875,301.84375 C 466.6875,290.84375 452.5,274 452.5,274 z M 452.59375,286.9375 C 458.407,286.9375 463.125,291.6555 463.125,297.46875 C 463.125,303.282 458.407,308 452.59375,308 C 446.7805,308 442.0625,303.282 442.0625,297.46875 C 442.0625,291.6555 446.7805,286.9375 452.59375,286.9375 z M 452.59375,291.9375 C 449.5405,291.9375 447.0625,294.4155 447.0625,297.46875 C 447.0625,300.522 449.5405,303 452.59375,303 C 455.647,303 458.125,300.522 458.125,297.46875 C 458.125,294.4155 455.647,291.9375 452.59375,291.9375 z"
         id="path2435"
         style="fill:#ffffff;stroke:none;" />
      <path
         d="M 431.75,359.375 A 11.125,11.125 0 1 1 409.5,359.375 A 11.125,11.125 0 1 1 431.75,359.375 z"
         transform="matrix(0.9850746,0,0,0.9850746,4.3761179,0.2657017)"
         id="path3213"
         style="fill:#009b60;stroke:#ffffff;stroke-width:2.5" />
      <path
         d="M 431.75,359.375 A 11.125,11.125 0 1 1 409.5,359.375 A 11.125,11.125 0 1 1 431.75,359.375 z"
         transform="matrix(0.9850746,0,0,0.9850746,72.626118,0.2657017)"
         id="path3215"
         style="fill:#009b60;stroke:#ffffff;stroke-width:2.5" />
    </g>
  </g>
</svg>
