<?xml version="1.0" encoding="UTF-8" standalone="no"?>
<!-- Created with Inkscape (http://www.inkscape.org/) -->
<svg
   xmlns:svg="http://www.w3.org/2000/svg"
   xmlns="http://www.w3.org/2000/svg"
   version="1.0"
   width="900"
   height="600"
   id="svg2">
  <defs
     id="defs5" />
  <rect
     width="900"
     height="600"
     x="0"
     y="0"
     id="rect2441"
     style="fill:#528413;stroke:none" />
  <path
     d="M 450.125,118.75 C 446.9221,118.75 443.85939,119.30442 441,120.3125 L 441,130.5 L 432.1875,125.40625 C 427.6078,129.34842 424.36581,134.77807 423.15625,140.9375 L 432.03125,146.0625 L 423.09375,151.21875 C 424.22686,157.40783 427.40396,162.87746 431.9375,166.875 L 441,161.625 L 441,172.1875 C 443.85939,173.19558 446.9221,173.75 450.125,173.75 C 453.23163,173.75 456.21402,173.23216 459,172.28125 L 459,161.625 L 468.21875,166.96875 C 472.77468,162.98976 475.99521,157.52769 477.15625,151.34375 L 467.96875,146.0625 L 477.09375,140.8125 C 475.85639,134.65841 472.57067,129.23589 467.96875,125.3125 L 459,130.5 L 459,120.21875 C 456.21402,119.26784 453.23164,118.75 450.125,118.75 z M 415.375,123.34375 C 332.56966,139.50589 270,212.48736 270,300 C 270,399.36 350.64,480.00001 450,480 C 549.36,480 630.00001,399.36001 630,300 C 630,213.06 568.24844,140.44969 486.25,123.65625 L 498.9375,172 L 502.4375,160.15625 C 552.614,180.66036 588,229.9748 588,287.5 C 588,348.93984 547.63942,401.01487 492,418.625 C 491.95915,418.63793 491.91587,418.64336 491.875,418.65625 C 475.12569,422.89927 474.375,403.71875 474.375,403.71875 L 472.90625,378 L 543,378 L 543,349 L 476,300 L 543,251 L 543,222 L 464.5,222 L 462,178 L 438,178 L 435.5,222 L 358,222 L 358,251 L 425,300 L 358,349 L 358,378 L 427.09375,378 L 425.53125,405.46875 L 425.53125,405.5 C 424.90046,409.8461 422.17142,420.59653 410.71875,419.15625 C 354.19528,402.08198 313,349.56963 313,287.5 C 313,229.8207 348.57851,180.40414 398.96875,160 L 402.5,172 L 415.375,123.34375 z M 408,251 L 434,251 L 433,269 L 408,251 z M 466,251 L 492,251 L 467,269 L 466,251 z M 429.5,333 L 428.5,349 L 407,349 L 429.5,333 z M 470.5,333 L 493,349 L 471.5,349 L 470.5,333 z"
     id="path2409"
     style="fill:#ffffff;stroke:none" />
</svg>
