<?xml version="1.0" encoding="UTF-8" standalone="no"?>
<!-- Created with Inkscape (http://www.inkscape.org/) -->

<svg
   xmlns:dc="http://purl.org/dc/elements/1.1/"
   xmlns:cc="http://creativecommons.org/ns#"
   xmlns:rdf="http://www.w3.org/1999/02/22-rdf-syntax-ns#"
   xmlns:svg="http://www.w3.org/2000/svg"
   xmlns="http://www.w3.org/2000/svg"
   version="1.0"
   width="900"
   height="600"
   id="svg2">
  <rect
     width="900"
     height="600"
     style="fill:#4682b4" />
  <path
     d="m 449.19105,120 c -8.59257,0 -15.51005,6.91748 -15.51005,15.51005 l 0,77.66429 c -40.58534,6.02282 -76.15847,34.79669 -88.64108,76.58088 -7.36239,24.64479 -5.54892,49.9185 3.47836,72.10463 l -25.03276,14.45513 c -11.74724,-26.69011 -15.13863,-57.32333 -7.69801,-87.89978 11.93583,-49.04901 44.97836,-84.10412 93.23137,-98.9336 6.27605,-1.80028 10.21358,-8.01285 9.15207,-14.45514 -1.06151,-6.44228 -6.79283,-11.05718 -13.31469,-10.74869 -1.15995,0.0553 -2.28978,0.26415 -3.39283,0.62725 -56.20991,17.27484 -96.77613,60.30017 -110.68017,117.43731 -9.04249,37.15908 -4.48462,74.51893 10.43507,106.83117 l -19.67267,11.34743 c -7.44139,4.29628 -9.97,13.74238 -5.67372,21.18376 4.29629,7.44139 13.74238,9.97001 21.18377,5.67371 l 19.72969,-11.37593 c 21.96856,30.70385 54.5863,53.98144 94.02968,63.5798 6.90835,1.67763 13.88944,-2.55735 15.56708,-9.46569 1.67763,-6.90835 -2.58587,-13.86093 -9.49421,-15.53857 -32.45225,-7.8971 -59.34724,-26.65414 -77.80685,-51.46257 l 25.06128,-14.45514 c 13.39024,16.928 31.91327,30.04154 54.08559,36.6653 4.49602,1.49106 9.43886,0.42305 12.91554,-2.79409 3.4767,-3.21713 4.93044,-8.06097 3.79198,-12.65893 -1.13845,-4.59799 -4.68998,-8.21392 -9.26611,-9.43719 -15.63627,-4.67118 -28.84543,-13.50233 -38.80364,-24.91872 l 63.5798,-36.69381 62.5534,36.12359 c -10.04228,12.02919 -23.57211,20.68503 -40.20068,25.57448 -6.89252,2.02581 -10.83575,9.24478 -8.80993,16.13729 2.02583,6.89251 9.27328,10.86426 16.1658,8.83845 22.67721,-6.66796 41.73321,-19.76856 55.42562,-37.52064 l 25.23235,14.56919 c -18.4425,25.89226 -45.37499,43.87996 -78.80475,52.03279 -4.5635,0.99741 -8.23433,4.39367 -9.57973,8.86696 -1.3454,4.47329 -0.14848,9.30966 3.10771,12.65894 3.2562,3.34928 8.06397,4.66865 12.5734,3.44985 39.81003,-9.70885 72.75838,-32.35386 94.91353,-64.20705 l 19.90076,11.48998 c 7.44139,4.29628 16.91599,1.76767 21.21228,-5.67371 4.2963,-7.44138 1.73916,-16.88748 -5.70223,-21.18376 l -20.21438,-11.66105 c 2.83122,-6.37184 5.2983,-12.98931 7.38438,-19.84374 26.19684,-86.07809 -22.57779,-177.51512 -108.65589,-203.71197 -1.2238,-0.38822 -2.50812,-0.588 -3.79198,-0.59873 -6.42283,-0.0504 -11.8984,4.65019 -12.83,11.00529 -0.93159,6.35511 2.9565,12.4034 9.12356,14.19854 72.76049,22.14378 113.693,98.84795 91.54921,171.60844 -1.51158,4.96676 -3.25509,9.75776 -5.18902,14.39812 l -25.00426,-14.45514 c 1.11553,-2.8658 2.12669,-5.81241 3.02218,-8.80994 17.17531,-57.49249 -15.72404,-118.39507 -73.21656,-135.57038 -5.28521,-1.57891 -10.60467,-2.72392 -15.90921,-3.47836 l 0,-77.55025 C 464.7011,126.91748 457.78362,120 449.19105,120 z m 15.51005,119.40458 c 2.81554,0.53423 5.63136,1.21395 8.4393,2.0528 44.01239,13.14827 68.8875,59.22639 55.73924,103.23877 -0.30513,1.02137 -0.60749,2.02455 -0.94087,3.02218 l -63.23767,-36.49424 0,-71.81951 z m -31.0201,0.0285 0,73.24507 -62.46787,36.06657 c -5.69478,-16.02505 -6.54083,-33.94809 -1.283,-51.54811 9.17621,-30.71632 34.39753,-52.10989 63.75087,-57.76353 z"
     id="path2386"
     style="fill:#ffffff;stroke:none" />
</svg>
