<?xml version="1.0" encoding="UTF-8" standalone="no"?>
<!-- Created with Inkscape (http://www.inkscape.org/) -->
<svg
   xmlns:svg="http://www.w3.org/2000/svg"
   xmlns="http://www.w3.org/2000/svg"
   version="1.0"
   width="900"
   height="630"
   id="svg2">
  <defs
     id="defs5" />
  <rect
     width="900"
     height="630"
     x="0"
     y="0"
     id="rect2440"
     style="fill:#3d117b;stroke:none" />
  <path
     d="M 450,31 L 384.53125,157 L 250.03125,114.46875 L 292.6875,249.34375 L 167,314.65625 L 292.625,379.9375 L 250.03125,514.6875 L 384.9375,472.0625 L 450,597.25 L 515.0625,472.0625 L 649.96875,514.6875 L 607.375,379.9375 L 733,314.65625 L 607.34375,249.34375 L 649.96875,114.46875 L 515.46875,157 L 450,31 z M 450,67.46875 L 461.375,171.90625 C 530.84033,177.36399 586.42509,232.34704 592.875,301.53125 L 696.5,314.28125 L 593.15625,325.5625 C 588.05115,395.59947 532.63121,451.71952 462.90625,457.9375 L 451.5,562.5 L 438.65625,458.09375 C 368.80805,452.62582 312.96639,397.08263 307,327.375 L 203.34375,316.0625 L 306.9375,303.3125 C 312.55267,233.7862 367.78551,178.1963 437.15625,172.03125 L 450,67.46875 z M 450,184.15625 C 377.39993,184.15625 318.46873,242.39993 318.46875,315 C 318.46875,387.60007 377.39993,447.28123 450,447.28125 C 522.60007,447.28125 581.90627,387.60007 581.90625,315 C 581.90625,242.39993 522.60007,184.15625 450,184.15625 z M 450,213.875 C 467.91611,213.875 484.74674,217.8349 499.375,225.96875 L 449.3125,276 L 399.75,226.4375 C 414.57871,218.00086 431.72817,213.875 450,213.875 z M 525.375,246.625 C 541.78424,264.70217 551.8125,288.67751 551.8125,315 C 551.81252,365.76294 514.61195,408.09952 466,415.78125 L 466,333 L 536,333 L 536,299 L 473,299 L 525.375,246.625 z M 373.96875,247.34375 L 425.625,299 L 363,299 L 363,333 L 432,333 L 432,415.46875 C 384.36439,406.96875 348.1875,365.06949 348.1875,315 C 348.18749,289.02863 357.94767,265.33499 373.96875,247.34375 z"
     id="path2415"
     style="fill:#ffffff;stroke:none" />
</svg>
