<?xml version="1.0" encoding="UTF-8" standalone="no"?>
<!-- Created with Inkscape (http://www.inkscape.org/) -->
<svg
   xmlns:svg="http://www.w3.org/2000/svg"
   xmlns="http://www.w3.org/2000/svg"
   version="1.0"
   width="900"
   height="600"
   id="svg2">
  <defs
     id="defs5" />
  <rect
     width="900"
     height="600"
     x="0"
     y="0"
     id="rect2399"
     style="fill:#ffffff;stroke:none" />
  <path
     d="M 450,67 L 430,121 L 266,121 L 406,186.5 L 389,235 L 450,206 L 509,235 L 493,186.5 L 633,121 L 468,121 L 450,67 z M 562.46875,161.90625 L 508.96875,186.9375 C 550.25877,208.38749 578.5,251.53411 578.5,301.25 C 578.49999,372.31999 520.82,430 449.75,430 C 378.68,429.99999 321,372.32 321,301.25 C 321,251.63411 349.1268,208.55646 390.28125,187.0625 L 336.84375,162.0625 C 296.37624,194.93673 270.5,245.08809 270.5,301.25 C 270.5,400.196 350.804,480.5 449.75,480.5 C 548.696,480.5 629,400.196 629,301.25 C 629,245.00014 603.04539,194.77773 562.46875,161.90625 z M 468.75,279.4375 C 431.49916,279.4375 415.21875,297.46875 415.21875,297.46875 C 491.21875,305.71875 455.75,326 520.25,330.5 C 560.26953,330.5 574.25,311.5 574.25,311.5 C 507.24775,308.25 526.54988,280.9375 468.75,279.4375 z M 379.5,295.9375 C 342.24916,295.9375 325.96875,313.96875 325.96875,313.96875 C 401.96875,322.21875 366.5,342.5 431,347 C 471.01953,347 485,328 485,328 C 417.99775,324.75 437.29988,297.4375 379.5,295.9375 z"
     id="path2386"
     style="fill:#1b35b0;stroke:none" />
</svg>
