<?xml version="1.0" encoding="UTF-8" standalone="no"?>
<!-- Created with Inkscape (http://www.inkscape.org/) -->
<svg
   xmlns:dc="http://purl.org/dc/elements/1.1/"
   xmlns:cc="http://web.resource.org/cc/"
   xmlns:rdf="http://www.w3.org/1999/02/22-rdf-syntax-ns#"
   xmlns:svg="http://www.w3.org/2000/svg"
   xmlns="http://www.w3.org/2000/svg"
   xmlns:sodipodi="http://sodipodi.sourceforge.net/DTD/sodipodi-0.dtd"
   xmlns:inkscape="http://www.inkscape.org/namespaces/inkscape"
   id="svg2178"
   sodipodi:version="0.32"
   inkscape:version="0.45.1"
   width="450"
   height="300"
   version="1.0"
   inkscape:output_extension="org.inkscape.output.svg.inkscape">
  <metadata
     id="metadata2183">
    <rdf:RDF>
      <cc:Work
         rdf:about="">
        <dc:format>image/svg+xml</dc:format>
        <dc:type
           rdf:resource="http://purl.org/dc/dcmitype/StillImage" />
      </cc:Work>
    </rdf:RDF>
  </metadata>
  <defs
     id="defs2181" />
  <sodipodi:namedview
     inkscape:window-height="450"
     inkscape:window-width="300"
     inkscape:pageshadow="2"
     inkscape:pageopacity="0.0"
     guidetolerance="10.0"
     gridtolerance="10.0"
     objecttolerance="10.0"
     borderopacity="1.0"
     bordercolor="#666666"
     pagecolor="#ffffff"
     id="base"
     inkscape:zoom="1.8444976"
     inkscape:cx="218"
     inkscape:cy="163.92565"
     inkscape:window-x="-4"
     inkscape:window-y="-4"
     inkscape:current-layer="svg2178" />
  <rect
     style="opacity:1;fill:#fff799;fill-opacity:1;stroke-width:0;stroke-miterlimit:4;stroke-dasharray:none"
     id="rect2202"
     width="450"
     height="300"
     x="0"
     y="0" />
  <path
     style="opacity:1;fill:#007bc2;fill-opacity:1;stroke-width:0;stroke-miterlimit:4;stroke-dasharray:none"
     d="M 194.62881,72.12915 C 148.40876,95.67945 121.63614,135.86822 134.87223,161.84551 C 148.10832,187.8228 196.35827,189.78567 242.57832,166.23537 C 245.65015,164.67019 248.64548,163.0459 251.53944,161.34274 C 227.03883,171.32593 203.16173,169.06398 196.12521,155.25404 C 188.37751,140.04832 203.9494,116.5786 230.88572,102.85386 C 257.82204,89.12913 285.97762,90.31858 293.72532,105.5243 C 296.41464,110.80238 296.29282,117.07847 293.86252,123.59635 C 305.37847,106.93855 309.13122,89.85751 302.33491,76.51901 C 289.09882,50.54172 240.84887,48.57886 194.62881,72.12915 z "
     id="path2189" />
  <path
     style="opacity:1;fill:#7cc249;fill-opacity:1;stroke-width:0;stroke-miterlimit:4;stroke-dasharray:none"
     d="M 255.37112,233.54575 C 301.59118,209.99546 328.3638,169.80668 315.1277,143.8294 C 301.89162,117.85211 253.64166,115.88923 207.42161,139.43953 C 204.34979,141.00471 201.35445,142.629 198.46049,144.33216 C 222.9611,134.34897 246.8382,136.61092 253.87472,150.42087 C 261.62242,165.62659 246.05053,189.0963 219.11421,202.82104 C 192.17789,216.54577 164.02232,215.35632 156.27462,200.1506 C 153.5853,194.87252 153.70711,188.59643 156.13743,182.07855 C 144.62147,198.73635 140.86872,215.81739 147.66503,229.15589 C 160.90112,255.13318 209.15106,257.09604 255.37112,233.54575 z "
     id="path2194" />
  <path
     sodipodi:type="arc"
     style="opacity:1;fill:#007bc2;fill-opacity:1;stroke-width:0;stroke-miterlimit:4;stroke-dasharray:none"
     id="path2196"
     sodipodi:cx="260.08655"
     sodipodi:cy="320.90622"
     sodipodi:rx="47.572056"
     sodipodi:ry="47.572056"
     d="M 307.6586 320.90622 A 47.572056 47.572056 0 1 1  212.51449,320.90622 A 47.572056 47.572056 0 1 1  307.6586 320.90622 z"
     transform="matrix(0.4822266,-0.2457067,0.2457067,0.4822266,65.164853,102.76506)" />
  <path
     sodipodi:type="arc"
     style="opacity:1;fill:#7cc249;fill-opacity:1;stroke-width:0;stroke-miterlimit:4;stroke-dasharray:none"
     id="path2200"
     sodipodi:cx="260.08655"
     sodipodi:cy="320.90622"
     sodipodi:rx="47.572056"
     sodipodi:ry="47.572056"
     d="M 307.6586 320.90622 A 47.572056 47.572056 0 1 1  212.51449,320.90622 A 47.572056 47.572056 0 1 1  307.6586 320.90622 z"
     transform="matrix(0.4822266,-0.2457067,0.2457067,0.4822266,-16.09851,-15.09494)" />
</svg>
