<?xml version="1.0" encoding="UTF-8" standalone="no"?>
<!-- Created with Inkscape (http://www.inkscape.org/) -->
<svg
   xmlns:svg="http://www.w3.org/2000/svg"
   xmlns="http://www.w3.org/2000/svg"
   version="1.0"
   width="900"
   height="600"
   id="svg2">
  <defs
     id="defs5" />
  <rect
     width="900"
     height="600"
     rx="0"
     ry="0"
     x="0"
     y="0"
     id="rect2406"
     style="fill:#ffffff;stroke:none" />
  <g
     id="g2408">
    <path
       d="M 550.625,51.9375 C 525.785,51.9375 505.625,72.097497 505.625,96.9375 C 505.625,121.7775 525.785,141.9375 550.625,141.9375 C 575.465,141.9375 595.62501,121.7775 595.625,96.9375 C 595.625,72.0975 575.46501,51.9375 550.625,51.9375 z M 487,134.5 C 473.67104,134.71348 462.80385,137.4946 449.0625,155.59375 L 368.25,258.1875 C 345.79342,284.14113 334.90625,305.44536 334.90625,322.0625 C 334.90625,364.79609 365.03339,393 410.96875,393 C 432.69204,393 465.94968,373.93461 472.96875,352 C 472.96875,351.99999 467.85448,352.88502 463.90625,353.03125 C 463.90624,353.03125 438.125,355.62224 438.125,323 C 438.125,316.44665 439.25732,312.65454 442.6875,307.5625 C 442.72285,307.51003 442.74541,307.459 442.78125,307.40625 L 518.96875,210.625 C 535.95727,191.63896 537.50269,162.76556 515.875,144.5625 L 514,143.09375 C 506.93151,137.52885 498.44445,134.54612 489.6875,134.5 C 488.77532,134.4952 487.8886,134.48577 487,134.5 z M 514,301.90625 C 491.17114,301.90625 471.99999,310 472,310 C 472,310 500.09375,321.53344 500.09375,352 C 500.09375,369.84255 475.57411,475.125 328.15625,475.125 C 278.38278,475.125 252.03124,466.99999 252.03125,467 C 252.03125,467 296.44115,517.00002 392.46875,517 C 537.56201,517 576.0625,420.80616 576.0625,377.375 C 576.0625,349.77458 560.51267,301.90626 514,301.90625 z"
       id="path2394"
       style="fill:#007067;stroke:none" />
    <path
       d="M 407,162 C 239.49081,180.61213 182,256.75217 182,313 C 182,355.61688 219.61029,422.22059 347,452 L 379,443 C 279.73529,415.2886 244,361.44155 244,315 C 244,264.25478 280.01838,200.92096 395,179 L 407,162 z M 557,171 L 557,190 C 557,190 663,235.65724 663,310 C 663,365.06334 602,406 602,406 L 588,443 C 694.74843,407.3197 720,349.29881 720,310 C 720,264.04995 677.49412,201.12353 557,171 z"
       id="path2388"
       style="fill:#86c879;stroke:none" />
  </g>
</svg>
