<?xml version="1.0" encoding="UTF-8" standalone="no"?>
<!-- Created with Inkscape (http://www.inkscape.org/) -->

<svg
   xmlns:dc="http://purl.org/dc/elements/1.1/"
   xmlns:cc="http://creativecommons.org/ns#"
   xmlns:rdf="http://www.w3.org/1999/02/22-rdf-syntax-ns#"
   xmlns:svg="http://www.w3.org/2000/svg"
   xmlns="http://www.w3.org/2000/svg"
   version="1.0"
   width="900"
   height="600"
   id="svg2">
  <defs
     id="defs4" />
  <rect
     width="900"
     height="600"
     x="0"
     y="0"
     id="rect3344"
     style="fill:#ffffff;fill-opacity:1;stroke:none" />
  <path
     d="M 623,400 450,500 400,400 400,300 400,200 450,100 623,200 z"
     id="path3321"
     style="fill:#0168b1;fill-opacity:1;stroke:none" />
  <path
     d="M 450,500 277,400.00001 277,200 450,100 l 0,400 z"
     id="path3318"
     style="fill:#019f62;fill-opacity:1;stroke:none" />
  <path
     d="m 440.96445,395.45755 -7.62684,-4.61277 -0.0839,-4.21468 -0.0837,-4.21458 -22.19517,-12.99354 C 398.7676,362.27556 388.05446,356.0161 387.16801,355.51203 l -1.61189,-0.91637 -3.9703,1.71536 -3.9705,1.71541 -7.16547,-4.48228 -7.16546,-4.48214 -0.0745,-8.91858 -0.0745,-8.91855 3.39351,-2.02916 3.39371,-2.02916 0,-28.77632 0,-28.77632 -3.25236,-1.35973 -3.25246,-1.35972 0.0746,-8.75138 0.0745,-8.75139 7.73088,-4.32732 7.73088,-4.32733 3.96138,1.56395 3.96169,1.56393 24.3866,-13.47091 24.38671,-13.47092 0.0774,-4.35628 0.0776,-4.35629 5.22577,-2.80927 c 2.87412,-1.5451 6.33036,-3.39247 7.68044,-4.10527 L 451.24082,200 l 7.07864,4.16803 7.07884,4.16804 0.006,3.99403 0.006,3.99405 25.00326,14.61458 25.00327,14.61459 3.13336,-2.09369 3.13325,-2.09371 7.59054,5.06533 7.59045,5.06533 -0.003,7.83594 -0.003,7.83592 -3.38695,2.35025 -3.38695,2.35024 0.008,28.58006 0.008,28.58002 2.81611,1.94536 2.8161,1.94537 0,9.1199 0,9.11989 -7.58707,4.1278 -7.58696,4.12779 -3.64126,-1.98524 c -2.00273,-1.09192 -3.76847,-1.98589 -3.92376,-1.98671 -0.1554,-8.3e-4 -11.27784,6.14344 -24.71636,13.65398 l -24.43396,13.65537 -0.0887,4.20976 -0.0885,4.20972 -7.22399,4.37827 c -3.97307,2.40802 -7.36535,4.41018 -7.53807,4.44918 -0.17292,0.0389 -3.74643,-2.00489 -7.94111,-4.5419 z m 14.58411,-1.11041 6.60128,-4.02784 0.14135,-4.23409 0.14115,-4.23416 25.25328,-14.10814 25.25328,-14.10803 1.58164,0.83728 c 0.86995,0.4604 2.59858,1.38637 3.84145,2.05751 l 2.25991,1.22042 6.84986,-3.76333 6.85005,-3.76336 0,-8.24267 0,-8.24268 -2.96452,-2.07205 -2.96453,-2.07207 0.0691,-29.21239 0.0692,-29.2124 3.46034,-2.4165 3.46024,-2.41648 0,-6.99577 0,-6.99577 -6.77503,-4.52238 c -3.72624,-2.48729 -6.90828,-4.52237 -7.07126,-4.52237 -0.16288,0 -1.62295,0.8901 -3.24437,1.97797 l -2.94812,1.97799 -25.71209,-15.04215 -25.71188,-15.04212 -0.001,-3.98846 -10e-4,-3.98846 -6.31416,-3.7088 c -3.47295,-2.03984 -6.39822,-3.70881 -6.50062,-3.70881 -0.1022,0 -3.2987,1.66614 -7.10304,3.70253 l -6.9171,3.70252 0,4.31538 0,4.31537 -25.03945,13.8362 -25.03976,13.83621 -2.85454,-1.12248 c -1.57006,-0.61736 -3.36307,-1.31403 -3.98455,-1.54819 l -1.1298,-0.42572 -7.06194,3.94705 -7.06173,3.94706 0,7.83442 0,7.83441 3.24837,1.35788 3.24856,1.35789 0.0718,29.61952 0.072,29.6195 -3.5364,2.11282 -3.5364,2.11282 0.0748,8.04171 0.0748,8.0417 6.21433,3.91022 c 3.418,2.15071 6.377,3.98178 6.57565,4.06918 0.19886,0.0874 2.04199,-0.57628 4.09597,-1.47488 2.05409,-0.8985 3.87774,-1.63378 4.05251,-1.63394 0.17477,-1.5e-4 11.26082,6.40824 24.63569,14.24077 l 24.31762,14.24109 0.0808,4.1942 0.0808,4.19413 6.92058,4.2026 c 3.8063,2.31146 7.00074,4.20561 7.09874,4.20927 0.0979,0.004 3.14872,-1.80585 6.77922,-4.02113 z m -12.60691,-2.18416 -5.64932,-3.38497 -0.14135,-4.27523 -0.14115,-4.27514 -25.28146,-14.81899 c -13.90462,-8.1504 -25.44025,-14.88532 -25.63439,-14.96634 -0.19425,-0.0812 -1.71972,0.45452 -3.38962,1.19017 -1.6702,0.73566 -3.43215,1.50632 -3.91566,1.71254 -0.86432,0.36866 -0.96969,0.31852 -6.21443,-2.95748 l -5.33535,-3.33254 -0.0688,-6.89447 -0.0686,-6.89449 3.38203,-1.97729 3.38213,-1.97728 0.005,-31.11703 0.006,-31.11704 -3.24847,-1.3516 -3.24846,-1.35161 0.004,-6.37073 0.004,-6.37078 5.84726,-3.23328 c 3.21597,-1.7783 6.04232,-3.21575 6.28064,-3.19431 0.23843,0.0214 2.07366,0.68627 4.07834,1.47741 l 3.64506,1.43843 13.02092,-7.19259 c 7.16146,-3.95594 18.86797,-10.42791 26.01468,-14.38214 l 12.99365,-7.18954 0.0776,-4.37064 0.0776,-4.37063 3.59462,-1.91708 c 1.9769,-1.05438 4.61147,-2.46149 5.85434,-3.1269 l 2.25981,-1.20982 5.08442,3.02402 5.08452,3.02402 0.14125,4.05811 0.14125,4.05812 26.95485,15.74987 26.95485,15.74989 2.90723,-1.95054 c 1.59896,-1.07278 3.04099,-1.95052 3.20449,-1.95052 0.16339,0 2.77346,1.65402 5.8001,3.6756 l 5.50295,3.67561 0,5.89344 0,5.89344 -3.38972,2.35283 -3.38961,2.35285 0,30.42906 0,30.42905 2.89523,2.07285 2.89534,2.07285 0.069,6.91482 0.069,6.91482 -5.59181,3.03656 c -3.07554,1.67002 -5.72415,3.03653 -5.88611,3.03653 -0.16206,0 -1.92965,-0.8934 -3.92817,-1.98525 l -3.63368,-1.98537 -12.15824,6.77534 c -6.68698,3.72633 -18.64103,10.39165 -26.56441,14.81183 l -14.40617,8.03647 -0.0777,4.24255 -0.0779,4.24259 -5.36743,3.26865 c -2.95203,1.79776 -5.45928,3.26805 -5.57153,3.26741 -0.11244,-6.6e-4 -2.7465,-1.52435 -5.85381,-3.38611 z m 10.70105,-1.1541 4.67932,-2.84659 0.0778,-4.26142 0.0779,-4.26141 27.24197,-15.19998 27.24196,-15.20003 2.98257,1.59687 c 1.64058,0.87823 3.34,1.81275 3.77667,2.07646 l 0.794,0.47969 4.99668,-2.72428 4.99677,-2.72436 0.0765,-5.89059 c 0.0541,-4.16755 -0.0198,-6.00648 -0.25247,-6.28685 -0.18081,-0.21796 -1.51819,-1.22547 -2.9718,-2.23891 l -2.64277,-1.84263 0.003,-31.26957 0.003,-31.26956 3.38695,-2.35025 3.38695,-2.35024 0,-5.06365 0,-5.06369 -4.94153,-3.29284 -4.94143,-3.29285 -2.33228,1.54818 c -1.28264,0.85149 -2.65148,1.75574 -3.04192,2.00947 -0.70338,0.4571 -0.96272,0.31352 -28.38857,-15.71394 l -27.67874,-16.17526 -0.14115,-4.05017 -0.14135,-4.05016 -4.37827,-2.61997 -4.37827,-2.61998 -3.42333,1.80901 c -1.8827,0.99495 -4.1707,2.22901 -5.08442,2.74234 l -1.66129,0.93336 -0.14125,4.35824 -0.14125,4.35825 -26.65,14.73571 -26.65011,14.73573 -2.86838,-1.12785 c -1.57764,-0.62032 -3.3768,-1.3182 -3.99828,-1.55088 l -1.12991,-0.42302 -5.22567,2.93404 -5.22577,2.93406 0,5.4586 0,5.45859 3.17179,1.31102 3.17179,1.31099 0.006,32.06171 0.006,32.06169 -3.31909,1.99107 -3.31899,1.99106 -0.0763,5.96161 -0.0761,5.96159 4.77804,2.995 4.77793,2.99495 3.94293,-1.72049 3.94283,-1.72042 26.2406,15.37276 26.2408,15.37279 0.0778,4.21026 0.0778,4.21022 5.00181,3.03662 c 2.75091,1.67011 5.08759,3.03653 5.19266,3.03653 0.10486,0 2.29661,-1.28099 4.87039,-2.84663 z m -9.00603,-2.25916 -3.67222,-2.23424 -0.14125,-4.30012 -0.14125,-4.30019 -27.11742,-15.88921 c -14.91459,-8.7391 -27.30808,-15.89011 -27.54108,-15.89109 -0.23309,-9.6e-4 -2.0834,0.73475 -4.11165,1.63491 l -3.6878,1.63667 -3.65643,-2.29293 -3.65654,-2.29289 -0.0695,-4.64743 -0.0694,-4.64741 3.88287,-2.01074 3.88286,-2.01072 0,-33.54828 0,-33.54825 -3.10721,-1.30964 -3.10722,-1.30962 -0.0785,-3.87066 -0.0785,-3.87066 2.33822,-1.50549 c 1.28623,-0.82802 2.7424,-1.74288 3.23627,-2.03304 l 0.89783,-0.52754 3.81634,1.48537 c 2.09888,0.81695 3.99255,1.44278 4.20811,1.39071 0.21588,-0.0521 13.06203,-7.12566 28.54726,-15.71911 l 28.15497,-15.62443 0,-4.3374 0,-4.3374 3.72839,-2.00009 c 2.05049,-1.10003 3.79819,-1.998 3.88389,-1.9955 0.0857,0.002 1.61752,0.86533 3.40417,1.91738 l 3.24836,1.91281 0.14145,4.08508 0.14115,4.08508 28.85907,16.84268 28.85908,16.84268 2.98902,-1.98282 2.98903,-1.98285 3.80845,2.51194 3.80824,2.51198 -0.006,3.81331 -0.006,3.81333 -3.44866,2.40705 -3.44866,2.40708 -0.0719,32.36818 -0.0717,32.36819 2.96719,2.06769 2.96709,2.0677 0,4.82298 0,4.82297 -3.74274,2.06099 -3.74264,2.06105 -2.11866,-1.15682 c -1.16517,-0.63618 -2.89964,-1.55341 -3.85427,-2.0382 l -1.7357,-0.88144 -11.39931,6.34545 c -6.26957,3.49006 -19.05299,10.59711 -28.40743,15.79357 l -17.00814,9.44813 -0.0109,4.28108 -0.0109,4.28095 -3.49653,2.14521 c -1.92308,1.17982 -3.67098,2.13457 -3.88399,2.12167 -0.2131,-0.0128 -2.03994,-1.0288 -4.05948,-2.25766 z m 7.18975,-1.12807 2.83794,-1.71436 0.003,-4.28809 0.003,-4.28814 28.1236,-15.67696 c 15.46811,-8.62234 28.60999,-15.91823 29.20421,-16.21307 l 1.08029,-0.53607 3.7329,2.04131 3.733,2.04127 1.5921,-0.85562 c 0.87569,-0.47059 2.25838,-1.21151 3.07287,-1.64646 l 1.48048,-0.79082 0.002,-3.98704 0.002,-3.98703 -2.9671,-2.06768 -2.96719,-2.06766 0.0719,-33.19888 0.0717,-33.19888 3.46219,-2.4105 3.46229,-2.41048 -0.0726,-2.96592 -0.0726,-2.96592 -3.03167,-2.05755 -3.03156,-2.05754 -2.94967,1.97892 -2.94956,1.97892 -29.6706,-17.29317 -29.6706,-17.29318 -0.0104,-4.0122 -0.0105,-4.0122 -2.69156,-1.60614 c -2.03758,-1.21594 -2.81395,-1.54505 -3.19598,-1.3547 -0.27738,0.13829 -1.66898,0.8761 -3.09225,1.63956 l -2.58772,1.38812 -0.0776,4.36279 -0.0774,4.36278 -28.92426,16.06978 c -15.90837,8.83837 -29.01611,16.06976 -29.12825,16.06976 -0.11224,0 -1.92401,-0.6806 -4.02606,-1.51244 l -3.82188,-1.51245 -2.57081,1.65409 -2.57091,1.65409 0,2.92213 0,2.92216 3.3192,1.41068 3.31898,1.41071 0.0718,34.34428 0.0718,34.34431 -4.02647,2.07882 -4.02637,2.0788 0,3.78535 0,3.78534 2.99989,1.89317 2.99969,1.89319 3.77954,-1.6812 c 2.88129,-1.28165 3.93053,-1.62669 4.41476,-1.45181 0.34933,0.12618 13.02297,7.47475 28.16389,16.33007 l 27.52887,16.10076 0.0127,4.24203 0.0128,4.24194 3.17774,1.89959 c 1.7479,1.04479 3.26722,1.90044 3.37659,1.9016 0.10927,10e-4 1.47576,-0.7693 3.03649,-1.71216 z"
     id="path3289"
     style="fill:#ffffff;fill-opacity:1" />
  <path
     d="m 475.17353,334.06822 -25.26209,-18.05868 -25.30945,17.99243 9.36848,-29.60617 -24.93284,-18.51066 31.05215,-0.23892 9.89997,-29.43264 9.82289,29.45848 31.05123,0.32027 -24.98113,18.44529 9.29079,29.6306 z"
     id="path2413"
     style="fill:#ffffff;fill-opacity:1;stroke:none" />
  <path
     d="m 448.39601,235.92643 c -33.71788,0.88159 -60.98085,28.09953 -61.86424,61.84312 l 7.78593,0 c -0.0157,0.52791 -0.0254,1.06112 -0.0265,1.5926 -10e-4,0.5997 0.009,1.20203 0.0265,1.79723 l -7.78593,0 c 0.88544,33.71257 28.12658,60.96316 61.86424,61.85037 l 0,-3.3898 c -30.76288,-0.85069 -55.72812,-24.77873 -58.26254,-55.07073 l 4.3961,0 c 2.52274,27.84432 25.55659,49.84459 53.86644,50.69219 l 0,-3.38983 c -26.47308,-0.83959 -47.9669,-21.29975 -50.4677,-47.30236 l 4.41384,0 c 2.48429,23.54646 22.04191,42.06194 46.05386,42.89733 l 0,-3.38984 c -23.30877,-0.87139 -42.01981,-19.60638 -42.89355,-42.89733 l -7.78613,0 c -0.0187,-0.59243 -0.0363,-1.19117 -0.0353,-1.78839 9.2e-4,-0.53509 0.0103,-1.07026 0.0266,-1.60144 l 7.79484,0 c 0.86472,-23.31813 19.59401,-42.02238 42.89355,-42.89009 l 0,-3.39866 c -23.99452,0.83395 -43.56711,19.34108 -46.05386,42.90254 l -4.41384,0 c 2.50162,-26.01977 24.0142,-46.45974 50.4677,-47.29872 l 0,-3.38101 c -28.29099,0.84723 -51.34596,22.81487 -53.86623,50.67973 l -4.39631,0 c 2.53145,-30.31523 27.52077,-54.21663 58.26254,-55.06709 l 0,-3.38982 z m 3.39003,0 0,3.38982 c 32.50033,0.89869 58.53151,27.54356 58.47452,60.24894 -0.0549,31.47743 -24.28892,57.26729 -55.08471,59.86053 l 0,-12.21752 c 24.05367,-2.55542 43.03584,-22.92985 43.07899,-47.66066 0.0433,-24.77992 -18.96545,-45.25458 -43.07899,-47.8284 l 0,-4.41384 c 26.57753,2.58238 47.36378,25.00343 47.31632,52.25107 -0.0454,26.02305 -19.0572,47.57828 -43.9266,51.63312 l 0,3.42516 c 26.71745,-4.09941 47.26772,-27.20069 47.31641,-55.05828 0.0529,-30.24805 -24.05213,-54.96154 -54.09594,-55.86159 l 0,11.18468 c 23.90278,0.8907 43.12111,20.54714 43.07898,44.65924 -0.0419,24.05835 -19.24744,43.62835 -43.07898,44.51801 l 0,18.95304 c 34.23829,-0.89967 61.80417,-28.96965 61.86434,-63.43573 0.0603,-34.54036 -27.52631,-62.74395 -61.86434,-63.64759 z"
     id="path2415"
     style="fill:#ffffff;fill-opacity:1;stroke:none" />
  <metadata
     id="metadata3013">
    <rdf:RDF>
      <cc:Work
         rdf:about="">
        <dc:title></dc:title>
      </cc:Work>
    </rdf:RDF>
  </metadata>
</svg>
