<?xml version="1.0" encoding="UTF-8" standalone="no"?>
<!-- Created with Inkscape (http://www.inkscape.org/) -->
<svg
   xmlns:svg="http://www.w3.org/2000/svg"
   xmlns="http://www.w3.org/2000/svg"
   version="1.0"
   width="900"
   height="600"
   id="svg2">
  <desc
     id="desc4">Emblem of Sendai</desc>
  <defs
     id="defs6">
    <clipPath
       id="mask1">
      <polyline
         points="0,0 270,0 270,250 350,250 350,0 500,0 500,500 230,500 230,250 150,250 150,500 0,500 0,0"
         id="polyline9" />
    </clipPath>
    <clipPath
       id="mask2">
      <circle
         cx="250"
         cy="250"
         r="240"
         id="circle12" />
    </clipPath>
  </defs>
  <path
     d="M 0,299.99998 L 0,5.6843419e-14 L 450,5.6843419e-14 L 899.99999,5.6843419e-14 L 899.99999,299.99998 L 899.99999,599.99998 L 450,599.99998 L 0,599.99998 L 0,299.99998 z"
     id="path2415"
     style="fill:#2e0a70;fill-opacity:1" />
  <g
     transform="matrix(0.7291667,0,0,0.7291667,267.70833,122.7083)"
     clip-path="url(#mask1)"
     id="g14">
    <circle
       cx="250"
       cy="250"
       r="220"
       id="circle16"
       style="fill:none;stroke:#ffffff;stroke-width:40;stroke-opacity:1" />
  </g>
  <g
     transform="matrix(0.7291667,0,0,0.7291667,267.70833,122.7083)"
     clip-path="url(#mask2)"
     id="g18">
    <line
       x1="190"
       y1="0"
       x2="190"
       y2="500"
       id="line20"
       style="stroke:#ffffff;stroke-width:40;stroke-opacity:1" />
    <line
       x1="250"
       y1="30"
       x2="250"
       y2="470"
       id="line22"
       style="stroke:#ffffff;stroke-width:40;stroke-opacity:1" />
    <line
       x1="310"
       y1="0"
       x2="310"
       y2="500"
       id="line24"
       style="stroke:#ffffff;stroke-width:40;stroke-opacity:1" />
  </g>
</svg>
