<?xml version="1.0" encoding="UTF-8" standalone="no"?>
<!-- Created with Inkscape (http://www.inkscape.org/) -->
<svg
   xmlns:svg="http://www.w3.org/2000/svg"
   xmlns="http://www.w3.org/2000/svg"
   version="1.0"
   width="900"
   height="600"
   id="svg2">
  <defs
     id="defs5" />
  <rect
     width="900"
     height="600"
     x="0"
     y="0"
     id="rect2422"
     style="fill:#005d4a;stroke:none" />
  <path
     d="M 450,120 C 350.64,120 269.99999,200.64 270,300 C 270,399.36 350.64,480.00001 450,480 C 549.36,480 630.00001,399.36 630,300 C 630,200.64 549.36,120 450,120 z M 360.5,165 L 397.5,165 C 422.70498,165 443,185.29504 443,210.5 L 443,215.90625 C 401.99712,219.2744 369.2744,251.99712 365.90625,293 L 360.5,293 C 335.29502,293 315,272.70496 315,247.5 L 315,210.5 C 315,185.29504 335.29504,165 360.5,165 z M 502.5,165 L 539.5,165 C 564.70498,165 585,185.29504 585,210.5 L 585,247.5 C 585,272.70496 564.70496,293 539.5,293 L 534.09375,293 C 530.7256,251.99712 498.00288,219.2744 457,215.90625 L 457,210.5 C 457,185.29504 477.29504,165 502.5,165 z M 360,195.25 C 351.858,195.25 345.25,201.858 345.25,210 C 345.25,218.142 351.858,224.75 360,224.75 C 368.142,224.75 374.75,218.142 374.75,210 C 374.75,201.858 368.142,195.25 360,195.25 z M 540,195.25 C 531.858,195.25 525.25,201.858 525.25,210 C 525.25,218.142 531.858,224.75 540,224.75 C 548.142,224.75 554.75,218.142 554.75,210 C 554.75,201.858 548.142,195.25 540,195.25 z M 442.8125,230.0625 C 442.87429,230.05622 442.93816,230.06862 443,230.0625 L 443,247.5 L 443,293 L 397.5,293 L 380.0625,293 C 383.34542,259.83452 409.67225,233.43142 442.8125,230.0625 z M 457,230.0625 C 490.22732,233.35155 516.64845,259.77268 519.9375,293 L 502.5,293 L 457,293 L 457,247.5 L 457,230.0625 z M 360.5,307 L 365.90625,307 C 369.2744,348.00288 401.99712,380.7256 443,384.09375 L 443,389.5 C 443,414.70498 422.70496,435 397.5,435 L 360.5,435 C 335.29502,435 315,414.70496 315,389.5 L 315,352.5 C 315,327.29502 335.29504,307 360.5,307 z M 380.0625,307 L 397.5,307 L 443,307 L 443,352.5 L 443,369.9375 C 409.77268,366.64845 383.35155,340.22732 380.0625,307 z M 457,307 L 502.5,307 L 519.9375,307 C 516.64845,340.22732 490.22732,366.64845 457,369.9375 L 457,352.5 L 457,307 z M 534.09375,307 L 539.5,307 C 564.70498,307 585,327.29504 585,352.5 L 585,389.5 C 585,414.70498 564.70496,435 539.5,435 L 502.5,435 C 477.29502,435 457,414.70496 457,389.5 L 457,384.09375 C 498.00288,380.7256 530.7256,348.00288 534.09375,307 z M 360,375.25 C 351.858,375.25 345.25,381.858 345.25,390 C 345.25,398.142 351.858,404.75 360,404.75 C 368.142,404.75 374.75,398.142 374.75,390 C 374.75,381.858 368.142,375.25 360,375.25 z M 540,375.25 C 531.858,375.25 525.25,381.858 525.25,390 C 525.25,398.142 531.858,404.75 540,404.75 C 548.142,404.75 554.75,398.142 554.75,390 C 554.75,381.858 548.142,375.25 540,375.25 z"
     id="path2384"
     style="fill:#ffffff;stroke:none" />
</svg>
