<svg xmlns="http://www.w3.org/2000/svg" height="400" width="600">
 <rect fill="#356cbd" height="400" width="600" y="0" x="0"/>
 <path fill="#ffffff" d="m263.8 83.8-100.2 79.9 70.9 56.5c-24.4-6.7-53-2.5-71.3 15.9l99.4 79.9c25.1 17.4 61.4 14.2 83.5-6.7l90.4-72.9-71-57.5c22.9 6.6 49.8 4.3 68.1-12.1l3.2-2.9-100.2-80.2c-16.4-12.9-21.5-12.1-28.5-9.7-6.2 2.1-9.5 2.1-16 0-7.3-2.5-12.5-2.9-28.3 9.7zm76.8 84 84.2 68.6-82.4 66.5c-19.2 18.9-51.4 22.8-74.1 8.1l-93.7-75.1c13.5-9.8 31-13.3 47.3-10.8 17.6 2.7 29.7 9.2 47.4 22.6 12.9 9.8 30.8 13.2 46.5 8.7 18.7-5.3 31.6-24.8 30-44.1-1.2-13.8-8.2-24.9-27.2-35.9-2 14.4-12.1 27.1-28.6 25.5-15.1-1.5-25.1-15.7-22.6-29.8 2.6-14.7 16.5-23.5 30.8-22.9 18 0.7 30.1 9.5 42.4 18.6z"/>
</svg>
