<?xml version="1.0" encoding="UTF-8" standalone="no"?>
<!-- Created with Inkscape (http://www.inkscape.org/) -->
<svg
   xmlns:svg="http://www.w3.org/2000/svg"
   xmlns="http://www.w3.org/2000/svg"
   version="1.0"
   width="900"
   height="600"
   id="svg2">
  <defs
     id="defs5" />
  <rect
     width="900"
     height="600"
     x="0"
     y="0"
     id="rect2417"
     style="fill:#66097b;stroke:none" />
  <path
     d="M 478.65625,105.625 L 396.09375,146.96875 L 410.84375,149.53125 L 164.8125,319.21875 L 170.75,322.40625 L 415.46875,153.625 L 195.125,336.375 L 200.6875,339.5625 L 418,159.28125 L 415.75,174.875 L 478.65625,105.625 z"
     id="rect2393"
     style="fill:#ffffff;stroke:none" />
  <path
     d="M 449.5,173.5 C 437.41983,173.5 438,173.96952 438,184.90625 L 438,192.5 L 434.75,193.9375 C 432.9625,194.72617 427.45,197.26985 422.5,199.5625 C 417.55,201.85515 406.975,206.05993 399,208.9375 C 391.025,211.81506 383.7125,214.88937 382.75,215.75 C 379.09069,219.02201 381.52607,230.09486 386.3125,231.96875 C 389.22857,233.1104 390.65695,232.72465 410.5,225.46875 C 419.85,222.0498 432.40058,216.9428 438.375,214.125 C 444.34944,211.30719 449.60571,208.6875 450.0625,208.6875 C 450.51929,208.6875 455.51872,211.24089 461.1875,213.96875 C 472.24391,219.28918 484.49876,224.16343 500.5,229.625 C 508.74933,232.44066 510.95575,232.85433 513.09375,231.96875 C 516.04928,230.74453 519,225.28285 519,221.0625 C 519,216.4416 516.16194,214.25973 505.5,210.59375 C 489.89883,205.22946 483.27004,202.59086 471.71875,197.15625 L 461,192.03125 L 461,184.65625 C 461,173.88231 461.40418,173.5 449.5,173.5 z M 450.1875,223 C 423.19512,223 420.5013,222.2512 417.84375,224.65625 C 416.14002,226.1981 416,228.64725 416,260.5 C 416,291.8145 416.14718,294.82247 417.75,296.21875 C 418.7125,297.05724 420.175,297.99696 421,298.3125 C 421.825,298.62803 435.40059,299.01252 451.15625,298.90625 C 477.77004,298.72675 479.95217,298.36355 481.90625,296.59375 C 483.9655,294.72872 484,293.99044 484,260.6875 C 484,230.43834 483.89464,226.39464 482.34375,224.84375 C 479.6812,222.1812 479.98177,223 450.1875,223 z M 433,239 L 450,239 L 467,239 L 467,245.5 L 467,252 L 450,252 L 433,252 L 433,245.5 L 433,239 z M 433,269 L 450,269 L 467,269 L 467,275.5 L 467,282 L 450,282 L 433,282 L 433,275.5 L 433,269 z M 476.5,310.125 C 469.06849,310.12191 459.76409,310.16048 448.0625,310.21875 C 397.11014,310.47247 393.26734,309.88648 391.5625,312.21875 C 389.3752,315.21105 389.6875,315.9649 389.6875,330.21875 C 389.6875,354.29621 384.8104,367.43886 375.34375,377.75 C 369.66584,383.93443 369.3087,386.00586 374.1875,391.5625 C 379.95216,398.12808 383.32279,398.14533 389.28125,391.625 C 400.5005,379.34779 407.66869,359.85049 408.71875,338.75 L 409.28125,327 L 449.15625,327 L 489,327 L 489,335.09375 C 489,349.75579 493.76057,367.80156 501.09375,380.875 C 504.58197,387.09371 511.43228,395.09802 514.21875,396.21875 C 518.75424,398.04292 526.8955,391.06077 526.96875,385.28125 C 526.999,382.89559 525.99373,380.97556 523.03125,377.78125 C 513.24735,367.23169 508.28125,353.77878 508.28125,329.21875 C 508.28125,313.95717 508.9322,313.40587 505.46875,311.40625 C 504.0165,310.56779 498.79454,310.13428 476.5,310.125 z M 449.71875,336 C 418.27407,336 421.01794,335.60187 418.21875,337.5625 C 415.31873,339.59375 416,339.57165 416,359.65625 C 416,379.7269 415.19438,379.71143 418.125,382.15625 C 421.2482,384.76172 422.62772,383.93793 449.4375,383.96875 C 477.79271,384.00134 477.6891,385.0609 480.78125,381.96875 C 483.79464,378.95536 483,379.24308 483,359.8125 C 483,341.32015 483.80316,340.80316 481,338 C 478.21608,335.21608 477.66291,336 449.71875,336 z M 433,353 L 449.5,353 L 466,353 L 466,360 L 466,367 L 449.5,367 L 433,367 L 433,360 L 433,353 z"
     id="rect2390"
     style="fill:#ffffff;stroke:none" />
  <path
     d="M 478.35507,495.02941 L 395.79257,453.68567 L 410.54257,451.12316 L 164.51132,281.43566 L 170.44882,278.24816 L 415.16757,447.02941 L 194.82382,264.27942 L 200.38632,261.09191 L 417.69882,441.37316 L 415.44882,425.77941 L 478.35507,495.02941 z"
     id="path2411"
     style="fill:#ffffff;stroke:none" />
  <path
     d="M 421.51132,495.02941 L 504.07382,453.68567 L 489.32382,451.12316 L 735.35507,281.43566 L 729.41757,278.24816 L 484.69882,447.02941 L 705.04257,264.27942 L 699.48007,261.09191 L 482.16757,441.37316 L 484.41757,425.77941 L 421.51132,495.02941 z"
     id="path2413"
     style="fill:#ffffff;stroke:none" />
  <path
     d="M 421.51132,105.84191 L 504.07382,147.18565 L 489.32382,149.74816 L 735.35507,319.43566 L 729.41757,322.62316 L 484.69882,153.84191 L 705.04257,336.5919 L 699.48007,339.77941 L 482.16757,159.49816 L 484.41757,175.09191 L 421.51132,105.84191 z"
     id="path2415"
     style="fill:#ffffff;stroke:none" />
</svg>
