<?xml version="1.0" encoding="UTF-8" standalone="no"?>
<!-- Created with Inkscape (http://www.inkscape.org/) -->
<svg
   xmlns:svg="http://www.w3.org/2000/svg"
   xmlns="http://www.w3.org/2000/svg"
   version="1.0"
   width="900"
   height="600"
   id="svg2">
  <defs
     id="defs5" />
  <rect
     width="900"
     height="600"
     x="0"
     y="0"
     id="rect2440"
     style="fill:#1e2a63;stroke:none" />
  <path
     d="M 450,120 C 365.46124,120 294.4843,178.38524 275.1875,257 L 322,257 C 339.97016,203.54341 390.51292,165 450,165 C 509.48708,164.99999 560.02984,203.54341 578,257 L 624.8125,257 C 605.5157,178.38524 534.53876,120 450,120 z M 450,177.5 C 397.5125,177.5 352.70916,210.57666 335.28125,257 L 348.75,257 C 365.50216,217.62704 404.53469,190 450,190 C 495.46531,190 534.49784,217.62704 551.25,257 L 564.71875,257 C 547.29084,210.57666 502.4875,177.5 450,177.5 z M 426,256 L 426,268 L 272.84375,268 C 270.977,278.38793 270,289.07736 270,300 C 270,302.67788 270.07155,305.3505 270.1875,308 L 426,308 L 426,330 L 318.375,330 C 317.55299,326.38368 316.86868,322.71996 316.34375,319 L 271,319 C 279.24153,397.44341 337.93078,460.94104 414,476.40625 L 414,430.125 C 380.50876,420.86767 352.24011,399.01607 334.59375,370 L 426,370 L 426,432.53125 L 426,446.5625 L 426,478 C 441.93529,480.02083 457.08795,479.92338 473,477.6875 L 473,446.5625 L 473,432.09375 L 473,370 L 565.4375,370 C 547.61695,399.3139 518.93522,421.30882 485,430.40625 L 485,476.59375 C 561.55172,461.48325 620.72025,397.78218 629,319 L 583.65625,319 C 583.13132,322.72142 582.44721,326.3823 581.625,330 L 473,330 L 473,308 L 629.8125,308 C 629.92849,305.35019 630,302.67822 630,300 C 630,289.07736 629.023,278.38793 627.15625,268 L 473,268 L 473,256 L 426,256 z"
     id="path2386"
     style="fill:#ffffff;stroke:none" />
</svg>
