<?xml version="1.0" encoding="UTF-8" standalone="no"?>
<!-- Created with Inkscape (http://www.inkscape.org/) -->
<svg
   xmlns:svg="http://www.w3.org/2000/svg"
   xmlns="http://www.w3.org/2000/svg"
   version="1.0"
   width="900"
   height="600"
   id="svg2">
  <defs
     id="defs5" />
  <rect
     width="900"
     height="600"
     x="0"
     y="0"
     id="rect2476"
     style="fill:#005765;stroke:none" />
  <path
     d="M 450.5,100 L 429.3125,121.1875 C 346.4753,130.68142 280.68142,196.4753 271.1875,279.3125 L 250.5,300 L 271.1875,320.6875 C 280.68142,403.5247 346.4753,469.31858 429.3125,478.8125 L 450.5,500 L 471.8125,478.6875 C 553.74213,468.77336 618.77336,403.74213 628.6875,321.8125 L 650.5,300 L 628.6875,278.1875 C 618.77336,196.25787 553.74213,131.22664 471.8125,121.3125 L 450.5,100 z M 450,138.5 C 455.69396,138.5 461.33307,138.79741 466.875,139.375 L 603.28125,276.78125 C 601.62703,265.7487 598.8166,255.11717 594.96875,244.96875 L 496.28125,145.78125 C 547.96274,161.28111 589.21889,202.03726 604.71875,253.71875 L 604.6875,253.6875 C 605.04259,254.87044 605.3899,256.05562 605.71875,257.25 C 608.02067,265.61067 609.6688,274.25041 610.59375,283.09375 L 610.625,283.125 C 611.20259,288.66693 611.5,294.30604 611.5,300 C 611.5,305.69396 611.20259,311.33307 610.625,316.875 L 474.15625,452.96875 C 485.16977,451.31422 495.80545,448.52587 505.9375,444.6875 L 604.21875,346.28125 C 588.71889,397.96274 547.96274,439.21889 496.28125,454.71875 C 495.54458,454.93969 494.80356,455.16438 494.0625,455.375 C 493.61517,455.50209 493.16762,455.62671 492.71875,455.75 C 492.64587,455.77003 492.57292,455.79257 492.5,455.8125 C 491.3791,456.11864 490.25534,456.40524 489.125,456.6875 C 485.62474,457.56155 482.08633,458.32859 478.5,458.96875 C 478.38528,458.98923 478.27106,459.01102 478.15625,459.03125 C 478.06424,459.04749 477.96706,459.04641 477.875,459.0625 C 474.26175,459.69278 470.59932,460.20811 466.90625,460.59375 L 466.875,460.625 C 461.33307,461.20259 455.69396,461.5 450,461.5 C 444.67869,461.5 439.40811,461.22404 434.21875,460.71875 L 297.5625,323.3125 C 299.11247,334.19474 301.81536,344.7143 305.5,354.75 L 405.125,454.625 C 352.30015,439.30741 310.64896,397.67384 295.34375,344.84375 C 295.28968,344.65717 295.24091,344.46811 295.1875,344.28125 C 290.98116,329.84895 289.15393,314.98083 289,300 C 289,294.67869 289.27596,289.40811 289.78125,284.21875 L 427.6875,146.9375 C 416.80128,148.48608 406.28974,151.19052 396.25,154.875 L 295.375,255.125 C 310.68899,202.31256 352.31256,160.68899 405.125,145.375 L 405.09375,145.40625 C 409.7872,144.04345 414.58069,142.38114 419.4375,141.4375 C 423.08011,140.72977 426.74206,140.14133 430.46875,139.6875 C 431.48366,139.56391 432.51042,139.44778 433.53125,139.34375 C 433.75838,139.32066 433.99134,139.30339 434.21875,139.28125 C 439.40811,138.77596 444.67869,138.5 450,138.5 z M 450,183 C 426.62053,183 405.3577,192.1695 389.65625,207.125 L 409.0625,230.1875 C 402.75296,236.09694 397.47074,242.8444 393.25,250.125 C 392.27577,250.05016 391.3166,250 390.375,250 C 371.75322,250 339.375,267.56004 339.375,301.3125 C 339.375,328.20925 356.98239,348.52596 382.125,353.78125 C 381.15202,356.36024 380.125,360.36015 380.125,365.875 C 380.125,399.16562 408.125,400.375 408.125,400.375 C 427.30692,400.375 435,382 435,382 C 435,382 427.24295,391.5 417.5625,391.5 C 417.5625,391.5 395.625,391.2704 395.625,367.6875 C 395.625,361.99201 397.3928,357.66083 398.90625,354.96875 C 420.63503,353.36417 433,338 433,338 C 433,338 420.62917,348 403.75,348 C 374.62473,348 354.875,324.13075 354.875,302.375 C 354.875,286.57147 367.74823,265.875 392.125,265.875 C 404.8848,265.875 419,275.11673 419,292.125 C 419,313.5 401.5,312.875 401.5,312.875 C 387.86067,312.875 387.75,302.5 387.75,302.5 C 387.75,295.49554 395.875,295.50328 395.875,289.625 C 395.875,289.625 394.8761,283 387.75,283 C 387.75,283 373,285.21902 373,301.375 C 373,314.62175 384.73915,327.875 402.75,327.875 C 417.00055,327.875 433.875,317.38275 433.875,291.25 C 433.875,272.82639 422.24528,260.4206 409.0625,254.34375 C 412.03085,250.04988 415.45429,246.02737 419.34375,242.375 L 451,280 L 482.25,242.5625 C 486.30061,246.39338 489.86236,250.60142 492.90625,255.125 C 476.41031,262.24736 465,277.67353 465,294.125 C 465,305.44795 470.67376,316.78233 479.9375,325.03125 C 474.96563,328.72552 470.5,334.42351 470.5,343 C 470.5,353.543 477.98317,359.12242 485.53125,362.0625 C 480.22285,365.27052 474,370.91271 474,379.8125 C 474,398.69431 493.5,398.4375 493.5,398.4375 C 521.17539,398.4375 529.875,378.8125 529.875,378.8125 C 529.875,378.8125 517.86472,392.0625 502.3125,392.0625 C 502.3125,392.0625 487,391.95149 487,380.25 C 487,373.11512 494.81045,367.6431 499.15625,365.15625 C 500.2449,365.25829 500.9375,365.3125 500.9375,365.3125 C 537.11113,365.3125 541.9375,345.9375 541.9375,345.9375 C 541.9375,345.9375 531.92672,359.6875 506.375,359.6875 C 506.375,359.6875 487,359.13354 487,344.5 C 487,339.65184 489.58227,335.97238 492.75,333.28125 C 498.75258,335.93964 505.47072,337.5 512.625,337.5 C 548.79863,337.5 558,307 558,307 C 558,307 547.48922,326 521.9375,326 C 497.6687,326 481.875,309.87766 481.875,294 C 481.875,281.37438 493.70864,261.75 522,261.75 C 546.2529,261.75 557,279 557,279 C 557.00001,279 546.45848,251 512.9375,251 C 511.53241,251 510.15484,251.07507 508.78125,251.1875 C 504.491,243.53875 499.03445,236.48669 492.46875,230.3125 L 511.15625,207.9375 C 495.37791,192.5114 473.79248,183 450,183 z M 450,199 C 464.23935,199 477.53677,203.00108 488.875,209.90625 L 451,255 L 411.84375,209.46875 C 423.02411,202.84045 436.06732,199 450,199 z M 450.25,216 C 444.73,216 440.25001,220.48 440.25,226 C 440.25,231.52 444.73001,236 450.25,236 C 455.77,236 460.25001,231.52 460.25,226 C 460.25,220.48 455.77001,216 450.25,216 z M 522.25,283.75 C 516.73,283.75 512.25001,288.23 512.25,293.75 C 512.25,299.27 516.73001,303.75 522.25,303.75 C 527.77,303.75 532.25001,299.27 532.25,293.75 C 532.25,288.23 527.77001,283.75 522.25,283.75 z"
     id="rect2384"
     style="fill:#ffffff;stroke:none" />
</svg>
