<?xml version="1.0" encoding="UTF-8" standalone="no"?>
<!-- Created with Inkscape (http://www.inkscape.org/) -->
<svg
   xmlns:svg="http://www.w3.org/2000/svg"
   xmlns="http://www.w3.org/2000/svg"
   version="1.0"
   width="900"
   height="600"
   id="svg2">
  <defs
     id="defs5" />
  <rect
     width="900"
     height="600"
     x="0"
     y="0"
     id="rect2392"
     style="opacity:1;fill:#009fc9;fill-opacity:1;stroke:#000000;stroke-width:0;stroke-miterlimit:0;stroke-dasharray:none;stroke-opacity:1" />
  <path
     d="M 450.5,81 L 415,116.5 L 418.5,135 L 393,137 L 383,171 L 356,175 L 352,202 L 316,214 L 315,238 L 296,235 L 262,269 L 296,303 L 315,300 L 316,324 L 352,336 L 356,363 L 383,367 L 393,401 L 418.5,403 L 415,421.5 L 450.5,457 L 485.5,421.5 L 481.5,403 L 507,401 L 517,367 L 544,363 L 548,336 L 584,324 L 585,300 L 604,303 L 638,269 L 604,235 L 585,238 L 584,214 L 548,202 L 544,175 L 517,171 L 507,137 L 481.5,135 L 485.5,116.5 L 450.5,81 z M 450.5,83.75 L 483.375,117.125 L 479.59375,134.59375 C 479.59375,134.59375 479.09374,136.74999 479.09375,136.75 C 479.09375,136.75 481.34375,136.9375 481.34375,136.9375 L 505.5,138.84375 L 515.125,171.5625 C 515.125,171.5625 515.53123,172.68751 515.53125,172.6875 C 515.53125,172.6875 516.71875,172.9375 516.71875,172.9375 L 542.28125,176.71875 L 546.0625,202.28125 C 546.0625,202.28125 546.28122,203.40625 546.28125,203.40625 C 546.28125,203.40625 547.375,203.84375 547.375,203.84375 L 582.125,215.4375 L 583.0625,238.09375 C 583.0625,238.09375 583.21877,240.25001 583.21875,240.25 C 583.21875,240.25 585.3125,239.90625 585.3125,239.90625 L 603.3125,237.0625 L 635,268.75 L 635.25,268.75 L 635.125,268.875 L 635.25,269 L 635,269 L 603.3125,300.6875 L 585.3125,297.84375 C 585.3125,297.84375 583.21875,297.5 583.21875,297.5 C 583.21877,297.50001 583.0625,299.65625 583.0625,299.65625 L 582.125,322.3125 L 547.375,333.90625 C 547.375,333.90625 546.28125,334.34375 546.28125,334.34375 C 546.28122,334.34375 546.0625,335.46875 546.0625,335.46875 L 542.28125,361.03125 L 516.71875,364.8125 C 516.71875,364.8125 515.53125,365.0625 515.53125,365.0625 C 515.53123,365.06249 515.125,366.1875 515.125,366.1875 L 505.5,398.90625 L 481.34375,400.8125 C 481.34375,400.8125 479.09375,401 479.09375,401 C 479.09374,400.99999 479.59375,403.15625 479.59375,403.15625 L 483.375,420.625 L 450.5,454 L 417.09375,420.59375 L 420.40625,403.125 C 420.40625,403.125 420.84375,401 420.84375,401 C 420.84374,401 418.65625,400.8125 418.65625,400.8125 L 394.5,398.90625 L 384.875,366.1875 C 384.875,366.1875 384.5,365.0625 384.5,365.0625 C 384.5,365.06249 383.28125,364.8125 383.28125,364.8125 L 357.71875,361.03125 L 353.9375,335.46875 C 353.9375,335.46875 353.6875,334.28125 353.6875,334.28125 C 353.68749,334.28125 352.625,333.90625 352.625,333.90625 L 317.875,322.3125 L 316.9375,299.65625 C 316.9375,299.65625 316.8125,297.5 316.8125,297.5 C 316.81251,297.50001 314.6875,297.84375 314.6875,297.84375 L 296.6875,300.6875 L 265,269 L 264.75,269 L 264.875,268.875 L 264.75,268.75 L 265,268.75 L 296.6875,237.0625 L 314.6875,239.90625 C 314.6875,239.90625 316.81251,240.25001 316.8125,240.25 C 316.8125,240.25 316.9375,238.09375 316.9375,238.09375 L 317.875,215.4375 L 352.625,203.84375 C 352.625,203.84375 353.68749,203.46875 353.6875,203.46875 C 353.6875,203.46875 353.9375,202.28125 353.9375,202.28125 L 357.71875,176.71875 L 383.28125,172.9375 C 383.28125,172.9375 384.5,172.68751 384.5,172.6875 C 384.5,172.6875 384.875,171.5625 384.875,171.5625 L 394.5,138.84375 L 418.65625,136.9375 C 418.65625,136.9375 420.84374,136.75 420.84375,136.75 C 420.84375,136.75 420.40625,134.625 420.40625,134.625 L 417.09375,117.15625 L 450.5,83.75 z"
     id="path2458"
     style="fill:#ffffff;stroke:none" />
  <path
     d="M 450,222 C 424.47,222 403.75001,242.71999 403.75,268.25 C 403.75,292.25921 422.0828,312.01287 445.5,314.28125 L 445.5,307.46875 C 425.53496,305.23121 410,288.80935 410,268.25 C 410.00001,246.16999 427.92,228.25 450,228.25 C 472.08,228.25 489.5,246.17 489.5,268.25 C 489.49999,289.15131 473.94377,305.78853 453.5,307.5625 L 453.5,314.34375 C 477.39229,312.54811 496.25,292.59913 496.25,268.25 C 496.25,242.72 475.53,221.99999 450,222 z M 450,233.5 C 442.45839,233.5 434.97911,236.41363 429.28125,240.5 L 470.71875,240.5 C 465.02089,236.41362 457.54161,233.5 450,233.5 z M 423.5,246 C 419.73685,250.85447 416.26148,258.59352 415.5,265 L 484.5,265 C 483.73852,258.59352 480.26315,250.85447 476.5,246 L 423.5,246 z M 427.0625,252.375 L 472.5625,252.375 C 474.07821,254.5094 475.30991,256.0452 476.1875,258.5625 L 423.4375,258.5625 C 424.31509,256.0452 425.54679,254.5094 427.0625,252.375 z M 415.375,271.125 C 416.83728,288.96452 431.78546,303.00001 450,303 C 468.21455,303 483.16272,288.96451 484.625,271.125 L 415.375,271.125 z M 423.25,277 L 445.5,277 L 445.5,283.75 L 426.71875,283.75 C 425.26373,281.60409 424.07182,279.51274 423.25,277 z M 453.5,277 L 476.25,277 C 475.42818,279.51274 474.73627,281.60409 473.28125,283.75 L 453.5,283.75 L 453.5,277 z M 431.59375,289.4375 L 445.5,289.4375 L 445.5,296 L 445.375,296 C 439.89884,295.09184 435.51738,293.02635 431.59375,289.4375 z M 453.5,289.4375 L 468.28125,289.4375 C 464.35762,293.02634 460.10116,295.09184 454.625,296 L 453.5,296 L 453.5,289.4375 z"
     id="path2425"
     style="opacity:1;fill:#ffffff;fill-opacity:1;stroke:#000000;stroke-width:0;stroke-miterlimit:0;stroke-dasharray:none;stroke-opacity:1" />
  <path
     d="M 450.5,93.46875 L 425,119 L 442.40625,216.28125 C 444.88342,215.92222 447.42385,215.75 450,215.75 C 452.69561,215.75 455.3509,215.95129 457.9375,216.34375 L 476,119 L 450.5,93.46875 z M 479,143.5 L 464.96875,217.9375 C 469.49301,219.28341 473.76354,221.21314 477.6875,223.65625 L 509.5,176 L 500.9375,145 L 479,143.5 z M 421,144 L 400,145 L 391,176 L 423,223 L 424.40625,222.40625 C 427.72421,220.54956 431.28837,219.07594 435,217.96875 L 421,144 z M 385,180 L 363,183 L 360,204 L 407.875,236.90625 C 410.29702,233.65713 413.12442,230.73384 416.21875,228.125 L 417.0625,227.1875 L 385,180 z M 516,180 L 483.46875,227.8125 C 486.78447,230.56105 489.75724,233.71355 492.3125,237.1875 L 540,204.5 L 537.5,182.5625 L 516,180 z M 544.5,210.96875 L 496.03125,243 C 498.09985,246.76282 499.71166,250.81063 500.8125,255.0625 C 500.8183,255.08491 500.83798,255.10258 500.84375,255.125 L 501,255.5 L 577,241 L 576,221 L 544.5,210.96875 z M 356,211 L 325,221 L 324,241 L 399,255 L 399.625,253.46875 C 400.70041,249.80267 402.1622,246.28614 403.96875,243 L 356,211 z M 300,244 L 274.46875,269 L 300,294 L 398,275.5 L 398,275.46875 C 397.67541,273.11019 397.5,270.69731 397.5,268.25 C 397.5,266.29802 397.63586,264.36567 397.84375,262.46875 L 300,244 z M 601,244 L 502.21875,262.96875 C 502.392,264.70324 502.5,266.47013 502.5,268.25 C 502.5,270.53532 502.34617,272.79144 502.0625,275 L 601,294 L 626.03125,269 L 601,244 z M 399.40625,282.1875 L 324,296.96875 L 325,316.96875 L 356.5,327 L 404.59375,294.59375 C 402.35419,290.7436 400.61407,286.57755 399.40625,282.1875 z M 500.5,282.59375 C 499.29225,286.84923 497.55592,290.88271 495.375,294.625 L 544,327 L 576,318 L 577,297 L 500.5,282.59375 z M 491.5,300.5 L 491.09375,300.875 C 488.61085,303.99709 485.77621,306.82704 482.65625,309.3125 L 516,358 L 537,356 L 540,333 L 491.5,300.5 z M 408.78125,300.71875 L 361,333.46875 L 363.5,355.40625 L 385,357.96875 L 417.5625,309.5 C 414.30034,306.93032 411.3536,303.9787 408.78125,300.71875 z M 423.375,313.5 L 391.5,361.96875 L 400.0625,392.96875 L 422,394.46875 L 435.84375,318.78125 C 431.42882,317.54565 427.23861,315.7794 423.375,313.5 z M 477,313.5 L 475.59375,314.09375 C 472.27579,315.95044 468.71163,317.42406 465,318.53125 L 480,394 L 500,393 L 509.5,362 L 477,313.5 z M 443,320.375 L 425,419 L 450.5,444.5 L 476,419 L 458,320.375 L 456.15625,320.375 C 454.13842,320.61083 452.08081,320.75 450,320.75 C 447.91919,320.75 445.86158,320.61083 443.84375,320.375 L 443,320.375 z"
     id="path2384"
     style="fill:#ffffff;stroke:none" />
  <path
     d="M 0,526.875 C 0,526.875 3.0231726,522.46481 11.125,521.625 C 31.25,524.25 26.748641,530.75 32.5,530.75 C 35.377716,530.75 31.891901,525.16908 52.75,517.5 C 55.25,516.625 66.893279,521.52866 71.75,522.5 C 74.625,523 78.9888,513.62407 88,514.375 C 89.5,514.5 100.5,508.875 105,514.625 C 106.875,514.375 117.08589,500.47185 126.625,499.75 C 137,499 142.34375,508.21875 148.96875,509.71875 C 175.09375,507.84375 162.6875,517.6875 187.0625,520.1875 C 202.5625,520.6875 214.15478,510.65625 235.40625,510.65625 C 249.15625,510.78125 248.2365,515.75 257.5,515.75 C 261.375,516 269.87295,511.20168 272.25,511.125 C 276.125,511 284.24832,514.508 288.875,514.5 C 293.25,514.5 304.62929,508.20417 325.25,508.625 C 333,508.75 341.6237,517.875 347.625,517.875 C 353.6263,517.875 365.875,512.875 371,512.875 C 377,512.875 377.26218,518.98888 380.125,518.625 C 399.25,516.625 391,520.75 401.125,523.875 C 404.625,524 402.57812,521.1875 413.07812,520.3125 C 433.07813,521.9375 435.88621,530.625 443.125,531.25 C 453.375,532.75 473.25,512.875 493.875,524.875 C 497.3125,526.0625 497.1853,521.79894 507.9375,521.92187 C 526.6875,522.04687 531.56584,530.56908 543.25,530.875 C 552.625,531.1875 559.98326,526.3422 579.125,524.23437 C 590.5,524.48437 604,533 611.625,533.75 C 613.625,534 615,529.75 617,529.75 C 622.5,530.125 628.625,537 632.625,537 C 687,531.875 699.625,517.8125 702.8125,517.8125 C 706.625,517.6875 704.82859,522 715.625,522 C 732.625,521.25 735.125,513.3125 765.3125,510.25 C 779,511.125 782.74139,508.75 786.375,508.75 C 790.25,508.75 799.375,511.25 803.5,511.25 C 810.78869,511.25 814.75054,508.99217 818.5,508.875 C 842.5,510.75 855.87024,515.90231 860.875,516.75 C 866.625,517.125 873.10937,517.45312 876.98437,518.20312 C 890.7079,520.85929 892.8125,524.4375 900,525 L 900,600 L 0,600 L 0,526.875 z"
     id="rect2477"
     style="fill:#ffffff;fill-opacity:1;stroke:#000000;stroke-width:0;stroke-miterlimit:0;stroke-opacity:1" />
  <path
     d="M 127.59375,499.71875 C 127.27917,499.72326 126.94922,499.72656 126.625,499.75 C 117.08589,500.47185 106.875,514.375 105,514.625 C 100.5,508.875 89.5,514.5 88,514.375 C 78.9888,513.62407 74.625,523 71.75,522.5 C 66.893279,521.52866 55.25,516.625 52.75,517.5 C 45.749177,520.07405 41.52076,522.40349 38.84375,524.375 C 39.240534,524.13788 39.484379,524.05217 39.71875,524.0625 C 40.73436,524.10728 40.997046,526.92904 42.96875,530.28125 C 44.358202,532.64356 47.416411,536.22913 48.84375,537.5625 C 53.074822,540.99289 52.0948,542.4375 50.4375,542.4375 C 47.794508,542.25 44.632006,538.47612 41.4375,535.6875 C 38.242997,532.89885 33.807132,530.69528 33.65625,530.28125 C 33.64483,530.24991 33.696567,530.16399 33.71875,530.09375 C 33.405096,530.51649 33.07853,530.75 32.5,530.75 C 26.748641,530.75 31.25,524.25 11.125,521.625 C 10.736599,521.66526 10.365283,521.72546 10,521.78125 C 10.166914,521.76748 10.341019,521.74621 10.5,521.75 C 12.026214,521.78638 13.222434,522.88092 13.75,525.28125 C 15.271147,530.42209 20.187332,530.98005 10.25,531 C 8.344317,531.3575 5.7914023,533.10936 3.8125,535.03125 L 0,538.90625 L 0,568 C 4.3376191,570.28464 9.0714627,572.65746 13.25,575.21875 C 17.65,577.84356 23.125,582.2625 23.125,582.8125 C 23.125,583.3625 15.775,583.51406 11.375,583.84375 C 6.9416898,584.19202 1.1522575e-11,584.90625 0,584.90625 L 0,600 L 900,600 L 900,579.78125 C 888.39427,579.83654 876.79276,579.90397 865.1875,579.71875 L 864.71875,575.0625 C 863.93729,570.43725 865.63712,567.46115 870.0625,564.09375 C 872.81956,561.99582 875.84866,560.83961 877.71875,560.8125 C 879.58886,560.78538 881.4597,561.83553 883.5625,564.1875 C 888.19936,569.37391 892.45328,569.16348 896.40625,565.5 C 897.88988,564.125 899.75333,563 900,563 L 900,540.71875 L 891.375,541.375 C 886.62756,541.73994 878.52559,542.90025 873.25,544.65625 C 859.72832,549.15697 861.92143,548.74045 853.1875,544.625 C 849.97318,543.11041 832.36933,538.33801 827.40625,537.59375 C 822.52679,536.86204 813.31762,532.76371 811.78125,532.8125 C 809.45225,532.88646 802.28234,538.33556 799.09375,542.125 C 797.55262,543.95653 794.93274,547.7781 795.03125,551.40625 C 795.30978,561.72788 791.47378,558.90335 785.71875,555.21875 C 782.01657,552.84845 780.43749,551.67605 780.625,544.53125 C 780.74945,539.78886 779.09938,538.32472 775.8125,536.625 C 772.49883,534.91147 771.92544,533.14899 775.71875,530.5 C 777.11781,529.52299 777.98885,528.85063 781.90625,532.40625 C 783.85499,534.17503 785.86201,536 786.5625,536 C 787.73538,536 791.13023,532.11957 792.8125,529.65625 C 792.875,528.21875 788.06249,526.4375 787.9375,525.6875 C 787.84446,525.12924 788.24999,524.875 788.8125,524.9375 C 792.62451,525.28467 794.49999,527.84375 794.5,527.84375 C 794.63296,527.79633 794.76424,527.75588 794.90625,527.71875 C 795.96302,527.44242 796.95839,525.22548 798.09375,523 C 799.76126,519.73139 800.8025,517.65625 803,517.65625 C 805.82309,517.65625 806.22784,516.83478 806.4375,523.15625 C 806.49816,524.98529 808.28197,526.79473 809.78125,527.90625 C 812.27033,529.75161 813.84051,529.54677 818.65625,528.4375 C 821.55698,527.76933 824.98398,526.7497 826.6875,524.78125 C 830.72711,520.11337 833.49244,518.65047 836.90625,524.0625 C 839.07343,527.49822 841.95932,531 843.09375,531 C 843.64616,531 843.63439,528.94081 843.34375,526.90625 C 842.46875,525.46875 842.18749,522.0625 842.1875,522.0625 C 842.1875,522.0625 845.49999,523.1875 847.75,523.1875 C 849.92263,523.1875 854.77554,524.47126 858.75,525.21875 C 863.0719,526.03159 867.32499,529.00135 871.5,528.375 C 875.45983,527.78093 876.84816,524.52861 880.1875,530.3125 C 880.99505,531.71122 892.44253,535.3125 895.3125,535.3125 C 896.5716,535.3125 900,534.81249 900,534.8125 L 900,525 C 892.8125,524.4375 890.69227,520.84366 876.96875,518.1875 C 873.09375,517.4375 866.625,517.125 860.875,516.75 C 855.87024,515.90231 842.5,510.75 818.5,508.875 C 814.75054,508.99217 810.78869,511.25 803.5,511.25 C 799.375,511.25 790.25,508.75 786.375,508.75 C 782.74139,508.75 779,511.125 765.3125,510.25 C 759.35512,510.85437 754.50002,511.63987 750.375,512.53125 C 750.4789,516.60569 749.87499,518.5625 749.875,518.5625 C 749.0625,522 747.24999,523.4375 747.25,523.4375 C 743.5239,525.9084 740.76561,532.16655 738.34375,531.96875 C 734.64994,531.6709 733.73561,529.91492 731,527.96875 C 728.8785,526.45947 726.31404,525.85114 724.28125,525.5 C 724.28125,525.5 720.99999,525.375 716.5,525.5 L 716.9375,522 C 717.63017,521.92304 718.06419,521.85504 718.65625,521.78125 C 717.69673,521.88133 716.6875,521.95312 715.625,522 C 704.82859,522 706.625,517.6875 702.8125,517.8125 C 701.77441,517.8125 699.68747,519.31141 695.53125,521.5 C 697.49641,529.10181 697.286,538.35397 698.15625,540.21875 C 698.72127,541.4295 702.76692,543.41721 701.125,544.375 C 700.375,544.8125 695.37499,540.90625 693.875,540.65625 L 693.625,540.65625 C 689.73088,540.49084 689.87367,541.09241 688.59375,545.5 C 687.87504,547.975 687.52783,551.2125 687,552.3125 C 686.6569,553.0275 685.49372,552.70839 685.125,553.9375 C 684.9375,554.5625 687.19801,556.82882 686.5,559.0625 C 686.1875,560.0625 680.49999,555.0625 678.6875,553.9375 C 676.68509,552.69463 672.51977,552.875 671.65625,552.875 C 670.28032,552.875 671.74999,550.74505 671.75,548.53125 C 671.75,546.57626 671.06557,545.5539 669.71875,545.0625 C 664.91371,543.30935 662.16969,544.01091 675.09375,537.65625 C 680.49654,534.99974 683.38501,533.91198 682.75,532.46875 C 682.0625,530.90625 678.12499,532.4375 677.125,531.75 C 676.67238,531.43882 676.52111,530.23013 678.53125,528.46875 C 671.89249,530.57321 663.50688,532.68516 652.875,534.4375 C 654.5404,534.18783 655.65624,534.00001 655.65625,534 C 653.75,538.90625 651.56249,539.65625 651.5625,539.65625 C 649.42187,541.48437 647.49999,542.625 647.5,542.625 C 646.75,543.125 645.7168,543.16938 644.78125,543.6875 C 634.2597,550.43682 634.56342,549.93455 636.625,555.9375 C 640.5474,567.35889 632.90292,574.28568 619.46875,568.8125 C 617.78125,568.125 612.58716,566.56579 612.625,565.5 C 612.875,563.1875 615.93749,565.9375 617,561.75 C 617.58545,558.60317 615.46031,558.65091 622.65625,552.25 C 624.675,550.45428 626.99999,549.0821 627,548.375 C 627,546.76573 620.67304,545.50736 615.03125,545.5 C 612.67999,545.49696 608.32863,546.28196 605.21875,547.375 C 602.10883,548.46801 596.90441,552.06068 596.6875,551.84375 C 595.91157,551.06784 600.73779,541.59987 603.4375,539.96875 C 604.7921,539.15032 606.39115,539.125 608.9375,539.125 C 611.98911,539.125 613.83222,542.3632 614.84375,539.0625 C 614.84375,539.0625 615.16236,536.42075 612.25,533.875 C 612.54297,533.66992 612.78377,533.44201 613.03125,533.21875 C 612.58984,533.58203 612.125,533.8125 611.625,533.75 C 604,533 590.5,524.46875 579.125,524.21875 C 570.78719,525.13688 564.7569,526.57059 559.75,527.875 C 562.27566,528.81981 560.94993,531.27107 563.1875,532.25 C 564.1875,532.6875 573.37499,532.25 573.375,532.25 C 575.125,532.25 577.3009,532.76894 580.03125,533.34375 C 582.40625,533.84375 586.28238,534.7506 586.25,535.625 C 586.1875,537.3125 580.88,536.601 579.4375,536.3125 C 577.5625,535.9375 574.78124,535.03125 574.78125,535.03125 C 571.28158,534.2582 569.49999,534.68689 569.5,535.90625 C 569.5,537.27828 570.64461,537.74416 576.6875,538.90625 C 578.3125,539.21875 582.31249,539.15625 582.3125,539.53125 C 582.3125,540.10747 578.37499,543.15625 578.375,543.15625 C 575.75537,545.74308 574.17082,546.69672 572.25,547.6875 C 570.62355,548.52644 566.98182,551.27601 565.375,552.46875 C 561.48107,555.35919 560.22203,554.3891 558.25,552 C 557.45552,551.0375 556.10751,547.8189 555.1875,545.78125 C 554.16285,543.72452 552.65098,541.79871 549.875,540.75 C 547.0625,539.6875 545.93749,537.9375 545.9375,537.9375 C 545.9375,537.9375 544.99999,535.5625 545,531 C 545.41819,530.93784 545.78492,530.87594 546.1875,530.8125 C 545.21837,530.88664 544.2482,530.90827 543.25,530.875 C 531.56584,530.56908 526.6875,522.03125 507.9375,521.90625 C 507.33157,521.89932 506.75816,521.91833 506.21875,521.9375 C 506.20748,522.03266 505.19275,530.48277 506.125,532.96875 C 506.46176,533.70012 509.10079,534.89313 510.75,536.65625 C 513.64227,539.74832 514.76288,542.85169 515,544.46875 C 515.625,548.73115 514.72037,548.68913 513.65625,547.625 C 513.3107,547.27944 509.31484,545.30387 506.40625,544.375 C 501.8442,542.91806 499.53902,542.79599 498.78125,538.4375 C 497.87345,533.21612 496.75532,532.9026 495.625,532.25 C 495.625,532.25 493.778,530.63007 491.9375,532.875 C 490.87298,534.17344 489.94768,541.86481 489.375,542.4375 C 488.36865,543.44385 487.35973,539.29608 487.0625,538.34375 C 483.1747,524.42665 480.5089,522.67347 480.875,521.125 C 481.36328,521.11328 481.82695,521.11107 482.28125,521.125 C 478.06617,520.74012 473.97915,521.32612 470.0625,522.375 C 465.69402,530.729 461.24902,536.50097 460.625,537.125 C 459.99688,537.75312 459.84374,538.65625 457.59375,539.15625 C 455.83636,539.54678 453.3186,538.49509 448.65625,537.0625 C 439.36839,534.20864 435.84774,534.73338 432.375,536.25 C 428.03226,538.14656 426.15165,537.58408 418.0625,535.25 C 418.0625,535.25 410.24331,533.28622 409.28125,533.65625 C 407.65625,534.28125 406.28124,536.875 406.28125,536.875 C 403.06721,540.98179 400.15605,543.24205 394.9375,544.09375 C 391.09908,544.72019 387.64208,545.53038 387.6875,543.6875 C 387.75,541.15112 387.50753,539.13997 392.4375,537.9375 C 395.21213,537.26074 399.15559,534.5319 400.875,532.8125 C 402.3125,531.375 403.09374,529.5 405.09375,529.3125 C 408.89301,528.94377 421.81762,534.83795 434.03125,532.90625 C 435.40625,532.21875 437.74999,531 439.4375,531 C 440.06562,531 442.31249,532 443,532 C 443.5625,532 445.68749,531.375 446.8125,531.4375 C 448.96701,531.5572 449.24999,533.4375 451.8125,534.125 C 454.22225,534.77152 456.32117,534.15046 458.28125,532.84375 C 459.40625,532.09375 460.84374,527.09373 462.34375,525.09375 C 462.34375,525.09375 462.64746,524.91634 463.25,524.65625 C 455.02,527.87805 447.97969,531.96044 443.125,531.25 C 435.88621,530.625 433.0625,521.9375 413.0625,520.3125 C 402.5625,521.1875 404.625,524 401.125,523.875 C 392.39921,521.18186 397.277,517.7743 386.5625,518.15625 C 387.10242,518.14127 387.68106,518.12063 388.25,518.125 C 385.9375,526.9375 381.24999,529.625 381.25,529.625 C 381.25,529.625 381.82089,522.81279 383.625,518.3125 C 382.56858,518.39391 381.41728,518.48986 380.125,518.625 C 377.26218,518.98888 377,512.875 371,512.875 C 365.875,512.875 353.6263,517.875 347.625,517.875 C 345.37451,517.875 342.74117,516.57935 339.9375,514.96875 L 341.8125,516.0625 L 341.8125,524 L 333.46875,511.25 C 332.34245,510.65583 331.22368,510.12036 330.09375,509.6875 C 330.33638,509.84679 330.10186,509.96043 330,510.1875 C 329.66353,510.9375 324.00063,514.85734 320.65625,515.90625 C 312.64476,518.41891 312.9414,519.32589 315.125,520.75 C 321.16342,524.68819 316.81647,524.30006 310.25,529.34375 C 304.19548,533.9942 301.01892,534.84605 295.125,535.84375 C 289.99374,536.71235 285.44393,538.69104 283.625,539.75 C 279.10062,542.38407 277.68122,543.85734 270.75,538.125 C 268.04687,535.89369 264.95216,533.76542 262.375,533.78125 C 253.14379,533.83936 258.55883,530.85878 261.75,529.375 C 267.63865,526.63698 267.20304,529.47708 271.40625,533.90625 C 274.23983,536.89217 275.69621,538.5 277.625,538.4375 C 280.02687,538.35967 285.25158,533.26101 285,531.34375 C 284.46944,527.30063 280.21633,525.26875 276.03125,528.90625 C 275.24297,529.59138 274.38419,530.8125 273.125,530.8125 C 270.74965,530.8125 271.06249,527.3656 271.0625,520.8125 C 271.0625,514.0845 270.99999,511.46875 271,511.46875 C 271.12797,511.38013 271.26967,511.30301 271.4375,511.25 C 268.33904,512.03343 261.01848,515.977 257.5,515.75 C 248.2365,515.75 249.15625,510.78125 235.40625,510.65625 C 232.94475,510.65625 230.62966,510.79405 228.40625,511.03125 C 228.60489,511.04812 228.66474,511.14078 228.71875,511.3125 C 228.93478,511.99936 228.44171,515.74164 228.3125,517.75 C 228.3125,523.11482 228.3716,523.59375 225,523.59375 C 222.325,523.93551 219.6375,524.43161 218.125,524.84375 C 216.6125,525.25589 210.125,529.02895 210.125,528.71875 C 210.125,528.40854 216.125,522.43243 217.5,520.40625 C 218.875,518.38009 219.25,516.34036 219.25,515.65625 C 219.25,515.02571 219.09375,512.6875 219.09375,512.6875 C 215.30792,513.60695 211.79583,514.74434 208.4375,515.84375 C 208.77004,515.75295 209.02398,515.68999 209.125,515.6875 C 209.21844,515.68161 209.24582,515.75158 209.25,515.78125 C 210.04979,521.45605 204.90202,530.13011 203.71875,533.03125 C 201.18143,539.25226 201.56861,534.08285 200.9375,530.71875 C 199.70626,524.15572 198.4936,518.78676 200.4375,518.3125 C 196.08997,519.51869 191.74954,520.33869 187.0625,520.1875 C 184.69069,519.94424 182.68219,519.64602 180.9375,519.28125 C 181.12726,519.32927 181.24726,519.36631 181.25,519.40625 C 181.20948,520.10079 176.81484,524.15315 174.75,525.8125 C 169.9479,529.67157 167.06971,534.7488 165.46875,541.6875 C 164.38089,546.40234 164.17412,549.40395 162.03125,549.6875 C 162.03125,549.6875 158.06392,549.0625 156.6875,549.0625 C 154.9375,549.0625 152.625,549.125 150.375,549.875 C 147.29977,550.90008 141.02466,557.9652 138.75,558.9375 C 137.625,559.4375 135.85041,560.03791 135.1875,559.375 C 134.75,558.9375 135.726,554.8833 135.625,553.375 C 135.4375,547.5 133.3125,543.90625 133.3125,543.90625 C 132.09781,538.93815 132.8396,535.78541 134.875,533.75 C 136.76863,531.85638 137.98739,531.86387 140.34375,532.9375 C 140.34375,532.9375 142.81291,534.1524 142.71875,535.03125 C 142.53125,536.78125 139.6875,538.625 139.6875,538.625 C 134.91181,542.6011 136.82439,543.6875 140.375,543.6875 C 143.95733,543.6875 146.21654,540.99394 151,533.53125 C 155.29757,526.82656 157.58835,523.49327 157.8125,515 C 157.88208,512.3635 157.26252,509.53537 158.4375,509.625 C 155.98751,509.43793 152.92316,509.43494 148.96875,509.71875 C 142.55078,508.26562 137.34588,499.57903 127.59375,499.71875 z M 718.65625,521.78125 C 719.66252,521.65584 720.66428,521.51829 721.40625,521.40625 C 720.52911,521.55365 719.61577,521.68117 718.65625,521.78125 z M 721.40625,521.40625 C 724.48191,520.94183 725.49999,520.625 725.5,520.625 C 726.0273,520.42367 726.45928,520.25475 726.96875,520.0625 C 725.21501,520.59712 723.41417,521.06883 721.40625,521.40625 z M 321.5,508.625 C 314.88941,508.74989 309.35058,509.55486 304.75,510.53125 C 304.96486,510.48383 302.1136,514.89759 300.59375,516.4375 C 299.06404,517.98739 297.49999,519.65242 298,520.375 C 299.60716,522.69761 312.79728,516.84271 318.6875,512.40625 C 320.4683,511.06496 322.21484,508.83048 323.5625,508.625 C 322.87147,508.62317 322.16943,508.61235 321.5,508.625 z M 327.46875,508.90625 C 328.26729,509.11294 328.87884,509.28345 329.28125,509.40625 C 328.67566,509.2029 328.06957,509.03295 327.46875,508.90625 z M 163.28125,510.4375 C 163.71699,510.60576 164.06233,510.77352 164.3125,510.96875 C 165.78932,512.12127 162.93626,519.93402 161.6875,523.125 C 159.48476,528.75371 157.71847,531.61356 159.21875,532.625 C 159.75505,532.98656 162.76726,529.76711 166.4375,526.125 C 170.53933,522.05461 172.63743,518.34375 174.59375,517.78125 C 174.88978,517.65234 174.81379,517.49604 176.125,517.90625 C 169.58993,515.44982 168.85777,512.06335 163.28125,510.4375 z M 304.34375,510.625 C 303.1662,510.88056 302.01904,511.13857 300.96875,511.40625 C 302.01174,511.14848 303.09065,510.90406 304.34375,510.625 z M 275.53125,511.53125 C 276.36725,512.40566 275.99999,515.99765 276,517.46875 C 276,525.28175 278.82882,526.03571 286.8125,518.625 C 289.27262,516.34144 289.80501,514.81761 295.59375,512.90625 C 292.57852,513.80008 290.30822,514.5 288.875,514.5 C 285.3128,514.50616 279.70416,512.43075 275.53125,511.53125 z M 743.84375,514.1875 C 741.71841,514.80392 739.81699,515.43509 738.0625,516.0625 C 740.29172,515.3088 742.243,514.68098 743.84375,514.1875 z M 206.5625,516.4375 C 205.83062,516.67626 205.09812,516.92706 204.375,517.15625 C 204.67046,517.06834 205.07973,516.93018 205.28125,516.875 C 205.47281,516.789 206.06485,516.60421 206.5625,516.4375 z M 125.59375,518.4375 C 125.72797,518.44019 125.8125,518.47656 125.875,518.5625 C 127.1875,520.4375 118.875,521.875 118.25,524.21875 C 117.93749,525.62503 118.56902,527.21948 121.3125,528.9375 C 125.3931,531.49285 126.33545,534.49445 123.375,537.5 C 121.9089,539.69976 121.80604,543.73094 124.21875,545.28125 C 125.40322,546.14174 128.34375,546.96572 128.34375,547.71875 C 128.34375,548.63459 127.59946,548.75973 124.53125,549.625 C 122.93648,550.47616 122.09314,550.64621 121.4375,550.65625 C 121.4375,550.65625 119.64406,550.85632 118.59375,550.59375 C 117.09374,550.21875 107.21875,545.90625 104.5,544.21875 C 104.22186,544.04733 103.34032,543.29668 102.9375,543.15625 C 100.21157,542.20599 97.019579,543.58046 95.15625,544.65625 C 92.049816,546.44975 87.432739,549.33898 86.53125,548.4375 C 85.363629,547.2699 86.061428,542.36173 93.4375,540.4375 C 95.662993,539.85693 98.269313,538.73334 99.1875,537.71875 C 99.1875,537.71875 99.546316,537.35638 99.90625,536.96875 C 100.71875,536.09375 102.78125,530.75 105.78125,527.71875 C 106.15611,527.34102 106.96875,527.1875 106.96875,527.1875 C 107.7596,526.89813 109.60832,526.60023 111.25,525.8125 C 112.24193,525.36349 111.89389,524.12928 113.5625,522.9375 C 114.39477,522.42233 116.85803,520.61816 118.125,520.53125 C 121.98047,520.20312 124.65424,518.4187 125.59375,518.4375 z M 178.34375,518.625 C 178.74285,518.74769 179.1253,518.85173 179.5,518.9375 C 179.09617,518.8378 178.71535,518.73046 178.34375,518.625 z M 9.46875,521.84375 C 2.6049154,523.05818 -3.653438e-17,526.875 0,526.875 L 0,529.84375 C 0.10232898,528.4624 0.55293118,527.97832 2.25,526.28125 C 4.0345453,524.25991 7.0441958,522.27713 9.46875,521.84375 z M 501.6875,522.5 C 501.20659,522.61262 500.77557,522.74387 500.375,522.875 C 500.83289,522.72665 501.32119,522.60731 501.78125,522.5 C 501.75294,522.50648 501.71551,522.49344 501.6875,522.5 z M 500.375,522.875 C 499.87949,523.03722 499.45798,523.2313 499.0625,523.40625 C 499.48683,523.21034 499.91711,523.02335 500.375,522.875 z M 499.0625,523.40625 C 496.6788,524.46076 495.85813,525.56008 493.875,524.875 C 492.81942,524.26084 491.76921,523.76681 490.71875,523.3125 C 491.79585,523.94994 492.36718,524.51171 492.53125,524.6875 C 493.60499,525.83794 492.99411,529.71377 495.59375,529.84375 C 496.84375,529.90625 496.58823,524.95764 497.875,524.0625 C 498.23438,523.8125 498.63817,523.60216 499.0625,523.40625 z M 469.46875,522.53125 C 468.3936,522.83323 467.32501,523.17219 466.28125,523.53125 C 467.12649,523.2471 468.24548,522.90253 469.46875,522.53125 z M 182.9375,522.78125 C 183.19336,522.76497 183.43364,522.80078 183.65625,522.875 C 186.7063,523.8125 181.45755,526.5125 179.09375,529.125 C 176.72996,531.7375 174.11302,536.74762 173.21875,537.03125 C 171.88571,537.45404 171.875,535.72166 171.875,534.75 C 171.875,532.87484 179.09967,523.02545 182.9375,522.78125 z M 376.125,524.28125 C 376.47518,524.28382 376.6869,524.34285 376.75,524.4375 C 377.25,525.1875 375.51318,527.60229 374.8125,527.8125 C 374.1875,528 365.91747,528.19495 365.4375,526.875 C 365.21875,526.27344 373.67373,524.26329 376.125,524.28125 z M 754.25,526.625 C 755.34356,526.63124 758.29755,527.2801 758.875,529.375 C 759.38448,531.22325 757.49999,530.30923 757.5,531.65625 C 757.5,533.84119 757.67007,533.97391 760.125,535.46875 C 761.14041,536.08705 764.47664,534.27422 765.875,539.4375 C 766.42426,541.46558 768.37166,548.91541 767.3125,548.75 C 766.9,548.68558 763.06127,546.27252 759.6875,545.75 C 746.60051,543.73282 750.02347,540.88908 752.625,539.28125 C 753.20544,538.92249 753.68749,537.34991 753.6875,535.71875 C 753.6875,533.47541 753.38997,532.90484 751.4375,532.375 C 745.41364,530.74031 747.63858,528.40342 750.71875,527 C 751.55238,526.62017 753.52095,526.62084 754.25,526.625 z M 53.9375,527.46875 C 53.937499,527.46876 61.562828,537.09342 57.90625,539.5625 C 55.862508,540.76216 48.90625,533.1875 48.90625,533.1875 C 48.906251,533.1875 53.9375,527.46875 53.9375,527.46875 z M 559.28125,528 C 557.80694,528.38665 556.4096,528.75179 555.09375,529.09375 C 557.46778,528.54175 558.77276,528.15324 559.28125,528 z M 617,529.75 C 616.48243,529.75 616.01802,530.05116 615.5625,530.46875 C 615.67846,530.36549 615.79024,530.28504 615.90625,530.21875 C 618.34375,533.34375 617.11123,534.27108 618.21875,536 C 619.50299,538.25645 620.44541,538.8125 623.53125,537.5625 C 625.72647,536.67326 626.90859,539.92323 628.25,542.75 C 629.1899,544.7307 629.41119,545.93795 630.375,545.9375 C 632.28643,545.93661 635.50882,542.73476 642.40625,540.21875 C 646.30749,537.97258 646.7989,535.60206 646.84375,535.34375 C 642.45336,535.96237 637.72266,536.51953 632.625,537 C 628.625,537 622.5,530.125 617,529.75 z M 106.46875,529.875 C 105.41431,529.81219 101.70703,536.41016 102.9375,536.21875 C 103.00272,536.24484 103.18399,536.25 103.25,536.25 C 105.21408,536.25 106.72997,532.19738 106.75,530.34375 C 106.73047,530.02344 106.61938,529.88397 106.46875,529.875 z M 615.21875,530.8125 C 614.77017,531.28835 614.34683,531.82878 613.90625,532.34375 C 614.40435,531.78136 614.84531,531.22636 615.21875,530.8125 z M 716.78125,530.96875 C 720.32188,530.98558 722.65624,533.125 722.65625,533.125 C 724.13617,534.20508 723.56893,535.82626 727.1875,535.78125 C 728.96861,535.75871 733.24999,537.76259 733.375,539.5625 C 733.44537,540.57578 721.69234,546.08279 718.875,546.0625 C 717.70596,546.05408 713.30905,544.49235 712.53125,544 C 711.37531,543.26827 714.0055,542.44352 716.34375,540 C 717.86614,538.40906 719.02501,535.50754 718.09375,534.21875 C 717.78125,533.65625 714.43749,531.125 716.0625,531 C 716.30898,530.98104 716.54521,530.96763 716.78125,530.96875 z M 349.59375,531.875 C 350.06593,531.8629 350.31249,532.25 350.3125,532.25 C 350.5,533.625 342.59374,543.8125 344.21875,543.625 C 344.93597,544.01193 345.54851,544.11403 346.5,543.6875 C 348.3125,542.875 348.43749,540.6875 359.625,536.4375 C 359.625,536.4375 360.99958,535.93247 363.25,535.75 C 365.5625,535.5625 366.67774,536.49888 366.625,537.4375 C 366.4375,538.96875 362.68749,540.22656 358.0625,542.96875 C 353.3785,545.74592 350.12499,549.25 349.625,550.75 C 348.93283,552.8265 348.23788,554.59048 349.15625,558.25 C 350.12494,562.11009 351.07416,564.72092 350.40625,565.21875 C 349.34863,566.00704 335.2389,568.9375 330.4375,568.9375 C 327.27124,568.9375 322.57414,567.2443 317.875,564.53125 C 311.94859,561.10964 310.68695,560.42722 309.15625,558.40625 C 307.13209,554.74089 307.28522,552.12612 307,547.5625 C 306.875,545.5625 307.62499,545.625 307.625,545.625 C 309.5,546.1875 308.15624,554.84375 310.46875,553.71875 C 311.94313,553.04071 312.41478,551.1774 313.125,549.65625 C 313.8545,548.05512 315.81289,546.34375 318.53125,546.34375 C 321.22809,546.34375 322.73921,545.59522 323.15625,544.28125 C 323.92633,540.42445 320.61547,539.4868 318.5625,539.75 C 316.125,540.0625 314.01452,541.57138 312.6875,542.1875 C 310.9375,543 310.79283,542.10689 311.3125,541.5625 C 314.5,538.3125 317.81266,538.0188 318.875,538 C 324.9375,538.125 325.69694,543.18895 326.5,543.3125 C 328.125,543.5625 328.81249,539.875 328.8125,539.875 C 329.6506,535.79384 331.68758,531.28431 334.4375,532.0625 C 334.58359,532.10384 334.70275,532.14026 334.8125,532.25 C 336.3505,533.788 336.20026,536.23065 336.28125,538.8125 C 336.52441,546.56537 335.95437,548.23864 337.53125,548.84375 C 338.88909,548.74992 339.3854,547.35213 339.9375,546.5 C 342.8125,542.0625 344.24999,536.875 348.5,532.5 C 348.95177,532.03039 349.31044,531.88226 349.59375,531.875 z M 188.59375,537.84375 C 188.84643,537.82378 189.12815,537.85879 189.40625,537.96875 C 193.27288,539.49757 193.2063,544.15428 192.78125,548.875 C 191.96766,557.91094 197.76953,558.80931 207.46875,548.875 C 210.53822,545.73114 211.15018,543.17863 214,542.40625 C 215.56633,541.98175 216.9375,544.6417 216.9375,547.0625 C 216.9375,550.74433 213.57865,556.47653 208,556.53125 C 206.56398,556.54518 204.63392,558.67141 202.71875,559.96875 C 198.6808,562.70409 197.00491,564.06769 192.8125,560.65625 C 190.21818,558.54521 188.05456,558.36412 185.53125,561.25 C 181.7815,565.53854 177.9212,564.70753 174.4375,563.90625 C 170.52222,562.90047 168.80446,560.36359 169.59375,559.65625 C 174.98297,554.82657 178.32178,559.22867 180.15625,559.0625 C 182.12943,558.96429 182.63488,557.99082 185.21875,554.40625 C 187.3602,551.43545 187.8419,548.77263 186.625,545.375 C 185.61241,542.54781 184.63752,537.73355 188.59375,537.84375 z M 681.625,538.34375 C 681.34713,538.3513 681.01091,538.56003 680.59375,538.90625 C 679.83442,539.53643 679.15356,541.47171 678.46875,543.125 C 677.35022,545.8254 677.26689,546.13305 679.34375,548.34375 C 683.17684,552.42394 684.80289,552.8028 682.71875,546.75 C 680.88446,541.42286 683.33359,539.1336 681.625,538.34375 z M 384.53125,538.84375 C 384.96371,538.80554 385.27283,538.85405 385.375,539 C 386.25,540.25 385.14485,545 384.25,545 C 383.375,545 380.49999,542.125 380.8125,540.5 C 380.95106,539.77949 383.23388,538.95837 384.53125,538.84375 z M 291.71875,538.875 C 293.27689,538.86258 294.8888,539.16908 295.375,540 C 296.0625,541.0625 293.49708,542.59668 292.5625,542.5 C 290.75,542.3125 287.54427,541.23279 288.4375,539.625 C 288.65625,539.21875 290.1606,538.88742 291.71875,538.875 z M 354.875,540.625 L 350.28125,544.03125 C 350.27847,544.04188 350.28392,544.05191 350.28125,544.0625 C 350.00922,545.13819 350.25395,546 350.84375,546 C 350.96034,546 351.0213,546.07777 351.0625,546.1875 L 355.71875,541.78125 C 355.32157,541.6087 355.09045,541.27395 355.03125,540.8125 L 354.875,540.625 z M 108.125,541.1875 C 107.49403,541.17739 106.67006,541.53424 106.6875,542.40625 C 106.71875,543.96875 119.40625,549.6875 120.3125,548.9375 C 120.3125,548.67487 120.30577,548.3864 120.3125,548.09375 C 120.33755,547.00517 118.95824,546.26441 116.84375,545.84375 C 115.40078,545.55668 112.70162,544.85696 111.46875,543.5 C 110.06235,541.95205 108.96011,541.20088 108.125,541.1875 z M 735.5,543.71875 C 740.09177,543.71875 737.90872,546.85657 735.6875,550.5 C 731.82766,556.83116 732.01356,557.10398 740.625,557.3125 C 743.81557,557.3892 753.38533,558.95592 753.53125,560.28125 C 753.64656,561.32866 746.89821,561.80036 744.21875,562.375 C 741.53927,562.94967 736.0618,565.47349 732,567.6875 C 727.80936,569.97171 725.87171,571.9375 721.375,571.9375 C 719.62326,571.9375 717.30803,571.81036 716,572.1875 C 707.81183,574.54834 699.11754,578.77679 696.125,576.75 C 694.45231,575.61712 700.95612,572.80361 705.6875,570.59375 C 711.31623,567.96476 714.49999,565.6937 714.5,564.40625 C 714.5,561.09004 710.14765,562.21187 702.125,566.84375 C 697.13836,569.72279 691.75897,573.53821 689.71875,572.1875 C 687.49956,570.71832 697.21479,556.28668 700.65625,553.71875 C 700.65625,553.71875 703.36335,551.38313 705.375,550.46875 C 706.0625,550.15625 708.46874,549.40625 714.46875,551.21875 C 724.82526,554.33938 725.39188,554.10216 728.5,548.71875 C 730.71624,544.88011 733.9734,543.62453 735.5,543.71875 z M 154.25,544.0625 C 153.28778,544.04992 152.14409,544.13389 150.8125,544.3125 C 145.57466,545.01503 143.06334,547.2743 144.6875,549.875 C 144.80989,550.07098 144.92028,550.26066 145,550.4375 C 145,550.4375 148.95964,547.6901 150.5,547.25 C 152.25,546.75 156.84375,546.71875 156.84375,546.71875 C 156.84375,546.71875 157.17494,546.71545 157.25,546.625 C 158.49357,545.12659 157.13666,544.10023 154.25,544.0625 z M 562.1875,544.15625 C 560.79333,544.26708 559.65121,545.64596 560.46875,546.96875 C 561.31595,548.3396 565.5594,547.92906 565.3125,546.5 C 565.21748,545.95 564.44608,545.06888 563.59375,544.53125 C 563.13104,544.23938 562.65221,544.11931 562.1875,544.15625 z M 372.90625,544.3125 C 377.84454,544.3125 378.32738,543.87509 385.03125,549.5 C 390.76859,554.31395 396.60839,554.61249 404,550.78125 C 409.98627,547.67842 410.35834,545.42434 413.09375,545.9375 C 414.97305,546.29009 421.71874,547.63971 421.71875,548.40625 C 421.71875,549.42108 414.85676,551.76773 410.09375,554.3125 C 402.83772,558.18923 403.11516,558.68627 393.375,558.625 C 389.32107,558.59982 382.49186,558.83372 377.875,559.9375 C 365.00866,563.01352 362.66357,561.85664 362.125,560.1875 C 360.5115,555.187 363.40485,555.4375 368.09375,555.4375 C 370.70626,555.4375 373.85872,555.61003 374.1875,555.28125 C 375.41677,554.05199 371.84928,551.02145 367.8125,549.8125 C 358.92536,547.15096 364.46461,544.3125 372.90625,544.3125 z M 22.4375,544.46875 L 28.625,548.8125 C 34.285544,551.68565 34.84334,551.34204 41.5,551.125 C 50.450318,550.83521 50.750962,551.6079 61.34375,556.46875 C 67.51603,559.30109 71.141028,561.3125 72.78125,561.3125 C 74.171473,561.3125 76.455321,560.94816 78.375,559.21875 C 86.077293,552.27368 86.905762,557.5161 82.34375,566.25 C 81.138649,568.55715 81.837744,569.25523 87.3125,570.21875 C 93.427472,571.29494 95.996079,575.0445 89.75,576.96875 C 76.244473,579.98998 64.272302,584.8693 49.875,579.625 C 45.162933,578.28558 43.616374,577.69136 41.03125,577.25 C 36.78125,576.5 33.0625,576.0625 31.1875,574.8125 C 27.832821,573.02526 20.5,566.125 20.5,566.125 C 19.375,565.5625 19.994203,564.28763 21.3125,562.4375 C 23.739779,559.04217 22.229533,556.68164 17.625,554.09375 C 15.446346,552.86925 12.172577,551.32602 12.34375,550.8125 C 12.514924,550.29899 14.588556,549.11354 16.5625,547.96875 L 22.4375,544.46875 z M 814.96875,544.6875 C 815.16333,544.65899 815.3272,544.68371 815.5,544.71875 C 816.29574,544.88013 818.85004,551.57092 821.40625,557.09375 C 823.96246,562.61661 826.89343,568.15576 828.125,569.25 C 832.99495,573.57695 829.98612,574.40981 825.3125,576.53125 C 820.46123,578.73333 818.04694,578.82002 813.875,577.1875 C 809.12066,575.32707 801.31249,570.71107 801.3125,568.875 C 801.3125,568.29903 802.67845,563.77664 803.8125,559.96875 C 805.84837,553.13269 808.55002,547.49021 814.96875,544.6875 z M 546.84375,545.0625 C 548.08455,544.80782 552.20722,547.49501 552.375,548.25 C 552.625,549.375 551.24999,552 550.5,552 C 549.375,552 546.12499,547 546.5,545.375 C 546.53928,545.20478 546.66649,545.09888 546.84375,545.0625 z M 454.53125,545.09375 C 455.31065,545.07762 456.0378,545.09845 456.75,545.125 L 457.6875,545.1875 C 459.70428,545.32622 461.82842,546.16064 462.84375,546.6875 C 464.0451,547.31088 467.47454,548.72771 470.71875,551.875 C 478.64992,559.56919 480.54646,559.15963 481.25,557 C 482.12026,554.32868 483.71492,555.28123 484.75,555.28125 C 487.21741,555.28125 490.06366,553.97154 486,552.53125 C 476.17614,549.04937 488.12506,551.25163 490.0625,547.96875 C 490.57181,547.10575 494.26088,547.03127 497.6875,547.03125 C 502.29471,547.03125 506.60023,549.5348 511.34375,551.875 C 515.91177,554.12863 515.75613,557.27326 527.5,556.65625 C 534.60623,556.28291 537.61433,555.38576 540.6875,559.15625 C 541.96531,560.72402 536.24474,561.4055 530.28125,563.65625 C 520.72953,567.26132 517.7832,568.86292 518.90625,570.875 C 519.65576,572.21786 533.39911,571.96947 539.09375,569.09375 C 544.80543,566.20945 548.89124,565.77557 552.75,569.28125 C 555.29605,571.59435 556.56604,571.48001 561.28125,570.46875 C 565.23575,569.62064 567.62473,567.59319 571.1875,564.15625 C 577.53001,558.03777 578.14101,556.43566 584,555.375 C 586.0226,555.00884 582.55696,564.90743 580.25,569.71875 C 578.16917,574.05845 577.49999,578.91705 577.5,579.96875 C 577.5,587.40285 575.03793,582.36552 570.0625,579.34375 C 566.02329,576.89057 560.12065,576.23279 553.75,579.9375 C 549.07465,582.65633 545.22081,580.63834 540.34375,578.40625 C 537.44177,577.07809 533.96964,577.58162 528.65625,577.53125 C 519.45494,577.44396 519.2567,577.37807 504.03125,582.46875 C 483.44597,589.3515 478.99237,589.31886 475.4375,584.71875 C 474.31194,583.26223 472.76953,580.06304 472.21875,577.875 C 469.14483,565.66346 468.08794,566.97054 464.71875,572.25 C 462.02273,576.47463 456.15499,578.40012 450.375,576.34375 C 445.94128,574.76635 445.90379,576.97858 441.125,578.71875 C 437.04195,580.20554 432.87774,583.60251 430.28125,586.03125 C 428.39458,587.79602 427.30412,588.67554 426.78125,589.59375 C 426.78125,589.59375 424.29123,592.92872 423.59375,592.8125 C 422.53309,592.63572 423.04334,591.30003 423.0625,589.1875 C 422.98683,588.68173 422.4672,588.52327 421.90625,588.65625 C 421.90625,588.65625 418.04505,589.40974 417.6875,588.75 C 417.17821,588.01953 418.60535,586.69889 419.09375,585.625 C 419.71572,584.48572 420.02865,583.26263 420.1875,582 C 420.33993,580.78832 420.00705,578.20834 419.46875,575.8125 C 418.59999,571.94589 416.24469,570.68645 421.125,568.25 C 422.96635,567.33071 424.05111,566.00119 425.59375,565.09375 C 427.09635,564.20986 429.28126,563.46872 429.28125,563.46875 C 437.85492,560.11 444.09206,561.08917 446.125,558.4375 C 446.73754,557.63853 445.23568,555.44256 444.53125,554.15625 C 443.51479,552.30009 442.33434,550.98542 441.53125,550.375 C 440.51479,549.35854 437.18749,551.15624 437.1875,551.15625 C 433.3868,552.87982 429.94083,556.65538 428.84375,556.9375 C 427.29695,557.33525 426.95075,556.34948 427.1875,555.78125 C 427.85041,554.19026 432.69094,549.17845 436.90625,548.09375 C 440.97211,546.72373 442.24288,547.44536 445.6875,546.21875 C 448.432,545.30777 451.84454,545.14937 454.53125,545.09375 z M 293.375,546.6875 C 293.74432,546.6432 294.08931,546.67669 294.21875,546.875 C 294.68851,547.59474 291.39696,549.86386 289.875,552.5 C 288.34066,555.15756 287.17736,559.20674 286.84375,562.09375 C 286.16804,567.94098 289.2994,574.7008 280.75,567.875 C 277.28727,565.11037 271.48936,568.84664 278.90625,555.5 C 282.00816,549.91813 290.22726,546.68508 293.375,546.6875 z M 95.40625,546.96875 C 96.51984,546.94045 98.479549,547.0267 98.21875,548 C 98.084609,548.50062 96.364686,550.69782 95.5,551.5625 C 94.308229,552.75427 91.442866,553.53661 90.625,552.71875 C 89.832595,551.92634 91.952668,547.7328 94.6875,547 C 94.756704,546.99041 95.035057,546.97818 95.40625,546.96875 z M 229.25,547.0625 C 230.31462,547.0625 232.85564,547.69635 234.46875,549.40625 C 236.75814,551.83301 237.66173,552.9598 241.5,550.4375 C 244.72598,548.31756 248.51411,548.71452 252.21875,549.53125 C 259.55454,551.14851 257.40866,558.7229 251.5,554.25 C 249.43439,552.68631 247.12248,554.61021 245.21875,556.1875 C 241.14489,559.56279 240.46141,559.83526 234.59375,556.375 C 231.80852,554.73251 229.19934,555.43354 225.65625,557.03125 C 223.56176,557.97573 220.0412,560.83546 217.28125,563.96875 C 209.83877,572.41798 208.16191,570.22515 208.1875,567.1875 C 208.19561,566.225 208.88311,563.54705 209.5625,562.3125 C 210.90107,559.88012 227.56929,547.0625 229.25,547.0625 z M 461.90625,549.78125 C 460.61501,549.86217 459.22105,551.27894 455.84375,554.65625 C 453.87771,556.67419 450.25194,559.52074 448.75,560.09375 C 443.94017,562.31367 429.18583,563.32336 431.21875,566.59375 C 432.84673,568.75678 439.58752,568.647 444.59375,564.90625 C 448.19855,562.2127 449.0995,561.50859 454.96875,560.09375 C 461.0737,558.62211 466.3163,553.34126 465.375,552.0625 C 464.93138,551.45984 464.06331,550.56688 463.0625,550.03125 C 462.69754,549.83593 462.33665,549.75428 461.90625,549.78125 z M 659.71875,553.34375 C 659.90774,553.31369 660.06627,553.33001 660.1875,553.375 C 660.9375,553.75 661.62499,558.75 660,559.25 C 654.01623,561.09116 652.06249,564.3125 650.125,564.8125 C 648.74499,565.16863 646.41616,564.46032 646.75,563.125 C 646.98438,562.1875 656.88383,553.79466 659.71875,553.34375 z M 630.8125,555.25 C 629.04591,555.25 628.16295,556.58314 629,557.9375 C 630.08749,559.6971 631.37499,559.25781 632.125,557.1875 C 632.49966,556.15327 631.60503,555.25 630.8125,555.25 z M 770.25,557.15625 C 770.37187,557.14438 770.51431,557.14904 770.65625,557.15625 C 771.60243,557.20432 777.33544,558.83343 779.03125,559.8125 C 783.59772,562.44895 785.40309,566.61807 784.90625,568.78125 C 784.62675,569.9981 779.42194,568.40384 775.3125,566.03125 C 770.34255,563.16185 768.78633,561.58866 769.4375,557.5 C 769.47807,557.24524 769.88438,557.19187 770.25,557.15625 z M 305.65625,558.8125 C 305.92028,558.72761 306.24999,558.8125 306.625,559.1875 C 309.65932,566.15932 319.56249,567.8125 318.6875,568.8125 C 318.07704,569.62644 316.87499,570.125 314.875,569.8125 C 311.57201,569.37063 305.49999,565.125 305,559.875 C 304.96101,559.54354 305.21621,558.95398 305.65625,558.8125 z M 519.09375,560.375 C 517.72476,560.36094 515.80638,560.41134 514.53125,561.34375 C 511.94789,563.23274 513.49102,565.34148 516.84375,564.5 C 518.29315,564.13624 520.03421,563.3806 520.71875,562.8125 C 522.64706,561.21216 521.37542,560.39841 519.09375,560.375 z M 401.75,560.8125 C 401.75,560.8125 403.18749,561.4375 403,562 C 402.86236,562.41293 401.27027,563.2048 399.1875,564.34375 C 397.10472,565.4827 396.59374,566.21875 395.9375,566.25 C 395.06126,566.29173 394.56249,565.6875 394.6875,565.375 C 395.23088,564.01656 396.99999,561.625 401.75,560.8125 z M 485,563.5625 C 484.73955,563.54551 484.48352,563.5655 484.25,563.59375 C 483.31591,563.70665 482.43075,563.78347 481.21875,564.6875 C 479.72569,565.80114 478.35,567.51303 478.15625,568.5 C 477.84028,570.10935 478.81987,569.89999 483.90625,569.375 C 487.0255,569.05307 489.77547,568.59066 490.5625,567.9375 C 492.83998,566.04736 492.90692,565.26102 488.59375,563.96875 C 487.24252,563.56391 485.78136,563.61345 485,563.5625 z M 27.21875,565.28125 C 27.008967,565.28373 26.833694,565.41525 26.6875,565.75 C 26.6875,565.75 25.880616,566.43644 26.53125,567.5625 C 29.725191,570.9906 30.839869,572.37306 33.15625,573.53125 C 35.28125,574.59375 45.46875,575.75 46.25,575.25 C 47.54456,573.33044 46.185499,573.34334 39.6875,572.53125 C 32.685957,571.65623 32.449664,571.30522 30.375,568.8125 C 29.525362,567.87279 28.127811,565.27048 27.21875,565.28125 z M 381.625,566.125 C 382.3125,566.3125 382.82263,567.04222 382.625,567.4375 C 382.375,567.9375 380.37943,568.75 379.9375,568.75 C 379.1875,568.75 378.76687,568.25182 378.8125,567.75 C 378.875,567.0625 381.62499,566.125 381.625,566.125 z M 753.40625,566.53125 C 755.61436,566.44495 756.00481,567.2283 756.25,567.625 C 757.01644,568.86517 750.68384,575.32018 748.8125,575.25 C 747.14588,575.1875 747.06249,573.09488 747.0625,572.375 C 747.0625,570.10583 749.96753,566.77963 752.9375,566.5625 C 753.10801,566.55003 753.25354,566.51835 753.40625,566.53125 z M 65.84375,571.90625 C 64.569231,571.85896 63.241836,572.23114 61.5,572.84375 C 59.330956,573.60661 57.431912,574.17301 57.21875,574.8125 C 56.678872,576.43212 61.239401,577.97888 66.8125,578.0625 C 73.407607,578.28141 85.554991,575.97823 85.78125,574.28125 C 86.235317,571.64985 85.535623,571.25597 80.09375,573.3125 C 74.173903,575.54966 74.19898,575.45173 69.875,572.875 C 67.80434,571.64106 67.118273,571.95354 65.84375,571.90625 z"
     id="path2386"
     style="fill:#91d9f8;fill-opacity:1;stroke:#000000;stroke-width:0;stroke-miterlimit:0;stroke-opacity:1" />
</svg>
