<?xml version="1.0" encoding="UTF-8" standalone="no"?>
<!-- Created with Inkscape (http://www.inkscape.org/) -->
<svg
   xmlns:svg="http://www.w3.org/2000/svg"
   xmlns="http://www.w3.org/2000/svg"
   version="1.0"
   width="900"
   height="600"
   id="svg2">
  <defs
     id="defs5" />
  <rect
     width="900"
     height="600"
     x="0"
     y="0"
     id="rect2392"
     style="fill:#ffffff;stroke:none" />
  <path
     d="M 712.96875,264.96875 C 712.96875,264.96875 731.9375,228.1875 731.9375,202.4375 C 731.9375,161.07855 697.31141,123.5 624,123.5 C 552.99824,123.5 496,156.0625 496,156.0625 C 496,156.0625 563.95,106 645.95,106 C 741.81598,106 748.875,159.71979 748.875,178 C 748.875,223.75068 712.96875,264.96875 712.96875,264.96875 z"
     id="path2388"
     style="fill:#1ba8c4;stroke:none" />
  <path
     d="M 458,337.5 C 489.89037,337.5 513.5,350.17216 513.5,378 C 513.5,425.43267 441.77836,468 390,468 C 360.16027,468 334,456.98911 334,428 C 334,383.80007 399.79956,337.5 458,337.5 z"
     id="path2386"
     style="fill:#78b91d;stroke:none" />
  <path
     d="M 713,265 C 638.75379,404.30004 488,446 488,446 C 488,446 528.96875,398.4323 528.96875,356 C 528.96875,356 536.43239,310.9701 465.0111,310.9701 C 317.22578,314.50563 152.50305,516.00897 152.50305,516.00897 C 203.78685,364.70049 419.86538,137.90572 627.46888,137.90572 C 684.73903,137.90572 707.99067,168.05053 707.99067,204.55053 C 707.99067,261.18952 663.84069,305.04808 636.97063,331.03426 C 636.97063,331.03426 682.53542,304.59798 713,265 z"
     id="path2390"
     style="fill:#0d3594;stroke:none" />
</svg>
