<svg xmlns="http://www.w3.org/2000/svg" xmlns:xlink="http://www.w3.org/1999/xlink" viewBox="-56 -40 112 80" width="840" height="600">
<path d="M-56-40h112v80H-56z" fill="#582129"/>
<g id="e">
<path id="d" d="M0-24V4a28 28 0 0 1-28-28z" fill="#fff" transform="rotate(60 0 24)"/>
<use xlink:href="#d" transform="rotate(60)"/>
<use xlink:href="#d" transform="rotate(120)"/>
</g>
<use xlink:href="#e" transform="rotate(180)"/>
<g id="b">
<path id="a" d="M1-25L14.4-4.8A24 24 0 0 1-24-24z" fill="#582129" transform="rotate(60 0 24)"/>
<use xlink:href="#a" transform="rotate(60)"/>
<use xlink:href="#a" transform="rotate(120)"/>
</g>
<use xlink:href="#b" transform="rotate(180)"/>
<path d="M3-9a3 3 0 0 1 0 6h-6a3 3 0 0 1 0-6zM3 3a3 3 0 0 1 0 6h-6a3 3 0 0 1 0-6z" fill="none" stroke="#fff" stroke-width="4"/>
</svg>