<?xml version="1.0" encoding="UTF-8" standalone="no"?>
<!-- Created with Inkscape (http://www.inkscape.org/) -->

<svg
   xmlns:dc="http://purl.org/dc/elements/1.1/"
   xmlns:cc="http://creativecommons.org/ns#"
   xmlns:rdf="http://www.w3.org/1999/02/22-rdf-syntax-ns#"
   xmlns:svg="http://www.w3.org/2000/svg"
   xmlns="http://www.w3.org/2000/svg"
   xmlns:sodipodi="http://sodipodi.sourceforge.net/DTD/sodipodi-0.dtd"
   xmlns:inkscape="http://www.inkscape.org/namespaces/inkscape"
   version="1.1"
   id="svg2"
   width="324"
   height="216"
   viewBox="0 0 324 216"
   sodipodi:docname="Flag of Tanabe, Wakayama.svg"
   inkscape:version="0.92.3 (2405546, 2018-03-11)">
  <metadata
     id="metadata8">
    <rdf:RDF>
      <cc:Work
         rdf:about="">
        <dc:format>image/svg+xml</dc:format>
        <dc:type
           rdf:resource="http://purl.org/dc/dcmitype/StillImage" />
        <dc:title></dc:title>
      </cc:Work>
    </rdf:RDF>
  </metadata>
  <defs
     id="defs6">
    <style
       id="style839"
       type="text/css"><![CDATA[
    .fil0 {fill:#00A2E8}
    .fil1 {fill:white}
   ]]></style>
  </defs>
  <sodipodi:namedview
     pagecolor="#ffffff"
     bordercolor="#666666"
     borderopacity="1"
     objecttolerance="10"
     gridtolerance="10"
     guidetolerance="10"
     inkscape:pageopacity="0"
     inkscape:pageshadow="2"
     inkscape:window-width="1920"
     inkscape:window-height="1017"
     id="namedview4"
     showgrid="false"
     inkscape:zoom="1.1516377"
     inkscape:cx="122.40795"
     inkscape:cy="108.36375"
     inkscape:window-x="-8"
     inkscape:window-y="-8"
     inkscape:window-maximized="1"
     inkscape:current-layer="g2478" />
  <g
     id="g1121"
     transform="matrix(0.36,0,0,0.34444444,9.4362085e-6,-1.5447554e-6)"
     style="stroke-width:2.83980918">
    <rect
       style="fill:#ffffff;stroke:none;stroke-width:2.83980918"
       id="rect2487"
       y="1.1368684e-013"
       x="1.1368684e-013"
       height="630"
       width="900" />
    <path
       style="fill:#132b6b;fill-opacity:1;stroke:none;stroke-width:2.83980918"
       id="path2386"
       d="M 450,126.89129 414.56066,250.50538 295.69307,221.16847 379.15079,315.44565 295.69307,409.72282 414.56066,380.38591 450,504 l 35.40987,-123.61409 118.89706,29.33691 -83.45772,-94.27717 83.45772,-94.27718 -118.89706,29.33691 z m 0,118.71941 c 22.39352,0 42.18484,11.83099 54.11642,29.89809 1.96561,-2.41249 8.12894,-9.7248 13.28607,-12.87582 6.94236,-4.24182 35.02691,-9.63348 35.02691,-9.63348 0,0 -18.33209,23.38433 -25.21702,27.59104 -4.98714,3.04717 -14.404,4.8932 -17.38088,5.42468 3.93817,8.9464 6.15695,18.91586 6.15695,29.43044 0,36.64698 -26.72418,66.70628 -60.65635,69.58553 0.64914,1.91547 4.09482,12.35424 4.09482,19.20461 0,8.48363 -9.60367,36.91276 -9.60367,36.91276 0,0 -10.01612,-28.4993 -10.01611,-36.91276 0,-6.61732 3.80622,-17.37555 4.47779,-19.23578 -33.75084,-3.07132 -60.27338,-33.04473 -60.27338,-69.55436 0,-10.40549 2.17756,-20.27522 6.03912,-29.14986 -3.08099,-0.6248 -11.99452,-2.59418 -17.08629,-5.70526 -6.94237,-4.24182 -25.39379,-27.27928 -25.39378,-27.27928 0,0 28.31871,5.08383 35.20367,9.29054 4.86455,2.97227 10.8994,10.42973 12.99147,13.09406 C 407.68412,257.52467 427.53025,245.6107 450,245.6107 Z m 0,6.9835 c -20.02242,0 -37.72973,10.5125 -48.48973,26.59339 l 1.53188,1.15353 c 0.0159,-0.0238 0.043,-0.0386 0.0589,-0.0624 l 3.80022,2.93058 c -0.93859,1.4024 -1.80586,2.87119 -2.62186,4.36468 l 1.62025,0.99764 c 8.79933,-16.12584 25.25137,-26.99869 44.10034,-26.99869 28.09977,0 50.90538,24.13496 50.90538,53.87268 0,29.73771 -22.80561,53.87267 -50.90538,53.87267 -28.09977,0 -50.90538,-24.13496 -50.90538,-53.87267 0,-6.65933 1.14989,-13.03474 3.24051,-18.92403 l -1.76755,-0.68587 c -2.17058,6.10538 -3.35834,12.70433 -3.35834,19.6099 0,30.83911 23.65026,55.86795 52.79076,55.86795 29.1405,0 52.79077,-25.02884 52.79077,-55.86795 0,-30.83911 -23.65027,-55.86796 -52.79077,-55.86796 -17.12894,0 -32.36193,8.64918 -42.00872,22.04166 l -3.77077,-2.96175 C 414.7259,264.03961 431.31944,254.58948 450,254.58948 c 31.74233,0 57.50423,27.26356 57.50423,60.85617 0,33.5926 -25.7619,60.85616 -57.50423,60.85616 -31.74233,0 -57.50423,-27.26356 -57.50423,-60.85616 0,-7.52076 1.29089,-14.73532 3.65294,-21.38695 l -1.73809,-0.68588 c -2.44593,6.87267 -3.80023,14.29811 -3.80023,22.07283 0,34.694 26.60655,62.85145 59.38961,62.85145 32.78307,0 59.3896,-28.15745 59.38961,-62.85145 0,-34.694 -26.60654,-62.85144 -59.38961,-62.85145 z"
       inkscape:connector-curvature="0" />
    <g
       id="g2478"
       style="stroke-width:2.83980918">
      <path
         style="fill:#132b6b;stroke:none;stroke-width:2.83980918;fill-opacity:1"
         id="path2454"
         d="m 426.3125,311.625 c -11.80727,0 -21.37499,9.56775 -21.375,21.375 0,0 0,0.90625 0,0.90625 0,4.9379 8.15625,5.06543 8.15625,0 0,0 0,-0.90625 0,-0.90625 0,-7.31855 5.90019,-13.25 13.21875,-13.25 5.94634,0 10.97882,3.91861 12.65625,9.3125 l 0.375,1.25 c 2.80075,12.87098 14.25896,22 27.96875,22 15.80808,0 28.65624,-12.31693 28.65625,-28.125 0,0 0,-5.90625 0,-5.90625 -10e-6,-4.64157 -7.40625,-4.4203 -7.40625,0 -10e-6,-2e-5 0.15625,5 0.15625,5 10e-6,11.80728 -9.59898,21.40625 -21.40625,21.40625 -9.3785,10e-6 -17.33853,-6.06028 -20.21875,-14.46875 l -0.8125,-2.46875 c -2.16355,-9.27036 -9.97127,-16.12501 -19.96875,-16.125 z"
         inkscape:connector-curvature="0" />
      <path
         style="fill:#132b6b;stroke:none;stroke-width:2.83980918;fill-opacity:1"
         id="path2441"
         d="m 453.03125,285 c -2.23422,0 -4.03126,1.99982 -4.03125,4.5 v 31.84375 c -0.003,0.21875 0,0.43748 0,0.65625 0,10.1795 7.616,17.35356 17,17.35355 9.384,0 17,-6.99727 17,-17.35355 0.005,-0.22919 0,-0.45833 0,-0.6875 V 289.5 c 0,-2.50018 -1.79702,-4.49999 -4.03125,-4.5 h -0.9375 c -2.23422,0 -4.03126,1.99982 -4.03125,4.5 V 301 h -15.78125 v -11.5 c 0,-2.50018 -1.79702,-4.49999 -4.03125,-4.5 z m 5.1875,25 H 474 v 11.3125 c 0,5.1621 -2.06205,9.65625 -8,9.65625 -6.25222,-0.0603 -7.78125,-4.38158 -7.78125,-9.625 z"
         inkscape:connector-curvature="0" />
      <path
         style="fill:#132b6b;stroke:none;stroke-width:2.83980918;fill-opacity:1"
         id="rect2429"
         d="m 409.5,287 c -2.50018,0 -4.5,1.79702 -4.5,4.03125 v 0.9375 C 405,294.20297 406.99981,296 409.5,296 H 421 v 4 h -13.5 c -2.49041,0 -4.5,1.79702 -4.5,4.03125 v 0.9375 C 403,307.20297 405.00959,309 407.5,309 H 421 v 36.5 c 0,2.493 2.007,4.5 4.5,4.5 2.493,0 4.5,-2.007 4.5,-4.5 V 309 h 7.5 c 2.49041,0 4.5,-1.79702 4.5,-4.03125 v -0.9375 C 442,301.79703 439.99041,300 437.5,300 H 430 v -4 h 2.5 c 2.50018,0 4.5,-1.79702 4.5,-4.03125 v -0.9375 C 437,288.79703 435.00019,287 432.5,287 Z"
         inkscape:connector-curvature="0" />
    </g>
  </g>
</svg>
