<?xml version="1.0" encoding="UTF-8" standalone="no"?>
<!-- Created with Inkscape (http://www.inkscape.org/) -->

<svg
   xmlns:dc="http://purl.org/dc/elements/1.1/"
   xmlns:cc="http://creativecommons.org/ns#"
   xmlns:rdf="http://www.w3.org/1999/02/22-rdf-syntax-ns#"
   xmlns:svg="http://www.w3.org/2000/svg"
   xmlns="http://www.w3.org/2000/svg"
   version="1.0"
   width="900"
   height="600"
   id="svg2">
  <metadata
     id="metadata8">
    <rdf:RDF>
      <cc:Work
         rdf:about="">
        <dc:format>image/svg+xml</dc:format>
        <dc:type
           rdf:resource="http://purl.org/dc/dcmitype/StillImage" />
        <dc:title></dc:title>
      </cc:Work>
    </rdf:RDF>
  </metadata>
  <defs
     id="defs5" />
  <rect
     width="900"
     height="600"
     x="0"
     y="0"
     id="rect2441"
     style="fill:#007524;stroke:none" />
  <path
     d="m 450,120 c -1.58743,0 -3.15725,0.0283 -4.73491,0.0654 -2.89089,0.0681 -5.76404,0.22669 -8.62078,0.4253 -1.64519,0.11438 -3.29523,0.23883 -4.93083,0.39259 l 0,240.29443 -5.22472,6.28136 0,-245.9542 -0.52247,0.0654 C 334.6374,133.39525 264,210.99048 264,305.69248 264,385.33688 313.95826,453.34749 384.16853,480 l 0,-37.55725 C 333.4735,417.88539 298.48315,365.8565 298.48315,305.69248 c 10e-6,-62.20104 37.42002,-115.69416 90.9101,-139.1385 l 0,311.87568 L 450,396.73937 l 60.60674,81.69029 0,-311.87568 c 53.49824,23.43845 90.91011,76.92986 90.91011,139.1385 0,60.16402 -34.99035,112.19291 -85.68539,136.75027 l 0,37.55725 C 586.04174,453.34749 636,385.33688 636,305.69248 636,210.81044 565.0925,133.03442 473.51123,121.43948 l 0,246.01963 -5.22472,-6.28136 0,-240.29443 c -2.55522,-0.24821 -5.12291,-0.44885 -7.70646,-0.58888 -0.33933,-0.0184 -0.67247,-0.0489 -1.01228,-0.0654 -0.0325,-0.002 -0.0655,0.002 -0.0979,0 -1.54601,-0.0745 -3.11381,-0.1264 -4.66959,-0.16358 -0.0217,-5.5e-4 -0.0436,5.5e-4 -0.0653,0 -1.57766,-0.0372 -3.14747,-0.0654 -4.73491,-0.0654 z"
     id="rect2389"
     style="fill:#ffffff;stroke:none" />
</svg>
