<svg xmlns="http://www.w3.org/2000/svg" viewBox="0 0 900 600" xmlns:v="https://vecta.io/nano"><path d="M0,0h900v600H0V0z" fill="#323b97"/><path d="M450 94l40 60-40 40-40-40 40-60 28.9 150 144.3-50-115.5 100 115.5 100-144.3-50L450 494l-28.9-150-144.3 50 115.5-100-115.5-100 144.3 50L450 94z" fill="#d9c95d"/><path d="M450 110.2l28.4 42.6-22 22 15.6 81 110-38.1-105.6 91.4L450 446.4l-26.4-137.1L318 217.8l110 38.1 15.6-81-22-22 28.4-42.7zM484.6 314l16.2-14 81.1 70.2-101.4-35.1 4.1-21.1zm-69.2 0l-16.2-14-81.2 70.2 101.4-35.1-4-21.1z" fill="#fff"/></svg>