<?xml version="1.0" encoding="UTF-8"?>
<!-- Generated by Pixelmator Pro 3.4.3 -->
<svg width="515" height="515" viewBox="0 0 515 515" xmlns="http://www.w3.org/2000/svg">
    <g id="Group">
        <path id="Path" fill="#4f7582" stroke="none" d="M 365.966309 320.546295 C 364.216309 316.156311 361.581329 312.04129 358.026306 308.486298 C 344.07132 294.531311 321.44632 294.536316 307.491333 308.491302 C 293.536316 322.44632 293.531342 345.071289 307.486328 359.026306 C 311.041321 362.581299 315.156342 365.216309 319.546326 366.966309 L 256.961334 513.961304 L 241.391312 348.861298 L 256.961304 293.701294 C 266.106323 293.69632 275.251312 290.211334 282.231323 283.231323 C 289.211334 276.251312 292.69632 267.106323 292.701324 257.961304 L 360.681305 244.641296 L 512.961365 257.961304 Z"/>
        <path id="path1" fill="#38535d" stroke="none" d="M 365.966309 320.546295 C 364.216309 316.156311 361.581329 312.041321 358.026306 308.486298 C 344.07132 294.531311 321.44632 294.536316 307.491302 308.491302 L 282.231323 283.231323 C 289.211304 276.251312 292.69632 267.106323 292.701294 257.961304 L 360.681305 244.641296 L 512.961304 257.961304 Z"/>
        <path id="path2" fill="#4f7582" stroke="none" d="M 256.961334 1.961304 L 270.401306 164.161316 L 256.961334 222.231323 C 247.81633 222.226318 238.671356 225.711334 231.691345 232.691345 C 224.711334 239.671326 221.226318 248.816315 221.231354 257.961334 L 168.231339 270.411316 L 0.961327 257.961304 L 147.956329 195.376312 C 149.706329 199.766296 152.341324 203.881317 155.896347 207.43631 C 169.851334 221.391296 192.476334 221.386322 206.431335 207.431305 C 220.386337 193.476318 220.391342 170.851318 206.43634 156.896332 C 202.881332 153.341309 198.766312 150.706299 194.376328 148.956329 Z"/>
        <path id="path3" fill="#38535d" stroke="none" d="M 256.961334 1.961304 L 270.401306 164.161316 L 256.961334 222.231323 C 247.816315 222.226318 238.671326 225.711334 231.69133 232.691345 L 206.431335 207.431305 C 220.386322 193.476318 220.391342 170.851318 206.43634 156.896332 C 202.881332 153.341309 198.766312 150.706299 194.376328 148.956329 Z"/>
        <path id="path4" fill="#38535d" stroke="none" d="M 231.69281 283.229797 C 224.715317 276.252319 221.225815 267.106812 221.226334 257.961304 L 0.961327 257.961304 L 147.958313 320.545319 C 149.702316 316.156311 152.345322 312.04129 155.896805 308.489807 C 169.85231 294.534302 192.478317 294.534302 206.433823 308.489807 C 220.389313 322.445282 220.389313 345.071289 206.433823 359.026794 C 202.881821 362.578796 198.767319 365.221313 194.377823 366.964813 L 256.961334 513.961304 L 256.961334 293.696289 C 247.816315 293.69632 238.670319 290.207306 231.69281 283.229797 Z"/>
        <path id="path5" fill="#273a40" stroke="none" d="M 358.026306 207.433289 C 344.070831 221.388794 321.444824 221.388824 307.489349 207.433289 C 293.533813 193.477814 293.533844 170.851807 307.489349 156.896332 C 311.040833 153.344818 315.155823 150.701813 319.54483 148.957825 L 256.961334 1.961304 L 256.961334 222.226318 C 266.106842 222.2258 275.252319 225.715332 282.229828 232.69281 C 289.207306 239.670319 292.696838 248.815796 292.69632 257.961304 L 512.961365 257.961304 L 365.964325 195.377319 C 364.220825 199.766815 361.578308 203.881317 358.026306 207.433289 Z"/>
    </g>
</svg>
